<svg version="1.1" viewBox="0 0 300 299.35" xml:space="preserve" xmlns="http://www.w3.org/2000/svg"><g transform="matrix(.61706 0 0 -.61706 -44.585 394.15)" stroke-width="2.1607"><path d="m501.33 263.28c-0.911-1.087-2.818-0.695-3.818-0.521 1.476 2.949 4.381 5.77 2.776 9.542-0.565 1.171-1.517 2.778-2.948 2.949-10.498 3.383-23.422 5.466-34.354 1.562-2.297-1.387-4.379-3.164-5.724-5.552-5.772-1.91-9.584-7.199-12.322-12.319-18.044-1.777-36.045 2.127-53.434-0.695 1.947 3.947 4.984 7.115 7.455 10.933 19.521 28.455 33.055 61.679 38.867 97.163 1.863 13.921 3.426 27.543 3.991 41.812 0.48 26.11-0.303 54.87 0.695 81.198 1.691-0.041 0.825-1.822 1.736-2.601l11.101-16.83c3.818-10.584 9.196-20.517 11.45-31.752l5.207-26.024c0.826-12.014-0.088-21.818-0.52-34.181l-2.602-14.053c-1.693-0.867-3.122 0.869-5.033 0.519-5.941-0.304-7.158-8.327-12.321-9.542-5.029-4.205-5.94-10.104-6.94-15.96 0.566-1.13-0.257-1.867 0-3.297 2.217-7.721 6.728-16.485 15.793-17.525 0.693-0.041 1.518 0.088 1.909-0.695-0.609-1.602-1.348-3.944-3.125-4.335-4.206 1.952-8.894 2.906-12.666 5.897-4.339-0.521-4.944-5.335-6.592-8.328-1.39-0.562-3.208 0.479-4.512-0.866-3.298-4.77-7.288-9.978-5.381-16.659 0.522-3.684 4.558-4.684 7.291-5.897 16.394-4.903 33.875-2.471 50.834-6.074l18.912-5.378c-0.868-4.595-3.555-8.414-5.725-12.491m-271.36 267.02-0.175 0.174c10.022 7.027 22.254 10.238 33.488 15.097 19.866 5.506 41.16 9.67 63.5 7.112 6.724 0.175 12.36-2.168 18.565-3.297 14.573-2.298 27.415-8.717 40.775-13.879 2.384-2.039 5.765-1.561 7.806-4.337l-0.349-0.521zm131.34-311.26c-0.781-2.518-1.562-5.424 0-7.807l-1.042-0.521-16.831 0.692-0.171 0.52c11.189 8.632 22.035 18.48 32.442 28.63-2.077-8.068-9.713-14.444-14.398-21.514m-94.906-6.767c0.477 1.993 2.083 3.989 2.948 6.072l0.696 5.378c4.814-4.293 9.803-8.241 14.922-11.799-6.29-0.649-12.059 0.48-18.566 0.349m282.98 247.07c-2.863 13.577-8.328 25.591-13.185 38.342-9.023 20.216-21.299 39.69-35.742 56.564l-1.04 2.256c-7.419 6.16-13.622 13.447-21.69 18.736-6.464 4.037-9.587-6.721-15.439-3.642-1.26 4.208 4.336 6.941 3.815 11.278-5.941 10.104-17.09 14.964-26.022 21.513-12.886 8.201-26.679 13.923-40.95 19.087-22.944 8.977-47.885 13.837-73.738 15.268-17.436-0.477-35.829 0.479-52.049-5.029-33.098-6.51-63.114-20.433-91.263-38.867-2.648-2.518-5.424-5.161-6.075-8.848-0.39-4.73 4.773-7.157 4.164-11.972-0.305-1.302-1.692-2.085-2.774-2.601-4.033-1.912-6.245 2.643-9.372 3.988-7.718 2.257-12.706-5.249-18.389-9.542-22.426-25.853-43.894-53.57-57.951-83.628-13.055-27.11-19.086-58.038-19.431-89.876 0.91-16.568 1.865-33.614 5.899-49.102 2.818-4.769 2.298-11.449 8.153-14.052 7.68-6.811 19.346-2.907 27.068 1.041l0.52-0.52c-0.52-1.258-0.26-2.862-1.561-3.817-9.023-3.079-14.183-12.447-17.87-20.299-1.26-3.513-0.391-7.245 0.344-10.933 3.039-6.463 9.588-11.535 16.659-12.316 12.577 0.346 23.38 4.943 35.395 6.59l5.376-0.344c8.762-1.779 15.922 3.512 21.518 9.367 5.549 0.565 10.58 2.473 14.747 6.42 5.29 4.815 7.807 12.016 5.376 18.738-1.171 1.129-1.562 3.341-3.644 2.951-5.379-3.167-10.8-6.376-16.829-7.982-4.294 2.906-0.216 7.332 0 11.104 1.562 1.867 5.074 0.565 6.941 2.427 3.123 3.428 3.859 7.852 4.859 12.147 0.041 9.588 1.17 21.473-7.637 27.413-6.07 2.431-10.844-2.513-15.96-4.509l-1.041 0.346c-2.084 10.498-2.862 21.557-2.43 32.445-0.911 3.383 1.78 5.682 0.346 8.848 1.346 11.842 2.516 23.771 6.941 34.354 4.338 16.7 12.925 31.663 21.862 46.497 1.216 0.74 0.911 2.647 2.428 2.256 2.171-39.425-2.904-82.976 4.512-121.97 4.685-38.866 20.169-72.395 40.601-104.28 0.649-1.257 2.687-2.297 1.906-3.813-14.832-0.305-30.84-0.911-45.458-0.176l-2.081 8.153c-3.384 10.109-14.227 13.926-23.596 15.444-7.807 0.131-16.049 0.131-22.383-3.819-4.294-3.773-0.171-9.149 1.041-13.182-1.257-1.216-3.904-1.391-5.551-0.521-2.082 4.294-3.212 8.978-4.164 13.703-3.122 0.48-7.026 0.655-10.063-0.171-7.201 0-8.023-8.112-11.276-12.491-0.999-5.033-0.13-9.547 3.295-13.186 9.412-8.937 18.739-18.87 24.81-29.671 2.908-3.253 3.602-9.066 8.849-9.717 6.245-2.559 11.624 1.171 16.137 4.859 1.343 1.085 1.171 4.815 4.164 4.163 1.561-0.565 2.342-1.952 3.123-3.296 2.256-7.114 6.937-16.179 15.614-16.831 12.015-0.91 25.376-0.475 36.955-0.346 2.473-8.025 5.511-15.831 7.462-24.115 0.521-3.513 3.167-6.16 2.776-10.063 1.953-2.172 1.648-5.769 3.125-8.156 2.687-5.205 8.022-7.028 13.184-7.808l116.94-0.519c6.375 0 11.756 3.166 14.403 9.192l6.935 1.911c6.379 4.424 5.51 12.491 7.461 19.087 2.127 6.199 5.596 11.84 6.421 18.565l1.04 0.691 32.098 0.52c4.252 1.651 5.51 6.031 7.287 9.544 4.209 1.126 9.197 3.297 10.76 7.806 4.814 0.61 2.56-5.334 6.419-6.935 3.643-1.045 7.982-1.045 11.625 0 3.469 0.735 6.679 3.598 7.461 7.111 9.413 0.996 10.669 11.407 14.749 17.87 4.291 7.33 11.537 13.012 18.041 19.433 2.605 3.642 6.248 6.723 6.248 11.623-1.131 3.253-4.426 4.903-6.942 6.595l3.643 2.603 3.99-0.347c8.809 0.908 14.402 10.454 16.31 17.871 1.431 5.29 0.826 11.796-3.468 15.265-2.474 3.602-9.588 3.037-8.678 8.851 0.61 2.038 1.781 4.163 3.992 5.205 1.607 1.822 4.686 0.997 6.421 0 3.035-0.261 5.769 0.174 7.808 2.256 4.38 6.116 6.115 13.663 9.197 20.473 0.475 2.428 0.387 4.728 1.387 7.111 8.285 33.833 2.991 70.877-4.86 103.41" fill="#231f20" stroke-width="4.6687"/><g fill-rule="evenodd"><g stroke-width="2.1607"><path d="m436.09 397.4c-2.212-19.042-2.646-39.689-9.021-57.429-14.923-53.57-53.437-105.62-104.62-135.51l-3.293 0.346c-26.983 17.655-53.916 39.429-72.005 66.798-18.911 25.376-29.797 55.001-37.823 85.362-2.212 10.844-4.379 21.604-3.469 33.142l5.38-3.992c-2.997-12.19-3.168-28.714 8.153-36.607h1.04c8.633 14.358 22.815 22.554 39.038 23.421 9.543 0.566 20.213 0.391 30.19 0.175l0.172-89.356c-0.259-14.531-10.54-26.588-23.247-31.751-0.13-2.643 3.034-3.86 5.205-4.859 8.934-4.725 20.778-8.108 30.362-2.429l1.041-0.171c2.993-6.204 8.587-12.104 14.226-15.963 4.511 2.168 8.025 5.986 11.8 9.543l5.897 6.941c8.632-3.644 20.735-5.209 29.149 0 3.212 1.821 6.16 4.684 9.196 6.591-1.389 4.163-5.943 4.384-8.326 7.981-11.931 12.666-17.829 29.021-17.004 47.541v66.102c16.613-0.085 35.305 2.692 48.926-5.725 7.764-3.947 14.705-10.713 21.17-15.959 8.762 8.629 11.794 24.982 6.764 37.127 3.687 2.603 8.542 5.64 11.104 8.677" fill="#d72342"/><path d="m410.54 326.29c0-13.71-11.11-24.82-24.819-24.82-13.711 0-24.823 11.11-24.823 24.82 0 13.709 11.112 24.82 24.823 24.82 13.709 0 24.819-11.111 24.819-24.82" fill="#231f20"/><path d="m171.67 568.13c10.279-13.187 19.299-25.938 31.923-36.781-0.869-1.391-3.818-0.696-4.512-2.951l-0.52-16.831c-22.295-23.595-35.002-49.968-42.507-79.984-0.521-7.676-3.339-14.617-2.778-22.554l-0.692-1.735c-0.349-13.361 0.347-26.243 2.082-39.385 1.343-5.339 2.082-10.584 5.9-14.75l-1.564-1.214c-18.562-3.686-37.474-6.549-54.133-14.921-4.207-2.603-7.416 1.475-10.583 3.471-6.287 5.813-5.769 15.049-7.112 23.247-1.821 17.7-3.948 35.528-1.565 53.439 0.48 6.507 2.561 12.406 2.257 19.258 5.509 23.25 10.453 46.37 21.167 67.322 7.811 13.056 15.919 26.632 25.506 38.691 8.372 10.106 16.526 22.295 27.935 29.147 3.772 2.646 7.026-1.561 9.196-3.469" fill="#fff"/><path d="m303.36 634.75c23.945 1.948 47.715-1.261 69.924-6.596 22.814-7.761 46.369-14.226 66.626-27.758 6.725-5.51 15.093-8.243 20.644-15.443l-1.386-4.859c-14.053-14.659-28.11-30.101-38.169-47.02-0.696-0.692 0.086-2.557-1.563-2.254-26.85 22.121-60.945 31.708-96.816 33.66-37.13-0.174-71.567-9.328-99.764-31.751-4.465 0.128-4.985 5.118-7.632 7.806-8.547 17.481-24.075 29.149-33.659 46.325 1.691 3.472 4.726 5.119 7.633 7.461 30.494 22.123 65.28 32.358 102.02 39.388 3.861 0.562 8.199 0.127 11.626 1.732z" fill="#fff"/><path d="m319.15 616.19c-0.521-1.346-2.387-0.869-3.122-2.431 1.992-9.844 4.944-19.472 8.672-28.455 0.955-0.519 2.517-0.519 3.47 0 3.948 7.852 2.646 18.481 2.431 27.413-1.216 0.912-5.249-0.69-3.818 2.432 1.65 1.387 4.427 1.171 6.421 0.695 3.208 2.037 7.761 1.951 11.623 1.387 3.599-1.865 8.027-4.293 7.981-9.022 0.391-2.431-0.475-4.73-1.909-6.595-1.948-2.903-5.507-2.688-8.154-4.336 2.603-1.52 6.291-3.297 7.983-6.247 1.776-3.079 0.215-6.681 0.693-9.89 0.738 1.172 2.517 0.736 3.47 0.35 3.643 8.588 4.945 18.172 6.244 27.759-0.996 2.168-3.815 0.955-4.508 2.777l1.386 1.212c6.726-1.041 13.187-2.733 19.782-3.989 1.387 1.256 1.211 4.598 3.643 3.989l0.345-1.212c-1.736-2.821-1.345-6.725-3.122-9.369-2.907 2.168-6.116 5.116-9.891 5.896-2.215-2.688-2.82-6.591-3.469-10.234 0.258-2.041 3.037-1.78 4.682-2.256 1.436-0.046 2.908-0.74 4.166 0.171 0.998 0.825 0.869 3.646 2.951 2.432l0.347-1.041c-1.478-3.559-2.517-7.288-3.298-11.106-3.035-0.519-0.605 3.123-2.083 4.511-2.253 1.694-4.379 3.775-7.286 3.991l-1.213-1.387c-0.824-4.297-2.17-8.331-2.432-12.84 1.998-1.777 4.861-1 7.291-0.695 2.338 0.606 2.383 4.424 4.856 3.643 0.044-4.379-2.733-8.022-2.949-12.491-0.35-0.781-1.129-0.435-1.737-0.52-1.604 1.733 1.78 4.338-0.865 5.55-4.945 0.654-9.5 2.907-14.574 2.777-1.303-1.216 1.039-1.951 1.387-2.777 2.168-1.17 5.64-2.297 7.808-0.345 1.039 0.391 1.648-0.521 1.563-1.387 0.129-1.39-1.434-1.562-2.259-2.085-2.556-0.476-5.941-0.777-7.982 1.043-6.07 7.372-8.5 16.224-14.918 23.422-1.128 0.305-2.475 1.606-3.471 0.696l-0.175-12.322c0.955-2.512 6.419-0.954 4.859-4.854-4.164 0.041-8.023 1.951-12.492 1.732-4.727 0.305-9.932 1.085-14.226-0.691-0.477 0.691-0.651 2.167 0.175 2.773l3.813 1.215c0.476 2.473-0.606 4.729-1.211 6.941-2.951 1.346-7.375 1.17-10.41 0.174 0-2.777-3.123-6.29 0-8.33 1.601 0.044 3.338 0.13 4.164-1.387-0.133-1.041-0.651-1.91-1.736-2.082-3.688 0.651-7.852 0.432-11.104-1.041 0.216-1.259-0.305-2.17-0.87-3.127-1.257-0.475-2.428 0.655-2.428 1.738-0.305 0.913 0.739 2.69-0.866 2.776-10.803-1.647-21.647-3.209-31.232-7.806l-1.907 0.173c-0.434 3.164 4.77 3.428 3.815 6.072l-3.294 4.338c-3.863 0.174-7.462-1.345-10.584-3.468-0.654-2.823 0.261-5.425 1.561-7.637 1.301 0.522 3.208 0.522 4.51 0 0.91-0.694-0.216-1.386-0.346-2.081-4.339-1.476-8.547-3.862-12.84-5.033-0.476-0.476-0.435-1.343-1.216-1.562-9.844 4.424-18.607 11.409-28.8 14.922l-0.346-0.347c3.947-6.203 7.461-13.836 13.361-18.043 1.602 0 3.468 1.56 4.855 0-1.865-3.428-6.245-3.688-8.848-6.767-1.215-0.869-2.691-3.817-4.164-1.562-0.739 2.083 1.563 3.339 2.778 5.032-2.082 8.847-7.897 16.006-13.361 23.595-2.602 0.955-5.681-4.554-7.116-0.346l0.695 1.215c5.596 2.558 10.803 6.116 16.83 7.632 0.911-0.821-0.215-1.777-0.345-2.427-0.697-0.565-1.477-0.955-2.082-1.737 5.464-4.639 12.49-7.024 19.086-9.713-1.432 5.941-4.338 11.235-8.328 16.309-1.346-0.522-3.427-1.302-4.688 0l0.35 1.387c4.293 1.907 8.543 4.339 12.837 5.725 0.87-1.042 0-2.343-0.867-2.948-0.825-1.042-2.818-1.433-2.427-3.124 1.993-8.977 6.807-16.788 10.234-25.156 1.822-0.914 1.605 1.906 3.298 1.906 3.078 1.477 2.037 5.771 2.253 8.675-0.737 7.505 0.304 15.787-2.253 22.557-1.476-0.259-3.6-2.168-4.684 0l0.345 1.736c4.989 1.908 10.279 3.034 14.922 5.725 0.696 0.041 1.517 0.041 1.733-0.695 0.435-2.517-4.595-2.949-2.948-5.554 5.379-7.891 11.06-15.699 18.739-22.206 2.038-0.263 4.075 0.477 4.857 2.603 3.947 9.063 6.895 18.52 9.543 28.105-0.305 0.61 0 1.737-1.041 1.737-5.42-0.652-10.975-4.599-13.012-9.715h-0.866c-0.48 4.725-1.26 8.673-0.696 13.186 0.521 0.432 1.562 0.562 2.082 0 1.171-0.914 0.26-2.866 1.908-3.471 6.68 1.561 13.792 3.598 20.821 2.776-5.249-10.022-9.847-20.821-10.584-32.618 2.257-0.349 4.599 1.127 6.767 2.081 1.866 0.823 3.296 4.076 5.379 3.47 1.691-1.302-2.819-6.461 1.216-4.164 4.55 9.543 7.372 19.782 9.018 30.536-1.082 1.606-3.988-0.52-3.642 2.427 3.601 1.347 8.2 0.306 12.146 0.872 1.303-0.09 3.252 0.388 2.95-1.563" fill="#231f20"/><path d="m346.04 612.02c1.602-2.345 1.387-4.6 0.69-7.288-0.778-1.865-2.426-4.121-4.508-4.688-2.301-0.17-5.204-0.085-6.246 2.607 0.955 4.16-0.564 10.581 5.029 11.621 2.041 0.175 3.777-0.865 5.035-2.252" fill="#fff"/><path d="m314.46 597.1c-2.343-1.517-4.94 0.781-7.284-0.695l-0.348 0.521c0.912 3.992 2.256 7.809 3.988 11.453 2.258-3.037 2.737-7.376 3.644-11.279" fill="#fff"/><path d="m400.35 600.57c0.127-0.476 0.563-1.646-0.348-1.735-1.045-1.038-1.865 0.523-3.125 0 0.565-6.767 0.609-14.183 2.777-20.473 3.208 4.817 6.465 10.238 6.94 16.483-0.954 1.996-5.424 1.607-3.818 4.684 5.205-0.694 10.325-3.73 14.402-6.592 0.52-1.43-0.693-2.04-1.906-1.736-1.217 0.175-2.347 1.127-3.647 0.521-6.722-7.892-9.628-17.696-14.748-26.892l-0.519 0.174c-2.645 9.933-3.946 20.517-5.552 30.708-2.561-2.384-2.041-6.331-3.818-9.195-1.56-4.38-3.428-9.021-3.122-13.707 0.997-1.04 3.037-1.345 2.949-3.123 0.088-0.608-0.086-1.214-0.693-1.387-4.643 1.735-8.631 4.942-13.88 5.206-0.523 0.345-0.523 1.386 0 1.732l5.898 0.696 3.47 4.859 7.636 20.993c-1.086 1.517-4.99 1.69-3.818 4.339 5.508-0.566 10.236-2.952 14.922-5.555" fill="#231f20"/><path d="m256.69 588.08c-2.082-1.605-4.511-2.472-6.94-3.297-2.298 3.644-0.738 8.892-0.693 13.186 3.253-2.688 5.074-6.592 7.633-9.889" fill="#fff"/><path d="m421.34 591.55c5.376-3.079 11.233-6.201 16.309-10.061 2.561-0.654 3.903 4.856 5.899 1.386-1.996-3.037-4.598-6.159-7.115-8.676-2.776 2.472-4.12 6.636-7.459 9.198-3.252-2.083-5.248-5.034-7.113-8.328 0.519-2.517 4.033-2.561 5.377-4.338 3.035-3.253 5.206 4.899 7.461 0.344-0.044-1.906-1.646-2.515-2.776-3.642-1.866-2.082-3.122-4.9-5.033-6.766-1.344-0.044-1.257 1.432-1.213 2.428 2.168 3.341-2.172 4.947-3.644 7.29-0.78 0.431-1.389 1.302-2.428 1.041-2.168-3.212-4.901-6.595-5.033-10.759 3.08-1.387 6.287-3.037 9.89-2.602 0.306-1.866-1.13-3.383-2.429-5.034-1.604-1.558-2.385-4.335-3.991-5.895-1.736 0.476-0.996 2.991-0.696 4.163 0.22 0.691 1.001 1.171 0.696 2.081-5.511 4.25-12.015 6.853-17.351 10.756-0.129 1.346 1.387 0.955 2.257 1.04 2.602 0.696 5.941-4.595 7.116 0.521 3.642 7.29 9.454 13.71 11.449 21.689-2.69 0-5.293 6.855-0.173 4.164" fill="#231f20"/></g><g fill="#fff" stroke-width="2.1607"><path d="m214.01 530.47h-2.256c-4.12 3.818-8.369 6.246-12.491 10.063-7.548 8.547-15.745 16.959-21.86 26.373 1.736 1.822 4.855 2.472 6.246 5.03 10.884-13.053 23.119-26.283 30.361-41.466"/><path d="m484.67 564.31c7.156-5.511 13.23-12.535 18.912-19.433 24.463-31.361 40.86-66.365 46.846-106.01 3.428-19.301 6.55-38.909 3.988-59.164-1.342-15.964-4.203-31.879-11.97-45.286-0.608-1.517-2.383-2.427-4.164-2.253-17.049 9.108-36.261 13.533-56.038 15.616-1.35 0.996-3.689 0.084-4.687 1.559 7.025 9.585 5.726 22.903 7.804 34.7 0.782 26.114-2.336 51.965-11.103 74.779-8.152 18.306-17.695 36.957-32.268 52.571-0.696 6.509-0.091 11.625-0.52 18.219-1.172 0.737-2.344 1.952-0.87 2.949 12.234 12.19 21.386 26.722 32.621 38.691 4.944 0.437 7.717-4.423 11.449-6.939"/><path d="m463.68 566.22c-9.633-12.146-18.65-25.332-31.059-35.566-1.735 0.173-3.947-0.436-5.207 0.52 7.551 13.966 18.697 26.327 30.711 39.038 1.867-1.346 3.733-2.907 5.555-3.992"/></g><g stroke-width="2.1607"><path d="m170.98 556.85-1.041-4.163c6.506-8.242 13.187-15.788 20.818-23.249-0.605-1.432-2.427-0.217-3.643-0.347-8.717 1.212-17.956 3.208-26.197 3.644l1.735-2.082c4.64-3.949 9.41-7.591 14.574-10.239 1.431 0.915 3.081 2.301 4.684 1.736 0.218-3.036-3.86-4.118-5.031-6.94-1.691-1.256-1.821-4.294-4.164-4.164-1.259 1.127 0.13 2.778 0.171 4.164 0.611 0.435 0.782 1.04 0.697 1.736-6.031 6.201-13.013 12.275-19.953 17.35-2.606-0.216-3.862-4.554-6.421-2.948-0.825 0.996-0.043 2.167 0.693 2.948 3.776 3.339 6.724 7.632 10.584 10.758 1.085 0.391 1.564-0.565 1.564-1.39l-1.564-4.163c7.07-1.866 14.271-3.427 21.863-3.991 0.954 0.953-0.956 1.563-0.867 2.604-4.513 3.728-8.677 8.327-13.881 11.451-1.691 0.044-2.647-3.428-4.684-1.912 0.694 3.558 4.509 5.338 6.245 8.676 0.781 0.957 3.168 2.693 3.818 0.521" fill="#231f20"/><path d="m490.05 532.56c2.3-0.041 3.73 2.992 6.248 1.39 0.564-0.825 0.564-2.431-0.696-2.777-4.208-1.952-7.417-6.29-11.8-7.807 0.564 3.208 2.603 7.072 1.217 10.756-2.429 3.382-5.641 6.679-10.065 6.765-6.634 0.35-10.929-6.071-15.094-10.584-1.821-3.858-1.255-9.279 1.562-12.491 2.474-2.732 6.722-2.817 10.064-1.907 1.041-0.216 1.085-1.651 0.519-2.257-3.295-2.123-7.07-4.554-9.196-7.982-0.781-0.3-1.302-0.3-2.081 0-0.651 2.733 1.605 4.424 2.777 6.247-6.074 5.813-11.712 13.88-8.328 22.037 2.817 4.639 8.066 9.629 13.533 10.41 9.236 1.085 17.434-3.774 21.34-11.8" fill="#231f20"/><path d="m307.18 524.75c-2.995-2.256-4.512-5.899-7.463-8.326-10.235 3.902-23.897 3.947-31.574-4.86-1.304-1.255-3.081-2.342-3.472-3.989 2.298-3.081 6.071-5.769 9.023-8.328 8.023-7.679 12.837-18.694 14.572-30.188l0.351-37.479c-1.998-0.476-4.425-1.256-6.771-0.694-21.818-1.387-45.194 0.608-58.99 17.698l-3.644 4.335c-8.847-7.415-11.885-20.948-8.327-32.097-0.085-1.342 1.562-1.952 1.041-3.468l-7.633-6.076c-0.133 1.042-0.479 2.172-0.348 3.124l-0.347 109.83 0.695 1.387 102.71-0.346z" fill="#d72342"/><path d="m321.41 525.62c5.727-4.16 10.842-9.54 13.012-16.135 8.375 4.989 20.82 7.071 28.974 0.869-22.682-19.13-18.564-49.19-19.084-77.73l-2.082-0.52c-7.372-0.219-15.963 1.867-21.513-3.818-3.905 2.342-8.026 4.078-13.016 3.818l-11.796-0.345c-0.824 8.066 0.131 16.219-0.174 24.462-0.086 20.561-6.635 40.123-22.206 53.264 0.692 2.647 4.291 2.992 6.417 4.51 8.071 2.906 17.351 0.435 23.25-4.855 0 0 9.153 13.316 15.788 16.48z" fill="#fff"/><path d="m435.22 525.62c0.696-5.896 0-12.187 1.04-17.521-0.386-31.407 0.654-63.979 0.525-96.122-4.253 3.557-7.808 8.198-13.186 10.064l-0.349 0.694c5.989 10.496 4.209 24.809-3.469 33.66l-0.521 0.174c-12.275-16.613-31.666-25.161-52.399-24.294l-18.392 0.175c-0.824 20.172-2.385 42.856 5.381 60.551 2.732 6.9 9.501 12.581 15.094 17.353 0.259 1.909-2.165 3.206-3.815 3.991-10.824 5.128-22.773 4.464-28.459 0.344-2.166 3.428-3.771 7.677-7.632 10.239 5.075 0.996 10.845 0.215 16.136 0.692z" fill="#d72342"/><path d="m154.67 517.64c0.651-1.605 1.562-3.558 0.692-5.379l0.349-0.87c3.123 2.216 7.982 3.862 11.972 1.91 3.122-0.475 2.82-5.293 6.245-4.513 2.471 0.782 4.903 1.738 6.94 3.644 1.952 1.52 0.607 6.767 4.164 5.208 1.129-4.688-3.468-7.461-6.591-9.719-7.68-2.991-14.748 2.82-23.079 0.348l-5.896-5.377 0.692-1.215c3.341-1.52 6.505-4.033 10.238-4.164 0.952 1.561 2.557 2.387 4.164 2.773 1.475 0.134 0.866-1.951 0.52-2.602-3.815-4.073-4.945-9.108-8.677-13.357-3.123 1.647 0.74 4.379 0.174 6.941-6.851 5.55-14.096 10.19-21.687 13.878-4.294 1.04-1.518-5.336-5.031-4.164-1.735 4.773 2.774 7.678 5.379 10.758 0.042 3.469 1.603 5.985 3.99 8.328 1.736 1.996 4.078 2.517 6.42 2.948 3.859 0.305 7.287-2.038 9.022-5.376" fill="#231f20"/><path d="m505.32 513.47c2.253-4.729 3.298-11.929 0-16.483-2.734-6.465-9.411-10.064-16.309-9.889-6.376-0.524-11.194 4.294-15.094 8.327-2.128 5.507-4.469 13.879 0.693 18.737 5.163 5.595 12.536 10.108 20.473 7.981 4.468-1.865 7.461-4.987 10.237-8.673" fill="#231f20"/><path d="m151.55 513.12c-0.217-3.037-0.477-6.81-3.815-7.806-3.904-1-5.944 3.166-8.502 4.684-0.826 2.212-0.041 4.599 0.692 6.595 1.304 1.862 3.603 2.298 5.554 1.562 2.3-1.432 4.512-2.562 6.071-5.035" fill="#fff"/><path d="m502.89 511.74c1.169-2.689 0.736-5.769 0.344-8.676-4.295-6.462-11.19-9.543-18.042-11.276-3.991 0.258-7.634 3.035-9.197 6.592-1.865 3.513 0.261 7.201 2.082 9.889 4.383 4.598 10.064 7.546 15.962 9.197 3.646-0.216 6.898-2.516 8.851-5.726" fill="#fff"/><path d="m218.52 500.28c3.468-4.641 2.298-11.881 0.691-17.001 8.503-2.777 12.84 6.507 20.648 6.417 0.22 2.041 2.082 3.558 3.818 4.339 1.387 0.52 2.907 0.65 4.164-0.171 2.558-5.336 9.108-6.291 13.186-10.585 5.25 1.993 11.799 6.592 17.349 2.083 1.737-1.952 3.384-4.47 2.428-7.461-1.171-4.12-3.814-8.417-7.978-10.585-5.903 1.347-8.501-6.722-14.401-3.815-1.952-0.999-3.904-2.039-5.554-3.821 2.866-2.296 2.647-5.724 2.085-9.018-1.26-3.513-4.034-6.335-7.461-7.812-5.078-1.341-10.628-0.91-14.228 2.952-2.256 2.428-4.033 5.771-2.776 9.369l2.602 3.992c-5.163 3.514-8.718 9.5-14.748 11.275-3.513 0.651-7.895 1.041-9.371 4.86-1.343 1.647-0.387 4.033-0.172 5.9 4.901 1.516 0.131 6.375 1.387 9.714 0.131 5.727 4.167 9.847 4.167 15.616 0.432 0.564 1.387 0.391 1.907 0.173z" fill="#231f20"/><path d="m215.22 482.76c-1.562 0.302-1.736 2.383-2.083 3.815-0.52 4.688 0.217 9.718 2.429 13.706 4.033-4.814 2.126-12.576-0.346-17.521" fill="#fff"/><path d="m515.73 495.08c1.517-3.903 2.472-8.458 4.512-12.146l-0.348-1.041c-9.413-3.337-18.695-7.025-27.589-11.622-1.386-1.213 0.35-2.43 0.522-3.645 2.171-2.514 4.772-4.685 8.156-4.51 0.389-3.253-4.254-2.082-6.076-3.818-0.17-1.301 0.738-2.168 1.392-3.123 9.846-0.174 18.259 5.164 27.067 8.503 1.342 1.906-2.216 6.07 1.732 6.07 2.302-3.685 2.561-8.542 3.819-12.837-2.343-1.127-5.335-0.694-7.982-1.041-7.461-1.867-14.573-4.468-21.689-7.114-1.431-1.083-0.173-2.775 0.175-3.989 1.606-4.036 6.075-3.994 9.021-6.247 0.696-1.561-1.127-1.17-1.735-1.736-2.168-0.65-4.164 1.347-5.899-0.35l2.083-4.855c9.671-0.824 18.565 2.299 27.067 5.38 0.65 1.818-0.737 4.469 1.214 5.725l1.907-0.349c1.043-6.983 2.082-14.008 3.125-20.994 1.736-1.04 4.902-1.17 4.857-3.989-4.12-1.345-8.676-0.129-12.665-1.736-0.52 0.349-0.52 1.388 0 1.736 3.773 2.127 2.821 7.416 3.47 11.452l-1.214 0.694c-3.513-0.565-7.505-0.131-10.583-1.736-0.221-3.342 0.648-6.856 3.469-9.023 1.215 0.088 2.212-0.39 2.951-1.387-0.219-2.256-3.604-1.387-5.383-2.082-3.34 0.695-5.547-1.214-8.674-1.041-0.779 1.216-1.302 0.041-2.082-0.349-4.598 0.65-8.238-1.081-12.491-1.212-0.564 0.302-1.04 1.388-0.349 1.908 1.387 1.04 3.733 0.606 4.513 2.428-0.216 6.334-2.04 12.015-3.817 17.699 0.173 0.345 0.691 0.954 0 1.212-1.692 0.783-4.595-2.688-5.035 0.519-0.04 1.306 1.827 1.737 2.953 2.086 0.869-0.26 1.52 0.301 1.735 1.041-2.171 5.811-1.95 12.926-5.9 17.697-1.561-0.566-2.948-1.518-4.683-1.738-0.696 0.912-0.306 2.432 0.691 2.953 1.435 1.386 4.729 1.211 2.952 4.163-1.561 6.721-4.774 12.275-9.023 17.87 0.26 0.87-0.651 2.777 1.041 2.428 2.69-0.996 3.818-4.033 5.551-5.896 9.022 2.818 17.874 6.026 25.679 11.796 0.261 2.212-3.512 8.242 1.563 6.246" fill="#231f20"/><path d="m246.63 490.4c-0.041-1.042-1.733-1.778-0.866-2.774 2.862 0.562 5.074-1.432 7.461-2.606-2.168-3.599-6.031-4.074-9.89-4.683-2.992 0.259-5.595 1.865-6.94 4.683 0.695 1.865 3.339 2.085 5.377 2.256 0.783-0.04 2.04-0.086 1.91 1.041-0.651 1.131-0.347 2.863 0.869 3.472 1.168 0.301 1.948-0.39 2.079-1.389" fill="#fff"/><path d="m277.34 482.76c1.78-1.777 0.39-4.729-0.175-6.766-2.862-5.423-10.711-3.732-14.053-8.502-1.691-0.304-1.475 1.863-3.123 1.733-4.293-3.945-9.498-5.681-14.226-8.498-9.89-1.696-15.529 8.282-22.904 12.837-3.644 2.342-9.369 0.65-11.796 4.858 0.13 0.65 0.564 1.085 1.212 1.216 1.345-1.26 3.732-1.391 5.033 0 2.647 1.171 4.639-0.825 7.287 0.346 3.513-1.171 6.376 6.724 9.368 2.427 3.082-3.687 7.203-5.506 11.974-5.376 4.38-0.259 7.156 3.468 10.581 5.551 2.127-0.305 3.383-3.428 5.727-2.948 3.946 3.253 10.106 7.197 15.095 3.122" fill="#fff"/><path d="m274.38 478.94c-1.732-5.074-7.848-5.943-12.316-6.765-0.174 3.339 3.167 7.027 6.42 8.501 1.866 0.738 5.334 1.128 5.896-1.736" fill="#231f20"/><path d="m269.88 477.73c0.089-1.302-1.387-1.042-2.082-1.562-0.391 1.171 1.431 1.52 2.082 1.562" fill="#d72342"/></g><g fill="#fff" stroke-width="2.1607"><path d="m252.7 455.35c0.477-3.472-2.602-5.294-4.857-7.286-3.254-1-7.503-2.082-10.411 0.346-2.04 1.386-2.601 3.382-2.776 5.55 0.044 1.781 1.432 3.298 2.951 4.163 1.558-1.691 0.908-5.205 3.989-6.245 1.257-0.866 2.644 0.09 3.815 0.524 2.821 1.732 1.216 8.414 5.899 5.377z"/><path d="m244.2 455.17c-1.127-0.52-2.732 0.045-2.952 1.217 0.175 1.387 2.085 0.174 2.777 1.039 0.825-0.26 0.651-1.735 0.175-2.256"/><path d="m418.22 421c1.43-2.256 4.857-1.906 6.939-3.643 4.555-3.253 9.803-7.461 11.1-12.666-3.684-6.074-9.497-11.495-16.308-13.36-1.731-2.168 1.564-3.989 2.084-6.071 2.3-8.33 2.039-17.87-2.428-24.986-12.318 10.369-26.895 19.912-44.241 20.472-4.732 0.046-9.808-0.129-14.232 0.175l0.35 46.325c-0.305 0.391-0.393 0.866-0.869 1.215 1.04 1.083 2.775 0.131 4.164 0.173l15.962 0.694c14.573 3.514 28.411 9.629 38.342 21.514 6.727-8.588 3.861-21.079-0.863-29.842"/><path d="m252.87 428.11c8.502-0.736 17.83-1.081 26.376-0.171l-0.35-48.234c-11.928-1.302-25.115 0.388-35.219-5.38-7.506-3.123-14.878-8.153-19.953-14.573-1.346-0.782-2.472-2.168-3.472-2.603-4.468 9.324-5.074 22.034-0.171 31.577-1.476 2.082-4.688 2.256-6.595 4.512-3.339 2.644-6.851 5.942-9.368 9.544 1.17 5.334 6.81 9.149 10.93 12.491 1.605 1.691 5.074 1.866 5.033 4.51-6.77 7.722-4.947 19.606-1.562 28.283 9.064-10.585 21.08-17.309 34.351-19.956"/><path d="m349.51 427.59v-38.343l-0.867-0.867c-8.676-0.563-18.91 1.431-26.721-1.735l-0.519 0.866 0.693 37.997 5.554 3.473c6.764 0.865 13.793 1.214 20.993 1.04z"/><path d="m353.33 385.43-1.392-0.867c-10.104-0.304-20.99 0.737-30.361-0.865 3.252 2.297 7.896 2.037 12.146 2.252l17.869-0.171 0.695 0.52 0.176 43.028 1.038-0.867z"/><path d="m284.45 382.48c9.412-0.955 19.431-0.346 29.146-0.52l-1.733-1.216-26.893-0.17-1.736 1.212 0.175 47.365 0.691-0.171z"/><path d="m357.49 381.96-0.866-0.695c-9.112-0.131-19.652-0.562-28.975 0.349 9.066 1.081 18.952 0.041 28.109 0.866l0.345 46.151c0.346 0.519 0.823 0.563 1.214 0.175z"/><path d="m289.13 386.12c7.591-1.086 16.053-0.044 23.771-0.866l-1.212-0.869-23.426 0.519-0.521 1.39 0.175 42.682 0.696-0.173z"/><path d="m317.94 424.99-0.347-38.864c-7.29 4.684-17.133 0.39-25.506 2.426-0.911 13.147-0.476 27.069-0.345 40.43l22.552-0.521z"/><path d="m516.95 427.24c0.127-2.907 0.605-6.204-0.869-8.848-1.303-1.431-4.424-0.564-4.856-2.948-2.867 2.774-8.287 4.943-6.77 9.54 3.948 1.26 8.111 2.561 12.495 2.256"/></g><path d="m534.82 401.74c3.252-4.855 4.119-12.145 1.906-18.042 1.432-1.692 4.989-0.739 5.379-3.468l-0.519-0.871c-4.554 0.175-9.37 0.348-13.707 0.521-1.346 2.516 2.861 2.126 3.99 3.99 2.604 3.382 4.121 8.025 2.775 12.145-2.256 6.075-10.063 6.245-15.268 6.594-3.687 0-6.895-1.04-9.714-3.123-3.125-2.646-3.428-6.419-3.646-10.237-0.217-3.208 3.385-3.123 5.553-3.47 2.688 0.391 5.812-0.998 7.46 1.216 0.564 2.383 0 5.682 2.603 6.766 3.125-1.519 0-5.554 0-8.331-0.564-3.903 1.171-6.981-0.173-10.408-3.774 0.174-0.824 6.375-5.553 5.724-3.686 0.912-9.846-1.603-10.756 3.473-2.648 6.029-2.732 14.182 1.387 19.431 5.422 4.73 13.229 7.156 20.3 4.164 3.079-0.996 6.245-3.253 7.983-6.074" fill="#231f20" stroke-width="4.6687"/><path d="m505.67 375.89c-0.52-0.91 0.086-2.082 1.04-2.257 8.242-1.515 17.179-2.472 25.507-2.775 1.866 1.995 0.301 6.59 3.99 6.59l0.693-1.041c-0.392-7.632-1.909-15.005-2.775-22.205 1.256-1.651 5.463-0.696 4.163-3.993-3.99-0.911-7.548 2.387-12.317 1.216-0.26 2.818 3.73 3.469 4.51 6.07 0.952 1.867 2.298 3.603 1.736 6.075-3.428 1.952-7.766 1.864-11.625 2.777-1.777-1.694-0.998-5.554-0.694-7.981 1.255-1.867 4.122-2.778 4.507-4.86-0.735-2.125-3.337-0.389-4.853-0.175-3.169 1.522-7.506 0.48-10.41 2.257-0.13 1.086 0.692 1.996 1.907 2.082 2.514-1.04 3.469 1.607 4.514 2.948 0.734 1.823 1.513 4.035 0.691 6.076-3.428 1.084-7.2 1.43-10.931 1.735-1.169-1.78-0.735-4.6-0.348-6.595-0.387-2.472 3.732-3.513 2.082-6.071-4.119 1.127-9.11 1.212-13.358 2.603-0.524 0.476-0.524 1.732 0 2.082 1.992 1.906 5.941-1.086 6.591 2.601 0.87 4.599 1.996 9.934 1.042 14.399 0.914 1.13-0.476 3.342 1.215 3.993 3.123 0.216 2.603-3.472 3.123-5.551" fill="#231f20" stroke-width="4.6687"/><g fill="#fff" stroke-width="2.1607"><path d="m344.31 375.02 0.346-83.107c3.168-15.183 10.238-29.194 22.558-39.734-8.591-6.33-21.863-3.816-30.886 0.521-2.428-1.215-2.256-4.379-4.164-6.245-2.908-4.424-6.856-8.632-11.624-10.76-7.244 3.473-10.239 11.019-13.881 17.351-1.819 0.088-2.342-1.777-3.99-2.082-7.635-3.903-18.172-3.294-25.331 1.215 2.647 4.295 7.244 6.897 10.064 11.106 6.028 8.416 8.368 18.564 8.673 29.148l0.348 82.587 0.867 0.521c5.856-1.432 13.402 2.556 17.526-2.778 5.463-2.082 10.713 0.566 15.267 2.778 4.293 0.434 8.978 0.303 13.707 0.348z"/><path d="m179.31 355.76c0.391-6.245 1.086-12.796-1.907-18.044-3.256 0.52-1.91 4.728-4.514 6.42-5.029 4.594-8.326-1.736-13.011-2.604-13.792-4.684-27.242-10.323-41.64-13.535-0.955 2.171-0.346 4.99-0.521 7.461 14.358 8.241 33.225 5.551 47.887 13.012 3.599 1.91 5.204 4.947 5.899 8.677 0.39 2.948-2.907 7.721 1.733 9.022 5.424-0.39 4.557-6.724 6.074-10.409"/><path d="m166.47 364.61c0.391-2.691 2.386-6.725-0.346-8.677-3.079 0.566-3.774 3.774-4.339 6.42 0.61 1.388 2.733 1.432 3.993 2.432z"/><path d="m467.49 352.81c2.861-6.981 10.804-9.89 17.698-11.276 14.529-1.952 28.499-5.163 41.296-11.28-3.688-2.646-5.598-6.809-6.42-11.277-16.744 3.991-33.14 8.98-46.676 20.125-3.077 1.433-7.024 1.867-9.886-0.345-1.478-1.172-1.908-3.728-3.646-3.817-3.73 5.595-2.776 14.833 0.523 20.301 1.257 1.951 2.861 3.903 5.379 3.815 2.122-1.429 0.91-4.251 1.732-6.246"/><path d="m474.78 356.63c-0.219-1.476-0.738-3.34-2.256-3.818-1.605 0.174-1.346 2.342-1.735 3.642l0.175 1.736z"/><path d="m171.85 334.07c-0.955-0.479-2.342-1.26-3.644-0.695-0.174 2.172 0.131 4.728 1.737 6.246 1.691-1.257 0.996-3.815 1.907-5.551"/><path d="m162.13 338.06c0.74-1.82-0.65-3.816-0.171-5.724 1.432-10.54 6.811-19.736 13.187-27.934-19.477-2.081-40.254-2.081-57.779-9.367-6.027-1.391-10.495 3.164-13.532 7.286-1.301 3.166-1.907 6.68-1.041 10.237 3.383 9.801 13.967 10.409 21.863 13.358 12.707 3.513 25.286 7.374 37.473 12.144"/><path d="m467.49 330.25c-0.996-0.951-2.298 0.477-3.469 0.695-0.519 1.563 0.825 3.295 2.082 4.336 1.517-0.78 1.432-3.12 1.387-5.031"/><path d="m530.13 310.65c2.122-2.082 3.685-4.51 3.99-7.633-0.738-8.59-4.469-17.308-13.357-19.78-20.174 11.539-44.507 15.007-68.537 15.097 10.021 6.242 14.877 16.004 19.955 25.677 1.041 3.207 0.781 7.371 1.558 10.235 15.963-13.923 37.998-14.789 56.391-23.596"/><path d="m189.37 315.85c-0.564-2.515-1.346-5.246-3.989-6.592-2.171-0.997-4.948-0.479-6.769 0.865-1.127 1.563-2.774 2.864-2.603 4.514 3.949 2.124 8.287 3.384 11.971 6.071 1.521-0.735 1.434-3.034 1.39-4.858"/><path d="m456.74 309.44c-3.209-3.257-6.939-7.55-11.971-7.29-0.349 3.992 0.217 8.592 2.774 11.625 3.124-1.258 6.377-2.343 9.197-4.335"/><path d="m178.96 275.77c0.301-1.387 1.647-2.688 0.691-4.164-3.988-3.384-10.669-1.691-12.837-7.979-2.167-9.371 4.466-16.093 8.329-23.253-0.435-1.257-1.171 0.264-1.737-0.345-2.168-0.216-4.554-0.955-5.03 1.907-3.123 7.721-5.554 15.659-4.167 24.814-0.301 3.165-2.644 5.765-5.551 7.112-3.598 2.127-8.413 1.345-12.49 2.257-0.825 0.822-0.046 2.037 0.52 2.601 6.331 3.164 15.224 2.734 22.209 1.734 3.687-0.736 6.851-2.775 10.063-4.684"/><path d="m131.77 276.47c0.35-3.209 1.996-5.899 2.602-9.021-2.038-1.171-4.728-0.046-6.94 0.348-2.863 0.865-7.068 1.429-7.633 4.857 0.477 3.731 4.77 4.163 7.633 5.031 1.561-0.129 3.732 0.521 4.338-1.215"/><path d="m493.17 271.43c-0.908-3.294-5.42-0.866-7.808-2.082-9.148-2.817-5.854-13.878-9.539-20.473-2.687-4.988-4.123-10.67-8.33-14.919-1.947 1.083-4.684 0.736-6.765 1.041 3.296 8.198 8.851 14.053 13.531 21.689 0.305 1.993 0.305 3.687-0.692 5.376-2.3 5.163-13.966 2.126-10.062 9.892 6.982 4.9 16.828 2.252 24.981 1.732 1.652-0.476 3.472-0.996 4.684-2.256"/><path d="m515.73 270.74c-0.996-3.343-5.034-4.514-7.808-6.245l-1.215-0.351c0.608 2.996 2.343 6.075 3.643 8.852 1.91-0.481 4.078-0.264 5.38-2.256"/><path d="m155.36 270.91v-0.691c-2.037-0.956-4.164-1.652-6.417-2.082-0.305 1.256-1.691 3.078-0.35 3.989 2.559 0.305 4.685-0.432 6.767-1.216"/><path d="m184.86 261.72c-2.688-1.342-5.985-0.39-8.849-0.174-0.694 0.566-1.907 0.65-2.081 1.737l0.174 0.865c3.079 1.39 5.942 3.818 9.024 4.685z"/><path d="m157.79 267.27c0.736-5.339-0.044-9.416 0.692-14.748 0.87-7.246 4.818-13.19 7.636-19.606-0.086-1.736-0.911-3.211-2.602-3.818-4.424-1.561-7.938 1.041-11.28 3.122-8.152 10.584-14.747 22.989-25.503 31.231v0.521c10.321-1.431 22.035-1.561 31.057 3.298"/><path d="m491.61 265.71c-0.131-1.212-0.605-2.862-1.91-3.644-1.171 0.782-3.209-0.17-3.988 1.216-0.047 1.125 1.084 1.865 2.08 2.256 1.386-0.175 2.472 0.737 3.818 0.172"/><path d="m468.19 260.68c0.523-1.216-0.779-1.518-1.389-2.083-3.035-0.479-6.806-0.649-9.715 0.172 0.481 1.955 0.87 4.339 2.429 6.074 2.692-1.907 5.9-2.517 8.675-4.163"/><path d="m507.75 259.98c-2.168-2.906-5.811-5.16-8.156-7.98-7.59-6.767-9.715-16.22-15.44-23.77-3.859-2.385-9.892-2.212-13.882-0.172-1.559 4.684 3.734 7.371 5.035 11.276 3.728 6.205 5.376 13.535 7.286 20.646 7.936-4.164 17.13-1.04 25.157 0"/><path d="m250.1 255.13c4.599-9.587 7.112-20.172 12.837-29.149 0.911-2.299 1.346-6.075-0.346-8.157-0.996-0.215-1.606 1.823-2.948 2.082-20.126-0.3-42.03 0.651-61.942-0.172-4.685 0.172-10.194 0.997-11.971 5.725-3.166 10.02-7.807 18.957-13.532 27.936l-0.869 4.162c11.843-1.04 25.287-0.26 37.476 0 12.102-0.606 24.377 1.997 36.262-0.174z"/><path d="m445.81 255.47c6.547-0.219 13.749-0.999 20.299-0.694-4.509-7.244-9.065-14.489-12.491-22.209-2.386-4.727-1.435-13.142-8.849-13.533-20.865-2.386-41.209 0.13-62.29-0.174-3.079-0.431-6.417-0.131-8.499-2.949-2.038 1.258-1.215 4.294-1.042 6.42 1.388 5.811 6.592 10.062 9.541 15.269 4.163 6.721 4.643 18.52 15.095 18.215 16.396-0.389 32.359-0.736 48.236-0.345"/></g><path d="m417.88 246.97c3.079 0.477 8.283-2.731 9.195 1.389 2.472 1.865 2.516-1.952 5.03-1.563 3.341-0.605 6.379 1.13 9.717 0.522 1.04-0.824-0.345-1.824-1.042-2.083-0.65-0.13-1.862-0.476-1.386-1.562 2.472-5.29 1.345-14.357 9.023-14.747 0.779-1.431-0.911-1.952-2.087-1.732l-9.192 0.345c-0.52 0.346-0.52 1.387 0 1.733 0.911 0.304 2.298 0.654 2.428 1.735-0.692 0.696 0.088 2.343-1.387 2.432-2.037-0.26-6.551 1.646-6.074-2.256-0.042-1.432 5.553-2.257 1.91-3.989-5.64 0.301-11.106 1.557-17.004 0.691-0.608 0.435-0.781 1.041-0.695 1.735 0.783 1.474 3.298-0.129 3.298 2.083-0.432 3.728 0.173 9.193-0.523 12.839-3.031-0.347-1.775-4.597-4.509-5.207-2.256 2.256 3.298 7.983-2.08 6.77-1.868-4.989-1.606-10.194-0.87-15.617 1.17-0.302 3.297-1.302 2.43-2.603l-8.85-0.52c-0.822 0.13-0.908 1.301-0.347 1.736 2.647 0.475 1.736 3.295 2.432 5.03 0.776 3.558 0 7.289 0 10.933-0.785 1.301-1.65-0.262-2.605 0l-1.734-2.081-5.207-15.618c-3.254-0.261-1.603 4.382-2.774 6.419-1.3 4.035-3.383 7.983-5.9 11.626-0.435 0.606-1.992 0.084-1.562 1.386 1.215 2.126 4.294 0.305 6.595 0.87 3.815-0.914 7.328-0.87 11.102-0.348 1.65 1.735 3.602-0.433 5.552 0.519 1.562 0.74 4.815-0.996 4.859 1.91 2.038 0.824 1.778-1.735 2.257-2.777" fill="#231f20" stroke-width="4.6687"/><path d="m220.95 248.01c0.086-1.562-1.691-1.562-2.428-2.602-0.869-4.468-1.216-9.586-1.041-14.053 0.952-1.215 2.863-0.61 4.164-0.521 2.863 3.599 3.555 8.458 4.509 13.012-0.26 1.735-3.728 0.694-2.601 3.122 3.427 0.477 7.981 0.652 10.929-0.174 0.044-1.171-0.952-1.561-1.732-2.254 1.471-5.073 1.171-13.144 7.632-14.575 0.218-0.519 1.691-0.956 0.695-1.561-3.689-0.216-8.197 0.389-11.8 0.173-0.389 0.782-0.13 1.997 0.87 2.082 0.823-0.043 1.822-0.085 2.082 0.868-0.26 0.825-0.219 2.082-1.39 2.255-1.692-0.304-3.904 0.737-5.031-0.865-1.04-2.603 3.038-2.343 2.082-4.687-3.992 1.303-7.936-1.128-11.799 0.347-1.822-0.129-4.77-1.343-5.725 0.347-0.476 2.257 2.212 1.302 3.123 2.431 0.521 4.595 0.521 8.588 0 13.185-0.866 0.908-1.993 1.172-3.298 1.041-3.858-5.552-5.029-11.712-7.461-17.873l-0.691 0.175c-2.127 5.814-4.644 11.45-7.808 16.829-1.301 1.346-5.293 0.652-4.163 3.473l11.105-0.521c0.736-0.609 0.127-1.561-0.35-2.083-2.297-2.82 1.086-5.899 2.432-8.5 2.167 2.035 2.167 5.594 2.948 8.5l-2.082 1.908 0.691 1.042c5.163-1.215 10.975 0.173 16.138-0.521" fill="#231f20" stroke-width="4.6687"/><g fill="#fff" stroke-width="2.1607"><path d="m398.27 237.43h-0.696c-0.129 2.777-4.467 7.245 0.347 8.677 5.076-1.521-0.045-5.815 0.349-8.677"/><path d="m433.14 243.5-4.859-12.838c-1.13-0.824-3.123-0.65-4.339-0.174-0.521 4.253-0.521 9.024 0 13.186 0.826 1.216 1.952 0.045 2.603-0.691 1.866-0.87 1.866-4.774 3.989-3.647l-0.693 5.207c0.996 0.952 2.733-0.173 3.299-1.043"/><path d="m230.67 236.73c-1 0.13-2.907-1.085-3.644 0.351 0.477 2.035 0.823 4.118 1.908 5.899 1.386-1.606 1.475-4.253 1.736-6.25"/><path d="m437.48 236.39-3.472-0.521c-1.3 2.256 0.912 3.949 1.388 5.901 1.735-1.216 1.65-3.688 2.084-5.38"/><path d="m258.43 215.05c0.39-0.523 0.821-2.085-0.347-2.256-3.992-1.086-8.547-0.912-12.669-0.176l-1.041 1.392c3.819 2.427 9.804 1.212 14.057 1.04"/><path d="m393.58 213.31c0.524-0.26 0.524-1.301 0-1.391-3.47-2.34-8.673-0.519-12.661-1.56-0.916 0.65-2.082 0.779-2.951 1.56 1.256 1.566 3.6 1.302 5.55 1.566z"/><path d="m257.21 207.93c12.579-0.477 24.29-0.521 36.436 0 5.249-0.911 10.41 0.476 15.788-1.217 3.861-2.861 7.897-5.375 12.321-6.939l1.907 0.695c0.783-2.948-0.781-5.985 0-8.503 2.211 0.566 1.82 3.73 4.509 3.472 1.175-4.424 0.696-9.237-0.171-13.706-0.781-0.736-2.908-1.301-2.082-2.777l14.572-0.52c1.607 0.304 3.078-0.739 4.164 0.869-0.084 2.599-4.595 2.123-2.427 5.551 2.082 1.085 4.728 0.302 6.594-0.695 0.173-0.911 1.127-1.736 0.521-2.777-0.784-0.346-1.91-0.52-2.084-1.561 1.694-3.904 9.155 1.561 9.195-4.684 1.172-0.867 2.212 0.694 2.428 1.562l0.176 1.735c2.861 0.044 5.813-0.739 8.156 1.387 2.123 2.256 3.252 5.768 1.732 8.676-1.041 4.164-14.052 2.081-6.416 7.981 3.422 0.607 2.774-3.688 5.549-4.166 0.391 2.215 1.347 4.642 1.216 7.289-0.349 0.912-1.302 1.216-2.256 1.041-2.257-3.862-9.196-0.565-9.889-6.42-0.736-2.862 1.04-5.899 3.818-6.766 1.82-0.565 4.551-0.434 5.03-2.777-0.087-2.301-1.996-3.902-4.164-4.164-1.431 0.217-2.952 1.518-3.298 2.949 0.217 1.044-0.303 1.865-0.869 2.431-1.949 0.171-1.253-2.647-1.904-3.993-0.045-0.389 0.216-1.216-0.524-1.04l-1.562 1.561c-0.695 4.599-4.248 8.461-3.643 13.186 0.477 0.349 1.346 0.826 1.217 1.561-2.389 2.347-6.507 0.61-10.064 0.87-0.606-0.479-1.172-1.215-0.696-1.907 2.127-0.175 1.955-2.127 1.392-3.647l-4.34-10.755c-0.999-0.954-2.647-0.349-3.987-0.524l-0.697 1.044c-0.39 4.25-0.823 9.324 0.347 13.358 2.385 0.696 3.208-2.472 4.51-3.815 1.908 1.692 0.693 5.551 1.043 7.979-0.174 0.825-1.26 0.65-1.91 0.349-1.778-4.033-6.721-0.219-10.064-1.908-0.996 1.127-0.218 2.515-0.693 3.644 3.645 1.386 6.638 4.985 10.757 5.55 16.05 0.216 31.709-1.171 47.888-0.174 4.206-0.435 9.412 0.174 13.01 2.43 0.998-1.084 1.694-2.906 1.389-4.858 0-6.681-2.992-12.231-5.554-17.696-2.253-5.945-0.647-13.706-6.416-18.045l-12.32-0.695h-123.19c0.085 1.864-3.037 1.864-3.123 3.99-2.085 11.754-5.205 23.119-9.372 34.007-0.346 1.216-0.171 3.123 0.525 4.338 4.985-3.516 11.145-2.646 17.521-2.776"/></g></g><g fill="#231f20" stroke-width="2.1607"><path d="m133.33 414.58c-8.372-3.818-16.915-7.071-26.198-8.677-4.598-0.998-1.951 5.249-5.379 5.9-1.171-2.123-0.736-5.636-0.346-8.154 0.736-4.293-1.606-8.502 0.692-11.626 1.65 1.128 1.736 3.255 2.602 4.861 9.803-1.866 19.261-4.643 27.934-9.199 0.435-1.474 0.349-3.728 2.257-3.988 0.39 0.39 0.91 0.737 0.694 1.387-1.431 3.383-0.044 8.588-1.216 11.45-2.516-0.171-1.3-3.253-2.602-4.683l-5.896 1.56c-5.077 1.217-1.866 7.852-2.777 11.106 2.863 1.344 6.115 1.605 9.194 2.427 1.26-0.952 0.346-2.774 1.387-3.814 0.564-0.825 1.389 0 1.91 0.346-0.339 4.543 0.562 10.453 0.517 15.302l-1.516 0.082z"/><path d="m139.75 382.65c0.13-1.911-2.342-1.996-3.643-2.602 0.044-6.68 1.431-13.231 1.907-19.956-0.432-0.692-1.345-0.91-1.907-0.345-0.956 1.345-0.651 4.424-3.297 3.817-8.543-0.65-17.09-1.26-24.987-3.472-0.345-1.602-0.516-3.643-1.906-4.509-1.606 0.389-1.171 2.561-1.736 3.817l-1.734 15.96c-1.215 1.172-5.207-1.126-4.858 2.082l1.387 0.695c3.255 0.045 6.509 1.13 9.544 0.696-2.95-2.994-3.035-7.636-2.603-11.625 3.992-1.127 8.416-0.22 12.145 0.867-0.304 3.297-0.565 6.549-2.428 9.196-1.606 0.302-3.947-0.087-4.512 1.562 2.3 2.081 5.899 0.259 8.676 1.561 1.561-0.131 3.859 1.866 4.684-0.346-0.606-1.215-2.082-1.129-2.948-2.085-0.825-2.863-2.213-6.938-0.175-9.54 4.208-0.348 8.892 0.346 12.666 2.081-0.304 4.379-1.561 9.325-5.899 11.106l0.174 0.519c3.728 0.606 7.197 0.953 10.929 1.039z" fill-rule="evenodd"/><path d="m140.62 420.65c-6.201 0.907-0.476 6.636-2.253 10.581-0.175 4.164-3.212 7.721-6.767 9.891-2.386 0.781-5.683 0.781-7.981-0.174-7.114-3.86-3.817-16.309-13.535-15.789-2.298 0.867-2.428 3.208-2.257 5.38 0.35 2.688 1.736 5.074 4.168 6.764 0.866 1.389 3.469 0.827 3.122 2.95l-4.338 0.349c-3.123-0.39-4.944 2.818-7.636 1.906-0.259-2.037 1.651-3.512 2.778-4.683-1.042-5.03-2.864-11.018 1.56-15.094 2.172-1.476 4.815-1.736 7.636-1.563 7.372 0.869 7.332 8.895 10.581 13.71 1.91 1.34 3.992 2.731 6.595 1.906 1.996-0.52 3.037-2.647 3.297-4.513 1.822-5.896-4.773-8.239-7.807-11.45 1.476-3.383 4.73 0.781 6.941-1.562 0 0 1.389-0.273 1.387-0.171 1.995 1.083 3.122-2.041 5.03-0.695-0.171 0.736 0.435 1.822-0.521 2.257"/><path d="m114.42 478.77c-0.65 0.65-1.732 0.305-2.257-0.346-0.171-2.127 1.435-3.037 2.777-4.509-1.952-6.465-4.468-12.755-5.9-19.436 0.651-4.204-4.293-1.171-5.551-3.293-0.389-0.651-0.044-1.391 0.347-1.911 4.468-0.607 8.502-2.122 12.666-3.469 0.521 0.085 0.824 0.476 0.694 1.041-4.813 2.126-3.512 7.592-3.989 11.625 8.976-1.431 17.782-4.513 25.852-8.677 1.473-1.646-0.695-3.814 0.517-5.725 0.436 0.086 1-0.216 1.216 0.349 1.518 4.856 2.473 9.931 4.51 14.574l-0.346 1.041c-1.866-0.477-2.212-2.562-3.298-3.818-7.717 0.998-14.398 4.382-21.339 7.288-1.52 1.258-4.337 1.518-4.512 3.816 2.386 3.643 5.683 6.94 10.412 6.421v1.216l-7.461 1.385s-3.644 1.779-4.338 2.428"/><path d="m160.57 481.55c-0.304 1.605-2.211 0.736-3.297 1.215-2.992 0.736-5.293 3.642-8.502 3.298 2.253-3.081 2.037-7.896 0.521-11.625-4.338 0.042-7.721 3.512-11.799 4.684 0.088 2.644 2.212 4.77 4.163 6.591 1.821 1.736 4.164-0.434 6.074 0.522 0.045 3.081-3.818 2.561-5.724 3.817-2.518 0.347-4.383 3.947-6.942 2.602 0.175-1.126 0.477-2.211 1.562-2.952 0.825-3.033-0.476-6.07-2.257-8.498-2.427-0.217-4.208 2.253-6.42 3.122-1.256 1.433-5.16 1.606-3.815 4.336 1.648 3.646 5.377 5.208 9.195 5.034 0.219 2.34-3.168 2.255-4.86 3.122-2.385 1.086-4.464 2.907-6.936 3.817-1.041-2.472 1.516-3.382 2.601-5.378-1.827-6.243-5.59-11.204-7.336-17.471l1.798-0.73c0.82 0.917 1.727 2.803 3.283 2.758 8.153-2.514 15.484-7.112 22.9-11.451 2.431-1.646-0.346-4.164 1.041-6.245 0.609-0.304 1.65-0.215 1.91 0.52 0.996 5.595 3.904 10.409 6.245 15.443 0.652 2.643 2.907 0.865 4.511 0.865 1.434-0.217 2.561 1.086 2.084 2.604"/><path d="m413.34 327.68c0-13.592-11.019-24.61-24.612-24.61-13.595 0-24.614 11.018-24.614 24.61 0 13.596 11.019 24.615 24.614 24.615 13.593 0 24.612-11.019 24.612-24.615" fill-rule="evenodd"/></g><g fill="#fff" stroke-width="2.1607"><path d="m374.22 315.96c-1.298-0.517-2.517-1.078-3.613-1.663 1.777-2.363 4.01-4.368 6.571-5.883 0.655 0.384 1.355 0.791 2.113 1.193-2.281 1.899-3.912 4.126-5.071 6.353"/><path d="m384.58 310.42c-1.013-0.288-1.975-0.655-2.884-1.075 1.839-1.47 4.078-2.833 6.779-4.059 0.063-4e-3 0.128-4e-3 0.197-4e-3h0.029c-1.664 1.591-3.017 3.34-4.121 5.138"/><path d="m378.59 307.64c2.852-1.419 6.047-2.257 9.431-2.353-3.05 0.768-5.547 1.972-7.588 3.432-0.638-0.34-1.25-0.702-1.843-1.079"/><path d="m371.49 326.49h-5.334c0.219-4.06 1.523-7.829 3.635-11.035 1.062 0.524 2.353 1.12 3.845 1.715-1.724 3.854-2.121 7.533-2.146 9.32"/><path d="m389.93 311.15-0.015-5.83c0.028 0 0.057 0 0.084 4e-3 1.22 1.926 2.223 3.783 3.051 5.547-0.994 0.168-2.039 0.273-3.12 0.279"/><path d="m390.47 305.35c3.454 0.271 6.692 1.318 9.534 2.962-0.408 0.241-0.849 0.479-1.315 0.711-2.168-1.58-4.865-2.878-8.219-3.673"/><path d="m399.73 309.84c0.469-0.244 0.959-0.504 1.482-0.777 2.247 1.498 4.209 3.386 5.789 5.57-0.743 0.396-1.568 0.783-2.458 1.154-1.125-2.085-2.676-4.158-4.813-5.947"/><path d="m394.38 310.59c-1.121-1.835-2.504-3.629-4.212-5.263 0.049 3e-3 0.093 7e-3 0.14 0.01 2.842 1.291 5.176 2.726 7.08 4.271-0.926 0.384-1.932 0.721-3.008 0.982"/><path d="m394.75 344.63c1.292 0.418 2.349 0.961 3.17 1.504-2.054 2.033-4.42 3.414-6.935 3.932-0.242 0.025-0.48 0.044-0.726 0.064 1.857-1.47 3.326-3.394 4.491-5.5"/><path d="m399.49 347.44c-2.212 1.205-4.65 2.053-7.232 2.462 2.691-0.679 4.896-1.714 6.705-2.974 0.203 0.178 0.381 0.35 0.527 0.512"/><path d="m382.78 319.76c1.891 0.316 3.912 0.523 6.043 0.562l-2e-3 6.172h-6.775c-0.028-1.097 0.034-3.48 0.734-6.734"/><path d="m400.29 345.91c2.592-2.206 4.219-4.912 5.24-7.59 0.789 0.361 1.58 0.752 2.367 1.17-1.751 2.837-4.121 5.259-6.923 7.074-0.179-0.203-0.407-0.425-0.684-0.654"/><path d="m407.32 328.04 3.912-2e-3c-0.047 3.646-0.967 7.082-2.563 10.113-0.606-0.454-1.482-0.965-2.574-1.481 1.073-3.593 1.173-6.918 1.225-8.63"/><path d="m387.05 350.13c-3.414-0.241-6.617-1.241-9.441-2.827 0.484-0.309 0.97-0.607 1.468-0.886 2.049 1.618 4.651 2.932 7.973 3.713"/><path d="m377.62 345.13c-0.593 0.355-1.158 0.736-1.678 1.143-2.281-1.552-4.257-3.512-5.83-5.772 1.012-0.648 2.13-1.262 3.321-1.825 0.896 2.242 2.22 4.502 4.187 6.454"/><path d="m372.82 336.92c-1.484 0.676-2.764 1.326-3.799 1.844-1.799-3.174-2.846-6.823-2.897-10.714h5.41c0.049 1.732 0.15 5.17 1.286 8.87"/><path d="m380.48 345.68c1.061-0.506 2.198-0.934 3.497-1.248 1.185 2.206 2.698 4.226 4.634 5.755h-0.235c-2.882-0.476-5.597-2.079-7.896-4.507"/><path d="m393.57 344.3c-0.891 2.102-2.028 4.113-3.471 5.843-0.022 0-0.045 2e-3 -0.066 2e-3l-0.018-6.305c1.312 0.038 2.498 0.206 3.555 0.46"/><path d="m375.79 316.55c1.076-2.21 2.629-4.332 4.814-6.291 1.006 0.471 2.111 0.905 3.34 1.25-1.235 2.229-2.104 4.491-2.723 6.586-1.867-0.406-3.704-0.936-5.431-1.545"/><path d="m396.35 333.65c-2.009-0.363-4.151-0.611-6.366-0.674l-0.01-4.934 6.848-4e-3c-0.032 1.133-0.135 3.158-0.472 5.612"/><path d="m396.86 326.49h-6.895l-0.016-6.166c2.269-0.019 4.316-0.209 6.169-0.518 0.718 3.294 0.768 5.662 0.742 6.684"/><path d="m394.16 342.8c-1.338-0.407-2.756-0.688-4.15-0.746l-0.018-7.239c2.061 0.012 4.092 0.194 6.094 0.544-0.393 2.329-1.001 4.915-1.926 7.441"/><path d="m389.95 318.97-0.017-6.672c1.418 0 2.605-0.085 3.653-0.244 0.998 2.292 1.695 4.404 2.184 6.277-1.921 0.35-3.887 0.576-5.82 0.639"/><path d="m407.37 326.49c-0.017-1.778-0.402-5.514-2.188-9.41 0.96-0.415 1.836-0.831 2.647-1.219 1.956 3.113 3.162 6.741 3.375 10.629z"/><path d="m399.14 326.49c-0.057-1.225-0.275-3.859-1.096-7.052 2.095-0.464 3.926-1.063 5.549-1.698 1.17 2.844 1.6 5.808 1.61 8.75z"/><path d="m382.09 328.04 6.729-3e-3 -4e-3 4.918c-2.187 0.017-4.285 0.271-6.261 0.671-0.334-2.477-0.435-4.498-0.464-5.586"/><path d="m403.33 337.38c-1.074 2.938-2.561 5.528-4.338 7.598-0.975-0.613-2.193-1.228-3.533-1.736 1.178-2.473 1.98-5.103 2.529-7.506 1.797 0.41 3.577 0.957 5.342 1.644"/><path d="m395.06 311.76c1.216-0.306 2.27-0.73 3.367-1.26 2.037 1.846 3.51 3.83 4.551 5.896-1.644 0.596-3.455 1.127-5.348 1.555-0.597-1.971-1.425-4.094-2.57-6.191"/><path d="m379.77 326.49h-6.123c0.019-2.913 0.447-5.871 1.598-8.712 1.679 0.6 3.561 1.162 5.627 1.609-0.809 3.174-1.038 5.812-1.102 7.103"/><path d="m388.8 350.17c-1.479-1.779-2.628-3.849-3.525-6.007 1.059-0.184 2.226-0.295 3.53-0.327z"/><path d="m380.54 334.1c-2.003 0.524-3.853 1.181-5.52 1.86-0.754-2.456-1.228-5.122-1.345-7.915l6.103-3e-3c0.063 1.082 0.246 3.329 0.762 6.058"/><path d="m383.2 342.86c-1.377 0.358-2.699 0.831-3.933 1.408-1.46-1.859-2.7-4.077-3.639-6.549 1.691-0.677 3.488-1.261 5.306-1.724 0.511 2.203 1.234 4.592 2.266 6.865"/><path d="m385.87 310.74c0.811-1.72 1.784-3.521 2.969-5.386l-8e-3 5.771c-1.035-0.052-2.018-0.185-2.961-0.385"/><path d="m388.81 334.82-8e-3 7.229c-1.391 0.04-2.794 0.201-4.165 0.474-0.843-2.374-1.406-4.789-1.787-6.978 2.022-0.414 4.04-0.667 5.96-0.725"/><path d="m399.12 328.04h6.045c-0.117 2.708-0.567 5.297-1.283 7.689-1.602-0.612-3.48-1.192-5.543-1.668 0.513-2.672 0.709-4.894 0.781-6.021"/><path d="m388.83 318.99c-1.868-7e-3 -3.809-0.196-5.742-0.527 0.495-1.964 1.223-4.19 2.275-6.6 1.068 0.218 2.222 0.367 3.47 0.414z"/><path d="m119.8 396.18c-3.558 0.65-7.111 2.298-10.584 3.645l-0.175 0.344c2.952 2.256 7.156 2.691 10.584 3.647z" fill-rule="evenodd"/></g><g fill="#231f20" fill-rule="evenodd" stroke-width="2.1607"><path d="m293.12 194.57c-2.428-0.041-6.332 3.257-7.981-0.171 0.215-1.345-0.563-3.082 0.694-3.993 2.388 0.131 4.469 1 6.592 1.737v-5.725c-2.037 0.433-4.64 3.298-7.113 1.732-0.085-2.253-0.694-5.159 0.521-7.111 2.949 0.044 3.99 2.471 6.075 3.471 2.208-2.256-0.74-5.641 1.212-8.157-0.175-1.085-1.603-1.604-2.428-0.869-0.911 1.217-0.781 3.908-3.123 3.473h-10.063c-0.044 0.435-0.91 0.735-0.349 1.215 0.825 1.17 2.431 0.562 3.472 1.212 1.777 4.428 1.212 10.627 0.348 15.268-3.947 0.045-3.687-5.074-5.552-7.633l-3.473-11.103-1.215 0.345c-2.384 5.942-2.993 12.754-6.592 18.046-1.602-0.132-2.732 0.65-2.948 2.08l0.521 0.697c3.468-1.086 8.847 2.471 9.714-1.737-0.476-0.476-1.343-0.434-1.561-1.212 0.866-2.475 0.91-5.467 2.602-7.464 1.735 2.215 2.386 5.033 2.602 7.636-1.082 0.345-3.164 0.65-2.082 2.427 5.424 0.695 11.583-0.867 17.004 0 1.171 1.085 0.606 3.817 2.948 3.473z"/><path d="m322.62 198.39c0.825-2.341-2.121-1.171-2.427-2.948-0.478-4.813-1.216-9.112-0.52-13.535 0.52-1.3 3.383-0.256 2.603-2.599-3.124 0.387-6.246-0.739-9.371-0.349-0.869 1.952 1.387 1.823 2.255 2.428 0.78 4.773 0.78 10.022 0 14.576-0.65 1.083-2.991 0.562-2.428 2.256 3.384-0.219 6.592 1.171 9.888 0.171"/><path d="m311.52 194.4c0.652-3.253-0.736-6.249-3.123-8.331 3.299-0.996 3.082-4.64 3.473-7.457 1.82-1.91 4.508-3.428 7.111-2.777 0.737 0.565 1.431 1.257 2.43 1.214 0.824-0.433 0.648-1.736 0.172-2.255-1.952-1.346-4.856-1.866-7.115-0.87-5.856 2.476-6.286 9.937-12.316 12.321-1.256-1.041-0.477-3.253-0.695-4.86 0.654-1.256 3.557-0.216 2.603-2.256-2.904 0.047-6.376-0.908-8.675 0.177 3.123 1.515 2.603 6.027 3.123 9.365-0.605 2.562 0.13 6.811-2.776 7.291-1.041-0.305-1.691 0.346-1.388 1.386 2.949 1.778 5.812-1.345 8.849 0.696 3.298 0.56 6.811-0.521 8.327-3.644"/></g><path d="m307.87 193.88c0.219-2.128-0.347-4.559-2.603-5.034-1.387-0.566-2.948 0.131-3.469 1.387-0.26 1.996-0.521 4.772 1.558 5.728 1.955 0.347 3.604-0.74 4.514-2.081" fill="#fff" fill-rule="evenodd" stroke-width="4.6687"/><path d="m345.31 194.09c1.347-1.258 2.127-3.34 2.258-5.379-0.998-0.952-2.645-0.347-3.993-0.522 0 1.782 0.478 4.209 1.735 5.901m-21.514-1.736c2.213 0.564 1.823 3.728 4.51 3.471 1.174-4.423 0.695-9.238-0.171-13.706-0.781-0.737-2.906-1.3-2.081-2.778l14.571-0.52c1.607 0.305 3.081-0.74 4.165 0.87-0.085 2.599-4.595 2.124-2.427 5.551 2.081 1.084 4.728 0.3 6.595-0.696 0.17-0.91 1.125-1.735 0.52-2.775-0.783-0.347-1.91-0.521-2.085-1.563 1.694-3.904 9.155 1.563 9.196-4.682 1.172-0.868 2.213 0.693 2.428 1.559l0.176 1.736c2.862 0.044 5.812-0.74 8.156 1.387 2.121 2.258 3.252 5.769 1.731 8.677-1.04 4.165-14.051 2.082-6.416 7.98 3.424 0.609 2.773-3.686 5.55-4.165 0.39 2.215 1.347 4.642 1.216 7.288-0.35 0.914-1.302 1.216-2.257 1.042-2.256-3.862-9.197-0.566-9.887-6.42-0.738-2.862 1.04-5.899 3.817-6.765 1.821-0.567 4.549-0.435 5.03-2.778-0.087-2.3-1.997-3.902-4.165-4.164-1.43 0.215-2.951 1.517-3.297 2.95 0.216 1.043-0.304 1.865-0.869 2.429-1.949 0.171-1.254-2.646-1.904-3.992-0.045-0.39 0.216-1.216-0.524-1.04l-1.561 1.561c-0.694 4.599-4.249 8.462-3.644 13.185 0.476 0.35 1.346 0.825 1.215 1.563-2.386 2.346-6.506 0.608-10.062 0.869-0.606-0.479-1.172-1.216-0.697-1.906 2.128-0.176 1.956-2.127 1.392-3.648l-4.338-10.755c-1.002-0.954-2.648-0.348-3.99-0.524l-0.695 1.045c-0.391 4.25-0.822 9.323 0.346 13.356 2.386 0.697 3.208-2.47 4.509-3.813 1.911 1.689 0.695 5.55 1.045 7.978-0.176 0.825-1.26 0.65-1.911 0.35-1.777-4.033-6.722-0.22-10.064-1.909-0.548 0.622-0.558 1.323-0.536 2.016 0 0-2.018 0.753-2.535-3e-3 -0.354-0.518-0.81-5.812-0.052-8.261" fill="#231f20" stroke-width="4.6687"/><path d="m347.99 188.86-3.472-0.52c-1.299 2.256 0.912 3.948 1.388 5.9 1.736-1.216 1.65-3.689 2.084-5.38" fill="#fff" fill-rule="evenodd" stroke-width="4.6687"/></g></svg>
