<svg version="1.1" viewBox="0 0 300 233.81" xml:space="preserve" xmlns="http://www.w3.org/2000/svg"><path d="m61.026 128.32c0 1.2169 0.98886 2.2054 2.2037 2.2054 1.2165 0 2.2114-0.98842 2.2114-2.2054 0-1.2136-0.99488-2.2093-2.2114-2.2093-1.2148 0-2.2037 0.99565-2.2037 2.2093m0.36752 0c0-1.0176 0.82498-1.8349 1.8362-1.8349 1.0193 0 1.8383 0.81731 1.8383 1.8349 0 1.0124-0.81895 1.837-1.8383 1.837-1.0112 0-1.8362-0.82453-1.8362-1.837m1.0685 1.0012c0 0.0617 0.04874 0.11852 0.11765 0.11852h0.15884c0.06879 0 0.11809-0.0568 0.11809-0.11852v-0.73384h0.45231l0.34528 0.76462c0.01665 0.0372 0.06036 0.0877 0.10954 0.0877h0.20835c0.08774 0 0.14767-0.092 0.1044-0.16902-0.12061-0.2387-0.24385-0.48517-0.36752-0.72266 0.17242-0.0428 0.49634-0.20846 0.49634-0.66713 0-0.45998-0.37267-0.68805-0.75443-0.68805h-0.8712c-0.06891 0-0.11765 0.0526-0.11765 0.11502zm0.38724-1.0912v-0.70086h0.60162c0.22599 0 0.37059 0.14032 0.37059 0.35174 0 0.18743-0.1446 0.34912-0.37059 0.34912h-0.60162m26.977 3.087-0.24428 0.79332c-0.0617 0.20024-0.19992 0.37705-0.29358 0.37705l-2.288-0.0188-1.5165 4.9252c-0.04067 0.13134-0.26521 0.24943-0.47323 0.24724l-0.83352-7e-3c-0.20967-2e-3 -0.36029-0.1216-0.32052-0.25207l1.5165-4.9273-2.2847-0.0177c-0.0941 0-0.12455-0.17714-0.06244-0.37651l0.24308-0.79332c0.06203-0.19948 0.20069-0.37573 0.29478-0.37442l2.285 0.0162 0.70229-2.2816c0.04141-0.13179 0.26521-0.24856 0.47367-0.24648l0.83528 7e-3c0.20792 8.3e-4 0.35942 0.12149 0.31834 0.25414l-0.70175 2.2807 2.2872 0.0175c0.0941 8.3e-4 0.12367 0.17977 0.06244 0.37662zm-8.3467-5.0608c-0.47838 5.4849-2.591 8.7703-5.1427 11.306-0.77744 0.77448-2.6603 2.0826-2.7287 2.0826 0.6611 0.60468 8.0939 0.38647 8.7965 0.38647 0.26443 1.1446-0.13693 3.0125-1.3693 7.1204 4.5936-0.42919 9.9266-4.7409 11.15-10.037 0.34232-1.4647 0.92433-3.3236 1.1733-5.0249 0.43139-2.9213 1.0312-5.7365 1.0312-5.8332h-12.911m153.32-5.3468c-0.13145-0.29905-0.65289-0.96398-1.2477-1.0735-2.1262-0.37903-8.3834-1.2072-13.387-2.3771-13.45-3.145-30.378-9.125-38.079-6.6855-6.6724 2.1153-11.497 8.9476-12.95 11.106-0.37902 0.56306 0.29468 0.61017 0.29468 0.61017h64.651s0.36478-0.0175 0.44694-0.0712c0.0931-0.0614 0.34945-0.18184 0.34945-0.44474 7e-3 -0.19499 0.0602-0.81721-0.0778-1.0637m-164.75-1.8162c2.9834-0.5773 11.857-1.5249 18.931-3.0059 19.018-3.9754 44.177-11.072 55.197-8.4316 10.663 2.5502 15.679 11.352 16.966 14.023 0.38011 0.78214-0.41189 0.77228-0.41189 0.77228h-91.334s-1.2666-4e-3 -1.3321-0.7197c-0.04283-0.47213-0.46425-2.158 1.9846-2.6378m75.098-76.741c7.0558 2.984 10.805-6.955 6.3339-12.543-0.78215-1.1031 0.66384-0.65946 1.2608-0.37245 2.3453 1.1305 6.8115 3.7081 9.4559 9.8097 1.7954 4.1495-0.60579 10.449-4.258 11.734-3.4024-1.6618-10.624-4.9054-12.793-8.6288m20.534 56.85c1.1853 1.7242-0.069 4.2229-2.7101 1.136-0.92017-1.0845-1.6771-2.4198-0.93551-2.6937 0.7471-0.27824 2.812 0.3363 3.6456 1.5577m-17.707-55.3c-10.81-6.8553-14.531-6.6745-12.979-20.958 1.2247-8.3035 4.8397-13.175 6.3897-14.981 0.79967-1.0023 0.90812-0.25743 0.73614-0.0088-12.308 27.1 6.2364 36.548 5.853 35.948m-59.353-23.287c-0.17198-5.9745 5.5384-16.344 5.5384-12.913 0 3.5755-7.464 26.847 33.179 53.241 0.44694 0.26729 0.61783 0.8172 0.25305 0.8172-16.416 0.0646-25.026-6.2692-30.929-10.723-6.4463-5.3753-8.7207-10.998-9.4545-13.263-0.43435-1.2061 0.24384-0.82377 0.37869-0.62988 3.1451 4.5636 12.043 14.503 18.964 16.169 0.20879 0.0471-18.335-14.006-17.929-32.698m51.678-20.565c-12.411 18.458-5.131 31.733-4.0597 33.469 4.9536 8.0121 16.921 12.357 32.953 24.798 1.5851 1.2302 15.499 14.618 14.891 28.726-0.0306 1.3441-0.1676 2.3026 0.0602 2.2336 3.5065-1.0538 14.599-18.203 5.1946-33.856-6.0972-10.149-27.744-24.412-27.851-24.478-1.917-1.113 5.8387 0.46556 11.984 3.4353 10.721 5.1814 50.751 29.449 10.107 65.704-6.5595 5.8475-17.131 18.273-19.118 20.14-0.30891 0.33083-0.4316 0.0723-0.48747-0.0197-2.1405-3.5733-0.9837-18.279-25.124-18.31-12.392-0.0197-30.075 0.68684-45.479-5.3249-28.046-10.948-26.532-33.343-24.418-42.428 2.3106-12.408 12.978-16.385 12.816-15.593-1.0526 5.0708-6.47 21.791 0.34747 34.23 13.782 28.212 48.29 17.608 68.308 24.472 14.551 4.9886 13.729 13.069 15.059 15.572 0.54991 1.0352 5.1782-5.7084 8.0668-11.344 3.7311-7.2683 3.1888-19.303-1.7385-28.216-2.2917-4.1506-9.1853-11.397-27.627-22.508-37.952-22.867-6.3667-52.17-3.8844-50.701m27.111 126.16h61.751c0.93331 0 4.2164-0.0724 4.867 0.0714 0.71094 0.16212 0.57839 3.8293-0.18185 4.0693-0.7208 0.092-49.828 0.021-66.487 0.021-0.30454-0.0316-0.49952-0.28076-0.5784-0.40225-0.15555-0.24647-0.13145-3.1622 0-3.419 0.15337-0.28887 0.37684-0.29786 0.62879-0.34058m-99.556 0h9.1281c0.13485 0 1.2808 0.0196 1.5461 0.0196 1.5584 0 0.3615 3.5671 0.24899 3.8046-0.2846 0.38033-1.6461 0.27944-1.7866 0.27944h-9.1366c-0.28449-0.0385-0.63755-0.22259-0.64828-0.34407-0.02356-0.24648-0.02356-3.0771-0.02356-3.3202 0-0.30037 0.38735-0.39666 0.67184-0.43938m29.213 0c7.529 0 21.466 0.0196 34.329-0.0703 15.46-0.11173 28.961 0.11294 29.827 0.11294 0.0975 0 0.46337 0.21274 0.52144 0.41978 0.21689 0.77666 0.17855 2.4669-0.092 3.2816-0.0734 0.24012-0.20595 0.37278-0.42942 0.44377-0.72737 0.01-64.782 0-65.398 0-0.27813 0 0.47707-3.6051 0.6324-3.8473 0.10922-0.17078 0.31462-0.27386 0.60984-0.34058m171.29 52.045h-42.175v-1.9038h42.175v1.9038m-5.7182-14.034c0-0.12159 0.0964-0.22894 0.22894-0.22894h4.9054c0.13255 0 0.22895 0.10735 0.22895 0.22894v0.98799c0 0.12028-0.0964 0.22894-0.22895 0.22894h-3.5668v1.9761h2.9763c0.1205 0 0.22895 0.10867 0.22895 0.23026v1c0 0.13266-0.10845 0.22895-0.22895 0.22895h-2.9763v2.1078h3.5668c0.13255 0 0.22895 0.10955 0.22895 0.22895v0.98885c0 0.12061-0.0964 0.22895-0.22895 0.22895h-4.9054c-0.13255 0-0.22894-0.10834-0.22894-0.22895v-7.9779m-9.5676 0c0-0.12159 0.10955-0.22894 0.22895-0.22894h1.1206c0.13364 0 0.22895 0.10735 0.22895 0.22894v3.193h3.9293v-3.193c0-0.12159 0.0964-0.22894 0.22895-0.22894h1.1086c0.1205 0 0.22895 0.10735 0.22895 0.22894v7.9779c0 0.12061-0.10845 0.22895-0.22895 0.22895h-1.1086c-0.13254 0-0.22895-0.10834-0.22895-0.22895v-3.3256h-3.9293v3.3256c0 0.12061-0.0953 0.22895-0.22895 0.22895h-1.1206c-0.1194 0-0.22895-0.10834-0.22895-0.22895v-7.9779m-5.2044 1.2169h-1.8447c-0.13145 0-0.22894-0.10866-0.22894-0.22894v-0.98799c0-0.12159 0.0975-0.22894 0.22894-0.22894h5.268c0.13255 0 0.22895 0.10735 0.22895 0.22894v0.98799c0 0.12028-0.0964 0.22894-0.22895 0.22894h-1.8447v6.761c0 0.12061-0.10736 0.22895-0.22895 0.22895h-1.1206c-0.1194 0-0.22894-0.10834-0.22894-0.22895v-6.761m-11.194-1.2169c0-0.12159 0.0964-0.22894 0.22895-0.22894h4.9054c0.13255 0 0.22894 0.10735 0.22894 0.22894v0.98799c0 0.12028-0.0964 0.22894-0.22894 0.22894h-3.5668v2.2654h2.9763c0.1205 0 0.22895 0.10823 0.22895 0.22894v0.9893c0 0.1194-0.10845 0.22895-0.22895 0.22895h-2.9763v3.0484c0 0.12061-0.10954 0.22895-0.22895 0.22895h-1.1097c-0.13255 0-0.22895-0.10834-0.22895-0.22895v-7.9779m-6.2177 6.7601c1.5194 0 2.7726-1.2402 2.7726-2.7596 0-1.5182-1.2532-2.7835-2.7726-2.7835-1.5172 0-2.7594 1.2654-2.7594 2.7835 0 1.5195 1.2422 2.7596 2.7594 2.7596zm0-7.1105c2.4111 0 4.339 1.9409 4.339 4.3509s-1.928 4.327-4.339 4.327c-2.41 0-4.3259-1.917-4.3259-4.327s1.9159-4.3509 4.3259-4.3509m47.44 34.572c0-0.51135 0.40969-0.97264 0.97275-0.97264h20.161c0.56306 0 0.97275 0.46129 0.97275 0.97264v1.4831c0 0.51267-0.40969 0.97309-0.97275 0.97309h-17.193v12.486h14.685c0.51267 0 0.97275 0.45998 0.97275 0.97254v1.4853c0 0.56186-0.46008 0.97046-0.97275 0.97046h-14.685v13.05h17.193c0.56306 0 0.97275 0.45872 0.97275 0.97265v1.4844c0 0.5105-0.40969 0.97049-0.97275 0.97049h-20.161c-0.56306 0-0.97275-0.45999-0.97275-0.97049v-33.878m-45.233-0.56306c0-0.51266 0.46008-0.92137 0.97274-0.92137h1.2784l23.079 28.759h0.10298v-27.274c0-0.51135 0.40969-0.97264 0.97275-0.97264h1.791c0.51157 0 0.97166 0.46129 0.97166 0.97264v34.44c0 0.51134-0.46009 0.92128-0.97166 0.92128h-0.92127l-23.488-29.324h-0.0515v27.841c0 0.5105-0.4097 0.97049-0.97166 0.97049h-1.791c-0.51267 0-0.97276-0.45999-0.97276-0.97049v-34.441m-35.92 0.56307c0-0.51136 0.40969-0.97265 0.97275-0.97265h20.161c0.56305 0 0.97275 0.46129 0.97275 0.97265v1.4831c0 0.51266-0.4097 0.97308-0.97275 0.97308h-17.193v12.486h14.686c0.51267 0 0.97275 0.45998 0.97275 0.97254v1.4853c0 0.56185-0.46008 0.97045-0.97275 0.97045h-14.686v13.05h17.193c0.56305 0 0.97275 0.45872 0.97275 0.97265v1.4844c0 0.5105-0.4097 0.9705-0.97275 0.9705h-20.161c-0.56306 0-0.97276-0.46-0.97276-0.9705v-33.878m-25.481 17.449c3.9403 0 7.369-3.2738 7.369-7.4708 0-3.8897-3.4287-7.2158-7.369-7.2158h-9.9269v14.687zm-13.97-17.449c0-0.51136 0.40969-0.97265 0.97276-0.97265h13.255c6.14 0 11.155 4.811 11.155 10.9 0 4.7083-3.122 8.6485-7.575 10.441l7.013 12.998c0.35712 0.66497 0 1.4831-0.86979 1.4831h-2.6115c-0.46009 0-0.71533-0.25547-0.8183-0.46l-6.806-13.562h-9.7746v13.051c0 0.5105-0.46119 0.9705-0.97275 0.9705h-1.9948c-0.56307 0-0.97276-0.46-0.97276-0.9705v-33.878m-20.158 22.669c-2.5075-5.5782-4.9634-11.206-7.4709-16.785h-0.40969l-7.4709 16.785zm-24.308 10.849 15.557-34.44c0.15336-0.3077 0.4097-0.56316 0.86978-0.56316h0.51267c0.45898 0 0.71642 0.25546 0.86868 0.56316l15.456 34.44c0.30672 0.66625-0.10297 1.3299-0.87088 1.3299h-2.0463c-0.46118 0-0.7668-0.30682-0.86977-0.56184l-3.787-8.4426h-18.167l-3.7354 8.4426c-0.10298 0.25502-0.4097 0.56184-0.87088 0.56184h-2.0463c-0.7679 0-1.1776-0.66369-0.87087-1.3299m-31.724-0.56184 18.576-30.194v-0.15314h-16.12c-0.51135 0-0.97265-0.46009-0.97265-0.97265v-1.6368c0-0.51136 0.46129-0.97265 0.97265-0.97265h20.726c0.51135 0 0.97176 0.46129 0.97176 0.97265v0.66503l-18.883 30.552v0.0505h16.887c0.56272 0 0.97264 0.45999 0.97264 0.97177v1.6389c0 0.5105-0.40992 0.9705-0.97264 0.9705h-21.186c-0.51135 0-0.9722-0.46-0.9722-0.9705v-0.92128m-16.473-10.287c-2.5076-5.5782-4.9638-11.206-7.4712-16.785h-0.40958l-7.4712 16.785zm-24.308 10.849 15.557-34.44c0.15358-0.3077 0.40904-0.56316 0.86989-0.56316h0.51135c0.46085 0 0.71719 0.25546 0.87044 0.56316l15.455 34.44c0.3064 0.66625-0.10319 1.3299-0.87088 1.3299h-2.0462c-0.46129 0-0.76769-0.30682-0.87044-0.56184l-3.7869-8.4426h-18.167l-3.7356 8.4426c-0.10275 0.25502-0.40915 0.56184-0.87044 0.56184h-2.0462c-0.76812 0-1.1772-0.66369-0.87077-1.3299m-40.319-34.081c0-0.51266 0.46086-0.92137 0.97178-0.92137h1.2794l23.079 28.759h0.10363v-27.274c0-0.51136 0.40904-0.97265 0.97177-0.97265h1.7912c0.51179 0 0.9722 0.46129 0.9722 0.97265v34.44c0 0.51134-0.46041 0.92128-0.9722 0.92128h-0.9217l-23.489-29.324h-0.050489v27.841c0 0.5105-0.40951 0.9705-0.97306 0.9705h-1.7912c-0.51092 0-0.97178-0.46-0.97178-0.9705v-34.441m190.39-44.363c0-0.38976 0.35164-0.7415 0.74162-0.7415h1.5216c0.42832 0 0.74162 0.35174 0.74162 0.7415v11.393h15.84v-11.393c0-0.38976 0.3122-0.7415 0.74161-0.7415h1.5227c0.38888 0 0.74052 0.35174 0.74052 0.7415v25.83c0 0.39108-0.35164 0.74162-0.74052 0.74162h-1.5227c-0.42941 0-0.74161-0.35054-0.74161-0.74162v-11.822h-15.84v11.822c0 0.39108-0.3133 0.74162-0.74162 0.74162h-1.5216c-0.38998 0-0.74162-0.35054-0.74162-0.74162v-25.83m-20.372-1.1301c3.9414 0 6.7906 1.3646 9.4438 3.6269 0.3111 0.31198 0.34944 0.78094 0.0394 1.092l-1.0549 1.0539c-0.31111 0.39195-0.62331 0.35263-1.0144-0.0394-2.0288-1.7553-4.7991-2.9253-7.4523-2.9253-6.1652 0-10.884 5.1905-10.884 11.237 0 6.0074 4.7192 11.198 10.884 11.198 3.3948 0 5.383-1.365 7.4523-2.926 0.39107-0.31111 0.70327-0.27254 0.9377-0.11808l1.1699 1.0539c0.31221 0.23409 0.23333 0.78094-0.0384 1.0535-2.6532 2.5756-6.0096 3.7849-9.4832 3.7849-7.8028 0-14.084-6.2034-14.084-14.008 0-7.8024 6.2813-14.084 14.084-14.084m-32.115 14.435c3.0048 0 5.6185-2.4977 5.6185-5.6963 0-2.9662-2.6137-5.5024-5.6185-5.5024h-7.5684v11.199zm-10.652-13.305c0-0.38975 0.3133-0.7415 0.74162-0.7415h10.105c4.6819 0 8.5061 3.6689 8.5061 8.3112 0 3.591-2.3793 6.5944-5.7741 7.9608l5.3447 9.909c0.27386 0.5074 0 1.1318-0.66274 1.1318h-1.9904c-0.35055 0-0.54553-0.19521-0.62331-0.35055l-5.1902-10.34h-7.4512v9.9488c0 0.39107-0.35164 0.74162-0.74271 0.74162h-1.5216c-0.42833 0-0.74162-0.35055-0.74162-0.74162v-25.83m-33.168 0c0-0.38975 0.35043-0.7415 0.7415-0.7415h1.4819c0.42909 0 0.74151 0.35175 0.74151 0.7415v16.272c0 4.4464 2.7707 7.9188 7.3348 7.9188 4.6047 0 7.4135-3.3937 7.4135-7.8414v-16.349c0-0.38975 0.3122-0.7415 0.74161-0.7415h1.4821c0.38998 0 0.74161 0.35175 0.74161 0.7415v16.504c0 5.9322-4.2142 10.457-10.379 10.457-6.1255 0-10.3-4.525-10.3-10.457v-16.504m-34.342 0c0-0.38975 0.35208-0.7415 0.74194-0.7415h1.5217c0.4292 0 0.74151 0.35175 0.74151 0.7415v11.393h15.842v-11.393c0-0.38975 0.31198-0.7415 0.74074-0.7415h1.5221c0.38976 0 0.74107 0.35175 0.74107 0.7415v25.83c0 0.39107-0.35131 0.74162-0.74107 0.74162h-1.5221c-0.42876 0-0.74074-0.35055-0.74074-0.74162v-11.822h-15.841v11.822c0 0.39108-0.31231 0.74162-0.74151 0.74162h-1.5217c-0.38987 0-0.74194-0.35054-0.74194-0.74162v-25.83m-20.371-1.1301c3.941 0 6.7896 1.3646 9.443 3.6269 0.31143 0.31198 0.35087 0.78094 0.03845 1.092l-1.0539 1.0539c-0.31111 0.39195-0.62298 0.35263-1.0137-0.0394-2.0291-1.7553-4.7985-2.9253-7.4524-2.9253-6.1644 0-10.885 5.1905-10.885 11.237 0 6.0074 4.7207 11.198 10.885 11.198 3.3937 0 5.3843-1.365 7.4524-2.926 0.39074-0.31111 0.70262-0.27254 0.93628-0.11808l1.1711 1.0539c0.31154 0.23409 0.23322 0.78094-0.03976 1.0535-2.6534 2.5756-6.0078 3.7849-9.4815 3.7849-7.8029 0-14.085-6.2034-14.085-14.008 0-7.8024 6.2817-14.084 14.085-14.084" aria-label="International Church of the Nazarene logo"/></svg>
