<svg version="1.1" viewBox="0 0 300 123.8" xml:space="preserve" xmlns="http://www.w3.org/2000/svg"><path d="m83.199 86.781c0 0.82913 0.67149 1.5008 1.5001 1.5008s1.5053-0.67171 1.5053-1.5008c0-0.82653-0.67667-1.5046-1.5053-1.5046-0.82862 0-1.5001 0.67809-1.5001 1.5046m0.25051 0c0-0.69313 0.56105-1.2481 1.2496-1.2481 0.69298 0 1.2511 0.55497 1.2511 1.2481 0 0.68994-0.55809 1.251-1.2511 1.251-0.68854 0-1.2496-0.56106-1.2496-1.251m0.72708 0.68179c0 0.0422 0.03407 0.0808 0.08004 0.0808h0.10747c0.04742 0 0.08004-0.0385 0.08004-0.0808v-0.50028h0.30906l0.23495 0.5217c0.01112 0.0246 0.0393 0.0594 0.07486 0.0594h0.14008c0.06151 0 0.10153-0.0632 0.07337-0.11496-0.08449-0.16209-0.16824-0.33062-0.25274-0.49272 0.11858-0.029 0.34019-0.14156 0.34019-0.45366 0-0.31417-0.2557-0.469-0.51584-0.469h-0.59144c-0.04597 0-0.08004 0.0362-0.08004 0.0784zm0.26311-0.74256v-0.47656h0.40838c0.1549 0 0.25274 0.0946 0.25274 0.23857 0 0.12681-0.09783 0.23799-0.25274 0.23799h-0.40838m18.393 2.1284-0.16529 0.53682c-0.0415 0.13548-0.13488 0.25473-0.19862 0.25473l-1.5483-0.0125-1.0258 3.332c-0.0274 0.0892-0.17936 0.16905-0.32018 0.16765l-0.56402-4e-3c-0.1423-5.6e-4 -0.24384-0.0825-0.21716-0.17054l1.0265-3.3337-1.5461-0.0118c-0.06373 0-0.08449-0.12014-0.04225-0.25511l0.16454-0.53644c0.04225-0.1349 0.13563-0.25422 0.19937-0.25363l1.546 0.0113 0.47509-1.544c0.0282-0.0889 0.1801-0.16824 0.32018-0.16676l0.5655 4e-3c0.14082 5.6e-4 0.2431 0.0822 0.21567 0.17195l-0.47507 1.5432 1.5475 0.0116c0.0637 1e-3 0.0838 0.12162 0.0423 0.25503zm-5.6476-3.4241c-0.32315 3.711-1.7528 5.9336-3.479 7.6496-0.52622 0.524-1.8003 1.4088-1.8462 1.4088 0.44692 0.40904 5.4764 0.2617 5.9515 0.2617 0.17862 0.77443-0.09264 2.0382-0.92644 4.8175 3.1084-0.29067 6.7164-3.2078 7.5442-6.7911 0.23124-0.991 0.62553-2.2487 0.79377-3.3998 0.29202-1.9768 0.69817-3.8815 0.69817-3.9467h-8.736m102.62-3.6174c-0.0897-0.20241-0.44322-0.65229-0.84567-0.72641-1.4371-0.25651-5.6713-0.81676-9.0569-1.6082-9.0999-2.1279-20.553-6.1739-25.763-4.5234-4.5151 1.4311-7.7792 6.0538-8.762 7.5138-0.25644 0.38103 0.19789 0.4129 0.19789 0.4129h43.743s0.24606-0.012 0.30239-0.0481c0.0623-0.0416 0.23569-0.12303 0.23569-0.30106 4e-3 -0.13178 0.0407-0.55268-0.0519-0.71944m-110.36-1.229c2.0189-0.39058 8.0223-1.0315 12.808-2.0339 12.867-2.6896 29.889-7.4909 37.345-5.7046 7.2144 1.7256 10.608 7.6805 11.48 9.4877 0.2557 0.52926-0.27942 0.52229-0.27942 0.52229h-61.795s-0.85678-3e-3 -0.90125-0.48664c-0.02891-0.31966-0.31351-1.4604 1.343-1.7849m50.811-51.922c4.773 2.0196 7.31-4.7049 4.2846-8.4855-0.52918-0.7456 0.44914-0.44617 0.85308-0.25199 1.5868 0.76487 4.6085 2.5088 6.3984 6.637 1.214 2.8075-0.40985 7.0699-2.8816 7.94-2.302-1.1251-7.1877-3.3204-8.6545-5.8396m13.892 38.465c0.80193 1.1668-0.046 2.8575-1.8336 0.76865-0.62257-0.7339-1.1354-1.6371-0.63294-1.8224 0.50546-0.18818 1.9018 0.22724 2.4666 1.0538m-11.98-37.415c-7.3137-4.6382-9.8314-4.5159-8.7812-14.18 0.82861-5.618 3.2744-8.9132 4.3232-10.136 0.54104-0.67815 0.61441-0.17417 0.49806-6e-3 -8.3269 18.335 4.2194 24.728 3.96 24.322m-40.157-15.756c-0.11636-4.0423 3.7473-11.058 3.7473-8.7368 0 2.4191-5.0502 18.164 22.448 36.022 0.3024 0.18084 0.41802 0.5529 0.17121 0.5529-11.107 0.0437-16.932-4.2409-20.926-7.2552-4.3617-3.6368-5.9004-7.4412-6.3969-8.9732-0.29424-0.81602 0.16528-0.55735 0.25644-0.42617 2.1279 3.0877 8.1483 9.8122 12.83 10.94 0.14156 0.0311-12.405-9.4772-12.13-22.124m34.964-13.914c-8.3973 12.488-3.4716 21.47-2.7467 22.645 3.3515 5.4208 11.449 8.3595 22.295 16.778 1.0732 0.83232 10.487 9.89 10.075 19.435-0.02 0.90911-0.11266 1.5576 0.0407 1.5113 2.3724-0.71366 9.8781-12.316 3.5146-22.907-4.126-6.8668-18.771-16.517-18.843-16.561-1.297-0.75302 3.9504 0.31499 8.1082 2.3243 7.2537 3.5057 34.338 19.924 6.8379 44.454-4.438 3.9562-11.591 12.363-12.934 13.626-0.20975 0.22382-0.29276 0.0489-0.32982-0.0133-1.449-2.4177-0.6663-12.367-16.998-12.388-8.3847-0.0131-20.349 0.46471-30.771-3.603-18.976-7.4073-17.952-22.559-16.521-28.706 1.5631-8.3951 8.7812-11.085 8.6708-10.55-0.71225 3.4308-4.3773 14.744 0.23569 23.16 9.3245 19.088 32.672 11.914 46.216 16.557 9.8448 3.3757 9.2889 8.8421 10.189 10.536 0.37206 0.70032 3.5027-3.8625 5.4571-7.6753 2.5244-4.9174 2.1582-13.06-1.1755-19.091-1.552-2.8082-6.2161-7.711-18.693-15.228-25.678-15.472-4.3076-35.298-2.6281-34.304m18.343 85.358h41.78c0.63146 0 2.8534-0.0489 3.2937 0.048 0.48027 0.10977 0.3906 2.5912-0.12303 2.7536-0.48767 0.0623-33.714 0.0138-44.985 0.0138-0.2053-0.0214-0.33722-0.18959-0.39059-0.27186-0.10524-0.16676-0.0882-2.1398 0-2.3132 0.10451-0.19566 0.25496-0.20145 0.42543-0.23043m-67.358 0h6.1761c0.09116 0 0.86641 0.0133 1.0458 0.0133 1.0547 0 0.24458 2.4131 0.16898 2.574-0.1927 0.2571-1.114 0.18907-1.2088 0.18907h-6.182c-0.1927-0.0261-0.43135-0.15053-0.43876-0.2328-0.01557-0.16676-0.01557-2.0819-0.01557-2.2463 0-0.20323 0.26163-0.26838 0.45433-0.29736m19.765 0c5.094 0 14.524 0.0133 23.226-0.0475 10.46-0.0755 19.595 0.0765 20.18 0.0765 0.0667 0 0.31426 0.14356 0.3528 0.28372 0.14674 0.52547 0.1208 1.669-0.0623 2.2206-0.0504 0.16239-0.1386 0.25185-0.29054 0.30017-0.49212 7e-3 -43.83 0-44.247 0-0.18826 0 0.32313-2.4391 0.42764-2.603 0.0741-0.11548 0.21271-0.18529 0.41282-0.23043m37.293 27.898c0.22902 0 0.4358 0.13489 0.4358 0.28371v0.59612c0 0.14971-0.20678 0.28319-0.4358 0.28319h-15.22c-0.22976 0-0.43729-0.13348-0.43729-0.28319v-0.59612c0-0.14882 0.20753-0.28371 0.43729-0.28371h15.22m-3.3248 5.2228c0-0.0756 0.0593-0.14302 0.14231-0.14302h2.9854c0.083 0 0.1423 0.0675 0.1423 0.14302v0.41661c0 0.0756-0.0593 0.14216-0.1423 0.14216h-2.3576v1.5226h1.9915c0.0749 0 0.14156 0.0666 0.14156 0.14302v0.41719c0 0.0831-0.0667 0.14158-0.14156 0.14158h-1.9915v1.6062h2.3576c0.083 0 0.1423 0.0666 0.1423 0.1407v0.41053c0 0.075-0.0593 0.14245-0.1423 0.14245h-2.9854c-0.083 0-0.14231-0.0675-0.14231-0.14245v-4.9406m-6.8475 0c0-0.0756 0.0667-0.14302 0.14156-0.14302h0.49287c0.0815 0 0.1423 0.0675 0.1423 0.14302v2.0813h2.7319v-2.0813c0-0.0756 0.0593-0.14302 0.14082-0.14302h0.49287c0.0734 0 0.14157 0.0675 0.14157 0.14302v4.9406c0 0.075-0.0682 0.14245-0.14157 0.14245h-0.49287c-0.0815 0-0.14082-0.0675-0.14082-0.14245v-2.1574h-2.7319v2.1574c0 0.075-0.0608 0.14245-0.1423 0.14245h-0.49287c-0.0749 0-0.14156-0.0675-0.14156-0.14245v-4.9406m-4.0578 0.55877h-1.217c-0.0823 0-0.14082-0.0666-0.14082-0.14216v-0.41661c0-0.0756 0.0586-0.14302 0.14082-0.14302h3.2107c0.0808 0 0.14082 0.0675 0.14082 0.14302v0.41661c0 0.0756-0.06 0.14216-0.14082 0.14216h-1.2177v4.3818c0 0.075-0.0667 0.14245-0.14082 0.14245h-0.4936c-0.0741 0-0.14156-0.0675-0.14156-0.14245v-4.3818m8.5329-13.254c0-0.0756 0.06-0.14245 0.14231-0.14245h2.9854c0.0823 0 0.14155 0.0668 0.14155 0.14245v0.41661c0 0.0755-0.0593 0.14304-0.14155 0.14304h-2.3584v1.7246h1.9922c0.0748 0 0.14304 0.0666 0.14304 0.14155v0.41001c0 0.0755-0.0682 0.14216-0.14304 0.14216h-1.9922v1.9626c0 0.075-0.0674 0.14156-0.14156 0.14156h-0.48544c-0.0823 0-0.14231-0.0666-0.14231-0.14156v-4.9406m-4.8686 4.4122c1.0665 0 1.9396-0.86708 1.9396-1.9345 0-1.0599-0.87308-1.9479-1.9396-1.9479-1.0606 0-1.9344 0.88798-1.9344 1.9479 0 1.0674 0.87382 1.9345 1.9344 1.9345zm0-4.6293c1.4919 0 2.6859 1.2015 2.6859 2.6948 0 1.4927-1.194 2.68-2.6859 2.68-1.4934 0-2.6808-1.1873-2.6808-2.68 0-1.4934 1.1873-2.6948 2.6808-2.6948m154.71 0.87752c0-0.25043 0.20085-0.47738 0.4773-0.47738h9.8774c0.27571 0 0.47582 0.22695 0.47582 0.47738v0.72552c0 0.25133-0.20011 0.47738-0.47582 0.47738h-8.4247v6.1169h7.1974c0.24978 0 0.4751 0.22583 0.4751 0.47567v0.72782c0 0.27563-0.22532 0.47738-0.4751 0.47738h-7.1974v6.3925h8.4247c0.27571 0 0.47582 0.22437 0.47582 0.47654v0.72639c0 0.25101-0.20011 0.47654-0.47582 0.47654h-9.8774c-0.27645 0-0.4773-0.22553-0.4773-0.47654v-16.596m-22.164-0.27704c0-0.24984 0.22457-0.45077 0.47508-0.45077h0.62702l11.307 14.09h0.0489v-13.362c0-0.25043 0.20011-0.47738 0.4773-0.47738h0.87679c0.25052 0 0.47582 0.22695 0.47582 0.47738v16.872c0 0.25072-0.2253 0.45222-0.47582 0.45222h-0.44988l-11.507-14.367h-0.0252v13.638c0 0.25101-0.20085 0.47654-0.47582 0.47654h-0.87901c-0.25051 0-0.47508-0.22553-0.47508-0.47654v-16.873m-17.602 0.27704c0-0.25043 0.20011-0.47738 0.47508-0.47738h9.8774c0.27645 0 0.47582 0.22695 0.47582 0.47738v0.72552c0 0.25133-0.19937 0.47738-0.47582 0.47738h-8.424v6.1169h7.1944c0.25125 0 0.47657 0.22583 0.47657 0.47567v0.72782c0 0.27563-0.22532 0.47738-0.47657 0.47738h-7.1944v6.3925h8.424c0.27645 0 0.47582 0.22437 0.47582 0.47654v0.72639c0 0.25101-0.19937 0.47654-0.47582 0.47654h-9.8774c-0.27497 0-0.47508-0.22553-0.47508-0.47654v-16.596m-12.489 8.5476c1.9285 0 3.6094-1.6036 3.6094-3.6598 0-1.9047-1.6809-3.5344-3.6094-3.5344h-4.8649v7.1941zm-6.8446-8.5476c0-0.25043 0.20011-0.47738 0.47656-0.47738h6.4925c3.0084 0 5.4668 2.3578 5.4668 5.34 0 2.3066-1.5305 4.2373-3.7124 5.114l3.4352 6.3687c0.1764 0.32627 0 0.72725-0.42616 0.72725h-1.2785c-0.22457 0-0.35057-0.12623-0.40097-0.22553l-3.3359-6.6435h-4.7879v6.3925c0 0.25101-0.22531 0.47654-0.47434 0.47654h-0.97833c-0.27645 0-0.47656-0.22553-0.47656-0.47654v-16.596m-9.8811 11.105c-1.2281-2.7333-2.4325-5.4897-3.6598-8.223h-0.20234l-3.6598 8.223zm-11.909 5.3155 7.622-16.873c0.0749-0.15112 0.20011-0.27556 0.42468-0.27556h0.25199c0.22457 0 0.35057 0.12444 0.42617 0.27556l7.5709 16.873c0.15046 0.32542-0.0504 0.6517-0.42617 0.6517h-1.0035c-0.22531 0-0.37503-0.14997-0.42542-0.27504l-1.8559-4.1372h-8.9005l-1.8299 4.1372c-0.0496 0.12507-0.20011 0.27504-0.42617 0.27504h-1.002c-0.37651 0-0.57736-0.32628-0.42616-0.6517m-15.548-0.27474 9.1014-14.793v-0.0759h-7.8963c-0.25199 0-0.47582-0.22583-0.47582-0.47568v-0.80193c0-0.25043 0.22383-0.47738 0.47582-0.47738h10.155c0.25052 0 0.47657 0.22695 0.47657 0.47738v0.32544l-9.2533 14.966v0.0258h8.2758c0.27423 0 0.47656 0.22611 0.47656 0.47683v0.80195c0 0.25101-0.20233 0.47654-0.47656 0.47654h-10.381c-0.25051 0-0.47805-0.22553-0.47805-0.47654v-0.4499m-8.0742-5.0407c-1.2288-2.7333-2.4317-5.4897-3.6606-8.223h-0.20011l-3.6598 8.223zm-11.908 5.3155 7.622-16.873c0.0756-0.15112 0.19936-0.27556 0.42542-0.27556h0.25125c0.22457 0 0.34982 0.12444 0.42542 0.27556l7.5709 16.873c0.15194 0.32541-0.0489 0.65169-0.42764 0.65169h-1.0013c-0.22531 0-0.3765-0.14997-0.42616-0.27504l-1.8529-4.1372h-8.9013l-1.8314 4.1372c-0.0489 0.12507-0.20011 0.27504-0.42543 0.27504h-1.002c-0.37799 0-0.5781-0.32628-0.4269-0.65169m-19.759-16.698c0-0.24984 0.22531-0.45077 0.47656-0.45077h0.62628l11.307 14.09h0.0482v-13.362c0-0.25043 0.20011-0.47738 0.47731-0.47738h0.87827c0.2505 0 0.47582 0.22695 0.47582 0.47738v16.872c0 0.25072-0.22532 0.45222-0.47582 0.45222h-0.45137l-11.507-14.366h-0.0252v13.638c0 0.25101-0.20011 0.47654-0.47731 0.47654h-0.87604c-0.25126 0-0.47657-0.22553-0.47657-0.47654v-16.873m-46.899 0.0101c0-0.25036 0.22531-0.47649 0.47656-0.47649h0.97759c0.27571 0 0.47656 0.22613 0.47656 0.47649v7.3213h10.178v-7.3213c0-0.25036 0.2016-0.47649 0.47657-0.47649h0.97832c0.24977 0 0.47583 0.22613 0.47583 0.47649v16.597c0 0.25129-0.22606 0.47683-0.47583 0.47683h-0.97832c-0.27497 0-0.47657-0.22554-0.47657-0.47683v-7.5951h-10.178v7.5951c0 0.25129-0.20085 0.47683-0.47656 0.47683h-0.97759c-0.25125 0-0.47656-0.22554-0.47656-0.47683v-16.597m-13.091-0.72693c2.5333 0 4.3639 0.87754 6.0686 2.3318 0.20086 0.20093 0.22605 0.50169 0.02518 0.7018l-0.67668 0.67741c-0.20085 0.24985-0.4017 0.22465-0.65222-0.026-1.3044-1.128-3.084-1.881-4.7894-1.881-3.9607 0-6.9943 3.336-6.9943 7.2219 0 3.8607 3.0336 7.1944 6.9943 7.1944 2.182 0 3.4605-0.87751 4.7894-1.8798 0.25051-0.20006 0.45136-0.17545 0.60182-0.0756l0.75227 0.67747c0.20085 0.15055 0.15046 0.50114-0.02518 0.67659-1.7061 1.6552-3.8607 2.431-6.0938 2.431-5.0132 0-9.0488-3.9866-9.0488-9.0004 0-5.0132 4.0356-9.0496 9.0488-9.0496m-20.635 9.2754c1.93 0 3.6088-1.6045 3.6088-3.6589 0-1.9056-1.6787-3.5361-3.6088-3.5361h-4.8644v7.195zm-6.8456-8.5485c0-0.25036 0.20115-0.47649 0.47678-0.47649h6.4933c3.0084 0 5.4661 2.357 5.4661 5.3409 0 2.3057-1.5297 4.2356-3.7102 5.114l3.4345 6.3679c0.17491 0.32687 0 0.72726-0.42691 0.72726h-1.2792c-0.22383 0-0.34983-0.12536-0.39948-0.22554l-3.3344-6.6438h-4.7888v6.3925c0 0.25129-0.22664 0.47683-0.47678 0.47683h-0.97803c-0.27564 0-0.47678-0.22554-0.47678-0.47683v-16.597m-21.313 0c0-0.25036 0.22524-0.47649 0.47656-0.47649h0.95194c0.27645 0 0.4759 0.22613 0.4759 0.47649v10.455c0 2.8572 1.7808 5.0894 4.7136 5.0894 2.9585 0 4.7642-2.1818 4.7642-5.039v-10.505c0-0.25036 0.20063-0.47649 0.47597-0.47649h0.95342c0.25014 0 0.4756 0.22613 0.4756 0.47649v10.606c0 3.8094-2.7083 6.717-6.6692 6.717-3.9359 0-6.618-2.9076-6.618-6.717v-10.606m-22.067 0c0-0.25036 0.22642-0.47649 0.47708-0.47649h0.97773c0.27616 0 0.47649 0.22613 0.47649 0.47649v7.3213h10.179v-7.3213c0-0.25036 0.20122-0.47649 0.47627-0.47649h0.97744c0.25184 0 0.47738 0.22613 0.47738 0.47649v16.597c0 0.25129-0.22553 0.47683-0.47738 0.47683h-0.97742c-0.27504 0-0.47627-0.22554-0.47627-0.47683v-7.5951h-10.179v7.5951c0 0.25129-0.20033 0.47683-0.47649 0.47683h-0.97773c-0.25066 0-0.47708-0.22554-0.47708-0.47683v-16.597m-13.089-0.72693c2.5318 0 4.3621 0.87754 6.0676 2.3318 0.20041 0.20093 0.22613 0.50169 0.02379 0.7018l-0.67631 0.67741c-0.20033 0.24985-0.40067 0.22465-0.6517-0.026-1.304-1.128-3.0842-1.881-4.7883-1.881-3.9617 0-6.9949 3.336-6.9949 7.2219 0 3.8607 3.0332 7.1944 6.9949 7.1944 2.1812 0 3.4606-0.87751 4.7883-1.8798 0.25103-0.20006 0.45136-0.17545 0.60189-0.0756l0.75183 0.67747c0.20063 0.15055 0.1509 0.50114-0.02572 0.67659-1.7038 1.6552-3.8607 2.431-6.0914 2.431-5.0138 2e-5 -9.0505-3.9866-9.0505-9.0004 0-5.0132 4.0367-9.0496 9.0505-9.0496" aria-label="International Church of the Nazarene logo"/></svg>
