<svg version="1.1" viewBox="0 0 300 41.996" xml:space="preserve" xmlns="http://www.w3.org/2000/svg"><path d="m115.92 36.605c0 0.35316 0.28676 0.63934 0.63845 0.63934 0.35277 0 0.64116-0.28617 0.64116-0.63934 0-0.35128-0.28839-0.64042-0.64116-0.64042-0.35169 0-0.63845 0.28914-0.63845 0.64042m0.10605 0c0-0.2942 0.23915-0.53156 0.5324-0.53156 0.29542 0 0.53348 0.23736 0.53348 0.53156 0 0.29378-0.23806 0.5326-0.53348 0.5326-0.29325 0-0.5324-0.23882-0.5324-0.5326m0.31003 0.29061c0 0.01796 0.0141 0.03381 0.0341 0.03381h0.046c0.02 0 0.0341-0.01585 0.0341-0.03381v-0.21283h0.13148l0.0995 0.22192c5e-3 0.01057 0.0179 0.02473 0.0319 0.02473h0.0606c0.0254 0 0.0427-0.02642 0.0303-0.04798-0.0346-0.06974-0.0709-0.14118-0.10659-0.21029 0.0498-0.01225 0.14393-0.05981 0.14393-0.19337 0-0.1338-0.10822-0.19933-0.21859-0.19933h-0.25267c-0.02 0-0.0341 0.01542-0.0341 0.03338zm0.112-0.31595v-0.20333h0.17475c0.0655 0 0.10713 0.0408 0.10713 0.10145 0 0.05432-0.0417 0.10188-0.10713 0.10188h-0.17475m7.8221 0.89717-0.0692 0.22614c-0.0179 0.05706-0.0573 0.10779-0.0839 0.10779l-0.65305-0.0046-0.43285 1.4049c-0.0114 0.038-0.0757 0.0714-0.13473 0.0708l-0.2386-1e-3c-0.0595-4.1e-4 -0.10226-0.0349-0.0914-0.0723l0.43339-1.4057-0.65198-0.0057c-0.0271 0-0.0357-0.0503-0.0184-0.10737l0.0698-0.22615c0.0178-0.05706 0.0573-0.10778 0.0844-0.10715l0.65198 0.0046 0.20019-0.65075c0.0119-0.03762 0.0757-0.07101 0.13526-0.07038l0.23861 0.0015c0.0595 6.49e-4 0.10226 0.03509 0.0909 0.0725l-0.20019 0.65096 0.65252 0.0053c0.0265 6.49e-4 0.0352 0.05072 0.0173 0.10716zm-2.3823-1.444c-0.1358 1.5651-0.73908 2.5024-1.4668 3.2263-0.22237 0.22086-0.75964 0.59431-0.77912 0.59431 0.18883 0.17289 2.3103 0.11054 2.5105 0.11054 0.0752 0.32696-0.039 0.85956-0.39064 2.0321 1.3104-0.12258 2.8324-1.3533 3.182-2.8644 0.0979-0.41847 0.2635-0.94896 0.33491-1.4344 0.12337-0.83378 0.29434-1.6369 0.29434-1.6644h-3.6852m43.286-1.5259c-0.0373-0.08495-0.18612-0.2754-0.35601-0.30646-0.60653-0.10843-2.3926-0.34449-3.8204-0.67843-3.8383-0.89783-8.6699-2.6038-10.867-1.9085-1.904 0.60447-3.281 2.5536-3.696 3.1696-0.10821 0.16129 0.0839 0.17438 0.0839 0.17438h18.451s0.10388-0.0047 0.12769-0.0205c0.026-0.01753 0.099-0.05135 0.099-0.12682 2e-3 -0.05492 0.0173-0.23287-0.0222-0.30326m-46.548-0.51823c0.85163-0.16508 3.3838-0.43561 5.403-0.85768 5.4274-1.1349 12.607-3.1603 15.752-2.4062 3.0429 0.72702 4.4746 3.2394 4.8419 4.0015 0.10821 0.2234-0.11795 0.22021-0.11795 0.22021h-26.066s-0.36143-0.0011-0.38037-0.20501c-0.0119-0.13483-0.13201-0.6161 0.56649-0.75283m21.432-21.901c2.0133 0.8513 3.0835-1.985 1.8071-3.5801-0.22291-0.31452 0.18991-0.18813 0.36035-0.10588 0.66875 0.32252 1.9435 1.058 2.6983 2.7993 0.51238 1.1842-0.1726 2.9822-1.2152 3.3493-0.9712-0.47467-3.0316-1.4004-3.6505-2.4626m5.8602 16.224c0.33816 0.49247-0.02 1.2053-0.77371 0.32442-0.26242-0.309-0.4783-0.6905-0.26675-0.76868 0.21318-0.07926 0.8024 0.0962 1.0405 0.44426m-5.0535-15.782c-3.0846-1.9563-4.1467-1.9043-3.7041-5.9804 0.34953-2.3703 1.3813-3.7604 1.8234-4.2756 0.22833-0.28682 0.25971-0.07375 0.21047-0.0028-3.5126 7.7342 1.7795 10.431 1.6702 10.259m-16.938-6.6455c-0.0492-1.7051 1.5799-4.6645 1.5799-3.6853 0 1.0202-2.1302 7.6619 9.4691 15.194 0.12769 0.07651 0.17639 0.23336 0.0725 0.23336-4.685 0.01818-7.142-1.7891-8.8268-3.0606-1.8396-1.534-2.4889-3.1389-2.6983-3.7849-0.1239-0.34449 0.0693-0.2352 0.10821-0.18006 0.89708 1.3028 3.4368 4.1393 5.4122 4.6148 0.059 0.01353-5.2331-3.9977-5.1168-9.3318m14.748-5.8685c-3.5418 5.2673-1.4641 9.0561-1.1584 9.5511 1.4138 2.2866 4.8295 3.5262 9.4041 7.0771 0.45286 0.35126 4.4232 4.172 4.2506 8.1981-9e-3 0.38339-0.0481 0.65712 0.0168 0.63726 1.001-0.30056 4.1667-5.195 1.483-9.6619-1.7411-2.8968-7.9184-6.9672-7.9487-6.986-0.54755-0.31701 1.6659 0.13359 3.42 0.98067 3.0597 1.479 14.484 8.4046 2.8844 18.751-1.8721 1.6686-4.889 5.2155-5.456 5.7477-0.0882 0.09447-0.12336 0.02115-0.13905-0.0052-0.61086-1.0198-0.28081-5.2168-7.1701-5.2256-3.5364-0.0053-8.5833 0.19548-12.979-1.5196-8.0039-3.1248-7.5721-9.5161-6.9688-12.108 0.65955-3.5412 3.7041-4.6762 3.6576-4.45-0.30028 1.4467-1.8461 6.2188 0.099 9.7691 3.9335 8.0514 13.781 5.0249 19.494 6.9837 4.1532 1.4239 3.9183 3.7293 4.2976 4.4437 0.15744 0.2959 1.4776-1.6289 2.3022-3.2368 1.0653-2.0746 0.9106-5.5088-0.49615-8.0527-0.65414-1.1844-2.6214-3.2527-7.8843-6.4236-10.831-6.5263-1.8169-14.889-1.1086-14.469m7.7372 36.005h17.623c0.26674 0 1.2039-0.02115 1.3889 0.02007 0.20344 0.04648 0.16556 1.0927-0.0509 1.1614-0.20615 0.02642-14.222 0.0057-18.975 0.0057-0.0871-0.0089-0.14284-0.07968-0.16557-0.11392-0.0438-0.07101-0.0368-0.90312 0-0.976 0.0444-0.08311 0.10822-0.08522 0.17964-0.09723m-28.412 0h2.6052c0.0384 0 0.36576 0.0052 0.44151 0.0052 0.44475 0 0.1028 1.0183 0.0709 1.0859-0.0812 0.10864-0.46964 0.07968-0.50968 0.07968h-2.6079c-0.0812-0.0112-0.1818-0.06341-0.18505-0.09764-6e-3 -0.07101-6e-3 -0.87877-6e-3 -0.94813 0-0.0856 0.11038-0.11308 0.19154-0.12509m8.3372 0c2.1485 0 6.1259 0.0052 9.7975-0.02008 4.4118-0.03235 8.2647 0.03209 8.5119 0.03209 0.0276 0 0.13256 0.06027 0.14879 0.11941 0.0622 0.22194 0.0509 0.70446-0.0265 0.93694-0.0211 0.06869-0.0584 0.10631-0.12229 0.12681-0.20722 0.0026-18.488 0-18.664 0-0.0795 0 0.13581-1.0293 0.18017-1.0979 0.0314-0.04929 0.0898-0.07883 0.17423-0.09723m45.827-14.547c0-0.05919 0.0471-0.11265 0.11254-0.11265h2.3677c0.0649 0 0.11254 0.05346 0.11254 0.11265v0.33118c0 0.05914-0.0476 0.11265-0.11254 0.11265h-1.8704v1.2072h1.5804c0.0595 0 0.11254 0.05346 0.11254 0.11265v0.33183c0 0.06487-0.053 0.112-0.11254 0.112h-1.5804v1.273h1.8704c0.0649 0 0.11254 0.05324 0.11254 0.11243v0.32545c0 0.05919-0.0476 0.11249-0.11254 0.11249h-2.3677c-0.0655 0-0.11254-0.0533-0.11254-0.11249v-3.9184m-5.4306 0c0-0.05919 0.0536-0.11265 0.11254-0.11265h0.39065c0.0649 0 0.11253 0.05346 0.11253 0.11265v1.651h2.1664v-1.651c0-0.05919 0.0476-0.11265 0.11254-0.11265h0.39065c0.059 0 0.11254 0.05346 0.11254 0.11265v3.9184c0 0.05919-0.0536 0.11249-0.11254 0.11249h-0.39065c-0.0649 0-0.11254-0.0533-0.11254-0.11249v-1.7109h-2.1664v1.7109c0 0.05919-0.0476 0.11249-0.11253 0.11249h-0.39065c-0.059 0-0.11254-0.0533-0.11254-0.11249v-3.9184m-3.2177 0.44383h-0.96471c-0.0649 0-0.11254-0.05351-0.11254-0.11265v-0.33118c0-0.05919 0.0476-0.11265 0.11254-0.11265h2.5451c0.0655 0 0.11254 0.05346 0.11254 0.11265v0.33118c0 0.05914-0.0471 0.11265-0.11254 0.11265h-0.96471v3.4746c0 0.05919-0.053 0.11249-0.11254 0.11249h-0.39064c-0.059 0-0.11254-0.0533-0.11254-0.11249v-3.4746m-53.841-0.44383c0-0.05919 0.0476-0.11265 0.11254-0.11265h2.3677c0.0649 0 0.11254 0.05346 0.11254 0.11265v0.33118c0 0.05914-0.0476 0.11265-0.11254 0.11265h-1.8704v1.3674h1.5804c0.059 0 0.11254 0.05329 0.11254 0.11243v0.32572c0 0.05898-0.0536 0.11243-0.11254 0.11243h-1.5804v1.5566c0 0.05919-0.053 0.11249-0.11254 0.11249h-0.38469c-0.0649 0-0.11254-0.0533-0.11254-0.11249v-3.9184m-3.8615 3.4985c0.84622 0 1.5388-0.68709 1.5388-1.5334 0-0.84075-0.69255-1.5452-1.5388-1.5452-0.8408 0-1.5334 0.70446-1.5334 1.5452 0 0.84627 0.69256 1.5334 1.5334 1.5334zm0-3.6701c1.1838 0 2.1307 0.95253 2.1307 2.1367 0 1.184-0.94685 2.1249-2.1307 2.1249-1.1844 0-2.1253-0.9409-2.1253-2.1249 0-1.1842 0.9409-2.1367 2.1253-2.1367m185.61-5.2844c0-0.19824 0.15908-0.37728 0.37766-0.37728h7.8226c0.21859 0 0.37766 0.17904 0.37766 0.37728v0.5759c0 0.19868-0.15907 0.37728-0.37766 0.37728h-6.6718v4.8448h5.699c0.19856 0 0.37711 0.17839 0.37711 0.37706v0.5759c0 0.21832-0.17855 0.3775-0.37711 0.3775h-5.699v5.0627h6.6718c0.21859 0 0.37766 0.17882 0.37766 0.37728v0.5759c0 0.19868-0.15907 0.3775-0.37766 0.3775h-7.8226c-0.21858 0-0.37766-0.17882-0.37766-0.3775v-13.144m-17.554-0.21832c0-0.19868 0.17855-0.35699 0.37712-0.35699h0.49615l8.955 11.158h0.0395v-10.583c0-0.19824 0.15907-0.37728 0.37712-0.37728h0.69579c0.19803 0 0.37713 0.17904 0.37713 0.37728v13.363c0 0.19868-0.1791 0.35764-0.37713 0.35764h-0.35817l-9.113-11.377h-0.02v10.801c0 0.19868-0.15853 0.3775-0.37766 0.3775h-0.69472c-0.19857 0-0.37712-0.17882-0.37712-0.3775v-13.363m-13.941 0.21832c0-0.19824 0.15907-0.37728 0.37766-0.37728h7.8232c0.21804 0 0.37711 0.17904 0.37711 0.37728v0.5759c0 0.19868-0.15907 0.37728-0.37711 0.37728h-6.6723v4.8448h5.699c0.19857 0 0.37712 0.17839 0.37712 0.37706v0.5759c0 0.21832-0.17855 0.3775-0.37712 0.3775h-5.699v5.0627h6.6723c0.21804 0 0.37711 0.17882 0.37711 0.37728v0.5759c0 0.19868-0.15907 0.3775-0.37711 0.3775h-7.8232c-0.21859 0-0.37766-0.17882-0.37766-0.3775v-13.144m-9.89 6.7706c1.5285 0 2.859-1.2708 2.859-2.8987 0-1.509-1.3305-2.7993-2.859-2.7993h-3.8518v5.698zm-5.4209-6.7706c0-0.19824 0.15907-0.37728 0.37766-0.37728h5.1428c2.3823 0 4.3285 1.8667 4.3285 4.2291 0 1.8272-1.212 3.3556-2.939 4.0505l2.7199 5.0433c0.13905 0.25852 0 0.57617-0.33707 0.57617h-1.0129c-0.17855 0-0.2781-0.09934-0.3176-0.17882l-2.6409-5.2614h-3.7923v5.0627c0 0.19868-0.17855 0.3775-0.37766 0.3775h-0.77371c-0.21859 0-0.37766-0.17882-0.37766-0.3775v-13.144m-7.8248 8.7958c-0.97283-2.1642-1.9262-4.3479-2.899-6.5121h-0.15908l-2.8984 6.5121zm-9.4317 4.2097 6.036-13.363c0.0595-0.11941 0.15907-0.2181 0.33762-0.2181h0.19858c0.17854 0 0.2781 0.09869 0.33762 0.2181l5.996 13.363c0.11957 0.25781-0.0395 0.51633-0.33762 0.51633h-0.79373c-0.17855 0-0.29758-0.11898-0.33762-0.21832l-1.469-3.2766h-7.0494l-1.449 3.2766c-0.04 0.09934-0.15853 0.21832-0.33762 0.21832h-0.79427c-0.29758 0-0.45665-0.25852-0.33762-0.51633m-12.312-0.21832 7.2074-11.715v-0.05984h-6.2541c-0.19856 0-0.37766-0.17855-0.37766-0.37701v-0.63574c0-0.19824 0.1791-0.37728 0.37766-0.37728h8.0412c0.19857 0 0.37712 0.17904 0.37712 0.37728v0.25825l-7.3265 11.854v0.02008h6.5528c0.21804 0 0.37711 0.1786 0.37711 0.3775v0.63488c0 0.19868-0.15907 0.3775-0.37711 0.3775h-8.2208c-0.19803 0-0.37712-0.17882-0.37712-0.3775v-0.35716m-6.3953-3.9914c-0.97282-2.1642-1.9262-4.3479-2.899-6.5121h-0.15907l-2.8984 6.5121zm-9.4317 4.2097 6.036-13.363c0.0601-0.11941 0.15907-0.2181 0.33762-0.2181h0.19911c0.17855 0 0.27756 0.09869 0.33762 0.2181l5.996 13.363c0.11903 0.25782-0.0401 0.51633-0.33762 0.51633h-0.79428c-0.17855 0-0.29758-0.11898-0.33762-0.21832l-1.469-3.2766h-7.0489l-1.4495 3.2766c-0.0395 0.09934-0.15853 0.21832-0.33762 0.21832h-0.79427c-0.29759 0-0.45666-0.25852-0.33762-0.51633m-15.649-13.224c0-0.19868 0.17855-0.35699 0.37712-0.35699h0.49615l8.955 11.158h0.0395v-10.583c0-0.19824 0.15908-0.37728 0.37766-0.37728h0.69526c0.19803 0 0.37712 0.17904 0.37712 0.37728v13.363c0 0.19868-0.17909 0.35764-0.37712 0.35764h-0.35764l-9.1136-11.377h-0.02v10.801c0 0.19868-0.15853 0.3775-0.37712 0.3775h-0.69526c-0.19857 0-0.37712-0.17882-0.37712-0.3775v-13.363m-99.553 0.12255c0-0.19803 0.17855-0.37723 0.37712-0.37723h0.77425c0.21859 0 0.37712 0.1792 0.37712 0.37723v5.798h8.0612v-5.798c0-0.19803 0.15907-0.37723 0.37712-0.37723h0.7748c0.19857 0 0.37712 0.1792 0.37712 0.37723v13.145c0 0.19862-0.17855 0.37722-0.37712 0.37722h-0.7748c-0.21804 0-0.37712-0.1786-0.37712-0.37722v-6.0161h-8.0612v6.0161c0 0.19862-0.15853 0.37722-0.37712 0.37722h-0.77425c-0.19857 0-0.37712-0.1786-0.37712-0.37722v-13.145m-10.367-0.57531c2.0057 0 3.4552 0.69472 4.8051 1.8461 0.15907 0.15918 0.17909 0.39735 0.02001 0.55588l-0.53619 0.53619c-0.15853 0.19889-0.3176 0.17882-0.51617-0.01942-1.0323-0.89404-2.4423-1.4896-3.7923-1.4896-3.1371 0-5.5394 2.6408-5.5394 5.7188 0 3.0576 2.4023 5.6984 5.5394 5.6984 1.7276 0 2.7399-0.69531 3.7923-1.4894 0.19857-0.15853 0.35764-0.13911 0.47667-0.05984l0.5957 0.5364c0.15853 0.11941 0.11904 0.39735-0.02001 0.53619-1.3499 1.3104-3.0575 1.9261-4.8252 1.9261-3.9708 0-7.1674-3.1571-7.1674-7.1284 0-3.9707 3.1966-7.1673 7.1674-7.1673m-16.343 7.3462c1.529 0 2.859-1.2708 2.859-2.8989 0-1.5091-1.3299-2.7994-2.859-2.7994h-3.8522v5.6983zm-5.4208-6.7709c0-0.19803 0.15896-0.37723 0.37749-0.37723h5.1423c2.3828 0 4.3285 1.8668 4.3285 4.2291 0 1.8271-1.2109 3.3558-2.9385 4.0507l2.7204 5.0433c0.13851 0.25825 0 0.5759-0.33762 0.5759h-1.0129c-0.17855 0-0.2781-0.09934-0.3176-0.1786l-2.6409-5.2616h-3.7923v5.063c0 0.19862-0.1786 0.37722-0.37728 0.37722h-0.77415c-0.21853 0-0.37749-0.1786-0.37749-0.37722v-13.145m-16.879 0c0-0.19803 0.1786-0.37723 0.37685-0.37723h0.75472c0.21837 0 0.37706 0.1792 0.37706 0.37723v8.2797c0 2.2635 1.4099 4.031 3.7331 4.031 2.3428 0 3.7724-1.7278 3.7724-3.9909v-8.3199c0-0.19803 0.15891-0.37723 0.37728-0.37723h0.7545c0.19868 0 0.37728 0.1792 0.37728 0.37723v8.3991c0 3.0183-2.1444 5.3214-5.2815 5.3214-3.1174 0-5.2417-2.3031-5.2417-5.3214v-8.3991m-17.476 0c0-0.19803 0.1786-0.37723 0.37728-0.37723h0.77415c0.21853 0 0.3775 0.1792 0.3775 0.37723v5.798h8.0611v-5.798c0-0.19803 0.15896-0.37723 0.37728-0.37723h0.77415c0.19868 0 0.37728 0.1792 0.37728 0.37723v13.145c0 0.19862-0.1786 0.37722-0.37728 0.37722h-0.77415c-0.21832 0-0.37728-0.1786-0.37728-0.37722v-6.0161h-8.0611v6.0161c0 0.19862-0.15896 0.37722-0.3775 0.37722h-0.77415c-0.19868 0-0.37728-0.1786-0.37728-0.37722v-13.145m-10.367-0.57531c2.0053 0 3.4549 0.69472 4.805 1.8461 0.15875 0.15918 0.17882 0.39735 0.01964 0.55588l-0.53597 0.53619c-0.15869 0.19889-0.31744 0.17882-0.51612-0.01942-1.0324-0.89404-2.4422-1.4896-3.7925-1.4896-3.1368 0-5.5395 2.6408-5.5395 5.7188 0 3.0576 2.4026 5.6984 5.5395 5.6984 1.7276 0 2.7402-0.69531 3.7925-1.4894 0.19868-0.15853 0.35742-0.13911 0.47662-0.05984l0.5956 0.5364c0.15891 0.11941 0.11898 0.39735-0.02013 0.53619-1.3499 1.3104-3.0576 1.9261-4.8247 1.9261-3.9711-5e-6 -7.1678-3.1571-7.1678-7.1284 0-3.9707 3.1967-7.1673 7.1678-7.1673" aria-label="International Church of the Nazarene logo"/></svg>
