<svg width="300" height="300" version="1.1" viewBox="0 0 79.375 79.375" xmlns="http://www.w3.org/2000/svg"><path d="m30.956 45.187c0 0.12223 0.09933 0.22151 0.22135 0.22151 0.12218 0 0.22212-0.09928 0.22212-0.22151 0-0.1219-0.09993-0.22191-0.22212-0.22191-0.12202 0-0.22135 0.10001-0.22135 0.22191m0.03693 0c0-0.10221 0.08287-0.1843 0.18444-0.1843 0.10238 0 0.18464 0.0821 0.18464 0.1843 0 0.10169-0.08226 0.18451-0.18464 0.18451-0.10157 0-0.18444-0.08283-0.18444-0.18451m0.10732 0.10057c0 0.0062 0.0048 0.0119 0.01181 0.0119h0.01595c0.0068 0 0.01185-0.0057 0.01185-0.0119v-0.07371h0.04543l0.03467 0.07681c0.0016 0.0038 6e-3 0.0088 0.011 0.0088h0.02093c0.0088 0 0.01484-0.0092 0.01048-0.01698-0.01211-0.02397-0.02448-0.04875-0.03693-0.07259 0.01731-0.0042 0.04986-0.02095 0.04986-0.067 0-0.04619-0.03743-0.06911-0.07578-0.06911h-0.08752c-0.0069 0-0.01181 0.0053-0.01181 0.01155zm0.0389-0.1096v-0.07041h0.06044c0.0227 0 0.03724 0.0141 0.03724 0.03532 0 0.01882-0.01454 0.03506-0.03724 0.03506h-0.06044m2.7097 0.31007-0.02453 0.07968c-0.0062 0.02012-0.02009 0.03788-0.02949 0.03788l-0.22982-0.0019-0.15232 0.4947c-0.0041 0.01319-0.02665 0.02507-0.04752 0.02485l-0.08372-6.38e-4c-0.02107-1.34e-4 -0.0362-0.01221-0.0322-0.02533l0.15232-0.49492-0.22948-0.0017c-0.0095 0-0.0125-0.01779-0.0062-0.03782l0.0244-0.07968c0.0062-0.02005 0.02017-0.03775 0.0296-0.03762l0.22951 0.0016 0.07055-0.22917c0.0041-0.01322 0.02665-0.02495 0.04757-0.02474l0.08389 6.49e-4c0.02089 1.2e-4 0.03609 0.0122 0.03198 0.02554l-0.07049 0.22908 0.22973 0.0017c0.0095 8.6e-5 0.01241 0.01806 0.0062 0.03784zm-0.83838-0.50832c-0.04806 0.55092-0.26026 0.88093-0.51655 1.1357-0.07809 0.07779-0.26722 0.20918-0.27409 0.20918 0.06641 0.06074 0.81299 0.03882 0.88356 0.03882 0.02656 0.11497-0.01375 0.30258-0.13754 0.71521 0.4614-0.04311 0.99705-0.47618 1.12-1.0082 0.03438-0.14712 0.09284-0.33383 0.11786-0.50472 0.04334-0.29343 0.10358-0.57619 0.10358-0.58591h-1.2968m15.4-0.53704c-0.01319-0.03003-0.06559-0.09683-0.12532-0.10783-0.21357-0.03808-0.84207-0.12126-1.3447-0.23877-1.351-0.3159-3.0513-0.91659-3.8248-0.67151-0.67019 0.21247-1.1548 0.89873-1.3008 1.1155-0.03807 0.05656 0.02959 0.06129 0.02959 0.06129h6.4938s0.03665-0.0017 0.04489-0.0071c0.0093-0.0061 0.03509-0.01826 0.03509-0.04468 6.59e-4 -0.01959 6e-3 -0.08209-0.0077-0.10684m-16.548-0.18246c0.29967-0.05798 1.191-0.15316 1.9015-0.30192 1.9103-0.3993 4.4373-1.1121 5.5442-0.8469 1.0711 0.25614 1.5749 1.1402 1.7041 1.4085 0.03818 0.07856-0.04137 0.07758-0.04137 0.07758h-9.1741s-0.12722-4.41e-4 -0.1338-0.07229c-0.0042-0.04742-0.04662-0.21676 0.19933-0.26495m7.5432-7.7082c0.70871 0.29973 1.0854-0.69858 0.63619-1.2598-0.07856-0.11079 0.06668-0.06624 0.12664-0.03742 0.23558 0.11356 0.68417 0.37245 0.94971 0.98526 0.18034 0.41679-0.06085 1.0496-0.42769 1.1787-0.34175-0.16692-1.067-0.49272-1.2849-0.86671m2.0625 5.7102c0.11905 0.1732-0.0069 0.42417-0.27221 0.1141-0.09243-0.10893-0.16845-0.24307-0.09396-0.27056 0.07503-0.02795 0.28244 0.03378 0.36618 0.15646m-1.7785-5.5546c-1.0858-0.68858-1.4595-0.67042-1.3036-2.1051 0.12301-0.83402 0.48611-1.3233 0.64181-1.5047 0.08031-0.10068 0.0912-0.02587 0.07394-8.81e-4 -1.2363 2.722 0.6264 3.6711 0.58789 3.6107m-5.9617-2.339c-0.01727-0.6001 0.5563-1.6416 0.5563-1.2971 0 0.35914-0.74972 2.6967 3.3326 5.3477 0.04489 0.02685 0.06206 0.08209 0.02542 0.08209-1.6489 0.0065-2.5137-0.6297-3.1066-1.0771-0.6475-0.53992-0.87595-1.1046-0.94962-1.3322-0.04363-0.12115 0.02449-0.08274 0.03805-0.06326 0.31591 0.45838 1.2097 1.4567 1.9048 1.624 0.02098 0.0047-1.8416-1.4068-1.8009-3.2843m5.1908-2.0657c-1.2466 1.8541-0.51538 3.1874-0.40778 3.3618 0.49756 0.80476 1.6996 1.2412 3.3099 2.4907 0.15921 0.12356 1.5569 1.4683 1.4958 2.8853-0.0031 0.13501-0.01683 0.23129 6e-3 0.22435 0.35221-0.10585 1.4663-1.8283 0.52178-3.4006-0.61243-1.0195-2.7867-2.4521-2.7974-2.4587-0.19255-0.11179 0.58646 0.04675 1.2037 0.34505 1.0769 0.52045 5.0976 2.9579 1.0152 6.5995-0.65887 0.58735-1.7206 1.8354-1.9203 2.0228-0.03103 0.03323-0.04337 0.0072-0.04898-2e-3 -0.215-0.35892-0.0988-1.836-2.5235-1.8392-1.2447-2e-3 -3.0208 0.06897-4.5682-0.53485-2.8171-1.0996-2.665-3.3491-2.4526-4.2616 0.23209-1.2463 1.3036-1.6457 1.2873-1.5662-0.10573 0.50933-0.64987 2.1887 0.0349 3.4383 1.3843 2.8338 4.8505 1.7686 6.8612 2.458 1.4615 0.50109 1.3789 1.3126 1.5125 1.564 0.05525 0.10398 0.52012-0.57337 0.81027-1.1395 0.37476-0.73006 0.3203-1.9388-0.17462-2.8341-0.2302-0.4169-0.92259-1.1448-2.775-2.2608-3.8121-2.297-0.63949-5.2402-0.39017-5.0927m2.7232 12.673h6.2025c0.09375 0 0.4235-0.0072 0.48887 0.0071 0.07142 0.01628 0.05808 0.38464-0.01826 0.40875-0.07241 0.0092-5.0049 0.0021-6.6782 0.0021-0.03059-0.0032-0.05017-0.02819-0.05808-0.0404-0.01562-0.02476-0.01319-0.31762 0-0.34341 0.01541-0.029 0.03786-0.02991 0.06316-0.0342m-9.9997 0h0.91686c0.01353 0 0.12865 2e-3 0.15529 2e-3 0.15653 0 0.03631 0.35829 0.02502 0.38215-0.02858 0.03821-0.16535 0.02807-0.17946 0.02807h-0.91767c-0.02857-0.0039-0.06404-0.02236-0.06512-0.03456-0.0024-0.02475-0.0024-0.30907-0.0024-0.33349 0-0.03016 0.0389-0.03984 0.06749-0.04414m2.9343 0c0.75624 0 2.1561 2e-3 3.4482-7e-3 1.5528-0.01122 2.9089 0.01134 2.9959 0.01134 0.0098 0 0.04653 0.02137 0.05236 0.04218 0.02179 0.07802 0.01793 0.24779-0.0092 0.32962-0.0073 0.02411-0.0207 0.03745-0.04314 0.04457-0.07306 1e-3 -6.5069 0-6.5688 0-0.02794 0 0.04793-0.36211 0.06351-0.38644 0.01098-0.01715 0.03162-0.02751 0.06126-0.0342m5.1123-36.595-0.18416 0.10498c-8.2704 4.699-13.598 14.031-13.523 23.532-8.264 4.6871-13.679 13.966-13.614 23.475v0.21179l0.18416 0.10866c8.1996 4.8098 18.936 4.7593 27.126-0.04788l0.01105 0.0056 0.0092-0.0056c8.1897 4.8074 18.927 4.8571 27.128 0.04788l0.18232-0.10866 0.0019-0.21179c0.06557-9.5103-5.3495-18.789-13.614-23.475 0.073982-9.5028-5.2524-18.833-13.523-23.532zm0 0.87846c7.7941 4.5251 12.857 13.344 12.938 22.348-3.9668-2.1996-8.4433-3.3276-12.938-3.3242-4.4959-0.0037-8.9741 1.1244-12.938 3.3242 0.08086-9.0035 5.1439-17.824 12.938-22.348zm0 19.778c4.5105 0.0038 9.0166 1.1523 12.958 3.4162 5e-3 9.0847-5.0929 17.875-12.958 22.441-7.8708-4.5705-12.96-13.349-12.958-22.441 3.9451-2.2649 8.4492-3.4128 12.958-3.4162zm-13.678 3.8546c0.15676 9.0649 5.1686 17.717 12.936 22.408-7.8368 4.4289-18.003 4.453-25.816-0.03315 0.02228-9.0087 5.127-17.802 12.88-22.375zm27.356 0c7.7532 4.5722 12.859 13.366 12.88 22.375-7.8133 4.4857-17.982 4.4624-25.818 0.03315 7.7632-4.6863 12.784-13.347 12.938-22.408zm-13.688-27.027c-18.67 0-33.813 15.143-33.813 33.813 0 18.67 15.143 33.823 33.813 33.823 18.67 0 33.823-15.134 33.823-33.823 0-18.67-15.143-33.813-33.823-33.813zm0.01886 0.73548c18.283 0 33.059 14.823 33.059 33.078 0 18.274-14.804 33.078-33.078 33.078s-33.078-14.804-33.078-33.078c0-18.274 14.813-33.078 33.097-33.078zm-0.01886-6.6005c-21.904 0-39.678 17.765-39.678 39.678 0 21.914 17.774 39.697 39.678 39.697 21.914 0 39.697-17.784 39.697-39.697 0-21.914-17.802-39.678-39.697-39.678zm0.01886 0.73548c21.499 0 38.924 17.435 38.924 38.943 0 21.499-17.444 38.943-38.943 38.943s-38.952-17.444-38.943-38.943c0.009427-21.499 17.463-38.943 38.962-38.943z" aria-label="Pittsburgh District Church of the Nazarene logo icon"/></svg>
