<svg xmlns="http://www.w3.org/2000/svg" width="480" height="599.346" viewBox="0 0 127 158.57697"><g><g transform="translate(21.166) translate(-15.869 -186.23)"><circle cx="58.203" cy="228.563" r="41.687" fill="#fff" stroke="#101820" stroke-width="1.293"/><circle cx="58.203" cy="228.563" r="38.524" fill="none" stroke="#aca5af" stroke-width="6.467"/></g><g><g stroke="#101820" stroke-width=".794"><path fill="#c60c30" d="M92.23 59.13c.08-12.35-8.65-24.07-20.5-27.55-7.63-2.36-16.3-1.47-23.16 2.65-.53 18.76 20 33.74 37.7 27.5 2.06-.6 4.1-1.57 5.96-2.6z"/><path fill="#003087" d="M34.02 59.14c10.86 6.6 25.85 4.6 34.84-4.3 5.5-5.35 8.8-12.92 8.8-20.6-15.54-9.77-38.34-.42-42.6 17.42-.67 2.42-1.02 5-1.04 7.48z"/><path fill="#ffb612" d="M63.1 59.13c11.3-6.2 17.1-20.56 13.47-32.9-2.02-7.24-6.9-13.68-13.47-17.37-16.42 8.7-19.53 33.55-5.7 45.98 1.7 1.65 3.63 3.1 5.7 4.3z"/><path fill="#101820" d="M48.57 34.24c-.02 10.08 5.75 19.9 14.5 24.9 8.87-4.9 14.56-14.87 14.56-24.96-8.77-5.2-20.32-5.17-29.06.06z"/></g><path fill="#fff" d="M53.57 47.96c0 .13.1.24.24.24.14 0 .25-.1.25-.24 0-.14-.1-.24-.24-.24-.13 0-.23.1-.23.24m.04 0c0-.1.1-.2.2-.2s.2.1.2.2-.1.2-.2.2-.2-.1-.2-.2m.1.1s.03.02.04.02c.02 0 .03 0 .03 0v-.1h.05l.03.1s0 0 .02 0h.02s0 0 0-.02-.03-.05-.04-.08c0 0 .04-.02.04-.07 0-.04-.05-.07-.1-.07h-.08s-.02 0-.02 0zm.07-.1v-.1h.06c.03 0 .04.03.04.05 0 .03 0 .05-.04.05h-.06m2.96.36l-.03.1c0 .02-.02.03-.03.03h-.25l-.17.54c0 .03-.03.04-.05.04h-.1c-.02 0-.03 0-.03-.02l.17-.53H56s-.03-.02 0-.04v-.1s.03-.02.04-.02h.25l.07-.25s.03-.03.05-.03h.1s.03.02.03.03l-.08.25h.25s0 .03 0 .05zm-.92-.55c-.04.6-.27.95-.55 1.23-.1.1-.3.23-.3.23.07.08.88.05.96.05.04.13 0 .33-.14.78.5-.04 1.07-.52 1.2-1.1.04-.16.1-.36.13-.55.04-.32.1-.63.1-.64-.47 0-.94 0-1.4 0m16.8-.6c0-.04-.06-.1-.13-.1-.22-.06-.9-.16-1.46-.28-1.46-.35-3.32-1-4.16-.74-.73.22-1.26.97-1.42 1.2-.05.07.03.08.03.08h7.08s.04 0 .05 0c0-.02.05-.03.05-.06 0-.02 0-.1 0-.12m-18.08-.18c.3-.06 1.3-.16 2.06-.32 2.1-.44 4.86-1.22 6.07-.93 1.17.27 1.72 1.24 1.86 1.53.04.06-.05.06-.05.06h-10s-.12 0-.13-.1c0-.05-.05-.23.22-.3m8.2-8.36c.78.3 1.2-.78.7-1.4-.1-.1.07-.06.14-.03.27.13.76.4 1.05 1.1.2.44-.07 1.13-.47 1.27-.36-.18-1.16-.54-1.4-.94m2.26 6.2c.13.2 0 .48-.3.14-.1-.12-.18-.27-.1-.3.08-.03.3.04.4.17M63.1 38.7c-1.2-.77-1.6-.75-1.43-2.3.14-.9.53-1.46.7-1.66.1-.1.1 0 .1 0-1.37 3 .67 4.02.63 3.96m-6.53-2.56c0-.65.6-1.8.6-1.42 0 .4-.8 2.95 3.66 5.85.05.03.07.1.03.1-1.8 0-2.76-.7-3.4-1.2-.7-.58-.96-1.2-1.04-1.45-.05-.13.03-.1.04-.07.36.53 1.33 1.6 2.1 1.8 0 0-2.02-1.54-1.98-3.6m5.67-2.24c-1.38 2.03-.58 3.5-.46 3.68.53.88 1.84 1.35 3.6 2.72.2.13 1.7 1.6 1.64 3.15 0 .14-.03.24 0 .23.4-.1 1.6-2 .56-3.7-.67-1.12-3.04-2.7-3.05-2.7-.2-.12.65.06 1.3.38 1.2.6 5.6 3.25 1.13 7.23-.72.63-1.88 2-2.1 2.2-.03.04-.04 0-.05 0-.24-.4-.12-2-2.77-2-1.35 0-3.3.06-5-.6-3.05-1.2-2.9-3.65-2.65-4.65.26-1.37 1.43-1.8 1.4-1.7-.1.54-.7 2.37.05 3.73 1.5 3.1 5.3 1.94 7.5 2.7 1.6.54 1.5 1.42 1.65 1.7.06.1.56-.63.88-1.25.4-.8.35-2.1-.2-3.1-.24-.45-1-1.24-3.02-2.46-4.15-2.5-.7-5.72-.42-5.55m2.97 13.84c1.88 0 6.36 0 6.78 0 .1 0 .46 0 .54 0 .07 0 .06.4-.02.45-.08 0-5.47 0-7.3 0-.03 0-.05-.02-.06-.03-.02-.02-.02-.34 0-.37.02-.03.04-.03.07-.03m-10.9 0c.26 0 .93 0 1 0 0 0 .13 0 .16 0 .17 0 .04.38.02.4-.03.05-.18.04-.2.04-.06 0-.72 0-1 0-.03 0-.06-.02-.07-.03 0-.03 0-.34 0-.37 0-.03.05-.04.1-.04m3.2 0c.82 0 2.35 0 3.76-.03 1.7 0 3.17 0 3.27 0 0 0 .04.03.05.06.02.07.02.26 0 .35-.02 0-.04.03-.06.04-.1 0-7.12 0-7.2 0-.02 0 .07-.4.08-.44.02 0 .04-.02.07-.02"/></g></g><g fill="#101820"><g><path fill="#ffb612" stroke="#101820" stroke-width=".689" d="M437 186.47v33.76h-5.36v-14.88H414.6v14.88h-5.3v-33.76h5.3v14.12h17.04v-14.14zm-42 29.57q-4.28 4.43-9.84 4.43-3.38 0-6.28-1.38-2.9-1.45-5.04-3.83-2.14-2.37-3.38-5.5-1.2-3.15-1.2-6.57 0-3.42 1.2-6.5 1.24-3.1 3.38-5.43 2.14-2.33 5.1-3.66 2.93-1.36 6.4-1.36 4.86 0 8.14 2.04 3.28 2 4.94 5.33l-4.1 2.96q-1.37-2.76-3.8-4.14-2.42-1.37-5.32-1.37-2.37 0-4.32 1.05-1.95 1-3.33 2.7-1.38 1.67-2.14 3.9-.7 2.24-.7 4.67 0 2.57.8 4.8.87 2.24 2.3 3.9 1.47 1.66 3.47 2.66 2 .96 4.32.96 2.56 0 4.9-1.2 2.37-1.2 4.5-3.75v-3.62h-7.1v-3.94h11.58v17.06H395zm-58.77 4.2v-33.77h14.7q2.28 0 4.18.95 1.97.95 3.35 2.52 1.38 1.52 2.14 3.52.8 1.95.8 4 0 1.7-.48 3.27-.47 1.57-1.32 2.9-.86 1.34-2.1 2.33-1.23.95-2.7 1.43l7.94 12.82h-6.04l-7.33-11.75h-7.8v11.75zm5.33-16.46h9.32q1.14 0 2.04-.48.95-.52 1.62-1.38.66-.9 1.04-2.04.38-1.14.38-2.43 0-1.28-.47-2.42-.45-1.14-1.2-2-.7-.86-1.7-1.33-.97-.52-2-.52h-9.05zm-30.76 11.88q2.67 0 4.43-1.04 1.76-1.05 2.8-2.7 1.1-1.72 1.52-3.86.48-2.2.48-4.47v-17.14h5.37v17.12q0 3.46-.8 6.55-.8 3.04-2.57 5.37-1.76 2.28-4.57 3.62-2.76 1.33-6.66 1.33-4.04 0-6.84-1.38-2.76-1.44-4.47-3.77-1.73-2.38-2.5-5.42-.76-3.03-.76-6.3v-17.13h5.33v17.12q0 2.32.43 4.5.48 2.14 1.53 3.85 1.1 1.67 2.85 2.72 1.8 1 4.42 1zm-23.42-4.13q0 2.04-.85 3.66-.8 1.6-2.24 2.74-1.4 1.1-3.3 1.7-1.9.58-4.04.58h-16.12v-33.76h17.4q1.76 0 3.2.76 1.42.76 2.42 2 1 1.18 1.52 2.75.56 1.53.56 3.1 0 2.47-1.3 4.65-1.22 2.14-3.55 3.2 2.9.85 4.56 3.13 1.7 2.23 1.7 5.47zm-5.46-1q0-1.05-.38-2-.34-.95-.96-1.66-.57-.72-1.42-1.14-.86-.43-1.86-.43h-11.12v10.32h10.8q1.04 0 1.94-.38.9-.43 1.57-1.1.65-.7 1.03-1.6.38-.97.38-2zm-15.74-19.45v9.94h9.8q1 0 1.8-.38.86-.38 1.47-1 .67-.67 1-1.57.38-.9.38-2 0-2.18-1.23-3.56-1.24-1.4-3.14-1.4zM248 194.4q-.47-.5-1.37-1.08-.9-.62-2.14-1.15-1.2-.52-2.68-.85-1.43-.33-2.95-.33-3.38 0-5 1.2-1.56 1.25-1.56 3.44 0 1.23.48 2.04.52.75 1.56 1.37 1.05.57 2.62 1.04 1.57.43 3.66.96 2.57.6 4.6 1.37 2.1.77 3.53 1.86 1.43 1.1 2.2 2.7.8 1.57.8 3.85 0 2.57-1 4.42-.95 1.86-2.67 3.05-1.66 1.14-3.9 1.7-2.23.53-4.8.53-3.85 0-7.46-1.14-3.57-1.2-6.47-3.4l2.42-4.58q.6.62 1.75 1.38 1.2.77 2.7 1.44 1.58.62 3.4 1.1 1.8.42 3.75.42 3.14 0 4.85-1.1 1.7-1.1 1.7-3.23 0-1.28-.66-2.14-.62-.87-1.8-1.5-1.2-.66-2.9-1.2-1.73-.5-3.9-1.07-2.53-.67-4.44-1.38-1.85-.76-3.1-1.8-1.22-1.06-1.9-2.44-.6-1.4-.6-3.4 0-2.48.94-4.38.96-1.95 2.57-3.24 1.67-1.34 3.9-2 2.24-.67 4.85-.67 3.43 0 6.33 1.1t5.1 2.7zm-28.2-3.22h-11.2v29.05h-5.38v-29.05h-11.27v-4.7h27.86zm-33 0h-11.2v29.05h-5.38v-29.05h-11.27v-4.7h27.86zm-41.42 29.05v-33.76h5.33v33.76zm-33.37 0v-33.76h14.2q2.3 0 4.2.95 1.93.95 3.3 2.52 1.4 1.52 2.15 3.52.8 1.95.8 4 0 2.13-.76 4.13-.7 1.93-2.05 3.5-1.33 1.52-3.23 2.47-1.85.9-4.13.9h-9.14v11.75zm5.35-16.45h8.8q1.14 0 2.04-.48.94-.47 1.6-1.33.67-.86 1.05-2 .38-1.14.38-2.52 0-1.42-.42-2.57-.42-1.14-1.2-1.95-.74-.85-1.74-1.28-.95-.47-2-.47h-8.5z" transform="matrix(.388 0 0 .381 -42.863 24.892)"/><path fill="#ffb612" stroke="#101820" stroke-width=".229" d="M301.75 232.7h-2.77v7.1h-1v-7.1h-2.78v-.9h6.55zm-14.83 3.04q0-.72.25-1.43.26-.7.75-1.27.5-.58 1.2-.93.7-.36 1.62-.36 1.07 0 1.84.5.77.47 1.14 1.25l-.8.5q-.18-.38-.44-.64-.25-.26-.56-.42-.3-.16-.6-.22-.32-.07-.63-.07-.68 0-1.2.28-.5.27-.86.72-.35.44-.53 1-.16.56-.16 1.12 0 .64.2 1.2.22.58.6 1.02.36.43.87.7.5.25 1.1.25.33 0 .66-.08.34-.08.64-.25.32-.18.58-.44.27-.28.44-.65l.84.46q-.2.45-.54.8-.34.34-.78.6-.42.2-.9.34-.5.12-.96.12-.82 0-1.5-.36-.7-.35-1.2-.93-.5-.58-.8-1.32-.26-.74-.26-1.5zm-3.24 4.06v-8h1v8zm-8.25 0v-8h3.44q.53 0 .97.2.45.23.76.6.33.36.5.83.2.45.2.92 0 .42-.13.8-.1.4-.34.7-.2.33-.53.56-.3.24-.7.34l1.95 3.07h-1.15l-1.83-2.87h-2.12v2.88zm1.02-3.78h2.43q.3 0 .56-.13.26-.16.44-.38.18-.24.28-.55.1-.3.1-.63 0-.34-.12-.63-.1-.3-.3-.52-.2-.25-.48-.37-.26-.13-.55-.13h-2.34zm-3-3.33h-2.76v7.1h-1.03v-7.1h-2.77v-.9h6.56zm-8.78.76q-.13-.16-.36-.3-.2-.15-.5-.26-.27-.12-.6-.2-.34-.06-.7-.06-.93 0-1.37.35-.43.33-.43.93 0 .33.1.55.14.2.4.36.27.15.66.26.4.1.94.24.62.13 1.12.3.5.18.85.44.36.26.55.63.2.4.2.93 0 .57-.24 1-.22.42-.62.7-.38.27-.9.4-.54.13-1.17.13-.94 0-1.78-.28-.82-.3-1.5-.85l.5-.85q.17.2.45.38.3.2.66.35.37.16.8.26.4.1.88.1.87 0 1.34-.32.47-.3.47-.9 0-.35-.14-.58-.15-.23-.44-.4-.3-.17-.74-.3-.44-.13-1-.27-.6-.14-1.06-.3-.47-.18-.78-.4-.3-.26-.46-.6-.16-.33-.16-.8 0-.58.2-1 .23-.46.6-.77.4-.3.92-.45.53-.17 1.16-.17.8 0 1.46.26.66.25 1.17.67zm-8.47 6.33v-8h1v8zm-8.93 0v-8h2.78q.96 0 1.68.3.74.3 1.22.85.5.54.72 1.28.25.72.25 1.54 0 .92-.27 1.66-.27.74-.78 1.27-.5.53-1.23.82-.7.28-1.6.28zm5.63-4.03q0-.67-.2-1.24-.18-.57-.55-.98-.36-.4-.9-.63-.52-.24-1.2-.24h-1.76v6.2h1.74q.7 0 1.22-.24.54-.23.9-.65.35-.4.53-.98.2-.58.2-1.25z" transform="matrix(.388 0 0 .381 -42.863 24.892)"/><path d="M50.9 114.5c.74 0 1.4.05 1.4.1v.26c0 .06-.66.1-1.4.1H2c-.73 0-1.4-.04-1.4-.1v-.25c0-.04.67-.1 1.4-.1h48.9"/><path d="M125.3 114.5c.73 0 1.4.05 1.4.1v.26c0 .06-.67.1-1.4.1H76.4c-.75 0-1.4-.04-1.4-.1v-.25c0-.04.65-.1 1.4-.1h48.9"/></g><path d="M113.7 134.97H95.82v-.8h17.86v.8m-2.43-5.94c0-.05.04-.1.1-.1h2.07c.06 0 .1.05.1.1v.42c0 .05-.04.1-.1.1h-1.5v.83h1.25c.04 0 .1.05.1.1v.42c0 .06-.06.1-.1.1h-1.27v.9h1.5c.07 0 .1.04.1.1v.4c0 .06-.03.1-.1.1h-2.07c-.05 0-.1-.04-.1-.1v-3.37m-4.05 0c0-.05.06-.1.1-.1h.48c.06 0 .1.05.1.1v1.35h1.67v-1.35c0-.05.04-.1.1-.1h.46c.05 0 .1.05.1.1v3.38c0 .07-.05.1-.1.1h-.47c-.05 0-.1-.03-.1-.1V131h-1.66v1.4c0 .06-.04.1-.1.1h-.47c-.04 0-.1-.04-.1-.1v-3.37m-2.2.5h-.77c-.06 0-.1-.03-.1-.08v-.42c0-.05.04-.1.1-.1h2.23c.06 0 .1.05.1.1v.42c0 .05-.04.1-.1.1h-.78v2.86c0 .07-.05.1-.1.1h-.47c-.03 0-.1-.03-.1-.1v-2.85m-4.72-.5c0-.06.04-.1.1-.1h2.07c.06 0 .1.04.1.1v.4c0 .06-.04.1-.1.1h-1.5v.96h1.25c.04 0 .1.06.1.1v.43c0 .05-.06.1-.1.1h-1.27v1.3c0 .04-.04.08-.1.08h-.46c-.06 0-.1-.03-.1-.1v-3.36m-2.63 2.86c.64 0 1.17-.53 1.17-1.18 0-.64-.5-1.18-1.15-1.18-.65 0-1.17.54-1.17 1.18 0 .65.52 1.17 1.17 1.17zm0-3.02c1.02 0 1.83.82 1.83 1.84s-.8 1.83-1.83 1.83c-1.02 0-1.84-.8-1.84-1.83 0-1.02.82-1.84 1.84-1.84m20.1 14.64c0-.22.16-.4.4-.4h8.54c.23 0 .4.18.4.4v.63c0 .2-.17.4-.4.4h-7.3v5.3h6.23c.24 0 .44.2.44.4v.64c0 .22-.2.4-.42.4h-6.2v5.52h7.28c.23 0 .4.2.4.4v.64c0 .2-.17.4-.4.4h-8.54c-.24 0-.4-.2-.4-.4V143.5m-19.17-.23c0-.22.2-.4.4-.4h.54l9.78 12.2c.02 0 .02 0 .04 0V143.5c0-.22.17-.4.4-.4h.77c.23 0 .42.18.42.4v14.58c0 .22-.2.4-.4.4h-.4l-9.95-12.42h-.02v11.8c0 .2-.17.4-.4.4H99c-.2 0-.4-.2-.4-.4v-14.6m-15.2.24c0-.22.16-.4.4-.4h8.54c.25 0 .42.18.42.4v.63c0 .2-.17.4-.4.4H85v5.3h6.23c.2 0 .4.2.4.4v.64c0 .23-.2.4-.4.4H85v5.53h7.3c.24 0 .4.2.4.4v.64c0 .2-.16.4-.4.4h-8.54c-.24 0-.4-.2-.4-.4V143.5m-10.8 7.4c1.67 0 3.12-1.4 3.12-3.18 0-1.65-1.46-3.06-3.13-3.06h-4.2v6.2zm-5.92-7.4c0-.23.18-.4.4-.4h5.63c2.6 0 4.72 2.02 4.72 4.6 0 2-1.33 3.66-3.2 4.42l2.95 5.5c.15.28 0 .63-.36.63h-1.1c-.2 0-.3-.1-.37-.2l-2.88-5.74H68.3v5.54c0 .2-.2.4-.4.4h-.85c-.23 0-.4-.2-.4-.4V143.5m-8.54 9.6c-1.06-2.37-2.1-4.76-3.16-7.1h-.17l-3.17 7.1zm-10.3 4.6l6.6-14.6c.06-.13.17-.24.37-.24H55c.2 0 .3.1.36.23l6.55 14.57c.15.3-.03.58-.35.58h-.87c-.2 0-.32-.13-.37-.24l-1.6-3.57H51L49.43 158c-.05.1-.18.25-.37.25h-.87c-.34 0-.5-.28-.4-.57m-13.42-.22l7.85-12.8v-.06H35.4c-.2 0-.4-.2-.4-.4v-.7c0-.22.2-.4.4-.4h8.78c.22 0 .42.18.42.4v.28l-8 12.94v.02h7.15c.24 0 .4.2.4.4v.7c0 .22-.16.42-.4.42H34.8c-.22 0-.4-.2-.4-.4v-.4m-7-4.36c-1.05-2.36-2.1-4.75-3.15-7.1h-.18l-3.16 7.1zm-10.28 4.6l6.6-14.6c.05-.12.16-.23.35-.23h.22c.2 0 .3.1.35.23l6.54 14.58c.12.3-.05.58-.38.58h-.86c-.2 0-.33-.13-.37-.24l-1.6-3.58h-7.7l-1.6 3.58c-.03.1-.16.24-.36.24h-.86c-.34 0-.5-.28-.38-.57M.04 143.3c0-.22.2-.4.4-.4H1l9.77 12.2c.02 0 .02 0 .04 0v-11.6c0-.22.2-.4.43-.4H12c.2 0 .4.18.4.4v14.58c0 .22-.2.4-.4.4h-.4l-9.94-12.42h-.03v11.8c0 .2-.17.4-.4.4h-.8c-.2 0-.4-.2-.4-.4v-14.6m80.63-18.8c0-.15.15-.3.3-.3h.66c.18 0 .3.15.3.3v4.84h6.72v-4.83c0-.17.13-.32.32-.32h.64c.17 0 .32.15.32.3v10.95c0 .17-.15.32-.3.32h-.65c-.2 0-.32-.15-.32-.32v-5h-6.7v5c0 .17-.14.32-.32.32h-.65c-.16 0-.3-.15-.3-.32v-10.9m-8.64-.48c1.67 0 2.88.57 4 1.53.13.13.15.33.02.46l-.45.47c-.1.17-.24.15-.4-.02-.87-.74-2.04-1.24-3.16-1.24-2.6 0-4.6 2.2-4.6 4.77 0 2.55 2 4.75 4.6 4.75 1.43 0 2.28-.57 3.15-1.23.16-.15.3-.13.4-.06l.5.44c.12.1.1.33-.03.45-1.12 1.1-2.55 1.6-4.02 1.6-3.3 0-5.96-2.62-5.96-5.92s2.65-5.95 5.95-5.95m-13.6 6.1c1.28 0 2.38-1.05 2.38-2.4 0-1.26-1.1-2.33-2.38-2.33h-3.2v4.73zm-4.5-5.63c0-.17.12-.32.3-.32h4.3c1.97 0 3.6 1.55 3.6 3.52 0 1.52-1.02 2.8-2.46 3.37l2.26 4.2c.1.2 0 .47-.28.47h-.85c-.15 0-.23-.1-.26-.15l-2.2-4.38H55.2v4.2c0 .18-.14.33-.3.33h-.65c-.2 0-.32-.15-.32-.32V124.5m-14.04 0c0-.17.12-.32.3-.32h.62c.18 0 .3.15.3.3v6.9c0 1.9 1.2 3.36 3.12 3.36 1.95 0 3.14-1.44 3.14-3.32v-6.93c0-.18.12-.33.3-.33h.63c.17 0 .3.15.3.3v7c0 2.52-1.76 4.43-4.37 4.43-2.6 0-4.36-1.9-4.36-4.42v-7m-14.56 0c0-.15.16-.3.33-.3h.64c.18 0 .32.15.32.3v4.84h6.7v-4.83c0-.18.13-.33.3-.33h.65c.17 0 .32.15.32.3v10.95c0 .17-.15.32-.32.32h-.64c-.17 0-.3-.15-.3-.32v-5h-6.7v5c0 .17-.15.32-.33.32h-.64c-.17 0-.32-.15-.32-.32V124.5m-8.6-.48c1.66 0 2.86.57 4 1.53.12.13.13.33 0 .46l-.44.47c-.15.17-.28.15-.44-.02-.86-.74-2.04-1.24-3.16-1.24-2.6 0-4.6 2.2-4.6 4.77 0 2.55 2 4.75 4.6 4.75 1.44 0 2.28-.57 3.16-1.23.16-.15.3-.13.4-.06l.5.44c.12.1.1.33-.03.45-1.13 1.1-2.55 1.6-4 1.6-3.33 0-6-2.62-6-5.92s2.67-5.95 5.98-5.95"/></g></svg>