<?xml version="1.0" encoding="UTF-8" standalone="no"?>
<svg
   xmlns:dc="http://purl.org/dc/elements/1.1/"
   xmlns:cc="http://creativecommons.org/ns#"
   xmlns:rdf="http://www.w3.org/1999/02/22-rdf-syntax-ns#"
   xmlns:svg="http://www.w3.org/2000/svg"
   xmlns="http://www.w3.org/2000/svg"
   xmlns:sodipodi="http://sodipodi.sourceforge.net/DTD/sodipodi-0.dtd"
   xmlns:inkscape="http://www.inkscape.org/namespaces/inkscape"
   width="1589.7"
   height="319.68"
   version="1.1"
   viewBox="0 0 420.6 84.584"
   id="svg30"
   sodipodi:docname="pghnaz-logo-flat-color-spread-text.svg"
   inkscape:version="0.92.3 (2405546, 2018-03-11)">
  <metadata
     id="metadata36">
    <rdf:RDF>
      <cc:Work
         rdf:about="">
        <dc:format>image/svg+xml</dc:format>
        <dc:type
           rdf:resource="http://purl.org/dc/dcmitype/StillImage" />
      </cc:Work>
    </rdf:RDF>
  </metadata>
  <defs
     id="defs34" />
  <sodipodi:namedview
     pagecolor="#ffffff"
     bordercolor="#666666"
     borderopacity="1"
     objecttolerance="10"
     gridtolerance="10"
     guidetolerance="10"
     inkscape:pageopacity="0"
     inkscape:pageshadow="2"
     inkscape:window-width="1315"
     inkscape:window-height="713"
     id="namedview32"
     showgrid="false"
     inkscape:zoom="1.3023896"
     inkscape:cx="307.51723"
     inkscape:cy="143.45251"
     inkscape:window-x="51"
     inkscape:window-y="27"
     inkscape:window-maximized="1"
     inkscape:current-layer="svg30" />
  <circle
     style="fill:#ffffff;stroke:none"
     id="circle2"
     r="41.687"
     cy="42.237282"
     cx="41.751228" />
  <g
     id="g977">
    <g
       transform="matrix(1.0149734,0,0,1.0149734,-0.05108641,-0.62005093)"
       id="g951">
      <circle
         id="circle4"
         r="38.523998"
         cy="42.237282"
         cx="41.751228"
         style="fill:#ffffff;stroke:#aca5af;stroke-width:6.37159538" />
      <g
         id="g941">
        <g
           id="g933">
          <path
             style="fill:#ffb612;stroke:none;stroke-width:0.78205866;stroke-miterlimit:4;stroke-dasharray:none;stroke-opacity:1"
             inkscape:connector-curvature="0"
             id="path6"
             d="m 29.30223,43.64128 -0.61072,-1.8907 -0.47801,-1.9291 -0.34324,-1.9579 -0.20658,-1.9772 -0.06889,-1.9869 0.06889,-1.9869 0.20658,-1.9771 0.34324,-1.9579 0.47801,-1.9291 0.61072,-1.8908 0.74026,-1.8433 0.86637,-1.7869 0.9881,-1.7218 1.105,-1.6481 1.2167,-1.5667 1.3223,-1.4774 1.4215,-1.381 1.5139,-1.2779 1.5987,-1.1685 1.6759,-1.0536 1.6759,1.0536 1.5987,1.1685 1.5139,1.2779 1.4215,1.381 1.3223,1.4774 1.2167,1.5667 1.105,1.6481 0.9881,1.7218 0.86637,1.7869 0.74026,1.8433 0.61072,1.8908 0.47809,1.9291 0.34315,1.9579 0.20658,1.9771 0.06889,1.9869 -0.06889,1.9869 -0.20658,1.9772 -0.34315,1.9579 -0.47809,1.9291 -0.61072,1.8907 -0.74026,1.8434 -0.86637,1.7868 -0.9881,1.7218 -1.105,1.6482 -1.2167,1.5666 -1.3223,1.4774 -1.4215,1.3811 -1.5139,1.2779 -1.5987,1.1685 -1.6759,1.0535 -1.6759,-1.0535 -1.5987,-1.1685 -1.5139,-1.2779 -1.4215,-1.381 -1.3223,-1.4775 -1.2167,-1.5666 -1.105,-1.6482 -0.9881,-1.7218 -0.86637,-1.7868 z" />
          <path
             style="fill:#c60c30;stroke:none;stroke-width:0.78205866;stroke-miterlimit:4;stroke-dasharray:none;stroke-opacity:1"
             inkscape:connector-curvature="0"
             id="path8"
             d="m 27.60623,34.07228 1.7503,-0.92467 1.8113,-0.80029 1.8636,-0.67214 1.9067,-0.54056 1.9407,-0.40643 1.965,-0.27045 1.9799,-0.1329 1.9851,0.0051 1.9806,0.14309 1.9665,0.28056 1.9427,0.41644 1.9096,0.55053 1.8671,0.68166 1.8155,0.80968 1.7551,0.93375 1.6862,1.0531 1.6089,1.1674 1.5239,1.2762 1.4316,1.3785 1.3321,1.4743 1.2261,1.5627 1.1143,1.6437 0.99698,1.7166 0.87477,1.781 0.74837,1.837 0.61828,1.8839 0.48522,1.9215 0.34971,1.95 0.21259,1.9688 0.07444,1.9782 -1.7504,0.92463 -1.8113,0.80029 -1.8636,0.67214 -1.9067,0.54056 -1.9406,0.40648 -1.9651,0.2704 -1.9798,0.13294 -1.9851,-0.0051 -1.9806,-0.14313 -1.9664,-0.28052 -1.9428,-0.41648 -1.9096,-0.55046 -1.8671,-0.68173 -1.8155,-0.80963 -1.7551,-0.93375 -1.6862,-1.0531 -1.609,-1.1675 -1.5239,-1.2761 -1.4315,-1.3785 -1.332,-1.4742 -1.2262,-1.5627 -1.1142,-1.6437 -0.99698,-1.7166 -0.87484,-1.7811 -0.74829,-1.837 -0.61829,-1.8839 -0.48529,-1.9216 -0.34971,-1.95 -0.21259,-1.9688 z" />
          <path
             style="fill:#003087;stroke:none;stroke-width:0.78205866;stroke-miterlimit:4;stroke-dasharray:none;stroke-opacity:1"
             inkscape:connector-curvature="0"
             id="path10"
             d="m 55.89523,34.07228 -0.07436,1.9781 -0.21259,1.9688 -0.34971,1.95 -0.48522,1.9215 -0.61836,1.8839 -0.74829,1.837 -0.87484,1.7811 -0.99698,1.7166 -1.1142,1.6437 -1.2262,1.5627 -1.332,1.4742 -1.4316,1.3785 -1.5239,1.2762 -1.609,1.1675 -1.6862,1.0531 -1.7551,0.93375 -1.8155,0.80963 -1.8671,0.68166 -1.9096,0.55053 -1.9428,0.41648 -1.9664,0.28052 -1.9806,0.14313 -1.9851,0.0051 -1.9798,-0.13294 -1.9651,-0.2704 -1.9406,-0.40648 -1.9067,-0.54056 -1.8636,-0.67214 -1.8113,-0.80029 -1.7504,-0.92463 0.07444,-1.9782 0.21259,-1.9688 0.34971,-1.95 0.48522,-1.9215 0.61828,-1.8839 0.74837,-1.837 0.87477,-1.781 0.99698,-1.7166 1.1143,-1.6437 1.2261,-1.5627 1.3321,-1.4743 1.4315,-1.3785 1.5239,-1.2761 1.6089,-1.1674 1.6862,-1.0531 1.7551,-0.93375 1.8155,-0.80968 1.8671,-0.68173 1.9096,-0.55046 1.9427,-0.41644 1.9665,-0.28056 1.9806,-0.14309 1.9851,-0.0051 1.9799,0.1329 1.965,0.27045 1.9406,0.40648 1.9068,0.54052 1.8636,0.67214 1.8113,0.80029 z" />
          <path
             style="fill:#101820;stroke:none;stroke-width:0.78205866;stroke-miterlimit:4;stroke-dasharray:none;stroke-opacity:1"
             inkscape:connector-curvature="0"
             id="path12"
             d="m 41.75023,30.32928 -1.003,0.0026 -0.72706,0.04858 -1.2717,0.09198 -0.48937,0.06718 -1.4883,0.21239 -0.37102,0.07803 -1.5653,0.33538 -0.4873,0.13849 -1.4025,0.40359 -0.84385,0.30437 -0.99165,0.36173 -1.6293,0.72037 -0.13126,0.05839 -1.7441,0.92137 0.0739,1.959 0.04186,0.4005 0.16175,1.5012 0.26148,1.4929 0.07493,0.41806 0.47233,1.9053 0.61081,1.8903 0.74,1.8433 0.86661,1.7869 0.98805,1.7218 0.9772,1.4578 0.13901,0.20515 1.064,1.3694 0.15296,0.19482 1.2102,1.3529 0.10852,0.11989 1.4133,1.3735 1.5141,1.2774 1.5989,1.1689 1.6758,1.0532 1.6758,-1.0532 1.5989,-1.1689 1.5136,-1.2774 1.4133,-1.3735 0.1173,-0.12919 1.1979,-1.3389 0.19792,-0.25166 1.0227,-1.3172 0.14831,-0.21807 0.9622,-1.4361 0.06976,-0.11989 0.92447,-1.6107 0.8666,-1.7869 0.74,-1.8433 0.61081,-1.8903 0.4718,-1.9048 0.08165,-0.45526 0.25424,-1.449 0.16588,-1.5363 0.03876,-0.37258 0.0739,-1.959 -1.7441,-0.92137 -0.12764,-0.05685 -1.6361,-0.72294 -0.96842,-0.35345 -0.86401,-0.3116 -1.4025,-0.40359 -0.4873,-0.13849 -1.5653,-0.33538 -0.37105,-0.07803 -1.4883,-0.21239 -0.48937,-0.06718 -1.2717,-0.09198 -0.72707,-0.04858 z" />
        </g>
        <path
           d="m 32.49023,48.06928 c 0,0.12963 0.10534,0.23492 0.23475,0.23492 0.12958,0 0.23556,-0.10529 0.23556,-0.23492 0,-0.12928 -0.10598,-0.23534 -0.23556,-0.23534 -0.12941,0 -0.23475,0.10606 -0.23475,0.23534 m 0.03916,0 c 0,-0.1084 0.08789,-0.19546 0.1956,-0.19546 0.10858,0 0.19582,0.08707 0.19582,0.19546 0,0.10785 -0.08724,0.19568 -0.19582,0.19568 -0.10772,0 -0.1956,-0.08784 -0.1956,-0.19568 m 0.11382,0.10666 c 0,0.0066 0.0051,0.01262 0.01253,0.01262 h 0.01692 c 0.0072,0 0.01257,-0.006 0.01257,-0.01262 v -0.07817 h 0.04818 l 0.03677,0.08146 c 0.0017,0.004 0.0064,0.0093 0.01166,0.0093 h 0.0222 c 0.0093,0 0.01574,-0.0098 0.01112,-0.01801 -0.01284,-0.02542 -0.02596,-0.0517 -0.03916,-0.07698 0.01836,-0.0045 0.05288,-0.02222 0.05288,-0.07106 0,-0.04899 -0.0397,-0.07329 -0.08037,-0.07329 h -0.09282 c -0.0073,0 -0.01253,0.0056 -0.01253,0.01225 z m 0.04125,-0.11624 v -0.07467 h 0.0641 c 0.02407,0 0.03949,0.01495 0.03949,0.03746 0,0.01996 -0.01542,0.03718 -0.03949,0.03718 h -0.0641 m 2.8737,0.32884 -0.02601,0.0845 c -0.0066,0.02134 -0.02131,0.04017 -0.03127,0.04017 l -0.24373,-0.002 -0.16154,0.52465 c -0.0043,0.01399 -0.02826,0.02659 -0.0504,0.02635 l -0.08879,-6.78e-4 c -0.02234,-1.41e-4 -0.03839,-0.01295 -0.03415,-0.02686 l 0.16154,-0.52488 -0.24337,-0.0018 c -0.01003,0 -0.01326,-0.01886 -0.0066,-0.04011 l 0.02588,-0.0845 c 0.0066,-0.02126 0.02139,-0.04003 0.03139,-0.0399 l 0.2434,0.0017 0.07482,-0.24305 c 0.0043,-0.01402 0.02826,-0.02646 0.05045,-0.02624 l 0.08897,6.88e-4 c 0.02215,1.28e-4 0.03828,0.01294 0.03392,0.02708 l -0.07476,0.24295 0.24364,0.0018 c 0.01003,9.3e-5 0.01316,0.01915 0.0066,0.04013 z m -0.88913,-0.53909 c -0.05097,0.58427 -0.27601,0.93426 -0.54782,1.2044 -0.08282,0.0825 -0.28339,0.22184 -0.29068,0.22184 0.07043,0.06441 0.8622,0.04117 0.93704,0.04117 0.02817,0.12193 -0.01458,0.3209 -0.14586,0.7585 0.48933,-0.04572 1.0574,-0.50501 1.1878,-1.0692 0.03646,-0.15602 0.09846,-0.35404 0.12499,-0.53527 0.04596,-0.31119 0.10985,-0.61107 0.10985,-0.62138 h -1.3753 m 16.332,-0.56955 c -0.01399,-0.03185 -0.06956,-0.10269 -0.13291,-0.11436 -0.2265,-0.04038 -0.89304,-0.1286 -1.4261,-0.25322 -1.4328,-0.33502 -3.236,-0.97206 -4.0563,-0.71216 -0.71076,0.22533 -1.2247,0.95313 -1.3795,1.183 -0.04038,0.05998 0.03138,0.06499 0.03138,0.06499 h 6.8869 c 0,0 0.03887,-0.0018 0.04761,-0.0075 0.0099,-0.0065 0.03722,-0.01936 0.03722,-0.04738 6.99e-4,-0.02078 0.0064,-0.08706 -0.0082,-0.11331 m -17.55,-0.19353 c 0.31781,-0.06149 1.2631,-0.16243 2.0166,-0.3202 2.0259,-0.42347 4.7059,-1.1794 5.8798,-0.89817 1.1359,0.27165 1.6702,1.2092 1.8073,1.4938 0.04049,0.08332 -0.04387,0.08227 -0.04387,0.08227 h -9.7294 c 0,0 -0.13492,-4.68e-4 -0.1419,-0.07667 -0.0045,-0.05029 -0.04944,-0.22988 0.2114,-0.28099 m 7.9998,-8.1748 c 0.75161,0.31787 1.1511,-0.74087 0.6747,-1.3361 -0.08332,-0.1175 0.07072,-0.07025 0.13431,-0.03968 0.24984,0.12043 0.72559,0.395 1.0072,1.0449 0.19126,0.44202 -0.06453,1.1131 -0.45358,1.25 -0.36244,-0.17702 -1.1316,-0.52254 -1.3627,-0.91917 m 2.1874,6.0559 c 0.12626,0.18368 -0.0073,0.44985 -0.28869,0.12101 -0.09802,-0.11552 -0.17865,-0.25777 -0.09965,-0.28694 0.07957,-0.02964 0.29954,0.03583 0.38834,0.16593 m -1.8862,-5.8908 c -1.1515,-0.73026 -1.5479,-0.711 -1.3825,-2.2325 0.13046,-0.88451 0.51554,-1.4034 0.68066,-1.5958 0.08517,-0.10678 0.09672,-0.02744 0.07841,-9.35e-4 -1.3111,2.8868 0.66432,3.8933 0.62348,3.8293 m -6.3226,-2.4806 c -0.01831,-0.63643 0.58998,-1.741 0.58998,-1.3756 0,0.38088 -0.7951,2.8599 3.5343,5.6714 0.04761,0.02848 0.06582,0.08706 0.02696,0.08706 -1.7487,0.0069 -2.6659,-0.66782 -3.2947,-1.1423 -0.68669,-0.5726 -0.92897,-1.1715 -1.0071,-1.4128 -0.04627,-0.12848 0.02597,-0.08775 0.04035,-0.06709 0.33503,0.48613 1.2829,1.5449 2.0201,1.7223 0.02225,0.005 -1.9531,-1.492 -1.9099,-3.4831 m 5.505,-2.1907 c -1.3221,1.9663 -0.54658,3.3803 -0.43246,3.5653 0.52768,0.85348 1.8025,1.3163 3.5103,2.6415 0.16885,0.13104 1.6511,1.5572 1.5863,3.06 -0.0033,0.14318 -0.01785,0.24529 0.0064,0.23793 0.37353,-0.11225 1.5551,-1.939 0.55336,-3.6064 -0.6495,-1.0812 -2.9554,-2.6005 -2.9667,-2.6075 -0.20421,-0.11856 0.62196,0.04958 1.2766,0.36594 1.1421,0.55194 5.4062,3.137 1.0766,6.999 -0.69875,0.6229 -1.8248,1.9465 -2.0365,2.1453 -0.03291,0.03524 -0.04599,0.0076 -0.05194,-0.0021 -0.22802,-0.38065 -0.10478,-1.9471 -2.6763,-1.9505 -1.32,-0.0021 -3.2037,0.07315 -4.8447,-0.56724 -2.9876,-1.1662 -2.8263,-3.5518 -2.6011,-4.5196 0.24614,-1.3217 1.3825,-1.7453 1.3652,-1.661 -0.11213,0.54016 -0.68921,2.3212 0.03701,3.6464 1.4681,3.0053 5.1441,1.8757 7.2765,2.6068 1.55,0.53142 1.4624,1.3921 1.6041,1.6587 0.05859,0.11027 0.5516,-0.60808 0.85932,-1.2085 0.39745,-0.77425 0.33969,-2.0562 -0.18519,-3.0057 -0.24413,-0.44214 -0.97844,-1.2141 -2.943,-2.3976 -4.0429,-2.436 -0.6782,-5.5574 -0.41379,-5.401 m 2.888,13.44 h 6.578 c 0.09942,0 0.44914,-0.0076 0.51846,0.0075 0.07574,0.01727 0.0616,0.40792 -0.01936,0.43349 -0.07679,0.0098 -5.3079,0.0022 -7.0824,0.0022 -0.03244,-0.0034 -0.05321,-0.0299 -0.0616,-0.04284 -0.01657,-0.02626 -0.01399,-0.33685 0,-0.3642 0.01634,-0.03076 0.04015,-0.03172 0.06698,-0.03627 m -10.605,0 h 0.97236 c 0.01435,0 0.13644,0.0021 0.16469,0.0021 0.16601,0 0.03851,0.37998 0.02653,0.40528 -0.03031,0.04052 -0.17536,0.02977 -0.19032,0.02977 h -0.97322 c -0.0303,-0.0041 -0.06792,-0.02371 -0.06906,-0.03665 -0.0025,-0.02625 -0.0025,-0.32778 -0.0025,-0.35368 0,-0.03198 0.04126,-0.04225 0.07157,-0.0468 m 3.1119,0 c 0.80202,0 2.2866,0.0021 3.6569,-0.0074 1.6468,-0.0119 3.085,0.01203 3.1772,0.01203 0.01039,0 0.04935,0.02266 0.05553,0.04473 0.02311,0.08274 0.01901,0.26279 -0.0098,0.34957 -0.0077,0.02557 -0.02195,0.03972 -0.04575,0.04727 -0.07748,0.0011 -6.9008,0 -6.9664,0 -0.02963,0 0.05083,-0.38403 0.06735,-0.40983 0.01164,-0.01819 0.03353,-0.02918 0.06497,-0.03627"
           id="path14"
           inkscape:connector-curvature="0"
           style="fill:#ffffff" />
      </g>
    </g>
    <g
       id="g959"
       style="fill:#101820">
      <path
         style="fill:#ffb612"
         inkscape:connector-curvature="0"
         id="path16"
         d="m 420.60723,0.27703 v 33.353 h -5.3608 v -14.7 h -17.042 v 14.7 h -5.3008 v -33.353 h 5.3008 v 13.949 h 17.042 v -13.969 z m -42.006,29.212 q -4.2805,4.3764 -9.8414,4.3764 -3.3804,0 -6.2808,-1.3633 -2.9004,-1.4325 -5.0407,-3.7836 -2.1403,-2.3413 -3.3804,-5.4335 -1.2002,-3.112 -1.2002,-6.4906 0,-3.3786 1.2002,-6.4214 1.2402,-3.0625 3.3804,-5.3643 2.1403,-2.3018 5.1007,-3.6159 2.9303,-1.3436 6.4009,-1.3436 4.8608,0 8.1411,2.0153 3.2804,1.9758 4.9407,5.2655 l -4.1006,2.9241 q -1.3702,-2.7265 -3.8006,-4.0898 -2.4204,-1.3534 -5.3209,-1.3534 -2.3704,0 -4.3207,1.0373 -1.9503,0.98791 -3.3304,2.6674 -1.3802,1.6498 -2.1403,3.8528 -0.7001,2.2129 -0.7001,4.6136 0,2.5389 0.80011,4.742 0.87013,2.2129 2.3003,3.8528 1.4702,1.6399 3.4706,2.6279 2.0003,0.9484 4.3207,0.9484 2.5603,0 4.9007,-1.1855 2.3703,-1.1855 4.5006,-3.7048 v -3.5762 h -7.101 v -3.8923 h 11.582 v 16.854 h -4.4805 z m -58.779,4.1492 v -33.361 h 14.702 q 2.2803,0 4.1805,0.93851 1.9703,0.93851 3.3505,2.4895 1.3802,1.5016 2.1403,3.4774 0.80012,1.9264 0.80012,3.9516 0,1.6794 -0.48008,3.2305 -0.47007,1.551 -1.3202,2.8649 -0.86013,1.3238 -2.1003,2.3018 -1.2302,0.93851 -2.7004,1.4127 l 7.9411,12.665 h -6.0408 l -7.331,-11.608 h -7.8011 v 11.608 z m 5.3307,-16.261 h 9.3212 q 1.1402,0 2.0403,-0.4742 0.95014,-0.51369 1.6202,-1.3633 0.66009,-0.88912 1.0401,-2.0153 0.38007,-1.1262 0.38007,-2.4006 0,-1.2645 -0.47008,-2.3907 -0.45006,-1.1262 -1.2002,-1.9758 -0.7001,-0.8496 -1.7002,-1.3139 -0.97015,-0.51371 -2.0003,-0.51371 h -9.0513 z m -30.765,11.736 q 2.6705,0 4.4305,-1.0274 1.7603,-1.0373 2.8004,-2.6674 1.1002,-1.6992 1.5202,-3.8132 0.48007,-2.1734 0.48007,-4.416 v -16.933 h 5.3709 v 16.913 q 0,3.4183 -0.80011,6.4709 -0.80011,3.0031 -2.5704,5.3052 -1.7602,2.2524 -4.5708,3.5762 -2.7604,1.3139 -6.661,1.3139 -4.0405,0 -6.8409,-1.3633 -2.7605,-1.4226 -4.4708,-3.7245 -1.7302,-2.3512 -2.5004,-5.3544 -0.7601,-2.9933 -0.7601,-6.2238 v -16.923 h 5.3307 v 16.913 q 0,2.292 0.43006,4.4456 0.48008,2.1141 1.5302,3.8033 1.1002,1.6498 2.8504,2.6871 1.8003,0.98791 4.4208,0.98791 z m -23.423,-4.08 q 0,2.0153 -0.85013,3.6159 -0.80011,1.5807 -2.2403,2.7068 -1.4002,1.0867 -3.3005,1.6794 -1.9003,0.57299 -4.0405,0.57299 h -16.122 v -33.353 h 17.403 q 1.7603,0 3.2005,0.75081 1.4202,0.75081 2.4204,1.9758 1.0002,1.1657 1.5202,2.7166 0.56008,1.5115 0.56008,3.0625 0,2.4401 -1.3002,4.5937 -1.2202,2.1141 -3.5505,3.1613 2.9004,0.8397 4.5607,3.0921 1.7002,2.203 1.7002,5.4039 z m -5.4608,-0.98791 q 0,-1.0373 -0.38006,-1.9758 -0.34004,-0.93851 -0.96014,-1.6399 -0.57008,-0.7113 -1.4202,-1.1262 -0.86013,-0.4248 -1.8603,-0.4248 h -11.121 v 10.195 h 10.802 q 1.0401,0 1.9403,-0.37541 0.90012,-0.4248 1.5702,-1.0867 0.65009,-0.69154 1.0301,-1.5807 0.38006,-0.95827 0.38006,-1.9758 z m -15.742,-19.215 v 9.8197 h 9.8014 q 1.0002,0 1.8003,-0.37541 0.86012,-0.3754 1.4702,-0.98791 0.6701,-0.6619 1.0001,-1.551 0.38006,-0.88912 0.38006,-1.9758 0,-2.1536 -1.2302,-3.5171 -1.2402,-1.3831 -3.1404,-1.3831 z m -18.183,3.2798 q -0.47007,-0.49396 -1.3702,-1.0669 -0.90013,-0.6125 -2.1403,-1.1361 -1.2002,-0.51371 -2.6803,-0.83972 -1.4302,-0.32601 -2.9504,-0.32601 -3.3804,0 -5.0007,1.1855 -1.5602,1.2349 -1.5602,3.3983 0,1.2151 0.48007,2.0153 0.52007,0.74093 1.5602,1.3534 1.0502,0.56311 2.6205,1.0274 1.5702,0.4248 3.6606,0.94839 2.5704,0.59275 4.6007,1.3534 2.1003,0.76069 3.5304,1.8375 1.4302,1.0867 2.2003,2.6674 0.80011,1.551 0.80011,3.8033 0,2.5389 -1.0001,4.3665 -0.95014,1.8375 -2.6705,3.013 -1.6602,1.1262 -3.9006,1.6794 -2.2303,0.52359 -4.8007,0.52359 -3.8506,0 -7.4611,-1.1262 -3.5706,-1.1855 -6.471,-3.3589 l 2.4203,-4.5247 q 0.60009,0.6125 1.7503,1.3633 1.2002,0.76069 2.7004,1.4226 1.5802,0.6125 3.4005,1.0867 1.8003,0.41492 3.7505,0.41492 3.1404,0 4.8507,-1.0867 1.7002,-1.0867 1.7002,-3.1909 0,-1.2645 -0.6601,-2.1141 -0.62009,-0.85948 -1.8002,-1.4819 -1.2002,-0.65202 -2.9004,-1.1855 -1.7302,-0.49395 -3.9006,-1.0571 -2.5304,-0.6619 -4.4406,-1.3633 -1.8503,-0.75081 -3.1004,-1.7782 -1.2202,-1.0472 -1.9003,-2.4105 -0.60009,-1.3831 -0.60009,-3.3589 0,-2.45 0.94013,-4.3271 0.96015,-1.9264 2.5704,-3.2007 1.6702,-1.3238 3.9006,-1.9758 2.2403,-0.6619 4.8507,-0.6619 3.4304,0 6.3308,1.0867 2.9004,1.0867 5.1007,2.6674 z m -28.205,-3.181 h -11.202 v 28.699 h -5.3807 v -28.699 h -11.271 v -4.6432 h 27.865 z m -33.005,0 h -11.202 v 28.699 h -5.3807 v -28.699 h -11.271 v -4.6432 h 27.865 z m -41.426,28.699 v -33.353 h 5.3307 v 33.353 z m -33.376,0 v -33.353 h 14.202 q 2.3003,0 4.2006,0.93851 1.9303,0.93851 3.3005,2.4895 1.4002,1.5016 2.1503,3.4774 0.80011,1.9264 0.80011,3.9516 0,2.1042 -0.76011,4.08 -0.7001,1.9066 -2.0503,3.4577 -1.3302,1.5016 -3.2304,2.4401 -1.8503,0.88912 -4.1305,0.88912 h -9.1413 v 11.608 z m 5.3508,-16.251 h 8.8013 q 1.1402,0 2.0403,-0.4742 0.94014,-0.46429 1.6002,-1.3139 0.67009,-0.8496 1.0502,-1.9758 0.38005,-1.1262 0.38005,-2.4895 0,-1.4028 -0.42006,-2.5389 -0.42007,-1.1262 -1.2002,-1.9264 -0.7401,-0.83972 -1.7402,-1.2645 -0.95013,-0.46432 -2.0003,-0.46432 h -8.5012 z" />
      <g
         id="g24"
         transform="translate(-0.58277,-0.29572)">
        <path
           inkscape:connector-curvature="0"
           id="path18"
           d="m 96.14,48.208 v 2.0681 l 128.81,-2.06e-4 v -2.0679 z" />
        <path
           inkscape:connector-curvature="0"
           id="path20"
           d="m 292.36,48.208 v 2.0681 l 128.81,-2.06e-4 v -2.0679 z" />
        <path
           inkscape:connector-curvature="0"
           id="path22"
           d="m 290.72,46.088 h -2.8623 v 7.4546 h -1.3706 V 46.088 h -2.8746 v -1.2078 h 7.1075 z m -16.707,3.0625 q 0,-0.78084 0.27895,-1.5495 0.27896,-0.78082 0.81261,-1.3909 0.54578,-0.62221 1.322,-1.0004 0.77625,-0.37821 1.7587,-0.37821 1.1765,0 2.0134,0.52461 0.83687,0.52461 1.2614,1.3665 l -1.0673,0.71982 q -0.18193,-0.39041 -0.43663,-0.65881 -0.25469,-0.26841 -0.55791,-0.42701 -0.30321,-0.15871 -0.63068,-0.21971 -0.32747,-0.07315 -0.63068,-0.07315 -0.6792,0 -1.1886,0.28061 -0.5094,0.2684 -0.86115,0.71982 -0.3396,0.45144 -0.52153,1.0126 -0.1698,0.56121 -0.1698,1.1224 0,0.63441 0.20619,1.2079 0.20618,0.57341 0.57004,1.0126 0.37598,0.43921 0.8854,0.70764 0.5094,0.25615 1.1158,0.25615 0.31534,0 0.64281,-0.07315 0.3396,-0.0853 0.64281,-0.25615 0.31535,-0.183 0.57004,-0.45144 0.26683,-0.2684 0.43663,-0.64661 l 1.128,0.64661 q -0.20619,0.48804 -0.58217,0.86624 -0.37598,0.36601 -0.849,0.62221 -0.47301,0.25615 -1.0067,0.39043 -0.52152,0.13415 -1.031,0.13415 -0.90966,0 -1.6616,-0.39043 -0.75197,-0.39041 -1.2978,-1.0126 -0.54578,-0.63444 -0.84902,-1.4275 -0.30321,-0.80524 -0.30321,-1.6349 z m -4.3922,4.3921 v -8.6622 h 1.3584 v 8.6622 z m -9.6522,0 v -8.6622 h 3.7478 q 0.58217,0 1.0673,0.24401 0.49727,0.244 0.84899,0.64661 0.35173,0.39041 0.54579,0.90284 0.20618,0.50021 0.20618,1.0248 0,0.43924 -0.12129,0.84184 -0.12128,0.40261 -0.33959,0.74422 -0.21832,0.34163 -0.53366,0.59784 -0.31534,0.244 -0.69132,0.36601 l 2.0255,3.2941 h -1.5403 l -1.8678,-3.0136 h -1.9891 v 3.0136 z m 1.3584,-4.2212 h 2.3772 q 0.29108,0 0.52152,-0.122 0.24258,-0.13415 0.41237,-0.35383 0.1698,-0.23186 0.26683,-0.52461 0.097,-0.29281 0.097,-0.62221 0,-0.32943 -0.12129,-0.62224 -0.10915,-0.29281 -0.30321,-0.51241 -0.18193,-0.21971 -0.43662,-0.34161 -0.24257,-0.13415 -0.5094,-0.13415 h -2.3045 z m -4.1466,-3.2331 h -2.8623 v 7.4546 h -1.3706 v -7.4546 h -2.8746 v -1.2078 h 7.1075 z m -10.214,0.82964 q -0.12128,-0.13415 -0.35172,-0.28061 -0.2305,-0.15871 -0.54579,-0.29281 -0.30324,-0.13415 -0.67922,-0.21971 -0.36386,-0.0853 -0.75197,-0.0853 -0.86115,0 -1.2735,0.31721 -0.40024,0.31721 -0.40024,0.87842 0,0.31723 0.12129,0.52464 0.13336,0.19515 0.40024,0.35381 0.26683,0.1463 0.66707,0.2684 0.40026,0.10985 0.93392,0.244 0.65494,0.15871 1.1765,0.35381 0.53365,0.19515 0.89751,0.47584 0.36388,0.28061 0.55794,0.69541 0.20608,0.40261 0.20608,0.98825 0,0.65881 -0.25465,1.1346 -0.24257,0.47581 -0.67922,0.78082 -0.4245,0.29281 -0.99454,0.43921 -0.57007,0.13415 -1.225,0.13415 -0.98243,0 -1.9042,-0.29281 -0.90966,-0.30501 -1.6495,-0.87842 l 0.61858,-1.1713 q 0.15778,0.15871 0.44876,0.35381 0.30321,0.19515 0.69135,0.36601 0.40024,0.15871 0.86112,0.28063 0.46089,0.10985 0.95818,0.10985 0.80048,0 1.2371,-0.28063 0.43662,-0.28061 0.43662,-0.82962 0,-0.32941 -0.16985,-0.54904 -0.15777,-0.21971 -0.46088,-0.37821 -0.30324,-0.17086 -0.73987,-0.30501 -0.43662,-0.13415 -0.99456,-0.28061 -0.64281,-0.17086 -1.128,-0.35381 -0.47304,-0.19515 -0.78838,-0.46364 -0.31534,-0.2684 -0.48514,-0.62221 -0.15777,-0.36601 -0.15777,-0.87844 0,-0.63441 0.24257,-1.1224 0.24257,-0.50024 0.65493,-0.82964 0.42453,-0.34161 0.99457,-0.51241 0.57004,-0.17086 1.2371,-0.17086 0.87326,0 1.6131,0.28061 0.73984,0.28061 1.2978,0.69542 z m -10.032,6.6248 v -8.6622 h 1.3584 v 8.6622 z m -10.339,0 v -8.6622 h 3.0565 q 1.043,0 1.8193,0.34161 0.78838,0.34161 1.3099,0.92722 0.53366,0.58564 0.80049,1.3787 0.26685,0.78084 0.26685,1.6715 0,0.98825 -0.30324,1.7935 -0.29108,0.79302 -0.83687,1.3665 -0.54581,0.56121 -1.322,0.87842 -0.77625,0.30501 -1.7344,0.30501 z m 5.8702,-4.3435 q 0,-0.68321 -0.19401,-1.2566 -0.18192,-0.57344 -0.5458,-0.97605 -0.36386,-0.41481 -0.88539,-0.64661 -0.52155,-0.23186 -1.1886,-0.23186 h -1.698 v 6.2467 h 1.698 q 0.6792,0 1.2008,-0.23186 0.53366,-0.244 0.88538,-0.65884 0.36386,-0.42701 0.54581,-1.0004 0.18193,-0.57344 0.18193,-1.2445 z" />
      </g>
      <path
         inkscape:connector-curvature="0"
         id="path26"
         d="m 252.66723,73.18328 c 0.25,0 0.48,0.14 0.48,0.3 v 0.65 c 0,0.16 -0.23,0.3 -0.48,0.3 h -16.48 c -0.25,0 -0.48,-0.14 -0.48,-0.3 v -0.64 c 0,-0.2 0.2,-0.33 0.46,-0.33 h 16.48 m -3.6,5.66 c 0,-0.1 0.07,-0.16 0.16,-0.16 h 3.24 c 0.1,0 0.15,0.07 0.15,0.16 v 0.45 c 0,0.07 -0.08,0.14 -0.17,0.14 h -2.55 v 1.65 h 2.14 c 0.08,0 0.16,0.06 0.16,0.15 v 0.45 c 0,0.1 -0.08,0.15 -0.16,0.15 h -2.15 v 1.74 h 2.55 c 0.1,0 0.16,0.06 0.16,0.14 v 0.45 c 0,0.07 -0.07,0.14 -0.16,0.14 h -3.23 c -0.08,0 -0.15,-0.08 -0.15,-0.16 v -5.36 m -7.42,0 c 0,-0.1 0.08,-0.16 0.16,-0.16 h 0.52 c 0.1,0 0.15,0.07 0.15,0.16 v 2.25 h 2.97 v -2.26 c 0,-0.1 0.06,-0.16 0.15,-0.16 h 0.52 c 0.08,0 0.15,0.08 0.15,0.17 v 5.35 c 0,0.07 -0.07,0.14 -0.15,0.14 h -0.53 c -0.1,0 -0.17,-0.07 -0.17,-0.15 v -2.34 h -2.97 v 2.34 c 0,0.07 -0.05,0.14 -0.14,0.14 h -0.53 c -0.1,0 -0.17,-0.07 -0.17,-0.15 v -5.37 m -4.4,0.6 h -1.3 c -0.1,0 -0.16,-0.07 -0.16,-0.15 v -0.46 c 0,-0.1 0.06,-0.16 0.15,-0.16 h 3.55 c 0.08,0 0.15,0.07 0.15,0.16 v 0.45 c 0,0.07 -0.07,0.14 -0.15,0.14 h -1.32 v 4.76 c 0,0.07 -0.07,0.14 -0.15,0.14 h -0.53 c -0.1,0 -0.16,-0.07 -0.16,-0.15 v -4.75 m 9.24,-14.37 c 0,-0.08 0.07,-0.15 0.16,-0.15 h 3.23 c 0.1,0 0.15,0.07 0.15,0.15 v 0.45 c 0,0.1 -0.06,0.16 -0.15,0.16 h -2.56 v 1.86 h 2.18 c 0.08,0 0.16,0.07 0.16,0.15 v 0.46 c 0,0.1 -0.08,0.16 -0.16,0.16 h -2.16 v 2.14 c 0,0.08 -0.06,0.15 -0.14,0.15 h -0.52 c -0.1,0 -0.16,-0.08 -0.16,-0.16 v -5.37 m -5.27,4.78 c 1.16,0 2.1,-0.93 2.1,-2.1 0,-1.13 -0.94,-2.1 -2.1,-2.1 -1.14,0 -2.1,0.97 -2.1,2.1 0,1.17 0.96,2.1 2.1,2.1 z m 0,-5 c 1.62,0 2.92,1.3 2.92,2.9 0,1.63 -1.3,2.9 -2.9,2.9 -1.63,0 -2.92,-1.27 -2.92,-2.9 0,-1.6 1.3,-2.9 2.9,-2.9 m 167.6,0.95 c 0,-0.27 0.23,-0.52 0.52,-0.52 h 10.7 c 0.3,0 0.52,0.25 0.52,0.52 v 0.78 c 0,0.28 -0.22,0.52 -0.5,0.52 h -9.14 v 6.63 h 7.8 c 0.27,0 0.5,0.24 0.5,0.5 v 0.8 c 0,0.3 -0.23,0.52 -0.5,0.52 h -7.8 v 6.92 h 9.13 c 0.3,0 0.5,0.25 0.5,0.52 v 0.78 c 0,0.27 -0.2,0.5 -0.5,0.5 h -10.7 c -0.3,0 -0.52,-0.23 -0.52,-0.5 v -17.83 m -24,-0.3 c 0,-0.27 0.24,-0.5 0.5,-0.5 h 0.7 l 12.24,15.27 h 0.05 v -14.47 c 0,-0.27 0.2,-0.52 0.5,-0.52 h 0.96 c 0.26,0 0.5,0.25 0.5,0.52 v 18.28 c 0,0.27 -0.24,0.5 -0.5,0.5 h -0.5 l -12.5,-15.58 h -0.02 v 14.78 c 0,0.27 -0.22,0.5 -0.52,0.5 h -0.95 c -0.26,0 -0.5,-0.23 -0.5,-0.5 v -18.28 m -19.07,0.3 c 0,-0.27 0.2,-0.52 0.5,-0.52 h 10.7 c 0.3,0 0.53,0.25 0.53,0.52 v 0.78 c 0,0.28 -0.23,0.52 -0.53,0.52 h -9.12 v 6.63 h 7.8 c 0.26,0 0.5,0.24 0.5,0.5 v 0.8 c 0,0.3 -0.24,0.52 -0.5,0.52 h -7.8 v 6.92 h 9.12 c 0.3,0 0.52,0.25 0.52,0.52 v 0.77 c 0,0.27 -0.23,0.5 -0.53,0.5 h -10.7 c -0.3,0 -0.5,-0.23 -0.5,-0.5 v -17.96 m -13.54,9.26 c 2.1,0 3.9,-1.74 3.9,-3.97 0,-2.08 -1.8,-3.85 -3.9,-3.85 h -5.27 v 7.8 z m -7.42,-9.26 c 0,-0.27 0.23,-0.52 0.53,-0.52 h 7.03 c 3.26,0 5.92,2.56 5.92,5.8 0,2.5 -1.65,4.58 -4.02,5.53 l 3.72,6.9 c 0.2,0.37 0,0.8 -0.46,0.8 h -1.4 c -0.24,0 -0.37,-0.13 -0.43,-0.24 l -3.6,-7.2 h -5.2 v 6.93 c 0,0.26 -0.25,0.5 -0.5,0.5 h -1.08 c -0.3,0 -0.52,-0.24 -0.52,-0.5 v -18 m -10.7,12.03 c -1.33,-2.96 -2.64,-5.95 -3.97,-8.9 h -0.2 l -3.97,8.9 z m -12.9,5.76 8.25,-18.3 c 0.1,-0.16 0.22,-0.3 0.46,-0.3 h 0.28 c 0.24,0 0.38,0.13 0.46,0.3 l 8.2,18.3 c 0.16,0.33 -0.05,0.7 -0.46,0.7 h -1.1 c -0.23,0 -0.4,-0.18 -0.45,-0.3 l -2,-4.5 h -9.65 l -1.98,4.5 c -0.07,0.12 -0.23,0.3 -0.48,0.3 h -1.08 c -0.4,0 -0.63,-0.37 -0.46,-0.7 m -16.85,-0.3 9.86,-16.05 v -0.08 h -8.57 c -0.27,0 -0.52,-0.24 -0.52,-0.5 v -0.88 c 0,-0.28 0.26,-0.53 0.53,-0.53 h 11 c 0.27,0 0.52,0.25 0.52,0.52 v 0.34 l -10.03,16.2 v 0.04 h 8.97 c 0.3,0 0.5,0.24 0.5,0.5 v 0.88 c 0,0.27 -0.2,0.5 -0.5,0.5 h -11.26 c -0.27,0 -0.52,-0.23 -0.52,-0.5 v -0.5 m -8.74,-5.45 c -1.34,-2.95 -2.65,-5.94 -3.98,-8.9 h -0.2 l -3.96,8.9 z m -12.9,5.77 8.24,-18.3 c 0.1,-0.15 0.22,-0.3 0.46,-0.3 h 0.28 c 0.24,0 0.38,0.15 0.46,0.3 l 8.2,18.3 c 0.16,0.34 -0.05,0.7 -0.46,0.7 h -1.1 c -0.23,0 -0.4,-0.17 -0.45,-0.3 l -2,-4.5 h -9.64 l -1.98,4.5 c -0.06,0.13 -0.22,0.3 -0.47,0.3 h -1.07 c -0.4,0 -0.63,-0.36 -0.46,-0.7 m -21.42,-18.1 c 0,-0.27 0.25,-0.5 0.52,-0.5 h 0.68 l 12.24,15.27 h 0.05 v -14.42 c 0,-0.27 0.2,-0.52 0.5,-0.52 h 0.97 c 0.27,0 0.5,0.25 0.5,0.52 v 18.28 c 0,0.27 -0.23,0.5 -0.5,0.5 h -0.5 l -12.39,-15.58 h -0.04 v 14.78 c 0,0.27 -0.2,0.5 -0.5,0.5 h -0.96 c -0.27,0 -0.52,-0.23 -0.52,-0.5 v -18.28 m -50.8,0 c 0,-0.26 0.24,-0.5 0.5,-0.5 h 1.07 c 0.3,0 0.52,0.24 0.52,0.5 v 7.94 h 11.02 v -7.94 c 0,-0.26 0.2,-0.5 0.5,-0.5 h 1.06 c 0.27,0 0.5,0.24 0.5,0.5 v 18 c 0,0.26 -0.23,0.5 -0.5,0.5 h -1.06 c -0.3,0 -0.5,-0.24 -0.5,-0.5 v -8.24 h -11.03 v 8.23 c 0,0.25 -0.22,0.5 -0.52,0.5 h -1.06 c -0.3,0 -0.54,-0.25 -0.54,-0.5 v -18 m -14.18,-0.8 c 2.74,0 4.72,0.96 6.57,2.54 0.2,0.22 0.24,0.54 0.02,0.76 l -0.74,0.74 c -0.22,0.27 -0.43,0.25 -0.7,-0.02 -1.42,-1.23 -3.35,-2.04 -5.2,-2.04 -4.28,0 -7.57,3.6 -7.57,7.82 0,4.18 3.28,7.8 7.57,7.8 2.36,0 3.75,-0.96 5.18,-2.04 0.3,-0.22 0.5,-0.2 0.67,-0.08 l 0.82,0.73 c 0.2,0.18 0.15,0.56 -0.04,0.75 -1.85,1.8 -4.2,2.64 -6.6,2.64 -5.44,0 -9.8,-4.33 -9.8,-9.76 0,-5.43 4.36,-9.8 9.8,-9.8 m -22.34,10.05 c 2.1,0 3.9,-1.74 3.9,-3.96 0,-2.06 -1.8,-3.82 -3.9,-3.82 h -5.27 v 7.8 z m -7.42,-9.26 c 0,-0.26 0.22,-0.5 0.52,-0.5 h 7.03 c 3.26,0 5.93,2.55 5.93,5.78 0,2.5 -1.66,4.6 -4.02,5.54 l 3.72,6.9 c 0.2,0.35 0,0.8 -0.47,0.8 h -1.4 c -0.23,0 -0.37,-0.15 -0.42,-0.26 l -3.62,-7.2 h -5.18 v 6.93 c 0,0.27 -0.25,0.5 -0.52,0.5 h -1.06 c -0.3,0 -0.52,-0.23 -0.52,-0.5 v -18 m -23.1,0 c 0,-0.25 0.26,-0.5 0.53,-0.5 h 1.04 c 0.3,0 0.52,0.25 0.52,0.5 v 11.35 c 0,3.1 1.93,5.5 5.1,5.5 3.2,0 5.17,-2.35 5.17,-5.45 v -11.41 c 0,-0.26 0.2,-0.5 0.5,-0.5 h 1.04 c 0.28,0 0.53,0.24 0.53,0.5 v 11.5 c 0,4.13 -2.94,7.28 -7.23,7.28 -4.26,0 -7.17,-3.15 -7.17,-7.28 v -11.5 m -23.9,0 c 0,-0.26 0.24,-0.5 0.52,-0.5 h 1.05 c 0.3,0 0.52,0.24 0.52,0.5 v 7.94 h 11.02 v -7.94 c 0,-0.26 0.22,-0.5 0.5,-0.5 h 1.07 c 0.27,0 0.5,0.24 0.5,0.5 v 18 c 0,0.26 -0.23,0.5 -0.5,0.5 h -1.07 c -0.3,0 -0.5,-0.24 -0.5,-0.5 v -8.24 h -11.01 v 8.23 c 0,0.25 -0.22,0.5 -0.52,0.5 h -1.05 c -0.28,0 -0.52,-0.25 -0.52,-0.5 v -18 m -14.17,-0.8 c 2.74,0 4.72,0.96 6.57,2.54 0.22,0.22 0.25,0.54 0.03,0.76 l -0.73,0.74 c -0.22,0.27 -0.44,0.25 -0.7,-0.02 -1.42,-1.23 -3.35,-2.04 -5.2,-2.04 -4.3,0 -7.58,3.6 -7.58,7.82 0,4.18 3.3,7.8 7.58,7.8 2.37,0 3.75,-0.96 5.2,-2.04 0.26,-0.22 0.48,-0.2 0.64,-0.08 l 0.82,0.73 c 0.2,0.18 0.16,0.56 -0.03,0.75 -1.85,1.8 -4.18,2.64 -6.6,2.64 -5.43,0 -9.8,-4.33 -9.8,-9.76 0,-5.43 4.37,-9.8 9.8,-9.8" />
    </g>
  </g>
</svg>
