<svg width="300" height="60.389" version="1.1" viewBox="0 0 79.373 15.979" xmlns="http://www.w3.org/2000/svg"><g fill="#101820"><path d="m7.9865 1.2204c3.7455 0 6.7688 3.0233 6.7688 6.7688 0 3.7455-3.0233 6.7692-6.7688 6.7692-3.7455 0-6.7692-3.0237-6.7692-6.7692 0-3.7455 3.0237-6.7688 6.7692-6.7688z" fill="#fff"/><path d="m7.9865-5.3192e-7c-4.4051 0-7.9895 3.584-7.9895 7.9893 0 4.4053 3.5844 7.9895 7.9895 7.9895 4.4051 0 7.9893-3.5844 7.9893-7.9895 0-4.4051-3.584-7.9893-7.9893-7.9893zm0 1.2204c3.7455 0 6.7688 3.0233 6.7688 6.7688 0 3.7455-3.0233 6.7692-6.7688 6.7692-3.7455 0-6.7692-3.0237-6.7692-6.7692 0-3.7455 3.0237-6.7688 6.7692-6.7688z" fill="#aca5af"/><path d="m5.6019 8.2585-0.11698-0.36217-0.091563-0.36952-0.065748-0.37504-0.039571-0.37873-0.013196-0.38059 0.013196-0.38059 0.039571-0.37872 0.065748-0.37504 0.091563-0.36952 0.11698-0.36218 0.1418-0.35309 0.16595-0.34228 0.18927-0.32981 0.21166-0.31569 0.23306-0.3001 0.25329-0.283 0.27229-0.26453 0.28999-0.24478 0.30623-0.22383 0.32102-0.20182 0.32102 0.20182 0.30623 0.22383 0.28999 0.24478 0.27229 0.26453 0.25329 0.283 0.23306 0.3001 0.21166 0.31569 0.18927 0.32981 0.16595 0.34228 0.1418 0.35309 0.11698 0.36218 0.09158 0.36952 0.06573 0.37504 0.03957 0.37872 0.0132 0.38059-0.0132 0.38059-0.03957 0.37873-0.06573 0.37504-0.09158 0.36952-0.11698 0.36217-0.1418 0.3531-0.16595 0.34226-0.18927 0.32981-0.21166 0.31571-0.23306 0.30008-0.25329 0.283-0.27229 0.26455-0.28999 0.24478-0.30623 0.22383-0.32102 0.2018-0.32102-0.2018-0.30623-0.22383-0.28999-0.24478-0.27229-0.26453-0.25329-0.28302-0.23306-0.30008-0.21166-0.31571-0.18927-0.32981-0.16595-0.34226z" fill="#ffb612"/><path d="m5.277 6.4255 0.33527-0.17712 0.34696-0.1533 0.35697-0.12875 0.36523-0.10354 0.37174-0.077852 0.3764-0.051805 0.37925-0.025457 0.38025 9.769e-4 0.37939 0.027409 0.37668 0.053742 0.37213 0.079769 0.36579 0.10545 0.35764 0.13057 0.34776 0.15509 0.33619 0.17886 0.32299 0.20172 0.30819 0.22362 0.2919 0.24446 0.27422 0.26405 0.25516 0.2824 0.23486 0.29934 0.21344 0.31485 0.19097 0.32882 0.16756 0.34115 0.14335 0.35188 0.11843 0.36086 0.09294 0.36806 0.06699 0.37352 0.04072 0.37712 0.01426 0.37893-0.33529 0.17711-0.34696 0.1533-0.35697 0.12875-0.36523 0.10354-0.37172 0.07786-0.37642 0.0518-0.37923 0.02546-0.38024-9.75e-4 -0.37939-0.027417-0.37667-0.053734-0.37214-0.079777-0.36579-0.10544-0.35764-0.13059-0.34776-0.15508-0.33619-0.17886-0.32299-0.20172-0.30821-0.22364-0.2919-0.24444-0.2742-0.26405-0.25515-0.28238-0.23488-0.29934-0.21343-0.31485-0.19097-0.32882-0.16758-0.34117-0.14334-0.35188-0.11843-0.36086-0.092958-0.36808-0.066987-0.37352-0.040722-0.37713z" fill="#c60c30"/><path d="m10.696 6.4255-0.01424 0.37891-0.04072 0.37713-0.06699 0.37352-0.09294 0.36806-0.11845 0.36086-0.14334 0.35188-0.16758 0.34117-0.19097 0.32882-0.21343 0.31485-0.23488 0.29934-0.25515 0.28238-0.27422 0.26405-0.2919 0.24446-0.30821 0.22364-0.32299 0.20172-0.33619 0.17886-0.34776 0.15509-0.35764 0.13057-0.36579 0.10546-0.37214 0.07978-0.37667 0.05373-0.37939 0.02742-0.38025 9.77e-4 -0.37923-0.025468-0.37642-0.051795-0.37172-0.077862-0.36523-0.10354-0.35697-0.12875-0.34696-0.1533-0.33529-0.17711 0.014259-0.37893 0.040722-0.37712 0.066987-0.37352 0.092944-0.36807 0.11843-0.36086 0.14335-0.35188 0.16756-0.34115 0.19097-0.32882 0.21345-0.31485 0.23486-0.29934 0.25516-0.2824 0.2742-0.26405 0.2919-0.24444 0.30819-0.22362 0.32299-0.20172 0.33619-0.17886 0.34776-0.15509 0.35764-0.13059 0.36579-0.10544 0.37213-0.079769 0.37668-0.053742 0.37939-0.027409 0.38025-9.769e-4 0.37925 0.025457 0.3764 0.051805 0.37172 0.077862 0.36525 0.10354 0.35697 0.12875 0.34696 0.1533z" fill="#003087"/><path d="m7.9863 5.7085-0.19213 4.98e-4 -0.13927 0.00931-0.2436 0.017619-0.093739 0.012868-0.28509 0.040683-0.071069 0.014947-0.29983 0.064242-0.093343 0.026528-0.26865 0.077308-0.16164 0.058302-0.18995 0.06929-0.31209 0.13799-0.025143 0.011185-0.33408 0.17649 0.014156 0.37525 0.00802 0.076716 0.030983 0.28756 0.050087 0.28597 0.014353 0.08008 0.090475 0.36496 0.117 0.36209 0.14175 0.35309 0.166 0.34228 0.18926 0.32981 0.18718 0.27924 0.026628 0.039297 0.20381 0.26231 0.0293 0.037318 0.23181 0.25915 0.020787 0.02297 0.27072 0.2631 0.29003 0.24469 0.30627 0.2239 0.321 0.20174 0.321-0.20174 0.30627-0.2239 0.28993-0.24469 0.27072-0.2631 0.022469-0.02475 0.22946-0.25647 0.037912-0.048206 0.1959-0.25231 0.028409-0.041772 0.18431-0.27509 0.013363-0.022965 0.17708-0.30853 0.166-0.34228 0.14175-0.35309 0.117-0.36209 0.09037-0.36487 0.01564-0.087205 0.0487-0.27756 0.03177-0.29428 0.0074-0.071368 0.01416-0.37525-0.33406-0.17649-0.02445-0.01089-0.3134-0.13848-0.1855-0.067704-0.1655-0.059687-0.26865-0.077308-0.093343-0.026528-0.29983-0.064242-0.071075-0.014947-0.28509-0.040684-0.093739-0.012868-0.2436-0.017619-0.13927-0.0093056z" fill="#101820"/><path d="m6.2126 9.1066c0 0.024831 0.020178 0.044999 0.044967 0.044999 0.024821 0 0.045122-0.020168 0.045122-0.044999 0-0.024764-0.020301-0.04508-0.045122-0.04508-0.024789 0-0.044967 0.020316-0.044967 0.04508m0.0075 0c0-0.020764 0.016835-0.037441 0.037467-0.037441 0.020799 0 0.03751 0.016678 0.03751 0.037441 0 0.020659-0.016711 0.037483-0.03751 0.037483-0.020634 0-0.037467-0.016826-0.037467-0.037483m0.021802 0.020431c0 0.00126 9.769e-4 0.00242 0.0024 0.00242h0.00324c0.00138 0 0.00241-0.00115 0.00241-0.00242v-0.014974h0.00923l0.00704 0.015604c3.256e-4 7.662e-4 0.00123 0.00178 0.00223 0.00178h0.00425c0.00178 0 0.00301-0.00188 0.00213-0.00345-0.00246-0.00487-0.00497-0.0099-0.0075-0.014746 0.00352-8.62e-4 0.010129-0.00426 0.010129-0.013612 0-0.00938-0.0076-0.014039-0.015395-0.014039h-0.01778c-0.0014 0-0.0024 0.00107-0.0024 0.00235zm0.0079-0.022266v-0.014303h0.012278c0.00461 0 0.00756 0.00286 0.00756 0.00718 0 0.00382-0.00295 0.00712-0.00756 0.00712h-0.012278m0.55046 0.06299-0.00498 0.016186c-0.00126 0.00409-0.00408 0.00769-0.00599 0.00769l-0.046686-3.817e-4 -0.030943 0.1005c-8.237e-4 0.00268-0.00541 0.00509-0.00965 0.00505l-0.017008-1.299e-4c-0.00428-2.7e-5 -0.00735-0.00248-0.00654-0.00515l0.030943-0.10054-0.046618-3.447e-4c-0.00192 0-0.00254-0.00361-0.00126-0.00768l0.00496-0.016186c0.00126-0.00407 0.0041-0.00767 0.00601-0.00764l0.046623 3.257e-4 0.014332-0.046557c8.237e-4 -0.00269 0.00541-0.00507 0.00966-0.00503l0.017042 1.317e-4c0.00424 2.46e-5 0.00733 0.00248 0.0065 0.00519l-0.01432 0.046537 0.046669 3.448e-4c0.00192 1.78e-5 0.00252 0.00367 0.00126 0.00769zm-0.17031-0.10327c-0.00976 0.11192-0.05287 0.17896-0.10494 0.2307-0.015864 0.015803-0.054284 0.042494-0.05568 0.042494 0.013491 0.012338 0.16516 0.00789 0.17949 0.00789 0.0054 0.023356-0.00279 0.061469-0.02794 0.14529 0.093732-0.00876 0.20255-0.096735 0.22752-0.20481 0.00698-0.029886 0.01886-0.067817 0.023942-0.10253 0.0088-0.059609 0.021042-0.11705 0.021042-0.11903h-0.26344m3.1284-0.1091c-0.00268-0.0061-0.013324-0.01967-0.025459-0.021906-0.043386-0.0077345-0.17106-0.024633-0.27317-0.048504-0.27445-0.064173-0.61986-0.1862-0.77699-0.13641-0.13615 0.043162-0.23459 0.18257-0.26424 0.2266-0.00773 0.011489 0.00601 0.012449 0.00601 0.012449h1.3192s0.00745-3.448e-4 0.00912-0.00144c0.0019-0.00124 0.00713-0.00371 0.00713-0.00908 1.339e-4 -0.00398 0.00123-0.016677-0.00157-0.021705m-3.3617-0.037063c0.060877-0.011778 0.24195-0.031114 0.38628-0.061335 0.38806-0.081116 0.90142-0.22592 1.1263-0.17205 0.21758 0.052035 0.31993 0.23162 0.34619 0.28614 0.00776 0.01596-0.0084 0.015759-0.0084 0.015759h-1.8637s-0.025844-8.96e-5 -0.027181-0.014686c-8.62e-4 -0.00963-0.00947-0.044034 0.040494-0.053824m1.5324-1.5659c0.14397 0.060888 0.22049-0.14191 0.12924-0.25593-0.01596-0.022507 0.013546-0.013457 0.025727-0.0076 0.047857 0.023068 0.13899 0.075663 0.19293 0.20015 0.036636 0.084669-0.012361 0.21322-0.086884 0.23944-0.069425-0.033909-0.21676-0.10009-0.26103-0.17607m0.419 1.16c0.024185 0.035184-0.0014 0.086169-0.055299 0.02318-0.018776-0.022128-0.03422-0.049376-0.019088-0.054964 0.015242-0.00568 0.057377 0.00686 0.074387 0.031784m-0.3613-1.1284c-0.22057-0.13988-0.2965-0.13619-0.26482-0.42764 0.02499-0.16943 0.098752-0.26882 0.13038-0.30568 0.016314-0.020454 0.018527-0.00526 0.01502-1.791e-4 -0.25114 0.55297 0.12725 0.74576 0.11943 0.73351m-1.2111-0.47516c-0.00351-0.12191 0.11301-0.33349 0.11301-0.2635 0 0.072958-0.1523 0.54782 0.677 1.0864 0.00912 0.00546 0.012608 0.016676 0.00516 0.016676-0.33496 0.0013221-0.51065-0.12792-0.6311-0.21881-0.13154-0.10968-0.17794-0.2244-0.19291-0.27062-0.00886-0.02461 0.00497-0.016809 0.00773-0.012851 0.064175 0.093119 0.24574 0.29593 0.38695 0.32991 0.00426 9.577e-4 -0.37412-0.28579-0.36584-0.66719m1.0545-0.41963c-0.25325 0.37665-0.1047 0.6475-0.082838 0.68294 0.10108 0.16348 0.34527 0.25214 0.6724 0.50598 0.032343 0.025101 0.31627 0.29828 0.30386 0.58615-6.321e-4 0.027426-0.00342 0.046985 0.00123 0.045576 0.07155-0.021502 0.29788-0.37142 0.106-0.69081-0.12442-0.2071-0.56611-0.49813-0.56828-0.49947-0.039117-0.02271 0.11914 0.0095 0.24453 0.070096 0.21877 0.10572 1.0356 0.60089 0.20622 1.3407-0.13385 0.11932-0.34954 0.37285-0.39009 0.41093-0.0063 0.00675-0.00881 0.00146-0.00995-4.022e-4 -0.043676-0.072914-0.02007-0.37297-0.51265-0.37362-0.25285-4.023e-4 -0.61367 0.014012-0.92801-0.10866-0.57228-0.22339-0.54138-0.68035-0.49824-0.86573 0.047148-0.25317 0.26482-0.33431 0.26151-0.31817-0.021479 0.10347-0.13202 0.44463 0.0070893 0.69847 0.28122 0.57567 0.98536 0.35929 1.3938 0.49933 0.2969 0.10179 0.28012 0.26666 0.30727 0.31773 0.011223 0.021122 0.10566-0.11648 0.1646-0.23149 0.076132-0.14831 0.065068-0.39387-0.035473-0.57574-0.046763-0.084692-0.18742-0.23256-0.56373-0.45926-0.77442-0.46662-0.12991-1.0645-0.079262-1.0346m0.5532 2.5744h1.26c0.019044 0 0.086033-0.00146 0.099312 0.00144 0.014508 0.00331 0.011799 0.078137-0.00371 0.083035-0.014709 0.00188-1.0167 4.214e-4 -1.3566 4.214e-4 -0.00621-6.513e-4 -0.010192-0.00573-0.0118-0.00821-0.00317-0.00503-0.00268-0.064524 0-0.069763 0.00313-0.00589 0.00769-0.00608 0.01283-0.00695m-2.0314 0h0.18626c0.00275 0 0.026135 4.023e-4 0.031546 4.023e-4 0.031799 0 0.00738 0.072785 0.00508 0.077632-0.00581 0.00776-0.03359 0.0057-0.036456 0.0057h-0.18642c-0.0058-7.853e-4 -0.01301-0.00454-0.013229-0.00702-4.789e-4 -0.00503-4.789e-4 -0.062786-4.789e-4 -0.067748 0-0.00613 0.0079-0.00809 0.013709-0.00896m0.59609 0c0.15363 0 0.438 4.023e-4 0.70048-0.00142 0.31545-0.00228 0.59093 0.0023 0.6086 0.0023 0.00199 0 0.00945 0.00434 0.010637 0.00857 0.00443 0.015849 0.00364 0.050338-0.00188 0.06696-0.00147 0.0049-0.0042 0.00761-0.00876 0.00905-0.014841 2.107e-4 -1.3219 0-1.3344 0-0.00568 0 0.00974-0.073561 0.012901-0.078503 0.00223-0.00348 0.00642-0.00559 0.012445-0.00695" fill="#fff"/><path d="m79.376 0.068286v6.2944h-1.0117v-2.7742h-3.2162v2.7742h-1.0004v-6.2944h1.0004v2.6325h3.2162v-2.6362zm-7.9274 5.5129q-0.80782 0.82591-1.8573 0.82591-0.63795 0-1.1853-0.25728-0.54736-0.27034-0.95128-0.71404-0.40392-0.44185-0.63795-1.0254-0.2265-0.5873-0.2265-1.2249t0.2265-1.2118q0.23405-0.57796 0.63795-1.0124 0.40392-0.4344 0.9626-0.68239 0.55301-0.25356 1.208-0.25356 0.91733 0 1.5364 0.38033 0.61908 0.37287 0.93241 0.99371l-0.77386 0.55184q-0.25858-0.51455-0.71725-0.77183-0.45678-0.25541-1.0042-0.25541-0.44734 0-0.8154 0.19576-0.36806 0.18644-0.62851 0.50339-0.26047 0.31135-0.40392 0.7271-0.13212 0.41762-0.13212 0.87068 0 0.47914 0.151 0.89491 0.16421 0.41762 0.43411 0.7271 0.27746 0.30948 0.65497 0.49594 0.3775 0.17898 0.8154 0.17898 0.48318 0 0.92486-0.22373 0.44732-0.22373 0.84935-0.69917v-0.6749h-1.3401v-0.73455h2.1858v3.1807h-0.84556zm-11.093 0.78304v-6.2959h2.7746q0.43034 0 0.78894 0.17712 0.37184 0.17712 0.63231 0.46982 0.26047 0.28338 0.40392 0.65625 0.151 0.36355 0.151 0.74575 0 0.31694-0.0906 0.60966-0.08871 0.2927-0.24915 0.54066-0.16232 0.24983-0.39637 0.4344-0.23216 0.17712-0.50962 0.2666l1.4986 2.3901h-1.14l-1.3835-2.1907h-1.4722v2.1907zm1.006-3.0688h1.7591q0.21518 0 0.38504-0.089491 0.17931-0.096944 0.30576-0.25728 0.12457-0.16779 0.19629-0.38033 0.07173-0.21254 0.07173-0.45304 0-0.23864-0.08871-0.45117-0.08494-0.21254-0.2265-0.37287-0.13212-0.16034-0.32086-0.24796-0.18309-0.096947-0.3775-0.096947h-1.7082zm-5.806 2.2148q0.50398 0 0.83612-0.19389 0.3322-0.19576 0.52849-0.50339 0.20763-0.32067 0.28689-0.71963 0.0906-0.41016 0.0906-0.83339v-3.1956h1.0136v3.1918q0 0.6451-0.151 1.2212-0.151 0.56675-0.48509 1.0012-0.33218 0.42507-0.8626 0.6749-0.52094 0.24796-1.2571 0.24796-0.76252 0-1.291-0.25728-0.52096-0.26847-0.84373-0.70289-0.32652-0.44372-0.47188-1.0105-0.14345-0.5649-0.14345-1.1746v-3.1937h1.006v3.1918q0 0.43255 0.08116 0.83897 0.0906 0.39897 0.28878 0.71776 0.20763 0.31135 0.53793 0.50711 0.33975 0.18644 0.83429 0.18644zm-4.4204-0.76998q0 0.38033-0.16044 0.68239-0.151 0.29831-0.42279 0.51083-0.26425 0.20508-0.62287 0.31694-0.35862 0.10813-0.76252 0.10813h-3.0425v-6.2944h3.2843q0.3322 0 0.604 0.14169 0.26802 0.14169 0.45678 0.37287 0.18876 0.21999 0.28689 0.51268 0.1057 0.28525 0.1057 0.57796 0 0.4605-0.24537 0.86692-0.23028 0.39897-0.67005 0.5966 0.54736 0.15847 0.8607 0.58354 0.32086 0.41575 0.32086 1.0198zm-1.0306-0.18644q0-0.19576-0.07173-0.37287-0.06417-0.17712-0.1812-0.30948-0.10759-0.13424-0.26802-0.21254-0.16232-0.080168-0.35108-0.080168h-2.0988v1.924h2.0386q0.19629 0 0.36617-0.070847 0.16987-0.080168 0.29633-0.20508 0.12268-0.13051 0.1944-0.29831 0.07173-0.18084 0.07173-0.37287zm-2.9708-3.6263v1.8532h1.8497q0.18876 0 0.33975-0.070847 0.16232-0.070845 0.27746-0.18644 0.12646-0.12491 0.18874-0.2927 0.07172-0.16779 0.07172-0.37287 0-0.40643-0.23216-0.66375-0.23405-0.26102-0.59265-0.26102zm-3.4315 0.61896q-0.08871-0.09322-0.25858-0.20135-0.16987-0.11559-0.40392-0.2144-0.2265-0.096947-0.50583-0.15847-0.26991-0.061525-0.5568-0.061525-0.63795 0-0.94373 0.22373-0.29444 0.23305-0.29444 0.64133 0 0.22931 0.0906 0.38033 0.09815 0.13983 0.29444 0.25541 0.19819 0.10627 0.49454 0.19389 0.29633 0.080168 0.69083 0.17898 0.48509 0.11186 0.86824 0.25541 0.39637 0.14356 0.66626 0.34677 0.26991 0.20508 0.41524 0.50339 0.151 0.2927 0.151 0.71776 0 0.47914-0.18874 0.82405-0.17931 0.34677-0.50398 0.56861-0.31331 0.21254-0.73612 0.31694-0.4209 0.098812-0.90599 0.098812-0.72669 0-1.4081-0.21254-0.67384-0.22373-1.2212-0.63389l0.45676-0.8539q0.11325 0.11559 0.33032 0.25728 0.2265 0.14356 0.50962 0.26847 0.29822 0.11559 0.64174 0.20508 0.33975 0.078304 0.7078 0.078304 0.59266 0 0.91542-0.20508 0.32086-0.20508 0.32086-0.60219 0-0.23864-0.12457-0.39897-0.11702-0.1622-0.33973-0.27966-0.2265-0.12305-0.54736-0.22373-0.32652-0.093218-0.73612-0.1995-0.47754-0.12491-0.83803-0.25728-0.34919-0.14169-0.58511-0.33558-0.23028-0.19763-0.35862-0.45491-0.11325-0.26102-0.11325-0.63389 0-0.46236 0.17742-0.81661 0.1812-0.36355 0.48509-0.60404 0.3152-0.24983 0.73612-0.37287 0.42279-0.12491 0.91542-0.12491 0.64738 0 1.1947 0.20508 0.54736 0.20508 0.9626 0.50339zm-5.3228-0.60032h-2.114v5.4161h-1.0154v-5.4161h-2.1271v-0.87626h5.2587zm-6.2287 0h-2.114v5.4161h-1.0154v-5.4161h-2.1271v-0.87626h5.2587zm-7.8179 5.4161v-6.2944h1.006v6.2944zm-6.2987 0v-6.2944h2.6802q0.43411 0 0.79274 0.17712 0.36429 0.17712 0.62287 0.46982 0.26425 0.28338 0.4058 0.65625 0.151 0.36355 0.151 0.74575 0 0.3971-0.14345 0.76998-0.13212 0.35981-0.38693 0.65254-0.25104 0.28338-0.60964 0.4605-0.34919 0.16779-0.77951 0.16779h-1.7251v2.1907zm1.0098-3.0669h1.661q0.21518 0 0.38504-0.089491 0.17742-0.087621 0.30199-0.24796 0.12646-0.16034 0.19819-0.37287 0.07172-0.21254 0.07172-0.46982 0-0.26474-0.07927-0.47914-0.079276-0.21254-0.2265-0.36355-0.13967-0.15847-0.32841-0.23864-0.17931-0.087626-0.3775-0.087626h-1.6043z" fill="#ffb612" aria-label="PITTSBURGH"/><path d="m18.032 9.058v0.39029l24.309-3.89e-5v-0.39025z"/><path d="m54.753 8.6579h-0.54017v1.4068h-0.25866v-1.4068h-0.54249v-0.22794h1.3413zm-3.1529 0.57796q0-0.14736 0.05264-0.29242 0.05264-0.14736 0.15336-0.26249 0.103-0.11742 0.24949-0.1888 0.14649-0.071376 0.3319-0.071376 0.22203 0 0.37997 0.099004 0.15793 0.099004 0.23805 0.25789l-0.20142 0.13584q-0.03433-0.073678-0.0824-0.12433-0.04807-0.050654-0.10529-0.080585-0.05722-0.029952-0.11902-0.041464-0.0618-0.013805-0.11902-0.013805-0.12818 0-0.22431 0.052957-0.09613 0.050652-0.16252 0.13584-0.06409 0.085196-0.09842 0.1911-0.03204 0.10591-0.03204 0.21182 0 0.11973 0.03891 0.22795 0.03891 0.10821 0.10758 0.1911 0.07095 0.082888 0.16709 0.13355 0.09613 0.048341 0.21057 0.048341 0.05951 0 0.12131-0.013805 0.06409-0.016098 0.12131-0.048341 0.05951-0.034536 0.10758-0.085196 0.05036-0.050652 0.0824-0.12203l0.21288 0.12203q-0.03891 0.092103-0.10987 0.16348-0.07096 0.069073-0.16022 0.11742-0.08927 0.048341-0.18998 0.073681-0.09842 0.02532-0.19457 0.02532-0.17167 0-0.31358-0.07368-0.14191-0.073682-0.24492-0.1911-0.103-0.11973-0.16023-0.2694-0.057222-0.15196-0.057222-0.30854zm-0.8289 0.82888v-1.6347h0.25636v1.6347zm-1.8216 0v-1.6347h0.70728q0.10987 0 0.20142 0.04605 0.09384 0.046048 0.16022 0.12203 0.06638 0.073678 0.103 0.17038 0.03891 0.0944 0.03891 0.1934 0 0.082893-0.02289 0.15887-0.02289 0.075981-0.06409 0.14045-0.0412 0.064472-0.10071 0.11282-0.05951 0.046048-0.13047 0.069074l0.38225 0.62166h-0.29068l-0.35249-0.56873h-0.37538v0.56873zm0.25636-0.79662h0.44862q0.05493 0 0.09842-0.023024 0.04578-0.025317 0.07782-0.066775 0.03205-0.043757 0.05036-0.099004 0.01831-0.055259 0.01831-0.11742 0-0.06217-0.02289-0.11743-0.0206-0.055259-0.05722-0.096702-0.03433-0.041464-0.0824-0.064469-0.04578-0.025317-0.09613-0.025317h-0.43491zm-0.78255-0.61015h-0.54017v1.4068h-0.25866v-1.4068h-0.54249v-0.22794h1.3413zm-1.9276 0.15657q-0.02289-0.025317-0.06638-0.052957-0.0435-0.029952-0.103-0.055259-0.05723-0.025317-0.12818-0.041464-0.06867-0.016098-0.14191-0.016098-0.16252 0-0.24034 0.059864-0.07553 0.059864-0.07553 0.16578 0 0.059868 0.02289 0.09901 0.02517 0.036829 0.07553 0.066771 0.05036 0.02761 0.12589 0.050652 0.07554 0.020731 0.17625 0.046048 0.1236 0.029952 0.22203 0.066771 0.10071 0.036829 0.16938 0.089801 0.06867 0.052957 0.10529 0.13124 0.03889 0.075981 0.03889 0.1865 0 0.12433-0.04806 0.21412-0.04578 0.089795-0.12818 0.14736-0.08011 0.05526-0.18769 0.082888-0.10758 0.02532-0.23118 0.02532-0.1854 0-0.35936-0.05526-0.17167-0.057562-0.31129-0.16577l0.11674-0.22105q0.02978 0.029952 0.08469 0.066771 0.05722 0.036829 0.13047 0.069073 0.07553 0.029952 0.16251 0.05296 0.08698 0.020731 0.18083 0.020731 0.15107 0 0.23346-0.05296 0.0824-0.052957 0.0824-0.15657 0-0.062166-0.03205-0.10361-0.02977-0.041464-0.08698-0.071376-0.05723-0.032245-0.13963-0.057562-0.0824-0.025317-0.18769-0.052957-0.12131-0.032245-0.21288-0.066771-0.08927-0.036829-0.14878-0.087498-0.05951-0.050652-0.09156-0.11742-0.02977-0.069073-0.02977-0.16578 0-0.11973 0.04578-0.21182 0.04578-0.094405 0.1236-0.15657 0.08012-0.064469 0.1877-0.096702 0.10758-0.032245 0.23346-0.032245 0.1648 0 0.30442 0.052957 0.13962 0.052957 0.24492 0.13124zm-1.8932 1.2502v-1.6347h0.25636v1.6347zm-1.9512 0v-1.6347h0.57682q0.19684 0 0.34334 0.064469 0.14878 0.064469 0.2472 0.17498 0.10071 0.11052 0.15107 0.26019 0.05036 0.14736 0.05036 0.31545 0 0.1865-0.05723 0.33847-0.05493 0.14966-0.15793 0.25789-0.103 0.10591-0.24949 0.16577-0.14649 0.05756-0.32732 0.05756zm1.1078-0.81971q0-0.12894-0.03661-0.23715-0.034336-0.10822-0.10301-0.1842-0.068668-0.078283-0.16709-0.12203-0.098427-0.043757-0.22431-0.043757h-0.32045v1.1789h0.32045q0.12818 0 0.22662-0.043757 0.10071-0.046048 0.16709-0.12434 0.06867-0.080585 0.10301-0.1888 0.03433-0.10822 0.03433-0.23486z" aria-label="DISTRICT"/><path d="m55.063 9.058v0.39029l24.309-3.89e-5v-0.39025z"/><path d="m47.683 13.827c0.04718 0 0.09059 0.02642 0.09059 0.05662v0.12267c0 0.0302-0.0434 0.05662-0.09059 0.05662h-3.1101c-0.04718 0-0.09059-0.02642-0.09059-0.05662v-0.12078c0-0.03774 0.03774-0.06228 0.08681-0.06228h3.1101m-0.67939 1.0682c0-0.01887 0.01321-0.0302 0.03019-0.0302h0.61145c0.01887 0 0.02831 0.01321 0.02831 0.0302v0.08492c0 0.01321-0.0151 0.02642-0.03208 0.02642h-0.48124v0.31139h0.40386c0.0151 0 0.03019 0.01132 0.03019 0.02831v0.08492c0 0.01887-0.0151 0.02831-0.03019 0.02831h-0.40575v0.32837h0.48124c0.01887 0 0.03019 0.01132 0.03019 0.02642v0.08492c0 0.01321-0.01321 0.02642-0.03019 0.02642h-0.60957c-0.0151 0-0.02831-0.0151-0.02831-0.0302v-1.0115m-1.4003 0c0-0.01887 0.0151-0.03019 0.03019-0.03019h0.09813c0.01887 0 0.02831 0.01321 0.02831 0.03019v0.42462h0.5605v-0.42651c0-0.01887 0.01132-0.03019 0.02831-0.03019h0.09813c0.0151 0 0.02831 0.0151 0.02831 0.03208v1.0097c0 0.01321-0.01321 0.02642-0.02831 0.02642h-0.10002c-0.01887 0-0.03208-0.01321-0.03208-0.02831v-0.4416h-0.5605v0.4416c0 0.01321-0.0094 0.02642-0.02642 0.02642h-0.10002c-0.01887 0-0.03208-0.01321-0.03208-0.02831v-1.0134m-0.83037 0.11323h-0.24534c-0.01887 0-0.03019-0.01321-0.03019-0.02831v-0.08681c0-0.01887 0.01132-0.0302 0.02831-0.0302h0.66996c0.0151 0 0.02831 0.01321 0.02831 0.0302v0.08492c0 0.01321-0.01321 0.02642-0.02831 0.02642h-0.2491v0.89831c0 0.01321-0.01321 0.02642-0.02831 0.02642h-0.10002c-0.01887 0-0.0302-0.01321-0.0302-0.02831v-0.89642m1.7438-2.7119c0-0.0151 0.01321-0.02831 0.03019-0.02831h0.60957c0.01887 0 0.02831 0.01321 0.02831 0.02831v0.08492c0 0.01887-0.01132 0.03019-0.02831 0.03019h-0.48312v0.35102h0.41141c0.0151 0 0.0302 0.01321 0.0302 0.02831v0.08681c0 0.01887-0.0151 0.0302-0.0302 0.0302h-0.40762v0.40386c0 0.0151-0.01132 0.02831-0.02642 0.02831h-0.09813c-0.01887 0-0.03019-0.0151-0.03019-0.03019v-1.0134m-0.99456 0.90208c0.21892 0 0.39631-0.17551 0.39631-0.39631 0-0.21325-0.1774-0.39631-0.39631-0.39631-0.21514 0-0.39631 0.18306-0.39631 0.39631 0 0.2208 0.18117 0.39631 0.39631 0.39631zm0-0.9436c0.30573 0 0.55106 0.24534 0.55106 0.54729 0 0.30761-0.24534 0.54729-0.54729 0.54729-0.30761 0-0.55106-0.23967-0.55106-0.54729 0-0.30195 0.24534-0.54729 0.54729-0.54729m31.629 0.17928c0-0.05095 0.04341-0.09813 0.09813-0.09813h2.0193c0.05662 0 0.09813 0.04718 0.09813 0.09813v0.1472c0 0.05284-0.04152 0.09813-0.09436 0.09813h-1.7249v1.2512h1.472c0.05095 0 0.09436 0.04529 0.09436 0.09436v0.15098c0 0.05662-0.04341 0.09813-0.09436 0.09813h-1.472v1.3059h1.723c0.05662 0 0.09436 0.04718 0.09436 0.09813v0.1472c0 0.05095-0.03774 0.09436-0.09436 0.09436h-2.0193c-0.05662 0-0.09813-0.04341-0.09813-0.09436v-3.3649m-4.5293-0.05662c0-0.05095 0.04529-0.09436 0.09436-0.09436h0.1321l2.3099 2.8818h0.0094v-2.7308c0-0.05095 0.03774-0.09813 0.09436-0.09813h0.18117c0.04907 0 0.09436 0.04718 0.09436 0.09813v3.4498c0 0.05095-0.04529 0.09436-0.09436 0.09436h-0.09436l-2.359-2.9403h-0.0038v2.7893c0 0.05095-0.04152 0.09436-0.09813 0.09436h-0.17928c-0.04907 0-0.09436-0.04341-0.09436-0.09436v-3.4498m-3.5989 0.05662c0-0.05095 0.03774-0.09813 0.09436-0.09813h2.0193c0.05662 0 0.10002 0.04718 0.10002 0.09813v0.1472c0 0.05284-0.04341 0.09813-0.10002 0.09813h-1.7211v1.2512h1.472c0.04907 0 0.09436 0.04529 0.09436 0.09436v0.15098c0 0.05662-0.04529 0.09813-0.09436 0.09813h-1.472v1.3059h1.7211c0.05662 0 0.09813 0.04718 0.09813 0.09813v0.14531c0 0.05096-0.04341 0.09436-0.10002 0.09436h-2.0193c-0.05662 0-0.09436-0.0434-0.09436-0.09436v-3.3894m-2.5553 1.7475c0.39631 0 0.73601-0.32837 0.73601-0.74922 0-0.39254-0.3397-0.72657-0.73601-0.72657h-0.99455v1.472zm-1.4003-1.7475c0-0.05095 0.04341-0.09813 0.10002-0.09813h1.3267c0.61523 0 1.1172 0.48312 1.1172 1.0946 0 0.4718-0.31139 0.86434-0.75866 1.0436l0.70204 1.3022c0.03774 0.06983 0 0.15098-0.08681 0.15098h-0.26421c-0.04529 0-0.06983-0.02453-0.08115-0.04529l-0.67939-1.3588h-0.98134v1.3078c0 0.04907-0.04718 0.09436-0.09436 0.09436h-0.20382c-0.05662 0-0.09813-0.04529-0.09813-0.09436v-3.397m-2.0193 2.2703c-0.251-0.55861-0.49822-1.1229-0.74922-1.6796h-0.03774l-0.74922 1.6796zm-2.4345 1.087 1.5569-3.4536c0.01887-0.0302 0.04152-0.05662 0.08681-0.05662h0.05284c0.04529 0 0.07171 0.02453 0.08681 0.05662l1.5475 3.4536c0.0302 0.06228-0.0094 0.1321-0.08681 0.1321h-0.20759c-0.04341 0-0.07549-0.03397-0.08492-0.05662l-0.37744-0.84924h-1.8211l-0.37367 0.84924c-0.01321 0.02265-0.04341 0.05662-0.09059 0.05662h-0.20382c-0.07549 0-0.11889-0.06983-0.08681-0.1321m-3.1799-0.05662 1.8608-3.029v-0.0151h-1.6173c-0.05095 0-0.09813-0.04529-0.09813-0.09436v-0.16607c0-0.05284 0.04907-0.10002 0.10002-0.10002h2.0759c0.05095 0 0.09813 0.04718 0.09813 0.09814v0.06416l-1.8929 3.0573v0.0075h1.6928c0.05662 0 0.09436 0.04529 0.09436 0.09436v0.16607c0 0.05095-0.03774 0.09436-0.09436 0.09436h-2.125c-0.05096 0-0.09813-0.04341-0.09813-0.09436v-0.09436m-1.6494-1.0285c-0.25288-0.55672-0.50011-1.121-0.7511-1.6796h-0.03774l-0.74733 1.6796zm-2.4345 1.0889 1.5551-3.4536c0.01887-0.02831 0.04152-0.05662 0.08681-0.05662h0.05284c0.04529 0 0.07171 0.02831 0.08681 0.05662l1.5475 3.4536c0.03019 0.06417-0.0094 0.1321-0.08681 0.1321h-0.20759c-0.04341 0-0.07549-0.03208-0.08492-0.05662l-0.37744-0.84924h-1.8193l-0.37366 0.84924c-0.01132 0.02453-0.04152 0.05662-0.0887 0.05662h-0.20193c-0.07549 0-0.11889-0.06794-0.08681-0.1321m-4.0424-3.4158c0-0.05095 0.04718-0.09436 0.09813-0.09436h0.12833l2.3099 2.8818h0.0094v-2.7213c0-0.05095 0.03774-0.09813 0.09436-0.09813h0.18306c0.05095 0 0.09436 0.04718 0.09436 0.09813v3.4498c0 0.05095-0.0434 0.09436-0.09436 0.09436h-0.09436l-2.3382-2.9403h-0.0075v2.7893c0 0.05095-0.03774 0.09436-0.09436 0.09436h-0.18117c-0.05095 0-0.09813-0.04341-0.09813-0.09436v-3.4498m-9.587 0c0-0.04907 0.04529-0.09436 0.09436-0.09436h0.20193c0.05662 0 0.09813 0.04529 0.09813 0.09436v1.4984h2.0797v-1.4984c0-0.04907 0.03774-0.09436 0.09436-0.09436h0.20004c0.05095 0 0.09436 0.04529 0.09436 0.09436v3.397c0 0.04907-0.04341 0.09436-0.09436 0.09436h-0.20004c-0.05662 0-0.09436-0.04529-0.09436-0.09436v-1.5551h-2.0816v1.5532c0 0.04718-0.04152 0.09436-0.09813 0.09436h-0.20004c-0.05662 0-0.10191-0.04718-0.10191-0.09436v-3.397m-2.676-0.1509c0.51709 0 0.89076 0.18117 1.2399 0.47935 0.03774 0.04152 0.04529 0.10191 0.0038 0.14343l-0.13965 0.13965c-0.04152 0.05095-0.08115 0.04718-0.1321-0.0038-0.26798-0.23212-0.63221-0.38499-0.98134-0.38499-0.80772 0-1.4286 0.67939-1.4286 1.4758 0 0.78885 0.619 1.472 1.4286 1.472 0.44538 0 0.7077-0.18117 0.97757-0.38499 0.05662-0.04152 0.09436-0.03774 0.12644-0.0151l0.15475 0.13776c0.03774 0.03397 0.02831 0.10568-0.0075 0.14154-0.34913 0.3397-0.79262 0.49822-1.2456 0.49822-1.0266 0-1.8495-0.81716-1.8495-1.8419 0-1.0248 0.82282-1.8495 1.8495-1.8495m-4.216 1.8966c0.39631 0 0.73601-0.32837 0.73601-0.74733 0-0.38876-0.3397-0.72091-0.73601-0.72091h-0.99456v1.472zm-1.4003-1.7475c0-0.04907 0.04152-0.09436 0.09814-0.09436h1.3267c0.61523 0 1.1191 0.48124 1.1191 1.0908 0 0.4718-0.31328 0.86811-0.75866 1.0455l0.70204 1.3022c0.03774 0.06605 0 0.15098-0.0887 0.15098h-0.26421c-0.04341 0-0.06983-0.02831-0.07926-0.04907l-0.68317-1.3588h-0.97757v1.3078c0 0.05096-0.04718 0.09436-0.09813 0.09436h-0.20004c-0.05662 0-0.09813-0.0434-0.09813-0.09436v-3.397m-4.3594 0c0-0.04718 0.04907-0.09436 0.10002-0.09436h0.19627c0.05662 0 0.09813 0.04718 0.09813 0.09436v2.142c0 0.58503 0.36423 1.038 0.96247 1.038 0.6039 0 0.97568-0.44349 0.97568-1.0285v-2.1533c0-0.04907 0.03774-0.09436 0.09436-0.09436h0.19627c0.05284 0 0.10002 0.04529 0.10002 0.09436v2.1703c0 0.77941-0.55484 1.3739-1.3644 1.3739-0.80395 0-1.3531-0.59447-1.3531-1.3739v-2.1703m-4.5104 0c0-0.04907 0.04529-0.09436 0.09813-0.09436h0.19816c0.05662 0 0.09813 0.04529 0.09813 0.09436v1.4984h2.0797v-1.4984c0-0.04907 0.04152-0.09436 0.09436-0.09436h0.20193c0.05095 0 0.09436 0.04529 0.09436 0.09436v3.397c0 0.04907-0.0434 0.09436-0.09436 0.09436h-0.20193c-0.05662 0-0.09436-0.04529-0.09436-0.09436v-1.5551h-2.0778v1.5532c0 0.04718-0.04152 0.09436-0.09814 0.09436h-0.19816c-0.05284 0-0.09813-0.04718-0.09813-0.09436v-3.397m-2.6742-0.15098c0.51709 0 0.89076 0.18117 1.2399 0.47935 0.04152 0.04152 0.04718 0.10191 0.0057 0.14343l-0.13776 0.13965c-0.04152 0.05095-0.08304 0.04718-0.1321-0.0038-0.26798-0.23212-0.63221-0.38499-0.98134-0.38499-0.8115 0-1.4305 0.67939-1.4305 1.4758 0 0.78885 0.62278 1.472 1.4305 1.472 0.44727 0 0.7077-0.18117 0.98134-0.38499 0.04907-0.04152 0.09059-0.03774 0.12078-0.0151l0.15475 0.13776c0.03774 0.03397 0.03019 0.10568-0.0057 0.14154-0.34913 0.3397-0.78885 0.49822-1.2456 0.49822-1.0247 0-1.8495-0.81716-1.8495-1.8419 0-1.0248 0.82471-1.8495 1.8495-1.8495" aria-label="CHURCH OF THE NAZARENE"/></g></svg>
