<svg xmlns="http://www.w3.org/2000/svg" width="320" height="320" viewBox="0 0 84.666667 84.666667"><g><g transform="translate(-15.869 -186.23)"><circle cx="58.203" cy="228.563" r="41.687" fill="#fff" stroke="#101820" stroke-width="1.293"/><circle cx="58.203" cy="228.563" r="38.524" fill="none" stroke="#aca5af" stroke-width="6.467"/></g><g><g stroke="#101820" stroke-width=".641"><path fill="#ffb612" d="M42.35 8.65A29.3 29.3 0 0 0 27.7 33.98 29.3 29.3 0 0 0 42.32 59.3 29.3 29.3 0 0 0 56.98 34 29.3 29.3 0 0 0 42.35 8.65z"/><path fill="#c60c30" d="M42.34 33.98a29.3 29.3 0 0 0-14.36 3.8 29.3 29.3 0 0 0 29 25.5 29.3 29.3 0 0 0 14.36-3.8 29.3 29.3 0 0 0-29-25.5z"/><path fill="#003087" fill-opacity=".941" d="M42.34 33.98a29.3 29.3 0 0 0-29.02 25.5 29.3 29.3 0 0 0 14.37 3.8 29.3 29.3 0 0 0 29-25.52 29.3 29.3 0 0 0-14.36-3.78z"/><path fill="#101820" d="M42.33 33.98a29.3 29.3 0 0 0-14.36 3.8 29.3 29.3 0 0 0 .52 2.83 29.3 29.3 0 0 0 .03.2 29.3 29.3 0 0 0 .74 2.57 29.3 29.3 0 0 0 .14.36 29.3 29.3 0 0 0 .93 2.3 29.3 29.3 0 0 0 .26.54 29.3 29.3 0 0 0 1.04 2 29.3 29.3 0 0 0 .42.7A29.3 29.3 0 0 0 33.2 51a29.3 29.3 0 0 0 .6.8 29.3 29.3 0 0 0 1.16 1.43 29.3 29.3 0 0 0 .86.92 29.3 29.3 0 0 0 1.13 1.14 29.3 29.3 0 0 0 1.1.97 29.3 29.3 0 0 0 1.07.87 29.3 29.3 0 0 0 1.4 1 29.3 29.3 0 0 0 1.12.75 29.3 29.3 0 0 0 .55.32 29.3 29.3 0 0 0 .13.08 29.3 29.3 0 0 0 .2-.12 29.3 29.3 0 0 0 2.14-1.4 29.3 29.3 0 0 0 .48-.35 29.3 29.3 0 0 0 1.77-1.4 29.3 29.3 0 0 0 .65-.62 29.3 29.3 0 0 0 1.4-1.37 29.3 29.3 0 0 0 .8-.9 29.3 29.3 0 0 0 1.06-1.27 29.3 29.3 0 0 0 .88-1.22 29.3 29.3 0 0 0 .77-1.12 29.3 29.3 0 0 0 .9-1.57 29.3 29.3 0 0 0 .5-.93 29.3 29.3 0 0 0 .85-1.9 29.3 29.3 0 0 0 .3-.72 29.3 29.3 0 0 0 .75-2.27 29.3 29.3 0 0 0 .14-.45 29.3 29.3 0 0 0 .6-2.62 29.3 29.3 0 0 0 .03-.2 29.3 29.3 0 0 0 .17-1.07 29.3 29.3 0 0 0-1-.53 29.3 29.3 0 0 0-1.26-.64 29.3 29.3 0 0 0-1.4-.57 29.3 29.3 0 0 0-1.32-.5 29.3 29.3 0 0 0-1.43-.43 29.3 29.3 0 0 0-1.4-.38 29.3 29.3 0 0 0-1.45-.28 29.3 29.3 0 0 0-1.43-.24 29.3 29.3 0 0 0-1.46-.13 29.3 29.3 0 0 0-1.74-.1 29.3 29.3 0 0 0-.5-.02z"/></g><path fill="#fff" d="M32.8 49.02c0 .13.1.24.24.24.13 0 .24-.1.24-.24 0-.14-.1-.24-.24-.24-.14 0-.24.1-.24.24m.04 0c0-.1.1-.2.2-.2s.2.1.2.2-.1.2-.2.2-.2-.1-.2-.2m.1.1s.02.02.03.02c.02 0 .03 0 .03 0v-.1h.05l.03.1s0 0 .02 0h.02s.02 0 0-.02c0-.02-.02-.05-.03-.08 0 0 .05-.02.05-.07s-.05-.08-.1-.08h-.08s-.02 0-.02 0zm.06-.1v-.1h.06c.03 0 .04.03.04.05 0 .02 0 .04-.04.04H33m2.96.35l-.03.08c0 .03-.02.04-.03.04h-.25l-.17.54c0 .03-.03.04-.05.04h-.1c-.02 0-.03 0-.03-.03l.17-.53h-.25s-.02-.02 0-.04l.02-.1s.02-.03.03-.03h.25l.08-.25s.03-.03.05-.03h.1s.03.02.03.03l-.08.25h.25s0 .03 0 .05zm-.92-.56c-.05.6-.28.95-.56 1.23-.1.1-.3.23-.3.23.07.07.88.04.96.04.03.13 0 .33-.15.78.5-.04 1.08-.52 1.2-1.1.05-.16.12-.36.14-.55.05-.32.12-.63.12-.64-.48 0-.95 0-1.42 0m16.82-.6c0-.03-.07-.1-.14-.1-.23-.05-.92-.15-1.47-.27-1.47-.35-3.33-1-4.17-.74-.73.22-1.26.97-1.42 1.2-.05.07.03.08.03.08h7.08s.04 0 .05 0c0-.02.04-.03.04-.06 0-.02 0-.1 0-.12M33.78 48c.3-.06 1.3-.16 2.06-.32 2.1-.44 4.85-1.22 6.06-.93 1.17.28 1.72 1.25 1.86 1.54.04.07-.05.07-.05.07H33.7s-.12 0-.13-.08c0-.06-.05-.24.22-.3M42 39.6c.78.3 1.2-.78.7-1.4-.1-.1.07-.06.14-.03.26.12.75.4 1.04 1.08.2.45-.07 1.14-.47 1.28-.37-.18-1.17-.54-1.4-.94m2.25 6.22c.13.2 0 .47-.3.13-.1-.12-.18-.27-.1-.3.08-.03.3.04.4.17m-1.94-6.06c-1.2-.76-1.6-.74-1.43-2.3.15-.9.54-1.45.7-1.65.1-.1.1 0 .1 0-1.36 3 .68 4.02.64 3.96m-6.52-2.56c-.02-.65.6-1.8.6-1.42 0 .4-.8 2.95 3.65 5.85.05.03.07.1.03.1-1.8 0-2.75-.7-3.4-1.2-.7-.58-.95-1.2-1.03-1.45-.05-.13.03-.1.04-.07.36.52 1.33 1.6 2.1 1.8 0 0-2.02-1.55-1.98-3.6m5.67-2.25c-1.37 2.02-.57 3.48-.45 3.67.54.88 1.85 1.35 3.6 2.72.2.13 1.7 1.6 1.65 3.15 0 .14-.02.24 0 .23.4-.1 1.6-2 .57-3.7-.67-1.12-3.04-2.7-3.05-2.7-.2-.12.64.06 1.3.38 1.2.58 5.58 3.24 1.12 7.22-.72.64-1.88 2-2.1 2.2-.03.05-.04.02-.05 0-.24-.38-.12-2-2.77-2-1.36 0-3.3.07-5-.6-3.06-1.2-2.9-3.64-2.66-4.64.25-1.36 1.42-1.8 1.4-1.7-.1.55-.7 2.38.04 3.74 1.52 3.1 5.3 1.94 7.5 2.7 1.6.54 1.5 1.42 1.66 1.7.06.1.56-.63.88-1.25.4-.8.35-2.1-.2-3.1-.24-.45-1-1.24-3.02-2.46-4.16-2.5-.7-5.72-.43-5.55m2.97 13.84c1.87 0 6.35 0 6.77 0 .1 0 .46-.02.54 0 .07 0 .06.4-.02.44-.08 0-5.47 0-7.3 0-.03 0-.05-.03-.06-.04-.02-.03-.02-.35 0-.38.02-.03.04-.03.07-.03m-10.92 0c.27 0 .94 0 1 0 0 0 .14 0 .17 0 .17 0 .04.38.02.4-.03.05-.18.04-.2.04-.06 0-.72 0-1 0-.03 0-.06-.03-.07-.04 0-.03 0-.34 0-.37 0-.03.04-.04.08-.04m3.2 0c.83 0 2.36 0 3.77-.02 1.7 0 3.17 0 3.27 0 0 0 .04.03.05.06.02.08.02.27 0 .36-.02.02-.04.04-.06.05-.1 0-7.12 0-7.2 0-.02 0 .07-.4.08-.43.02-.02.04-.03.07-.03"/></g></g></svg>