<svg xmlns="http://www.w3.org/2000/svg" width="320" height="320" viewBox="0 0 84.666667 84.666667"><g><g transform="translate(-15.869 -186.23)"><circle cx="58.203" cy="228.563" r="41.687" fill="#fff" stroke="#101820" stroke-width="1.293"/><circle cx="58.203" cy="228.563" r="38.524" fill="none" stroke="#aca5af" stroke-width="6.467"/></g><g><g stroke="#101820" stroke-width=".794"><path fill="#c60c30" d="M71.06 59.13c.08-12.35-8.64-24.07-20.5-27.55-7.63-2.36-16.28-1.47-23.16 2.65-.52 18.76 20 33.74 37.7 27.5 2.06-.6 4.1-1.57 5.96-2.6z"/><path fill="#003087" d="M12.85 59.14c10.86 6.6 25.85 4.6 34.84-4.3 5.5-5.35 8.8-12.92 8.8-20.6-15.54-9.77-38.34-.42-42.6 17.42-.67 2.42-1.03 5-1.05 7.48z"/><path fill="#ffb612" d="M41.92 59.13c11.3-6.2 17.12-20.56 13.48-32.9-2-7.24-6.9-13.68-13.47-17.37-16.42 8.7-19.52 33.55-5.7 45.98 1.7 1.65 3.63 3.1 5.7 4.3z"/><path fill="#101820" d="M27.4 34.24c-.02 10.08 5.76 19.9 14.5 24.9 8.87-4.9 14.57-14.87 14.56-24.96-8.76-5.2-20.32-5.17-29.06.06z"/></g><path fill="#fff" d="M32.4 47.96c0 .13.1.24.24.24.13 0 .24-.1.24-.24 0-.14-.1-.24-.24-.24-.14 0-.24.1-.24.24m.04 0c0-.1.1-.2.2-.2s.2.1.2.2-.1.2-.2.2-.2-.1-.2-.2m.1.1s.02.02.03.02c.02 0 .03 0 .03 0v-.1h.05l.03.1s0 0 .02 0h.02s.02 0 0-.02c0-.02-.02-.05-.03-.08 0 0 .03-.02.03-.07 0-.04-.05-.07-.1-.07h-.08s-.02 0-.02 0zm.06-.1v-.1h.06c.03 0 .04.03.04.05 0 .03 0 .05-.04.05h-.06m2.96.36l-.03.1c0 .02-.02.03-.03.03h-.25l-.17.54c0 .03-.03.04-.05.04h-.1c-.02 0-.03 0-.03-.02l.17-.53h-.25s-.02-.02 0-.04l.02-.1s.02-.02.03-.02h.25l.08-.25s.03-.03.05-.03h.1s.03.02.03.03l-.08.25h.25s0 .03 0 .05zm-.92-.55c-.05.6-.28.95-.56 1.23-.1.1-.3.23-.3.23.07.08.88.05.96.05.03.13 0 .33-.15.78.5-.04 1.06-.52 1.2-1.1.03-.16.1-.36.12-.55.05-.32.12-.63.12-.64-.48 0-.95 0-1.42 0m16.82-.6c0-.04-.07-.1-.14-.1-.22-.06-.9-.16-1.46-.28-1.47-.35-3.33-1-4.17-.74-.73.22-1.26.97-1.42 1.2-.05.07.03.08.03.08h7.08s.04 0 .05 0c0-.02.06-.03.06-.06 0-.02 0-.1 0-.12m-18.08-.18c.3-.06 1.3-.16 2.06-.32 2.1-.44 4.85-1.22 6.06-.93 1.17.27 1.72 1.24 1.86 1.53.04.06-.05.06-.05.06h-10s-.1 0-.12-.1c0-.05-.05-.23.22-.3m8.2-8.36c.78.3 1.2-.78.7-1.4-.1-.1.07-.06.14-.03.26.13.75.4 1.04 1.1.2.44-.07 1.13-.47 1.27-.35-.18-1.15-.54-1.4-.94m2.27 6.2c.13.2 0 .48-.3.14-.1-.12-.18-.27-.1-.3.08-.03.3.04.4.17m-1.94-6.05c-1.2-.77-1.6-.75-1.43-2.3.14-.9.53-1.46.7-1.66.1-.1.1 0 .1 0-1.37 3 .67 4.02.63 3.96m-6.53-2.56c0-.65.6-1.8.6-1.42 0 .4-.8 2.95 3.66 5.85.05.03.07.1.03.1-1.8 0-2.77-.7-3.4-1.2-.7-.58-.97-1.2-1.05-1.45-.05-.13.03-.1.04-.07.35.53 1.32 1.6 2.1 1.8 0 0-2.03-1.54-2-3.6m5.68-2.24c-1.38 2.03-.58 3.5-.46 3.68.54.88 1.85 1.35 3.6 2.72.2.13 1.7 1.6 1.65 3.15 0 .14-.03.24 0 .23.4-.1 1.6-2 .56-3.7-.67-1.12-3.04-2.7-3.05-2.7-.2-.12.65.06 1.3.38 1.2.6 5.6 3.25 1.13 7.23-.7.63-1.87 2-2.1 2.2-.02.04-.03 0-.04 0-.24-.4-.12-2-2.77-2-1.36 0-3.3.06-5-.6-3.06-1.2-2.9-3.65-2.66-4.65.25-1.37 1.42-1.8 1.4-1.7-.1.54-.7 2.37.04 3.73 1.5 3.1 5.3 1.94 7.5 2.7 1.6.54 1.5 1.42 1.65 1.7.06.1.56-.63.88-1.25.4-.8.36-2.1-.2-3.1-.23-.45-1-1.24-3-2.46-4.16-2.5-.7-5.72-.43-5.55m2.97 13.84c1.87 0 6.35 0 6.77 0 .1 0 .47 0 .55 0 .07 0 .06.4-.02.45-.08 0-5.47 0-7.3 0-.03 0-.05-.02-.06-.03-.02-.02-.02-.34 0-.37.02-.03.04-.03.07-.03m-10.92 0c.27 0 .94 0 1 0 0 0 .14 0 .17 0 .16 0 .03.38 0 .4-.02.05-.17.04-.2.04-.05 0-.7 0-1 0-.02 0-.05-.02-.06-.03 0-.03 0-.34 0-.37 0-.03.04-.04.08-.04m3.2 0c.83 0 2.36 0 3.77-.03 1.7 0 3.16 0 3.26 0 0 0 .04.03.05.06.03.07.03.26 0 .35 0 0-.03.03-.05.04-.1 0-7.12 0-7.2 0-.02 0 .07-.4.08-.44.02 0 .04-.02.07-.02"/></g></g></svg>