<?xml version="1.0" encoding="UTF-8"?>
<svg width="320" height="320" version="1.1" viewBox="0 0 84.667 84.667" xmlns="http://www.w3.org/2000/svg"><g transform="translate(-.00049937 .00050008)"><circle cx="42.334" cy="42.333" r="41.687" fill="#fff" stroke="#101820" stroke-width="1.293"/><circle cx="42.334" cy="42.333" r="38.524" fill="none" stroke="#aca5af" stroke-width="6.467"/><g transform="translate(.3423)"><g transform="matrix(.26458 0 0 .26458 -60.795 -105.1)" stroke="#101820"><g stroke-width="9.2248"><path id="triquetraTop" transform="matrix(.32424 0 0 .32619 226.37 417.06)" d="m354.89 446.01-7.119-21.908-5.572-22.352-4.001-22.686-2.408-22.91-0.803-23.022 0.803-23.022 2.408-22.909 4.001-22.686 5.572-22.352 7.119-21.909 8.629-21.358 10.099-20.705 11.518-19.95 12.881-19.097 14.183-18.153 15.414-17.119 16.57-16.002 17.647-14.807 18.636-13.54 19.536-12.208 19.536 12.208 18.636 13.54 17.647 14.807 16.57 16.002 15.414 17.119 14.183 18.153 12.881 19.097 11.518 19.95 10.099 20.705 8.629 21.358 7.119 21.909 5.573 22.352 4 22.686 2.408 22.909 0.803 23.022-0.803 23.022-2.408 22.91-4 22.686-5.573 22.352-7.119 21.908-8.629 21.359-10.099 20.704-11.518 19.95-12.881 19.098-14.183 18.152-15.414 17.119-16.57 16.003-17.647 14.807-18.636 13.54-19.536 12.207-19.536-12.207-18.636-13.54-17.647-14.807-16.57-16.002-15.414-17.12-14.183-18.152-12.881-19.098-11.518-19.95-10.099-20.704z" fill="#ffb612"/><path id="triquetraRigth" transform="matrix(-.16212 .2808 -.28248 -.16309 590.93 486.92)" d="m500 618.95-19.536-12.207-18.636-13.54-17.647-14.807-16.57-16.002-15.414-17.12-14.183-18.152-12.881-19.098-11.518-19.95-10.099-20.704-8.629-21.359-7.119-21.908-5.572-22.352-4.001-22.686-2.408-22.91-0.803-23.022 0.803-23.022 2.408-22.909 4.001-22.686 5.572-22.352 7.119-21.909 8.629-21.358 10.099-20.705 11.518-19.95 12.881-19.097 14.183-18.153 15.414-17.119 16.57-16.002 17.647-14.807 18.636-13.54 19.536-12.208 19.536 12.208 18.636 13.54 17.647 14.807 16.57 16.002 15.414 17.119 14.183 18.153 12.881 19.097 11.518 19.95 10.099 20.705 8.629 21.358 7.119 21.909 5.573 22.352 4 22.686 2.408 22.909 0.803 23.022-0.803 23.022-2.408 22.91-4 22.686-5.573 22.352-7.119 21.908-8.629 21.359-10.099 20.704-11.518 19.95-12.881 19.098-14.183 18.152-15.414 17.119-16.57 16.003-17.647 14.807-18.636 13.54z" fill="#c60c30"/><path id="triquetraLeft" transform="matrix(-.16212 -.2808 .28248 -.16309 348.17 767.72)" d="m500 618.95-19.536-12.207-18.636-13.54-17.647-14.807-16.57-16.002-15.414-17.12-14.183-18.152-12.881-19.098-11.518-19.95-10.099-20.704-8.629-21.359-7.119-21.908-5.572-22.352-4.001-22.686-2.408-22.91-0.803-23.022 0.803-23.022 2.408-22.909 4.001-22.686 5.572-22.352 7.119-21.909 8.629-21.358 10.099-20.705 11.518-19.95 12.881-19.097 14.183-18.153 15.414-17.119 16.57-16.002 17.647-14.807 18.636-13.54 19.536-12.208 19.536 12.208 18.636 13.54 17.647 14.807 16.57 16.002 15.414 17.119 14.183 18.153 12.881 19.097 11.518 19.95 10.099 20.705 8.629 21.358 7.119 21.909 5.573 22.352 4 22.686 2.408 22.909 0.803 23.022-0.803 23.022-2.408 22.91-4 22.686-5.573 22.352-7.119 21.908-8.629 21.359-10.099 20.704-11.518 19.95-12.881 19.098-14.183 18.152-15.414 17.119-16.57 16.003-17.647 14.807-18.636 13.54z" fill="#003087"/></g><path id="triquetraCenter" d="m388.49 512.23-3.791 0.01-2.748 0.1836-4.8066 0.34765-1.8496 0.25391-5.625 0.80273-1.4023 0.29492-5.916 1.2676-1.8418 0.52344-5.3008 1.5254-3.1894 1.1504-3.748 1.3672-6.1582 2.7227-0.4961 0.2207-6.5918 3.4824 0.27929 7.4043 0.15821 1.5137 0.61133 5.6738 0.98828 5.6426 0.2832 1.5801 1.7852 7.2012 2.3086 7.1445 2.7969 6.9668 3.2754 6.7539 3.7344 6.5078 3.6934 5.5098 0.52539 0.77539 4.0215 5.1758 0.57812 0.73633 4.5742 5.1133 0.41016 0.45312 5.3418 5.1914 5.7227 4.8281 6.043 4.418 6.334 3.9805 6.334-3.9805 6.043-4.418 5.7207-4.8281 5.3418-5.1914 0.44336-0.48828 4.5274-5.0605 0.74805-0.95118 3.8652-4.9785 0.56055-0.82422 3.6367-5.4277 0.26367-0.45313 3.4941-6.0879 3.2754-6.7539 2.7969-6.9668 2.3086-7.1445 1.7832-7.1992 0.30859-1.7207 0.96094-5.4766 0.62695-5.8066 0.14649-1.4082 0.2793-7.4043-6.5918-3.4824-0.48242-0.21485-6.1836-2.7324-3.6602-1.3359-3.2656-1.1777-5.3008-1.5254-1.8418-0.52344-5.916-1.2676-1.4024-0.29492-5.625-0.80273-1.8496-0.25391-4.8066-0.34765-2.748-0.1836z" fill="#101820" stroke-width="3"/></g><path id="COTNicon" d="m32.731 48.165c0 0.12963 0.10534 0.23492 0.23475 0.23492 0.12958 0 0.23556-0.10529 0.23556-0.23492 0-0.12928-0.10598-0.23534-0.23556-0.23534-0.12941 0-0.23475 0.10606-0.23475 0.23534m0.03916 0c0-0.1084 0.08789-0.19546 0.1956-0.19546 0.10858 0 0.19582 0.08707 0.19582 0.19546 0 0.10785-0.08724 0.19568-0.19582 0.19568-0.10772 0-0.1956-0.08784-0.1956-0.19568m0.11382 0.10666c0 0.0066 0.0051 0.01262 0.01253 0.01262h0.01692c0.0072 0 0.01257-6e-3 0.01257-0.01262v-0.07817h0.04818l0.03677 0.08146c0.0017 4e-3 0.0064 0.0093 0.01166 0.0093h0.0222c0.0093 0 0.01574-0.0098 0.01112-0.01801-0.01284-0.02542-0.02596-0.0517-0.03916-0.07698 0.01836-0.0045 0.05288-0.02222 0.05288-0.07106 0-0.04899-0.0397-0.07329-0.08037-0.07329h-0.09282c-0.0073 0-0.01253 0.0056-0.01253 0.01225zm0.04125-0.11624v-0.07467h0.0641c0.02407 0 0.03949 0.01495 0.03949 0.03746 0 0.01996-0.01542 0.03718-0.03949 0.03718h-0.0641m2.8737 0.32884-0.02601 0.0845c-0.0066 0.02134-0.02131 0.04017-0.03127 0.04017l-0.24373-2e-3 -0.16154 0.52465c-0.0043 0.01399-0.02826 0.02659-0.0504 0.02635l-0.08879-6.78e-4c-0.02234-1.41e-4 -0.03839-0.01295-0.03415-0.02686l0.16154-0.52488-0.24337-0.0018c-0.01003 0-0.01326-0.01886-0.0066-0.04011l0.02588-0.0845c0.0066-0.02126 0.02139-0.04003 0.03139-0.0399l0.2434 0.0017 0.07482-0.24305c0.0043-0.01402 0.02826-0.02646 0.05045-0.02624l0.08897 6.88e-4c0.02215 1.28e-4 0.03828 0.01294 0.03392 0.02708l-0.07476 0.24295 0.24364 0.0018c0.01003 9.3e-5 0.01316 0.01915 0.0066 0.04013zm-0.88913-0.53909c-0.05097 0.58427-0.27601 0.93426-0.54782 1.2044-0.08282 0.0825-0.28339 0.22184-0.29068 0.22184 0.07043 0.06441 0.8622 0.04117 0.93704 0.04117 0.02817 0.12193-0.01458 0.3209-0.14586 0.7585 0.48933-0.04572 1.0574-0.50501 1.1878-1.0692 0.03646-0.15602 0.09846-0.35404 0.12499-0.53527 0.04596-0.31119 0.10985-0.61107 0.10985-0.62138h-1.3753m16.332-0.56955c-0.01399-0.03185-0.06956-0.10269-0.13291-0.11436-0.2265-0.04038-0.89304-0.1286-1.4261-0.25322-1.4328-0.33502-3.236-0.97206-4.0563-0.71216-0.71076 0.22533-1.2247 0.95313-1.3795 1.183-0.04038 0.05998 0.03138 0.06499 0.03138 0.06499h6.8869s0.03887-0.0018 0.04761-0.0075c0.0099-0.0065 0.03722-0.01936 0.03722-0.04738 6.99e-4 -0.02078 0.0064-0.08706-0.0082-0.11331m-17.55-0.19353c0.31781-0.06149 1.2631-0.16243 2.0166-0.3202 2.0259-0.42347 4.7059-1.1794 5.8798-0.89817 1.1359 0.27165 1.6702 1.2092 1.8073 1.4938 0.04049 0.08332-0.04387 0.08227-0.04387 0.08227h-9.7294s-0.13492-4.68e-4 -0.1419-0.07667c-0.0045-0.05029-0.04944-0.22988 0.2114-0.28099m7.9998-8.1748c0.75161 0.31787 1.1511-0.74087 0.6747-1.3361-0.08332-0.1175 0.07072-0.07025 0.13431-0.03968 0.24984 0.12043 0.72559 0.395 1.0072 1.0449 0.19126 0.44202-0.06453 1.1131-0.45358 1.25-0.36244-0.17702-1.1316-0.52254-1.3627-0.91917m2.1874 6.0559c0.12626 0.18368-0.0073 0.44985-0.28869 0.12101-0.09802-0.11552-0.17865-0.25777-0.09965-0.28694 0.07957-0.02964 0.29954 0.03583 0.38834 0.16593m-1.8862-5.8908c-1.1515-0.73026-1.5479-0.711-1.3825-2.2325 0.13046-0.88451 0.51554-1.4034 0.68066-1.5958 0.08517-0.10678 0.09672-0.02744 0.07841-9.35e-4 -1.3111 2.8868 0.66432 3.8933 0.62348 3.8293m-6.3226-2.4806c-0.01831-0.63643 0.58998-1.741 0.58998-1.3756 0 0.38088-0.7951 2.8599 3.5343 5.6714 0.04761 0.02848 0.06582 0.08706 0.02696 0.08706-1.7487 0.0069-2.6659-0.66782-3.2947-1.1423-0.68669-0.5726-0.92897-1.1715-1.0071-1.4128-0.04627-0.12848 0.02597-0.08775 0.04035-0.06709 0.33503 0.48613 1.2829 1.5449 2.0201 1.7223 0.02225 5e-3 -1.9531-1.492-1.9099-3.4831m5.505-2.1907c-1.3221 1.9663-0.54658 3.3803-0.43246 3.5653 0.52768 0.85348 1.8025 1.3163 3.5103 2.6415 0.16885 0.13104 1.6511 1.5572 1.5863 3.06-0.0033 0.14318-0.01785 0.24529 0.0064 0.23793 0.37353-0.11225 1.5551-1.939 0.55336-3.6064-0.6495-1.0812-2.9554-2.6005-2.9667-2.6075-0.20421-0.11856 0.62196 0.04958 1.2766 0.36594 1.1421 0.55194 5.4062 3.137 1.0766 6.999-0.69875 0.6229-1.8248 1.9465-2.0365 2.1453-0.03291 0.03524-0.04599 0.0076-0.05194-0.0021-0.22802-0.38065-0.10478-1.9471-2.6763-1.9505-1.32-0.0021-3.2037 0.07315-4.8447-0.56724-2.9876-1.1662-2.8263-3.5518-2.6011-4.5196 0.24614-1.3217 1.3825-1.7453 1.3652-1.661-0.11213 0.54016-0.68921 2.3212 0.03701 3.6464 1.4681 3.0053 5.1441 1.8757 7.2765 2.6068 1.55 0.53142 1.4624 1.3921 1.6041 1.6587 0.05859 0.11027 0.5516-0.60808 0.85932-1.2085 0.39745-0.77425 0.33969-2.0562-0.18519-3.0057-0.24413-0.44214-0.97844-1.2141-2.943-2.3976-4.0429-2.436-0.6782-5.5574-0.41379-5.401m2.888 13.44h6.578c0.09942 0 0.44914-0.0076 0.51846 0.0075 0.07574 0.01727 0.0616 0.40792-0.01936 0.43349-0.07679 0.0098-5.3079 0.0022-7.0824 0.0022-0.03244-0.0034-0.05321-0.0299-0.0616-0.04284-0.01657-0.02626-0.01399-0.33685 0-0.3642 0.01634-0.03076 0.04015-0.03172 0.06698-0.03627m-10.605 0h0.97236c0.01435 0 0.13644 0.0021 0.16469 0.0021 0.16601 0 0.03851 0.37998 0.02653 0.40528-0.03031 0.04052-0.17536 0.02977-0.19032 0.02977h-0.97322c-0.0303-0.0041-0.06792-0.02371-0.06906-0.03665-0.0025-0.02625-0.0025-0.32778-0.0025-0.35368 0-0.03198 0.04126-0.04225 0.07157-0.0468m3.1119 0c0.80202 0 2.2866 0.0021 3.6569-0.0074 1.6468-0.0119 3.085 0.01203 3.1772 0.01203 0.01039 0 0.04935 0.02266 0.05553 0.04473 0.02311 0.08274 0.01901 0.26279-0.0098 0.34957-0.0077 0.02557-0.02195 0.03972-0.04575 0.04727-0.07748 0.0011-6.9008 0-6.9664 0-0.02963 0 0.05083-0.38403 0.06735-0.40983 0.01164-0.01819 0.03353-0.02918 0.06497-0.03627" fill="#fff" stroke-width=".12015"/></g></g></svg>
