<svg width="300" height="60.456" version="1.1" viewBox="0 0 79.373 15.996" xmlns="http://www.w3.org/2000/svg"><g transform="matrix(.18846 0 0 .18846 -.054151 -.050563)" fill="#101820" stroke-width="5.3062"><g transform="translate(-.24336 .45571)" aria-label="PGHNaz triquetra-steelmark"><g transform="translate(.50794 .50794)"><path d="m42.08 0c-23.23 0-42.08 18.84-42.08 42.08s18.85 42.1 42.08 42.1c23.24 0 42.1-18.86 42.1-42.1s-18.88-42.08-42.1-42.08zm0.02 0.78c22.8 0 41.28 18.49 41.28 41.3 0 22.8-18.5 41.3-41.3 41.3s-41.31-18.5-41.3-41.3 18.52-41.3 41.32-41.3z"/><path d="m42.08 6.22c-19.8 0-35.86 16.06-35.86 35.86s16.06 35.87 35.86 35.87 35.87-16.05 35.87-35.87c0-19.8-16.06-35.86-35.87-35.86zm0.02 0.78c19.39 0 35.06 15.72 35.06 35.08 0 19.38-15.7 35.08-35.08 35.08s-35.08-15.7-35.08-35.08 15.71-35.08 35.1-35.08z"/></g><g transform="translate(.60638 .26508)"><path d="m41.992 9.1309-0.19531 0.11133c-8.771 4.9834-14.421 14.88-14.342 24.957-8.7643 4.9708-14.507 14.811-14.438 24.896v0.22461l0.19531 0.11524c8.696 5.101 20.082 5.0474 28.768-0.05078l0.01172 0.0059 0.0098-0.0059c8.6855 5.0984 20.073 5.1511 28.77 0.05078l0.19336-0.11524 2e-3 -0.22461c0.06951-10.086-5.6734-19.926-14.438-24.896 0.07846-10.078-5.5703-19.973-14.342-24.957zm0 0.93164c8.2659 4.799 13.635 14.152 13.721 23.701-4.2069-2.3328-8.9544-3.529-13.721-3.5254-4.7681-0.0039-9.5173 1.1925-13.721 3.5254 0.08576-9.5485 5.4553-18.903 13.721-23.701zm0 20.975c4.7835 4e-3 9.5624 1.2221 13.742 3.623 0.0053 9.6346-5.4012 18.957-13.742 23.799-8.3472-4.8472-13.744-14.157-13.742-23.799 4.1839-2.402 8.9607-3.6194 13.742-3.623zm-14.506 4.0879c0.16625 9.6136 5.4815 18.789 13.719 23.764-8.3112 4.697-19.093 4.7226-27.379-0.03516 0.02363-9.554 5.4374-18.88 13.66-23.729zm29.012 0c8.2225 4.849 13.637 14.175 13.66 23.729-8.2863 4.7572-19.07 4.7325-27.381 0.03516 8.2331-4.97 13.558-14.155 13.721-23.764z"/><path d="m32.731 48.165c0 0.12963 0.10534 0.23492 0.23475 0.23492 0.12958 0 0.23556-0.10529 0.23556-0.23492 0-0.12928-0.10598-0.23534-0.23556-0.23534-0.12941 0-0.23475 0.10606-0.23475 0.23534m0.03916 0c0-0.1084 0.08789-0.19546 0.1956-0.19546 0.10858 0 0.19582 0.08707 0.19582 0.19546 0 0.10785-0.08724 0.19568-0.19582 0.19568-0.10772 0-0.1956-0.08784-0.1956-0.19568m0.11382 0.10666c0 0.0066 0.0051 0.01262 0.01253 0.01262h0.01692c0.0072 0 0.01257-6e-3 0.01257-0.01262v-0.07817h0.04818l0.03677 0.08146c0.0017 4e-3 0.0064 0.0093 0.01166 0.0093h0.0222c0.0093 0 0.01574-0.0098 0.01112-0.01801-0.01284-0.02542-0.02596-0.0517-0.03916-0.07698 0.01836-0.0045 0.05288-0.02222 0.05288-0.07106 0-0.04899-0.0397-0.07329-0.08037-0.07329h-0.09282c-0.0073 0-0.01253 0.0056-0.01253 0.01225zm0.04125-0.11624v-0.07467h0.0641c0.02407 0 0.03949 0.01495 0.03949 0.03746 0 0.01996-0.01542 0.03718-0.03949 0.03718h-0.0641m2.8737 0.32884-0.02601 0.0845c-0.0066 0.02134-0.02131 0.04017-0.03127 0.04017l-0.24373-2e-3 -0.16154 0.52465c-0.0043 0.01399-0.02826 0.02659-0.0504 0.02635l-0.08879-6.77e-4c-0.02234-1.42e-4 -0.03839-0.01295-0.03415-0.02686l0.16154-0.52488-0.24337-0.0018c-0.01003 0-0.01326-0.01887-0.0066-0.04011l0.02588-0.0845c0.0066-0.02126 0.02139-0.04003 0.03139-0.0399l0.2434 0.0017 0.07482-0.24304c0.0043-0.01402 0.02826-0.02646 0.05045-0.02624l0.08897 6.89e-4c0.02215 1.27e-4 0.03828 0.01294 0.03392 0.02708l-0.07476 0.24295 0.24364 0.0018c0.01003 9.2e-5 0.01316 0.01915 0.0066 0.04013zm-0.88913-0.53909c-0.05097 0.58427-0.27601 0.93426-0.54782 1.2044-0.08282 0.0825-0.28339 0.22184-0.29068 0.22184 0.07043 0.06442 0.8622 0.04117 0.93704 0.04117 0.02817 0.12193-0.01458 0.3209-0.14586 0.7585 0.48933-0.04572 1.0574-0.50501 1.1878-1.0692 0.03646-0.15603 0.09846-0.35404 0.12499-0.53527 0.04596-0.31119 0.10985-0.61107 0.10985-0.62138h-1.3753m16.332-0.56955c-0.01399-0.03185-0.06956-0.10269-0.13291-0.11436-0.2265-0.04038-0.89304-0.1286-1.4261-0.25322-1.4328-0.33502-3.236-0.97207-4.0563-0.71216-0.71076 0.22533-1.2247 0.95313-1.3795 1.183-0.04038 0.05998 0.03138 0.065 0.03138 0.065h6.8869s0.03887-0.0018 0.04761-0.0075c0.0099-0.0065 0.03722-0.01936 0.03722-0.04738 6.99e-4 -0.02078 0.0064-0.08706-0.0082-0.11331m-17.55-0.19354c0.31781-0.06149 1.2631-0.16243 2.0166-0.3202 2.0259-0.42347 4.7059-1.1794 5.8798-0.89817 1.1359 0.27165 1.6702 1.2092 1.8073 1.4938 0.04049 0.08332-0.04387 0.08228-0.04387 0.08228h-9.7294s-0.13492-4.68e-4 -0.1419-0.07667c-0.0045-0.05029-0.04944-0.22988 0.2114-0.28099m7.9998-8.1748c0.75161 0.31787 1.1511-0.74087 0.6747-1.3361-0.08332-0.1175 0.07072-0.07025 0.13431-0.03968 0.24984 0.12043 0.72559 0.395 1.0072 1.0449 0.19126 0.44202-0.06453 1.1131-0.45358 1.25-0.36244-0.17702-1.1316-0.52254-1.3627-0.91917m2.1874 6.0559c0.12626 0.18368-0.0073 0.44985-0.28869 0.12101-0.09802-0.11552-0.17865-0.25778-0.09965-0.28694 0.07957-0.02964 0.29954 0.03583 0.38834 0.16593m-1.8862-5.8908c-1.1515-0.73026-1.5479-0.711-1.3825-2.2325 0.13046-0.88451 0.51554-1.4034 0.68066-1.5958 0.08517-0.10678 0.09672-0.02744 0.07841-9.35e-4 -1.3111 2.8868 0.66432 3.8933 0.62348 3.8293m-6.3226-2.4806c-0.01831-0.63643 0.58998-1.741 0.58998-1.3756 0 0.38088-0.7951 2.8599 3.5343 5.6714 0.04761 0.02848 0.06582 0.08706 0.02696 0.08706-1.7487 0.0069-2.6659-0.66782-3.2947-1.1423-0.68669-0.5726-0.92897-1.1715-1.0071-1.4128-0.04627-0.12848 0.02597-0.08775 0.04035-0.06709 0.33503 0.48613 1.2829 1.5449 2.0201 1.7223 0.02225 5e-3 -1.9531-1.492-1.9099-3.4831m5.505-2.1907c-1.3221 1.9663-0.54658 3.3803-0.43246 3.5653 0.52768 0.85348 1.8025 1.3163 3.5103 2.6415 0.16885 0.13104 1.6511 1.5572 1.5863 3.06-0.0033 0.14318-0.01785 0.24529 0.0064 0.23793 0.37353-0.11226 1.5551-1.939 0.55336-3.6064-0.6495-1.0812-2.9554-2.6005-2.9667-2.6075-0.20421-0.11856 0.62196 0.04958 1.2766 0.36594 1.1421 0.55195 5.4062 3.137 1.0766 6.999-0.69875 0.6229-1.8248 1.9465-2.0365 2.1453-0.03291 0.03524-0.04599 0.0076-0.05194-0.0021-0.22802-0.38065-0.10478-1.9471-2.6763-1.9505-1.32-0.0021-3.2037 0.07315-4.8447-0.56723-2.9876-1.1662-2.8263-3.5518-2.6011-4.5196 0.24614-1.3217 1.3825-1.7453 1.3652-1.661-0.11213 0.54016-0.68921 2.3212 0.03701 3.6464 1.4681 3.0053 5.1441 1.8757 7.2765 2.6068 1.55 0.53142 1.4624 1.3921 1.6041 1.6587 0.05859 0.11027 0.5516-0.60808 0.85932-1.2085 0.39745-0.77425 0.33969-2.0562-0.18519-3.0057-0.24413-0.44214-0.97844-1.2141-2.943-2.3976-4.0429-2.436-0.6782-5.5574-0.41379-5.401m2.888 13.44h6.578c0.09942 0 0.44914-0.0076 0.51846 0.0075 0.07574 0.01727 0.0616 0.40792-0.01936 0.43349-0.07679 0.0098-5.3079 0.0022-7.0824 0.0022-0.03244-0.0034-0.05321-0.0299-0.0616-0.04284-0.01657-0.02626-0.01399-0.33685 0-0.3642 0.01634-0.03076 0.04015-0.03172 0.06698-0.03627m-10.605 0h0.97236c0.01435 0 0.13644 0.0021 0.16469 0.0021 0.16601 0 0.03851 0.37998 0.02653 0.40528-0.03031 0.04052-0.17536 0.02977-0.19032 0.02977h-0.97322c-0.0303-0.0041-0.06792-0.02371-0.06906-0.03665-0.0025-0.02625-0.0025-0.32778-0.0025-0.35368 0-0.03198 0.04126-0.04225 0.07157-0.04681m3.1119 0c0.80202 0 2.2866 0.0021 3.6569-0.0074 1.6468-0.0119 3.085 0.01203 3.1772 0.01203 0.01039 0 0.04935 0.02266 0.05553 0.04473 0.02311 0.08274 0.01901 0.26279-0.0098 0.34957-0.0077 0.02557-0.02195 0.03972-0.04575 0.04727-0.07748 0.0011-6.9008 0-6.9664 0-0.02963 0 0.05083-0.38403 0.06735-0.40983 0.01164-0.01819 0.03353-0.02918 0.06497-0.03627"/></g></g><g aria-label="PITTSBURGH DISTRICT CHURCH OF THE NAZARENE"><g transform="matrix(2.5696,0,0,2.5848,94.778,-247.72)"><path d="m50.096 95.941c-0.68806 0-1.3309 0.08698-1.9258 0.26172-0.59375 0.17256-1.116 0.43569-1.5645 0.78906-0.4344 0.34178-0.78138 0.77119-1.0391 1.2852-0.25526 0.50664-0.38086 1.0886-0.38086 1.7383 0 0.52369 0.07819 0.97719 0.24414 1.3574l4e-3 8e-3c0.18536 0.36939 0.44546 0.69507 0.77539 0.97656l2e-3 2e-3c0.33792 0.27607 0.75222 0.51132 1.2422 0.70898l0.0039 2e-3h2e-3c0.49997 0.1825 1.0782 0.36011 1.7363 0.53125 0.56034 0.14453 1.0638 0.27967 1.5098 0.40625 0.43046 0.13453 0.79575 0.28437 1.0938 0.44531h2e-3c0.28923 0.15164 0.50301 0.3277 0.64648 0.5254v2e-3l2e-3 2e-3c0.14789 0.18924 0.22461 0.42255 0.22461 0.7207 0 0.4993-0.18613 0.8463-0.58789 1.1016-0.40634 0.25667-1.0062 0.39453-1.8008 0.39453-0.49354 0-0.96612-0.0523-1.4199-0.15625-0.46126-0.11962-0.89166-0.25662-1.291-0.41016-0.38196-0.16753-0.72439-0.34622-1.0273-0.53711-0.29168-0.18928-0.50959-0.35905-0.65234-0.5039l-0.14648-0.14844-1.1016 2.0449 0.10742 0.0801c0.76365 0.56886 1.6164 1.0087 2.5547 1.3184h2e-3c0.94858 0.29415 1.9287 0.44141 2.9395 0.4414 0.67517 1e-5 1.3089-0.0675 1.8984-0.20507h2e-3c0.59435-0.14591 1.1162-0.36895 1.5625-0.66993 0.46407-0.31527 0.82697-0.72366 1.084-1.2168 0.27319-0.49629 0.4082-1.0847 0.4082-1.7578 0-0.59585-0.10641-1.108-0.32617-1.5332l-2e-3 -2e-3c-0.20956-0.42662-0.51126-0.78957-0.89844-1.082v-2e-3c-0.3845-0.28779-0.85449-0.52899-1.4082-0.72852h-2e-3c-0.53129-0.19779-1.131-0.37408-1.7988-0.52734h-0.0039c-0.53659-0.13364-1.0071-0.25492-1.4102-0.36329l-0.0039-2e-3c-0.39434-0.11618-0.72128-0.24427-0.97852-0.38086-0.25287-0.14803-0.43253-0.30705-0.55078-0.47265-0.10527-0.17585-0.16406-0.4029-0.16406-0.69336 0-0.51799 0.17724-0.89725 0.54492-1.1875 0.37805-0.27367 0.99122-0.42578 1.8457-0.42578 0.38223 0 0.75291 0.03987 1.1113 0.12109 0.37481 0.08207 0.71346 0.18866 1.0137 0.31641 0.31325 0.13147 0.58221 0.27333 0.80469 0.42383h2e-3l2e-3 2e-3c0.22614 0.1431 0.39376 0.27566 0.50195 0.38867l0.14453 0.15039 0.10156-0.18164 1.002-1.8008-0.11328-0.08008c-0.58191-0.41559-1.253-0.76565-2.0141-1.0491-0.76874-0.28633-1.6064-0.42774-2.5098-0.42774zm56.787 0.01953c-0.91733 0-1.7681 0.1763-2.5469 0.53125-0.78286 0.34564-1.46 0.82307-2.0274 1.4297-0.56667 0.60586-1.0145 1.3117-1.3418 2.1152v2e-3c-0.31761 0.80048-0.47657 1.6462-0.47657 2.5332 0 0.88701 0.15937 1.741 0.47657 2.5586v2e-3c0.3272 0.81101 0.77542 1.5266 1.3418 2.1426 0.5662 0.61804 1.2339 1.116 2 1.4922l2e-3 2e-3c0.77091 0.36024 1.6071 0.54102 2.502 0.54102 1.3718 0 2.59-0.55626 3.6641-1.5469v1.4629h2.0469v-6.8086h-4.8008v1.8086h2.7539v1.1582c-0.52958 0.61376-1.0826 1.0722-1.6602 1.3594-0.58514 0.29465-1.1935 0.43945-1.832 0.43945-0.57858 0-1.1133-0.1161-1.6094-0.34961h-2e-3c-0.49986-0.24563-0.92995-0.57163-1.2969-0.97851-0.35667-0.40705-0.64442-0.88612-0.86328-1.4394-0.19954-0.54752-0.30078-1.1363-0.30078-1.7715 0-0.60215 0.0894-1.1788 0.26562-1.7324 0.19093-0.54855 0.45751-1.0257 0.80079-1.4336v-2e-3c0.34371-0.41577 0.75802-0.74348 1.2441-0.98828l2e-3 -2e-3c0.48161-0.25465 1.0128-0.38281 1.6035-0.38281 0.72632 0 1.3871 0.16862 1.9902 0.50391 0.60117 0.33524 1.0696 0.83418 1.4121 1.5117l0.0801 0.16016 1.8457-1.3086-0.0606-0.11914c-0.44228-0.87122-1.1037-1.5703-1.9746-2.0918-0.8773-0.53579-1.96-0.79883-3.2383-0.79883zm-34.729 0.07617v6.6797c0 0.84273 0.10091 1.655 0.30078 2.4375v2e-3c0.20371 0.78975 0.53449 1.4962 0.99414 2.1172 0.457 0.61145 1.0566 1.1072 1.7891 1.4824l2e-3 2e-3c0.75041 0.36317 1.6585 0.54102 2.7207 0.54102 1.026 0 1.9111-0.17167 2.6504-0.52149 0.74605-0.34934 1.3573-0.82493 1.8281-1.4238l2e-3 -2e-3c0.4708-0.60857 0.8117-1.3095 1.0234-2.0996 0.21054-0.79856 0.31641-1.6442 0.31641-2.5352v-6.6758h-2.3926v6.6836c0 0.56553-0.05991 1.1221-0.18164 1.6699l-2e-3 2e-3c-0.10513 0.526-0.29292 0.99806-0.56641 1.418h-2e-3c-0.2557 0.39837-0.59689 0.72291-1.0332 0.97852-0.41284 0.23955-0.94912 0.35756-1.5918 0.36523h-0.05469c-0.65847 0-1.2026-0.12432-1.6406-0.36328-0.43176-0.25531-0.78002-0.58267-1.0508-0.98633-0.25999-0.41672-0.44988-0.88696-0.57031-1.4121-0.10915-0.54337-0.16406-1.104-0.16406-1.6836v-6.6758zm52.539 2e-3v5.3887h-6.3027v-5.3809h-2.3652v13.172h2.3652v-5.6699h6.3027v5.6699h2.3887v-13.17l-0.1543-2e-3zm-66.273 2e-3v13.17h6.4082c0.56721 0 1.1046-0.0766 1.6113-0.22852h2e-3c0.50667-0.15711 0.95004-0.38016 1.3281-0.67187v-2e-3c0.38913-0.30249 0.69494-0.66918 0.91211-1.0957 0.23135-0.43436 0.34766-0.92431 0.34766-1.4629v-0.0957l-0.05078-0.0254c-0.02259-0.79311-0.21807-1.499-0.6543-2.0625-0.40164-0.5417-0.98892-0.88017-1.6543-1.1172 0.52106-0.27817 0.97854-0.62284 1.2695-1.123 0.34966-0.57577 0.52734-1.1967 0.52734-1.8516 0-0.41742-0.07764-0.8296-0.22852-1.2344-0.14011-0.4137-0.34656-0.77982-0.61719-1.0938-0.27104-0.32913-0.59906-0.59735-0.98242-0.79883h-2e-3c-0.39524-0.20483-0.83548-0.30664-1.3125-0.30664zm-57.742 0.0059v13.172h0.1543l2.2246-8e-3v-4.4766h3.3926c0.60965 0 1.1692-0.12017 1.6699-0.35938 0.50787-0.24936 0.94313-0.57519 1.3008-0.97656l0.00195-2e-3c0.36051-0.41169 0.63477-0.87224 0.82227-1.3789 0.20323-0.52516 0.30469-1.0692 0.30469-1.6289 0-0.53904-0.1076-1.0669-0.32031-1.5781l-2e-3 -2e-3c-0.20013-0.52308-0.48755-0.9873-0.86128-1.3866-0.36763-0.4137-0.8105-0.74662-1.3262-0.99609h-0.00195c-0.51309-0.25158-1.0802-0.37891-1.6953-0.37891zm12.947 0v13.172h2.377v-13.172zm74.049 0v13.176h0.15625l2.2246-0.0137v-4.4746h2.7871l2.8438 4.4766h2.707l-3.1406-4.9824c0.3258-0.12378 0.64233-0.2665 0.92188-0.47852h2e-3v-2e-3c0.33369-0.26161 0.61812-0.56964 0.84961-0.92383 0.2279-0.35016 0.40371-0.73259 0.5293-1.1445 0.12885-0.41385 0.19336-0.84446 0.19336-1.291 0-0.53968-0.10709-1.0683-0.32031-1.5801l-2e-3 -2e-3c-0.20278-0.5231-0.48866-0.98544-0.85742-1.3848l-2e-3 -2e-3c-0.36996-0.41275-0.81901-0.74524-1.3437-0.99409-0.51334-0.25204-1.0806-0.37891-1.6914-0.37891zm-68.783 0.0039v2.0996h4.373v11.068h2.3945v-11.068h4.3457v-0.1543l0.0039-1.9453zm12.803 0v2.0996h4.373v11.068h2.3965v-11.068h4.3438l2e-3 -0.1543 0.0039-1.9453zm18.402 0.19727c0.87106 0 1.6708 0.13769 2.4023 0.41016 0.69319 0.25819 1.2897 0.58158 1.8223 0.94727l-0.77344 1.3887c-0.1165-0.10122-0.22706-0.20324-0.39648-0.31067l-0.0039-2e-3c-0.24241-0.16355-0.52676-0.31398-0.85352-0.45112v2e-3c-0.32005-0.13619-0.67438-0.24847-1.0645-0.33398h-2e-3c-0.38078-0.08614-0.77428-0.12891-1.1777-0.12891-0.89218 0-1.571 0.15156-2.0312 0.48633l-4e-3 4e-3c-0.43787 0.34452-0.66406 0.83814-0.66406 1.4316 0 0.33281 0.06701 0.62216 0.20898 0.85742l2e-3 4e-3 0.0039 6e-3c0.15087 0.21369 0.36962 0.39895 0.65234 0.56446l0.0039 2e-3 2e-3 2e-3c0.28421 0.15151 0.63157 0.2867 1.0449 0.40821h4e-3c0.40733 0.10955 0.88252 0.23239 1.4238 0.36718h2e-3c0.65939 0.15117 1.2482 0.32485 1.7656 0.51758h2e-3c0.53189 0.19151 0.97521 0.42189 1.3301 0.6875 0.35072 0.26544 0.61832 0.5884 0.80664 0.97266v2e-3l2e-3 2e-3c0.1929 0.37173 0.29297 0.83376 0.29297 1.3945 0 0.63244-0.125 1.1659-0.36914 1.6094v2e-3l-2e-3 2e-3c-0.23438 0.4506-0.56137 0.81676-0.98633 1.1055-0.41216 0.27767-0.89906 0.48658-1.4629 0.625-0.56357 0.13136-1.1725 0.19921-1.8262 0.19921-0.98028 0-1.9273-0.14314-2.8457-0.42773h-2e-3c-0.86476-0.28562-1.6388-0.69992-2.3477-1.2109l0.7793-1.4512c0.1532 0.13561 0.31174 0.27124 0.54688 0.42383h2e-3c0.31784 0.20027 0.67237 0.38772 1.0664 0.56055h0.0039l0.0039 2e-3c0.41476 0.15982 0.86006 0.30058 1.3359 0.42383l2e-3 2e-3h2e-3c0.4774 0.10938 0.97303 0.16406 1.4883 0.16406 0.82987 0 1.4865-0.14123 1.9648-0.44336 0.47771-0.30353 0.73047-0.77858 0.73047-1.3613 0-0.34978-0.09413-0.65744-0.28516-0.90429-0.17677-0.24358-0.43007-0.44905-0.75-0.61719l-2e-3 -2e-3c-0.3213-0.17332-0.70438-0.32768-1.1504-0.4668h-2e-3l-2e-3 -2e-3c-0.44897-0.12742-0.95336-0.26318-1.5156-0.40821-0.64917-0.16881-1.2177-0.3418-1.7051-0.51953l-0.0039-2e-3c-0.46412-0.18765-0.84882-0.40742-1.1562-0.6582l-2e-3 -2e-3c-0.29868-0.25528-0.52752-0.54615-0.69336-0.875-0.14358-0.33043-0.2207-0.73966-0.2207-1.2305 0-0.61009 0.11858-1.141 0.34961-1.5996 0.23896-0.47663 0.55462-0.87006 0.95312-1.1836h2e-3c0.41545-0.32734 0.89909-0.57166 1.459-0.73438h2e-3c0.5639-0.16562 1.1757-0.25 1.8379-0.25zm56.787 0.01953c1.236 0 2.2586 0.25534 3.0781 0.75586h2e-3c0.78546 0.4703 1.3509 1.1084 1.7656 1.873l-1.3477 0.95312c-0.35876-0.6412-0.80857-1.1752-1.4121-1.5117h-2e-3c-0.64881-0.36067-1.3647-0.54102-2.1387-0.54102-0.63386 0-1.2179 0.13859-1.7441 0.41602-0.52266 0.2632-0.97159 0.62054-1.3418 1.0684-0.36922 0.43907-0.65547 0.95132-0.85742 1.5332v2e-3l-2e-3 2e-3c-0.18594 0.58429-0.27734 1.1939-0.27734 1.8262 0 0.66905 0.10488 1.2965 0.31836 1.8809l2e-3 2e-3v2e-3c0.23087 0.58369 0.53759 1.0954 0.91992 1.5312l2e-3 2e-3c0.3932 0.43601 0.85839 0.78655 1.3926 1.0488h2e-3c0.5381 0.25363 1.1212 0.38086 1.7422 0.38086 0.68516 0 1.3438-0.1583 1.9687-0.47266 0.63551-0.31597 1.2334-0.80671 1.7949-1.4668l0.0371-0.043v-1.5898h-2.7539v-1.1934h4.1836v6.1914h-1.4297v-1.8262l-0.26368 0.26758c-1.0837 1.1014-2.311 1.6426-3.709 1.6426-0.85222 0-1.6389-0.17014-2.3672-0.50976l-4e-3 -2e-3c-0.73199-0.35997-1.3666-0.83444-1.9062-1.4238-0.54011-0.58737-0.96706-1.269-1.2812-2.0469-0.30361-0.78258-0.45508-1.5969-0.45508-2.4473 0-0.84968 0.1504-1.6544 0.45312-2.418v-2e-3c0.3141-0.77054 0.74122-1.4422 1.2812-2.0195 0.53934-0.57662 1.1819-1.0294 1.9297-1.3594v-2e-3c0.73701-0.33592 1.5421-0.50391 2.4199-0.50391zm-34.42 0.07617h1.7598v6.3691c0 0.59897 0.05662 1.1801 0.16992 1.7441v4e-3c0.12761 0.55863 0.33196 1.0657 0.61328 1.5156l4e-3 4e-3c0.29726 0.44315 0.68302 0.80437 1.1543 1.082l2e-3 2e-3 0.0039 2e-3c0.46025 0.25108 1.0298 0.35476 1.668 0.37109l0.01367 0.0391h0.10938c0.71027 0 1.3124-0.13489 1.7969-0.41601 0.47419-0.2778 0.85635-0.64025 1.1387-1.0801 0.29505-0.45347 0.4993-0.96294 0.61133-1.5234 0.12603-0.56852 0.18945-1.1461 0.18945-1.7324v-6.377h1.7754v6.3691c0 0.86675-0.10137 1.6859-0.30469 2.457-0.20216 0.75348-0.52618 1.4156-0.9707 1.9902-0.4397 0.55933-1.0091 1.0026-1.7168 1.334-0.68857 0.32582-1.5279 0.49218-2.5195 0.49218-1.0263 0-1.8845-0.17286-2.582-0.50976-0.69541-0.35628-1.254-0.81845-1.6816-1.3906-0.43534-0.5881-0.75068-1.2572-0.94531-2.0117-0.1933-0.75674-0.28906-1.5429-0.28906-2.3613zm-13.736 0.0039h6.5977c0.43349 0 0.82215 0.09219 1.1719 0.27344 0.34886 0.18375 0.64544 0.42412 0.89062 0.72266v2e-3h2e-3c0.24522 0.28414 0.43186 0.61457 0.56055 0.99609v0.0039l2e-3 2e-3c0.13883 0.37247 0.20703 0.74682 0.20703 1.127 0 0.59986-0.15955 1.1597-0.48242 1.6914v2e-3h-2e-3c-0.29974 0.51629-0.73005 0.89867-1.3066 1.1562l-0.38477 0.17187 0.40625 0.11719c0.72246 0.20793 1.2782 0.58471 1.6875 1.1367l2e-3 2e-3c0.41758 0.53789 0.62695 1.1947 0.62695 1.9902v0.0742c-0.01 0.46588-0.10008 0.88754-0.29688 1.2559v2e-3c-0.19669 0.38628-0.47034 0.71558-0.82617 0.99219-0.34552 0.26658-0.75537 0.47346-1.2305 0.62109-0.47623 0.14275-0.98355 0.21484-1.5234 0.21484h-6.1016zm66.275 0 1.7715 0.0078v12.555h-1.7715v-5.6699h-6.9199v5.6699h-1.748v-12.555h1.748v5.3809h6.9199zm-124.02 0.0077h5.3555c0.57411 0 1.0911 0.11524 1.5605 0.3457l0.00195 2e-3c0.48215 0.23305 0.89166 0.54036 1.2324 0.92383l0.00195 2e-3c0.34846 0.37151 0.61549 0.8007 0.80273 1.291v2e-3l0.00195 2e-3c0.19953 0.47759 0.29883 0.96455 0.29883 1.4648 0 0.52237-0.09521 1.0267-0.28516 1.5176v2e-3c-0.17442 0.47224-0.43085 0.90032-0.76758 1.2852-0.3298 0.37011-0.7292 0.67123-1.2031 0.9043-0.45633 0.21799-0.96725 0.32812-1.5371 0.32812h-3.6992v4.4766l-1.7637 8e-3zm12.947 0h1.7598v12.555h-1.7598zm74.049 0h5.5488c0.56876 0 1.0851 0.11514 1.5547 0.3457l2e-3 2e-3c0.49248 0.23321 0.90899 0.54068 1.252 0.92383v2e-3c0.34367 0.3717 0.61078 0.80003 0.80078 1.291v2e-3l2e-3 2e-3c0.19953 0.47759 0.29883 0.96455 0.29883 1.4648 0 0.41704-0.06022 0.81746-0.17969 1.2012-0.11756 0.38562-0.28231 0.74094-0.49414 1.0664-0.21341 0.32653-0.47345 0.6083-0.78125 0.84961-0.304 0.23019-0.63685 0.40309-1 0.51953l-0.18945 0.0605 3.0391 4.8164h-1.9805l-2.8438-4.4766h-3.2656v4.4785l-1.7637 0.01zm-68.785 0.0039h10.502l-0.0039 1.4824h-4.3457v11.068h-1.7793v-11.068h-4.373zm12.805 0h10.502l-0.0039 1.4824h-4.3457v11.068h-1.7793v-11.068h-4.373zm28.494 1.4434v4.0957h3.9551c0.27632 0 0.5315-0.0505 0.75977-0.15625l0.0039-2e-3c0.2357-0.10282 0.44239-0.24009 0.61328-0.41015l2e-3 -2e-3c0.18726-0.18442 0.3273-0.40345 0.41992-0.65039 0.1063-0.24861 0.16016-0.52226 0.16016-0.81835 0-0.58321-0.1723-1.0786-0.51758-1.459-0.34695-0.38465-0.80342-0.58398-1.332-0.58398zm-57.738 0.03906-0.00391 5.1094h3.5684c0.31459 0 0.60381-0.0662 0.85938-0.19922l0.00391-2e-3c0.26205-0.12937 0.48664-0.31432 0.66992-0.54883 0.18459-0.23299 0.32848-0.50273 0.43164-0.80664 0.10437-0.30747 0.15625-0.64485 0.15625-1.0098 0-0.37614-0.057969-0.7217-0.17383-1.0332-0.11491-0.3062-0.28214-0.57185-0.49805-0.79291-0.20385-0.22899-0.44648-0.40399-0.72266-0.52148-0.26478-0.128-0.54697-0.19531-0.83984-0.19531zm86.977 0 0.0078 5.1094h3.7695c0.3161 0 0.60681-0.0669 0.86328-0.20117h2e-3c0.26362-0.14169 0.48984-0.33204 0.67578-0.56641l4e-3 -4e-3c0.18089-0.24223 0.32273-0.51479 0.42578-0.81836 0.10398-0.3063 0.15625-0.63351 0.15625-0.97656 0-0.34365-0.06627-0.67051-0.19531-0.97852v-2e-3c-0.12168-0.30221-0.28401-0.56982-0.48828-0.80078l-2e-3 -2e-3c-0.19401-0.23342-0.43283-0.41678-0.70898-0.54492-0.2696-0.14118-0.5533-0.21484-0.84375-0.21484zm-28.932 0.26953 3.7578 0.01172c0.45432 0 0.80897 0.15587 1.1035 0.48242 0.29104 0.32064 0.4375 0.72968 0.4375 1.2539 1e-6 0.26133-0.04547 0.49348-0.13476 0.70117l-2e-3 4e-3v4e-3c-0.07779 0.20834-0.19383 0.38613-0.35156 0.54102h-2e-3v2e-3c-0.14331 0.14303-0.31684 0.25802-0.52344 0.34765l-2e-3 2e-3h-2e-3c-0.18466 0.0861-0.3933 0.13086-0.63281 0.13086h-3.6484zm-57.738 0.03906h3.1445c0.24904 0 0.48331 0.05443 0.70898 0.16406l0.00391 2e-3h0.00391c0.23771 0.10037 0.44202 0.24944 0.61914 0.44922l0.00195 2e-3 0.00391 0.0039c0.18615 0.18982 0.3298 0.41802 0.43164 0.68945 0.10101 0.27227 0.15234 0.57933 0.15234 0.92384 0 0.33612-0.046459 0.6385-0.13867 0.91015-0.093227 0.27464-0.22129 0.51321-0.38281 0.7168-0.15726 0.20121-0.34577 0.35556-0.56836 0.46484h-0.0039c-0.20913 0.10952-0.44509 0.16602-0.71875 0.16602h-3.2617zm86.979 0h3.3574c0.24098 0 0.4721 0.05807 0.70312 0.17969l0.0078 4e-3c0.23863 0.11013 0.4386 0.26353 0.60547 0.46484l4e-3 4e-3c0.18172 0.20461 0.32714 0.44228 0.4375 0.7168v2e-3l2e-3 2e-3c0.11361 0.27059 0.16992 0.55541 0.16992 0.86133 0 0.31226-0.04606 0.60413-0.13867 0.87695-0.09334 0.27497-0.22274 0.51777-0.38281 0.73242-3.36e-4 4.5e-4 3.35e-4 1e-3 0 2e-3 -0.15938 0.19972-0.35106 0.35907-0.57617 0.48047-0.20913 0.10952-0.44705 0.16602-0.7207 0.16602h-3.4609zm-29.547 5.0723v4.2383h4.3438c0.28743 0 0.55836-0.0517 0.81055-0.15625h0.0039l0.0039-2e-3c0.24734-0.11604 0.46424-0.26642 0.65039-0.44921l4e-3 -4e-3c0.18048-0.19085 0.32453-0.40974 0.42969-0.6543l2e-3 -2e-3v-2e-3c0.0917-0.22986 0.12677-0.46966 0.13867-0.71289l0.02734-0.0137v-0.0957c0-0.28352-0.05202-0.55648-0.15625-0.81445l-2e-3 -2e-3c-0.09315-0.25464-0.22555-0.4822-0.39648-0.67578-0.16116-0.19989-0.36387-0.35884-0.60156-0.47461-0.24365-0.11962-0.51068-0.17968-0.79102-0.17968zm0.30664 0.30664h4.1602c0.23699 0 0.45304 0.0496 0.6543 0.14843h2e-3c0.20094 0.0975 0.3649 0.22743 0.49805 0.39258l2e-3 4e-3 2e-3 2e-3c0.147 0.1653 0.26189 0.35938 0.34375 0.58399v2e-3l2e-3 2e-3c0.08553 0.20998 0.122 0.43229 0.12695 0.66406v0.0449c0 0.24104-0.0444 0.47339-0.13477 0.70117-0.09143 0.21264-0.21335 0.39971-0.36914 0.56445-0.15899 0.15526-0.34511 0.28142-0.56055 0.38281-8.62e-4 4.1e-4 -0.0011 2e-3 -2e-3 2e-3 -0.21184 0.087-0.43908 0.13086-0.6875 0.13086h-4.0371z"/><path d="m0.63303 114.59v0.8001l50.13-8e-5v-0.80002z"/><path d="m76.996 114.59v0.8001l50.13-8e-5v-0.80002z"/><path d="m76.357 113.77h-1.1139v2.884h-0.53337v-2.884h-1.1187v-0.46728h2.766zm-6.5016 1.1848q0-0.30209 0.10856-0.59946 0.10856-0.30208 0.31624-0.53809 0.2124-0.24072 0.51449-0.38704t0.68441-0.14632q0.45785 0 0.78353 0.20296t0.49089 0.52865l-0.41537 0.27848q-0.0708-0.15104-0.16992-0.25488t-0.21712-0.1652q-0.118-0.0614-0.24544-0.085-0.12744-0.0283-0.24544-0.0283-0.26432 0-0.46257 0.10856-0.19824 0.10384-0.33513 0.27848-0.13216 0.17465-0.20296 0.39177-0.06608 0.21712-0.06608 0.43425 0 0.24544 0.08024 0.46729 0.08024 0.22184 0.22184 0.39176 0.14632 0.16992 0.34457 0.27377 0.19824 0.0991 0.43425 0.0991 0.12272 0 0.25016-0.0283 0.13216-0.033 0.25016-0.0991 0.12272-0.0708 0.22184-0.17465 0.10384-0.10384 0.16992-0.25016l0.43897 0.25016q-0.08024 0.18881-0.22656 0.33513-0.14632 0.1416-0.3304 0.24072-0.18408 0.0991-0.39177 0.15105-0.20296 0.0519-0.40121 0.0519-0.35401 0-0.64665-0.15105-0.29264-0.15104-0.50505-0.39176-0.2124-0.24545-0.33041-0.55225-0.118-0.31153-0.118-0.63249zm-1.7093 1.6992v-3.3512h0.52865v3.3512zm-3.7563 0v-3.3512h1.4585q0.22656 0 0.41537 0.0944 0.19352 0.0944 0.3304 0.25016 0.13688 0.15104 0.2124 0.34929 0.08024 0.19352 0.08024 0.39648 0 0.16993-0.0472 0.32569t-0.13216 0.28792q-0.08496 0.13217-0.20768 0.23129-0.12272 0.0944-0.26904 0.1416l0.78825 1.2744h-0.59945l-0.72689-1.1659h-0.77409v1.1659zm0.52865-1.6331h0.92514q0.11328 0 0.20296-0.0472 0.0944-0.0519 0.16048-0.13689 0.06608-0.0897 0.10384-0.20296 0.03776-0.11328 0.03776-0.24072 0-0.12745-0.0472-0.24073-0.04248-0.11328-0.118-0.19824-0.0708-0.085-0.16992-0.13216-0.0944-0.0519-0.19824-0.0519h-0.89682zm-1.6137-1.2508h-1.1139v2.884h-0.53337v-2.884h-1.1187v-0.46728h2.766zm-3.9749 0.32097q-0.0472-0.0519-0.13688-0.10856-0.0897-0.0614-0.2124-0.11328-0.11801-0.0519-0.26433-0.085-0.1416-0.033-0.29264-0.033-0.33513 0-0.49561 0.12272-0.15576 0.12272-0.15576 0.33984 0 0.12273 0.0472 0.20297 0.0519 0.0755 0.15576 0.13688 0.10384 0.0566 0.2596 0.10384 0.15577 0.0425 0.36345 0.0944 0.25488 0.0614 0.45785 0.13688 0.20768 0.0755 0.34928 0.18409 0.14161 0.10856 0.21713 0.26904 0.0802 0.15576 0.0802 0.38233 0 0.25488-0.0991 0.43897-0.0944 0.18408-0.26433 0.30208-0.1652 0.11328-0.38704 0.16992-0.22185 0.0519-0.47673 0.0519-0.38233 0-0.74105-0.11328-0.35401-0.118-0.64194-0.33984l0.24073-0.45313q0.0614 0.0614 0.17464 0.13688 0.118 0.0755 0.26905 0.1416 0.15576 0.0614 0.33512 0.10857 0.17936 0.0425 0.37289 0.0425 0.31152 0 0.48145-0.10857 0.16992-0.10856 0.16992-0.32096 0-0.12744-0.0661-0.21241-0.0614-0.085-0.17936-0.14632-0.11801-0.0661-0.28793-0.118t-0.38705-0.10856q-0.25016-0.0661-0.43896-0.13688-0.18409-0.0755-0.30681-0.17937-0.12272-0.10384-0.1888-0.24072-0.0614-0.1416-0.0614-0.33985 0-0.24544 0.0944-0.43424 0.0944-0.19353 0.25488-0.32097 0.16521-0.13216 0.38705-0.19824 0.22184-0.0661 0.48145-0.0661 0.33984 0 0.62777 0.10856 0.28792 0.10856 0.50505 0.26904zm-3.9042 2.563v-3.3512h0.52865v3.3512zm-4.0236 0v-3.3512h1.1895q0.40592 0 0.70801 0.13216 0.30681 0.13216 0.50977 0.35872 0.20768 0.22657 0.31152 0.53337 0.10385 0.30209 0.10385 0.64665 0 0.38233-0.11801 0.69386-0.11328 0.3068-0.32568 0.52865-0.21241 0.21712-0.51449 0.33984-0.30209 0.118-0.67497 0.118zm2.2845-1.6804q0-0.26432-0.0755-0.48616-0.0708-0.22185-0.21241-0.37761-0.1416-0.16048-0.34456-0.25016-0.20297-0.0897-0.46257-0.0897h-0.66081v2.4167h0.66081q0.26432 0 0.46729-0.0897 0.20768-0.0944 0.34456-0.25489 0.1416-0.1652 0.21241-0.38704 0.0708-0.22185 0.0708-0.48145z"/></g><path d="m253.51 73.744c0.25 0 0.48 0.14 0.48 0.3v0.65c0 0.16-0.23 0.3-0.48 0.3h-16.48c-0.25 0-0.48-0.14-0.48-0.3v-0.64c0-0.2 0.2-0.33 0.46-0.33h16.48m-3.6 5.66c0-0.1 0.07-0.16 0.16-0.16h3.24c0.1 0 0.15 0.07 0.15 0.16v0.45c0 0.07-0.08 0.14-0.17 0.14h-2.55v1.65h2.14c0.08 0 0.16 0.06 0.16 0.15v0.45c0 0.1-0.08 0.15-0.16 0.15h-2.15v1.74h2.55c0.1 0 0.16 0.06 0.16 0.14v0.45c0 0.07-0.07 0.14-0.16 0.14h-3.23c-0.08 0-0.15-0.08-0.15-0.16v-5.36m-7.42 0c0-0.1 0.08-0.16 0.16-0.16h0.52c0.1 0 0.15 0.07 0.15 0.16v2.25h2.97v-2.26c0-0.1 0.06-0.16 0.15-0.16h0.52c0.08 0 0.15 0.08 0.15 0.17v5.35c0 0.07-0.07 0.14-0.15 0.14h-0.53c-0.1 0-0.17-0.07-0.17-0.15v-2.34h-2.97v2.34c0 0.07-0.05 0.14-0.14 0.14h-0.53c-0.1 0-0.17-0.07-0.17-0.15v-5.37m-4.4 0.6h-1.3c-0.1 0-0.16-0.07-0.16-0.15v-0.46c0-0.1 0.06-0.16 0.15-0.16h3.55c0.08 0 0.15 0.07 0.15 0.16v0.45c0 0.07-0.07 0.14-0.15 0.14h-1.32v4.76c0 0.07-0.07 0.14-0.15 0.14h-0.53c-0.1 0-0.16-0.07-0.16-0.15v-4.75m9.24-14.37c0-0.08 0.07-0.15 0.16-0.15h3.23c0.1 0 0.15 0.07 0.15 0.15v0.45c0 0.1-0.06 0.16-0.15 0.16h-2.56v1.86h2.18c0.08 0 0.16 0.07 0.16 0.15v0.46c0 0.1-0.08 0.16-0.16 0.16h-2.16v2.14c0 0.08-0.06 0.15-0.14 0.15h-0.52c-0.1 0-0.16-0.08-0.16-0.16v-5.37m-5.27 4.78c1.16 0 2.1-0.93 2.1-2.1 0-1.13-0.94-2.1-2.1-2.1-1.14 0-2.1 0.97-2.1 2.1 0 1.17 0.96 2.1 2.1 2.1zm0-5c1.62 0 2.92 1.3 2.92 2.9 0 1.63-1.3 2.9-2.9 2.9-1.63 0-2.92-1.27-2.92-2.9 0-1.6 1.3-2.9 2.9-2.9m167.6 0.95c0-0.27 0.23-0.52 0.52-0.52h10.7c0.3 0 0.52 0.25 0.52 0.52v0.78c0 0.28-0.22 0.52-0.5 0.52h-9.14v6.63h7.8c0.27 0 0.5 0.24 0.5 0.5v0.8c0 0.3-0.23 0.52-0.5 0.52h-7.8v6.92h9.13c0.3 0 0.5 0.25 0.5 0.52v0.78c0 0.27-0.2 0.5-0.5 0.5h-10.7c-0.3 0-0.52-0.23-0.52-0.5v-17.83m-24-0.3c0-0.27 0.24-0.5 0.5-0.5h0.7l12.24 15.27h0.05v-14.47c0-0.27 0.2-0.52 0.5-0.52h0.96c0.26 0 0.5 0.25 0.5 0.52v18.28c0 0.27-0.24 0.5-0.5 0.5h-0.5l-12.5-15.58h-0.02v14.78c0 0.27-0.22 0.5-0.52 0.5h-0.95c-0.26 0-0.5-0.23-0.5-0.5v-18.28m-19.07 0.3c0-0.27 0.2-0.52 0.5-0.52h10.7c0.3 0 0.53 0.25 0.53 0.52v0.78c0 0.28-0.23 0.52-0.53 0.52h-9.12v6.63h7.8c0.26 0 0.5 0.24 0.5 0.5v0.8c0 0.3-0.24 0.52-0.5 0.52h-7.8v6.92h9.12c0.3 0 0.52 0.25 0.52 0.52v0.77c0 0.27-0.23 0.5-0.53 0.5h-10.7c-0.3 0-0.5-0.23-0.5-0.5v-17.96m-13.54 9.26c2.1 0 3.9-1.74 3.9-3.97 0-2.08-1.8-3.85-3.9-3.85h-5.27v7.8zm-7.42-9.26c0-0.27 0.23-0.52 0.53-0.52h7.03c3.26 0 5.92 2.56 5.92 5.8 0 2.5-1.65 4.58-4.02 5.53l3.72 6.9c0.2 0.37 0 0.8-0.46 0.8h-1.4c-0.24 0-0.37-0.13-0.43-0.24l-3.6-7.2h-5.2v6.93c0 0.26-0.25 0.5-0.5 0.5h-1.08c-0.3 0-0.52-0.24-0.52-0.5v-18m-10.7 12.03c-1.33-2.96-2.64-5.95-3.97-8.9h-0.2l-3.97 8.9zm-12.9 5.76 8.25-18.3c0.1-0.16 0.22-0.3 0.46-0.3h0.28c0.24 0 0.38 0.13 0.46 0.3l8.2 18.3c0.16 0.33-0.05 0.7-0.46 0.7h-1.1c-0.23 0-0.4-0.18-0.45-0.3l-2-4.5h-9.65l-1.98 4.5c-0.07 0.12-0.23 0.3-0.48 0.3h-1.08c-0.4 0-0.63-0.37-0.46-0.7m-16.85-0.3 9.86-16.05v-0.08h-8.57c-0.27 0-0.52-0.24-0.52-0.5v-0.88c0-0.28 0.26-0.53 0.53-0.53h11c0.27 0 0.52 0.25 0.52 0.52v0.34l-10.03 16.2v0.04h8.97c0.3 0 0.5 0.24 0.5 0.5v0.88c0 0.27-0.2 0.5-0.5 0.5h-11.26c-0.27 0-0.52-0.23-0.52-0.5v-0.5m-8.74-5.45c-1.34-2.95-2.65-5.94-3.98-8.9h-0.2l-3.96 8.9zm-12.9 5.77 8.24-18.3c0.1-0.15 0.22-0.3 0.46-0.3h0.28c0.24 0 0.38 0.15 0.46 0.3l8.2 18.3c0.16 0.34-0.05 0.7-0.46 0.7h-1.1c-0.23 0-0.4-0.17-0.45-0.3l-2-4.5h-9.64l-1.98 4.5c-0.06 0.13-0.22 0.3-0.47 0.3h-1.07c-0.4 0-0.63-0.36-0.46-0.7m-21.42-18.1c0-0.27 0.25-0.5 0.52-0.5h0.68l12.24 15.27h0.05v-14.42c0-0.27 0.2-0.52 0.5-0.52h0.97c0.27 0 0.5 0.25 0.5 0.52v18.28c0 0.27-0.23 0.5-0.5 0.5h-0.5l-12.39-15.58h-0.04v14.78c0 0.27-0.2 0.5-0.5 0.5h-0.96c-0.27 0-0.52-0.23-0.52-0.5v-18.28m-50.8 0c0-0.26 0.24-0.5 0.5-0.5h1.07c0.3 0 0.52 0.24 0.52 0.5v7.94h11.02v-7.94c0-0.26 0.2-0.5 0.5-0.5h1.06c0.27 0 0.5 0.24 0.5 0.5v18c0 0.26-0.23 0.5-0.5 0.5h-1.06c-0.3 0-0.5-0.24-0.5-0.5v-8.24h-11.03v8.23c0 0.25-0.22 0.5-0.52 0.5h-1.06c-0.3 0-0.54-0.25-0.54-0.5v-18m-14.18-0.8c2.74 0 4.72 0.96 6.57 2.54 0.2 0.22 0.24 0.54 0.02 0.76l-0.74 0.74c-0.22 0.27-0.43 0.25-0.7-0.02-1.42-1.23-3.35-2.04-5.2-2.04-4.28 0-7.57 3.6-7.57 7.82 0 4.18 3.28 7.8 7.57 7.8 2.36 0 3.75-0.96 5.18-2.04 0.3-0.22 0.5-0.2 0.67-0.08l0.82 0.73c0.2 0.18 0.15 0.56-0.04 0.75-1.85 1.8-4.2 2.64-6.6 2.64-5.44 0-9.8-4.33-9.8-9.76s4.36-9.8 9.8-9.8m-22.34 10.05c2.1 0 3.9-1.74 3.9-3.96 0-2.06-1.8-3.82-3.9-3.82h-5.27v7.8zm-7.42-9.26c0-0.26 0.22-0.5 0.52-0.5h7.03c3.26 0 5.93 2.55 5.93 5.78 0 2.5-1.66 4.6-4.02 5.54l3.72 6.9c0.2 0.35 0 0.8-0.47 0.8h-1.4c-0.23 0-0.37-0.15-0.42-0.26l-3.62-7.2h-5.18v6.93c0 0.27-0.25 0.5-0.52 0.5h-1.06c-0.3 0-0.52-0.23-0.52-0.5v-18m-23.1 0c0-0.25 0.26-0.5 0.53-0.5h1.04c0.3 0 0.52 0.25 0.52 0.5v11.35c0 3.1 1.93 5.5 5.1 5.5 3.2 0 5.17-2.35 5.17-5.45v-11.41c0-0.26 0.2-0.5 0.5-0.5h1.04c0.28 0 0.53 0.24 0.53 0.5v11.5c0 4.13-2.94 7.28-7.23 7.28-4.26 0-7.17-3.15-7.17-7.28v-11.5m-23.9 0c0-0.26 0.24-0.5 0.52-0.5h1.05c0.3 0 0.52 0.24 0.52 0.5v7.94h11.02v-7.94c0-0.26 0.22-0.5 0.5-0.5h1.07c0.27 0 0.5 0.24 0.5 0.5v18c0 0.26-0.23 0.5-0.5 0.5h-1.07c-0.3 0-0.5-0.24-0.5-0.5v-8.24h-11.01v8.23c0 0.25-0.22 0.5-0.52 0.5h-1.05c-0.28 0-0.52-0.25-0.52-0.5v-18m-14.17-0.8c2.74 0 4.72 0.96 6.57 2.54 0.22 0.22 0.25 0.54 0.03 0.76l-0.73 0.74c-0.22 0.27-0.44 0.25-0.7-0.02-1.42-1.23-3.35-2.04-5.2-2.04-4.3 0-7.58 3.6-7.58 7.82 0 4.18 3.3 7.8 7.58 7.8 2.37 0 3.75-0.96 5.2-2.04 0.26-0.22 0.48-0.2 0.64-0.08l0.82 0.73c0.2 0.18 0.16 0.56-0.03 0.75-1.85 1.8-4.18 2.64-6.6 2.64-5.43 0-9.8-4.33-9.8-9.76s4.37-9.8 9.8-9.8"/></g></g></svg>
