<svg xmlns="http://www.w3.org/2000/svg" width="318.115" height="318.108" viewBox="0 0 84.167973 84.166011"><g fill="#fff"><g><path d="M42.08 0C18.85 0 0 18.84 0 42.08s18.85 42.1 42.08 42.1c23.24 0 42.1-18.86 42.1-42.1C84.17 18.84 65.3 0 42.07 0zm0 .8c22.8 0 41.3 18.47 41.3 41.28 0 22.8-18.5 41.3-41.3 41.3-22.8 0-41.3-18.5-41.3-41.3C.8 19.28 19.3.78 42.1.78z"/><path d="M42.08 6.22c-19.8 0-35.86 16.06-35.86 35.86s16.06 35.87 35.86 35.87S77.95 61.9 77.95 42.08c0-19.8-16.06-35.86-35.87-35.86zm0 .8c19.38 0 35.08 15.7 35.08 35.06 0 19.38-15.7 35.08-35.08 35.08C22.7 77.16 7 61.46 7 42.08 7 22.7 22.7 7 42.1 7z"/></g><g><g><path d="M42.1 8.03l-.16.1c-9.16 5.27-14.8 15.03-14.82 25.6 0 10.56 5.65 20.32 14.8 25.6l.16.1.16-.1c9.15-5.28 14.8-15.03 14.8-25.6 0-10.56-5.64-20.32-14.78-25.6zm0 .76c8.85 5.18 14.3 14.66 14.3 24.93S50.94 53.48 42.1 58.67c-8.85-5.2-14.3-14.67-14.32-24.94.02-10.28 5.48-19.76 14.34-24.94z"/><path d="M42.1 33.4c-5.1.02-10.1 1.35-14.53 3.85l-.2.1.04.22C29.35 52.3 41.9 63.32 56.74 63.34c5.1 0 10.1-1.34 14.52-3.85l.2-.1-.04-.23C69.5 44.45 56.95 33.43 42.1 33.4zm0 .65c14.44.02 26.63 10.68 28.62 24.97-4.28 2.38-9.1 3.66-14 3.68C42.3 62.68 30.1 52 28.1 37.72c4.28-2.38 9.08-3.66 14-3.67z"/><path d="M42.1 33.4c-14.87.02-27.42 11.06-29.34 25.8l-.03.2.2.1c4.42 2.5 9.42 3.83 14.5 3.84 14.87-.02 27.42-11.05 29.34-25.8l.03-.2-.2-.1c-4.42-2.5-9.42-3.83-14.5-3.83zm0 .65c4.9 0 9.7 1.28 13.98 3.66C54.1 52 41.9 62.7 27.44 62.7c-4.9 0-9.7-1.3-14-3.66 2-14.3 14.2-24.97 28.65-25z"/></g><path d="M32.55 48.77c0 .13.1.24.24.24.12 0 .23-.1.23-.23 0-.14-.1-.25-.24-.25-.15 0-.25.1-.25.25m.04 0c0-.1.08-.2.2-.2.1 0 .2.1.2.2s-.1.2-.2.2c-.12 0-.2-.1-.2-.2m.1.1s0 .02.02.02.03-.02.03-.02v-.08h.05l.03.08s0 0 .02 0h.02s.02 0 0 0c0-.03-.02-.06-.03-.1.02 0 .06 0 .06-.06 0-.05-.05-.08-.1-.08h-.08s-.02 0-.02.02zm.05-.1v-.1h.06c.04 0 .05.03.05.05 0 .02 0 .04-.04.04h-.05m2.96.34l-.02.08c0 .02-.02.04-.03.04h-.25l-.17.54c0 .02-.03.03-.05.03h-.1c-.02 0-.03-.02-.03-.04l.17-.54h-.25s-.02-.02 0-.04l.02-.1s0-.03.02-.03h.25l.08-.25s.03-.03.05-.03h.1s.03.02.02.03l-.07.25h.25s0 .02 0 .05zm-.9-.56c-.06.6-.3.96-.57 1.24-.1.1-.3.23-.3.23.07.08.88.05.96.05.02.13-.02.33-.16.78.5-.04 1.1-.52 1.22-1.1.04-.16.1-.36.13-.55.04-.32.1-.63.1-.64-.47 0-.94 0-1.4 0m16.8-.6c0-.02-.06-.1-.13-.1-.23-.05-.92-.14-1.47-.26-1.47-.35-3.33-1-4.17-.74-.73.23-1.26.98-1.42 1.22-.04.06.04.07.04.07h7.1s.03 0 .04 0c0-.02.04-.03.04-.06 0-.02 0-.1 0-.12m-18.08-.2c.32-.06 1.3-.16 2.07-.32 2.1-.44 4.86-1.22 6.07-.93 1.17.28 1.72 1.25 1.86 1.54.04.08-.05.08-.05.08H33.46s-.13 0-.14-.08c0-.05-.05-.23.22-.3m8.23-8.4c.78.32 1.2-.77.7-1.38-.1-.12.07-.07.14-.04.27.12.76.4 1.05 1.08.2.45-.07 1.14-.47 1.28-.38-.18-1.17-.54-1.4-.94m2.25 6.23c.13.2 0 .47-.3.13-.1-.12-.18-.27-.1-.3.08-.03.3.04.4.17m-1.95-6.06c-1.18-.75-1.6-.73-1.42-2.3.14-.9.53-1.44.7-1.64.1-.1.1-.03.08 0-1.35 2.98.7 4 .64 3.95m-6.5-2.55c-.03-.65.6-1.8.6-1.42 0 .4-.82 2.95 3.64 5.85.05.02.07.1.03.1-1.8 0-2.75-.7-3.4-1.2-.7-.58-.95-1.2-1.03-1.45-.05-.13.03-.1.04-.07.35.5 1.32 1.6 2.08 1.78.02 0-2-1.54-1.97-3.6m5.67-2.24c-1.36 2.02-.56 3.48-.44 3.67.54.88 1.85 1.35 3.6 2.72.2.12 1.7 1.6 1.65 3.14 0 .15-.02.25 0 .24.4-.1 1.6-2 .57-3.7-.67-1.12-3.04-2.7-3.05-2.7-.2-.12.64.06 1.3.38 1.2.57 5.58 3.23 1.12 7.2-.73.65-1.9 2-2.1 2.22-.04.03-.05 0-.06 0-.23-.4-.1-2-2.76-2-1.36 0-3.3.06-5-.6-3.06-1.2-2.9-3.65-2.66-4.65.25-1.36 1.42-1.8 1.4-1.7-.1.54-.7 2.38.04 3.74 1.5 3.1 5.3 1.94 7.5 2.7 1.6.54 1.5 1.42 1.65 1.7.07.1.57-.63.9-1.25.4-.8.34-2.12-.2-3.1-.25-.45-1-1.24-3.03-2.46-4.16-2.5-.7-5.73-.43-5.56m2.98 13.84c1.87 0 6.35 0 6.77 0 .1 0 .45 0 .53 0 .07.02.06.42-.02.45-.07 0-5.46 0-7.3 0-.02 0-.04-.04-.05-.05-.02-.03-.02-.35 0-.38 0-.03.04-.03.07-.03m-10.92 0c.27 0 .94 0 1 0 0 0 .14 0 .17 0 .17 0 .04.4.02.42-.04.04-.2.03-.2.03-.07 0-.73 0-1 0-.04-.02-.07-.04-.08-.05 0-.03 0-.34 0-.37 0-.03.04-.04.08-.04m3.2 0c.83 0 2.36 0 3.77 0 1.7-.02 3.17 0 3.27 0 0 0 .05.02.06.05.02.07.02.26 0 .35-.02.02-.04.04-.06.04-.08 0-7.1 0-7.18 0-.03 0 .06-.4.07-.43.02-.02.04-.03.07-.03"/></g></g></svg>