<svg xmlns="http://www.w3.org/2000/svg" width="1591.711" height="320" viewBox="0 0 421.14025 84.666667"><g fill="#fff"><g><g><path d="M42.33.25C19.1.25.25 19.1.25 42.33c0 23.24 18.85 42.1 42.08 42.1 23.24 0 42.1-18.86 42.1-42.1C84.42 19.1 65.56.25 42.32.25zm0 .8c22.8 0 41.3 18.47 41.3 41.28 0 22.8-18.5 41.3-41.3 41.3-22.8 0-41.3-18.5-41.3-41.3 0-22.8 18.5-41.3 41.3-41.3z"/><path d="M42.33 6.47c-19.8 0-35.86 16.06-35.86 35.86S22.53 78.2 42.33 78.2 78.2 62.14 78.2 42.33c0-19.8-16.06-35.86-35.87-35.86zm0 .8c19.38 0 35.08 15.7 35.08 35.06 0 19.38-15.7 35.08-35.07 35.08S7.26 61.7 7.26 42.34 22.96 7.26 42.33 7.26z"/></g><g><g><path d="M42.35 8.28l-.16.1c-9.17 5.27-14.8 15.03-14.83 25.6 0 10.56 5.65 20.32 14.8 25.6l.16.1.16-.1c9.14-5.28 14.8-15.03 14.8-25.6 0-10.56-5.65-20.32-14.8-25.6zm0 .76c8.85 5.2 14.3 14.67 14.3 24.94 0 10.27-5.47 19.75-14.32 24.94-8.85-5.2-14.3-14.67-14.32-24.94.03-10.28 5.5-19.76 14.35-24.94z"/><path d="M42.34 33.66c-5.1 0-10.1 1.34-14.52 3.84l-.2.1.04.22C29.6 52.55 42.13 63.57 56.98 63.6c5.1-.02 10.1-1.35 14.52-3.86l.2-.1-.04-.22C69.73 44.7 57.2 33.68 42.34 33.66zm0 .64c14.45.02 26.64 10.68 28.63 24.97-4.28 2.38-9.1 3.67-14 3.68-14.44-.02-26.63-10.7-28.62-24.97 4.28-2.4 9.08-3.67 14-3.68z"/><path d="M42.34 33.66c-14.86 0-27.4 11.05-29.33 25.78l-.02.22.2.1c4.42 2.5 9.42 3.82 14.5 3.83 14.87-.03 27.42-11.06 29.34-25.8l.03-.2-.2-.12c-4.42-2.5-9.42-3.82-14.5-3.82zm0 .64c4.9 0 9.7 1.28 14 3.66-2 14.3-14.2 24.97-28.65 25-4.9-.02-9.72-1.3-14-3.67 1.98-14.3 14.18-24.98 28.64-25z"/></g><path d="M32.8 49.02c0 .13.1.24.24.24.13 0 .24-.1.24-.24 0-.14-.1-.24-.24-.24-.14 0-.24.1-.24.24m.04 0c0-.1.1-.2.2-.2s.2.1.2.2-.1.2-.2.2-.2-.1-.2-.2m.1.1s.02.02.03.02c.02 0 .03 0 .03 0v-.1h.05l.03.1s0 0 .02 0h.02s.02 0 0-.02c0-.02-.02-.05-.03-.08 0 0 .04-.02.04-.07s-.04-.08-.08-.08h-.1zm.06-.1v-.1h.06c.03 0 .04.03.04.05 0 .02 0 .04-.04.04H33m2.96.35l-.03.08c0 .03-.02.04-.03.04h-.25l-.17.54c0 .03-.03.04-.05.04h-.1c-.02 0-.03 0-.03-.03l.17-.53h-.25s-.02-.02 0-.04l.02-.1s.02-.03.03-.03h.25l.08-.25s.03-.03.05-.03h.1s.03.02.02.03l-.07.25h.25s0 .03 0 .05zm-.92-.56c-.05.6-.28.95-.56 1.23-.1.1-.3.23-.3.23.07.07.88.04.96.04.03.13 0 .33-.15.78.5-.04 1.08-.52 1.2-1.1.05-.16.12-.36.14-.55.05-.32.12-.63.12-.64-.48 0-.95 0-1.42 0m16.82-.6c0-.03-.07-.1-.14-.1-.23-.05-.92-.15-1.47-.27-1.47-.35-3.33-1-4.17-.74-.74.22-1.26.97-1.42 1.2-.05.07.03.08.03.08h7.08s.04 0 .05 0c0-.02.04-.03.04-.06 0-.02 0-.1 0-.12M33.78 48c.3-.06 1.3-.16 2.06-.32 2.1-.44 4.85-1.22 6.06-.93 1.17.28 1.72 1.25 1.86 1.54.04.07-.05.07-.05.07H33.7s-.12 0-.13-.08c0-.06-.05-.24.22-.3M42 39.6c.78.3 1.2-.78.7-1.4-.1-.1.07-.06.14-.03.26.12.75.4 1.04 1.08.2.45-.07 1.14-.47 1.28-.38-.18-1.17-.54-1.4-.94m2.25 6.22c.13.2 0 .47-.3.13-.1-.12-.18-.27-.1-.3.08-.03.3.04.4.17m-1.95-6.06c-1.18-.76-1.6-.74-1.42-2.3.15-.9.54-1.45.7-1.65.1-.1.1 0 .1 0-1.36 3 .68 4.02.63 3.96m-6.5-2.56c-.03-.65.6-1.8.6-1.42 0 .4-.82 2.95 3.64 5.85.05.03.07.1.03.1-1.8 0-2.75-.7-3.4-1.2-.7-.58-.95-1.2-1.03-1.45-.05-.13.03-.1.04-.07.35.52 1.33 1.6 2.1 1.8 0 0-2.02-1.55-1.98-3.6m5.67-2.25c-1.37 2.02-.57 3.48-.45 3.67.54.88 1.85 1.35 3.6 2.72.2.13 1.7 1.6 1.65 3.15 0 .14-.02.24 0 .23.4-.1 1.6-2 .57-3.7-.67-1.12-3.04-2.7-3.05-2.7-.2-.12.64.06 1.3.38 1.2.58 5.58 3.24 1.12 7.22-.72.64-1.88 2-2.1 2.2-.03.05-.04.02-.05 0-.24-.38-.12-2-2.77-2-1.36 0-3.3.07-5-.6-3.06-1.2-2.9-3.64-2.66-4.64.25-1.36 1.42-1.8 1.4-1.7-.1.55-.7 2.38.04 3.74 1.52 3.1 5.3 1.94 7.5 2.7 1.6.54 1.5 1.42 1.66 1.7.06.1.56-.63.88-1.25.4-.8.35-2.1-.2-3.1-.24-.45-1-1.24-3.02-2.46-4.16-2.5-.7-5.72-.43-5.55m2.97 13.84c1.87 0 6.35 0 6.77 0 .1 0 .46-.02.54 0 .07 0 .06.4-.02.44-.08 0-5.47 0-7.3 0-.03 0-.05-.03-.06-.04-.02-.03-.02-.35 0-.38 0-.03.04-.03.07-.03m-10.93 0c.28 0 .95 0 1 0 .02 0 .15 0 .18 0 .17 0 .04.38.02.4-.03.05-.18.04-.2.04-.06 0-.72 0-1 0-.03 0-.06-.03-.07-.04 0-.03 0-.34 0-.37 0-.03.04-.04.07-.04m3.2 0c.84 0 2.36 0 3.78-.02 1.7 0 3.17 0 3.27 0 0 0 .04.03.05.06.02.08 0 .27 0 .36-.02.02-.04.04-.06.05-.1 0-7.12 0-7.2 0-.02 0 .07-.4.08-.43 0-.02.04-.03.07-.03"/></g></g><g><g><path d="M223.15-.4c-1.78 0-3.43.23-4.96.7-1.54.44-2.9 1.13-4.04 2.05-1.13.9-2.02 2.02-2.68 3.37-.67 1.33-1 2.85-1 4.55 0 1.37.22 2.57.66 3.58v.02c.47.97 1.15 1.82 2 2.55.87.73 1.94 1.35 3.2 1.87h.02c1.28.48 2.77.94 4.46 1.4 1.45.37 2.75.73 3.88 1.08 1.12.34 2.06.73 2.82 1.15h.02c.75.4 1.3.86 1.66 1.37.4.5.6 1.12.6 1.9 0 1.32-.5 2.24-1.54 2.9-1.04.67-2.58 1.03-4.63 1.03-1.27 0-2.5-.14-3.66-.4-1.2-.33-2.3-.68-3.32-1.1-1-.42-1.87-.9-2.64-1.38-.74-.5-1.3-.95-1.7-1.33l-.37-.38-2.84 5.34.26.2c1.97 1.52 4.16 2.68 6.58 3.5 2.46.76 5 1.15 7.6 1.15 1.73 0 3.36-.18 4.9-.53 1.52-.4 2.87-.98 4.02-1.77 1.2-.83 2.12-1.9 2.8-3.2.7-1.3 1.03-2.84 1.03-4.6 0-1.56-.28-2.9-.86-4.03-.53-1.13-1.3-2.08-2.3-2.84-1-.76-2.2-1.4-3.62-1.92-1.38-.5-2.93-.97-4.65-1.4-1.4-.34-2.6-.65-3.65-.93-1.02-.3-1.86-.64-2.52-1-.66-.4-1.13-.8-1.44-1.25-.26-.46-.4-1.07-.4-1.83 0-1.37.45-2.36 1.4-3.1.97-.75 2.55-1.17 4.75-1.17 1 0 1.95.1 2.87.33.96.2 1.83.5 2.6.83.8.35 1.5.72 2.07 1.1v.02c.6.37 1.03.72 1.3 1.03l.38.4.27-.48 2.58-4.68-.28-.2c-1.5-1.12-3.22-2.04-5.18-2.78-1.98-.74-4.14-1.12-6.47-1.12zm146.33 0c-2.37 0-4.57.48-6.6 1.42-2 .9-3.74 2.16-5.2 3.75-1.46 1.6-2.6 3.44-3.46 5.54v.02c-.8 2.1-1.2 4.33-1.2 6.66 0 2.32.4 4.56 1.2 6.7.84 2.14 2 4.02 3.45 5.64 1.46 1.62 3.2 2.92 5.16 3.9 2 .94 4.15 1.4 6.46 1.4 3.52 0 6.67-1.36 9.43-3.94v3.72H384V16.53h-12.35v4.74h7.08v3.06c-1.37 1.62-2.8 2.82-4.3 3.56-1.5.76-3.06 1.14-4.72 1.14-1.48 0-2.86-.3-4.14-.9-1.28-.66-2.4-1.5-3.34-2.58-.92-1.07-1.66-2.33-2.2-3.77v-.02s-.02 0-.02 0c-.52-1.44-.78-3-.78-4.66 0-1.58.23-3.1.7-4.53 0 0 0 0 0-.02.5-1.44 1.18-2.7 2.06-3.77.9-1.1 1.96-1.96 3.2-2.6h.02c1.24-.67 2.6-1 4.13-1 1.87 0 3.58.44 5.13 1.33 1.55.87 2.76 2.2 3.65 3.97l.22.4 4.74-3.4-.15-.3c-1.13-2.3-2.84-4.13-5.08-5.5-2.27-1.4-5.06-2.1-8.34-2.1zM95.75-.16V34.4h6.12V22.64h8.73c1.57 0 3.02-.3 4.3-.94 1.32-.65 2.45-1.5 3.37-2.56.92-1.08 1.63-2.3 2.12-3.64.5-1.38.77-2.8.77-4.28 0-1.4-.28-2.8-.83-4.14-.53-1.37-1.27-2.58-2.2-3.63-.97-1.1-2.12-1.96-3.46-2.62-1.33-.66-2.8-1-4.37-1zm33.37 0V34.4h6.12V-.17zm13.56 0v5.5h11.27V34.4h6.17V5.33h11.22v-5.5zm33 0v5.5h11.27V34.4h6.17V5.33h11.22v-5.5zm68.9 0V34.4h16.52c1.46 0 2.85-.2 4.16-.6 1.3-.42 2.45-1 3.4-1.77 1-.8 1.8-1.77 2.35-2.9.6-1.13.9-2.42.9-3.83 0-2.23-.58-4.15-1.78-5.7-1-1.4-2.42-2.33-4.07-2.96 1.28-.72 2.36-1.66 3.1-2.93.9-1.5 1.34-3.14 1.34-4.86 0-1.1-.2-2.16-.6-3.22-.37-1.08-.9-2.04-1.6-2.87-.7-.87-1.55-1.57-2.54-2.1-1-.54-2.15-.8-3.38-.8zm35.4 0v17.52c0 2.2.27 4.35.78 6.42.52 2.07 1.36 3.92 2.54 5.55 1.18 1.6 2.72 2.9 4.6 3.88 1.95.97 4.3 1.43 7.04 1.43 2.64 0 4.92-.45 6.83-1.37 1.92-.9 3.5-2.15 4.7-3.73 1.2-1.6 2.1-3.44 2.64-5.5.56-2.1.83-4.33.83-6.67V-.16h-6.17v17.52c0 1.5-.15 2.95-.46 4.38-.28 1.4-.77 2.63-1.47 3.72-.67 1.06-1.55 1.92-2.68 2.6-1.1.64-2.5.98-4.2.98-1.7 0-3.1-.32-4.24-.95-1.1-.68-2-1.53-2.7-2.6-.68-1.1-1.17-2.33-1.47-3.7-.28-1.44-.42-2.92-.42-4.44V-.16zm39.98 0V34.4h6.12V22.64h7.2l7.3 11.74h6.98l-8.1-13.1c.85-.32 1.67-.7 2.4-1.25.86-.7 1.6-1.5 2.18-2.43.6-.92 1.05-1.92 1.38-3 .33-1.1.5-2.22.5-3.4 0-1.4-.3-2.8-.84-4.14-.53-1.37-1.27-2.58-2.2-3.63-.97-1.1-2.12-1.96-3.46-2.62-1.33-.66-2.8-1-4.37-1zm73.06 0V34.4h6.12V19.5h16.23v14.9h6.17V-.17h-6.17v14.12h-16.23V-.16zM223.15.4c2.24 0 4.3.35 6.2 1.07 1.77.67 3.3 1.52 4.67 2.5l-2 3.6c-.3-.26-.6-.53-1.04-.8v-.02c-.63-.42-1.36-.8-2.2-1.17-.82-.36-1.73-.65-2.73-.88-1-.23-2-.34-3.04-.34-2.3 0-4.04.4-5.23 1.32-1.13.9-1.72 2.18-1.72 3.73 0 .9.17 1.65.53 2.26l.02.02c.4.57.96 1.07 1.7 1.5.73.4 1.63.76 2.7 1.08 1.05.3 2.28.6 3.67.96 1.7.4 3.23.87 4.57 1.37 1.37.48 2.5 1.1 3.42 1.8.9.68 1.6 1.53 2.07 2.55.5 1 .77 2.2.77 3.68 0 1.66-.32 3.07-.95 4.24-.6 1.18-1.45 2.14-2.54 2.9-1.06.73-2.3 1.28-3.76 1.65-1.45.34-3.02.5-4.7.5-2.53 0-4.98-.36-7.35-1.1-2.24-.75-4.25-1.82-6.08-3.2l2.03-3.8c.4.34.8.7 1.4 1.1h.02c.8.52 1.74 1 2.77 1.45 1.07.43 2.2.8 3.43 1.12 1.25.28 2.53.43 3.86.43 2.14 0 3.83-.37 5.06-1.16 1.23-.8 1.9-2.04 1.9-3.57 0-.92-.26-1.73-.76-2.37-.45-.63-1.1-1.16-1.94-1.6-.82-.45-1.8-.86-2.97-1.2-1.14-.36-2.45-.73-3.9-1.1-1.68-.45-3.13-.9-4.38-1.37-1.2-.5-2.2-1.08-3-1.74-.77-.66-1.37-1.42-1.78-2.3-.4-.88-.6-1.96-.6-3.25 0-1.6.32-3 .92-4.2.6-1.25 1.42-2.28 2.45-3.1 1.07-.85 2.32-1.5 3.77-1.92 1.45-.44 3.02-.65 4.73-.65zm146.33 0c3.17 0 5.8.66 7.92 1.98 2.03 1.24 3.54 2.88 4.6 4.9l-3.44 2.48c-.93-1.7-2.15-3.04-3.7-3.92-1.68-.96-3.53-1.43-5.53-1.43-1.64 0-3.15.37-4.5 1.1-1.35.7-2.5 1.63-3.46 2.8-.95 1.16-1.7 2.5-2.2 4.03-.5 1.54-.74 3.13-.74 4.8 0 1.74.27 3.4.83 4.93.6 1.53 1.37 2.87 2.36 4.02 1 1.15 2.2 2.07 3.6 2.76 1.38.66 2.9 1 4.5 1 1.77 0 3.46-.42 5.07-1.24 1.64-.82 3.18-2.1 4.63-3.86l.1-.1v-4.16h-7.1v-3.15h10.77V33.6h-3.67v-4.76l-.7.7c-2.78 2.88-5.94 4.3-9.54 4.3-2.2 0-4.24-.45-6.12-1.34-1.9-.93-3.52-2.17-4.92-3.7-1.4-1.56-2.5-3.35-3.3-5.4-.77-2.05-1.16-4.2-1.16-6.42 0-2.24.4-4.36 1.16-6.37.8-2 1.9-3.77 3.3-5.3 1.4-1.5 3.04-2.7 4.96-3.56 1.92-.9 4-1.34 6.26-1.34zM96.54.64h13.77c1.48 0 2.8.3 4.02.9 1.26.62 2.32 1.42 3.2 2.43.9.98 1.58 2.1 2.08 3.4.52 1.26.78 2.54.78 3.85 0 1.38-.24 2.7-.74 4-.46 1.26-1.1 2.4-1.97 3.4-.85.97-1.88 1.76-3.1 2.37-1.2.57-2.5.86-3.97.86h-9.53V33.6h-4.53zm33.37 0h4.54V33.6h-4.53zm13.57 0h27.08v3.9h-11.23V33.6h-4.58V4.55h-11.27zm33 0h27.08v3.9h-11.23V33.6h-4.58V4.55h-11.27zm68.9 0h17c1.13 0 2.12.23 3 .7.92.5 1.68 1.12 2.32 1.9.63.76 1.1 1.64 1.44 2.64.37 1 .55 1.97.55 2.96 0 1.58-.4 3.06-1.24 4.46-.78 1.36-1.9 2.36-3.38 3.03l-.98.44 1.03.3c1.86.55 3.3 1.54 4.35 3 1.1 1.42 1.64 3.14 1.64 5.23 0 1.3-.27 2.46-.8 3.47h-.02c-.5 1.04-1.22 1.9-2.12 2.64-.88.7-1.93 1.25-3.15 1.65-1.23.37-2.54.55-3.93.55h-15.72zm35.4 0h4.54v16.72c0 1.57.16 3.1.45 4.6.33 1.46.85 2.8 1.57 3.97.77 1.17 1.77 2.12 3 2.85 1.28.7 2.82 1.05 4.62 1.05 1.82 0 3.37-.36 4.62-1.1 1.22-.73 2.2-1.68 2.94-2.84.75-1.2 1.28-2.52 1.57-4 .33-1.48.5-3 .5-4.54V.64h4.57v16.72c0 2.28-.27 4.43-.8 6.46-.52 1.98-1.36 3.72-2.5 5.23-1.13 1.47-2.6 2.63-4.42 3.5-1.77.85-3.93 1.3-6.48 1.3-2.65 0-4.87-.46-6.67-1.35-1.8-.92-3.23-2.13-4.33-3.63-1.1-1.54-1.9-3.3-2.4-5.3-.5-1.98-.76-4.06-.76-6.2zm40 0h14.28c1.47 0 2.8.3 4 .9 1.27.62 2.34 1.42 3.22 2.43.9.98 1.58 2.1 2.07 3.4.52 1.26.78 2.54.78 3.85 0 1.1-.15 2.16-.46 3.17-.3 1-.73 1.93-1.28 2.8-.55.84-1.22 1.58-2 2.22-.8.6-1.66 1.06-2.6 1.36l-.48.16 7.83 12.66h-5.1l-7.32-11.74h-8.4V33.6h-4.54zm73.04 0h4.55v14.12h17.8V.64h4.6V33.6h-4.6V18.72h-17.8V33.6h-4.54zm-143.9 3.8V15.2h10.2c.72 0 1.38-.15 1.97-.43.62-.28 1.15-.63 1.6-1.08.48-.5.84-1.06 1.08-1.7.27-.67.4-1.4.4-2.16 0-1.53-.43-2.83-1.33-3.83-.9-1-2.07-1.55-3.43-1.55zm-148.83.1v13.4H110.27c.8 0 1.56-.17 2.22-.52.68-.34 1.26-.82 1.74-1.44.48-.6.85-1.3 1.1-2.1.28-.82.4-1.7.4-2.66 0-1-.14-1.9-.44-2.7-.3-.8-.73-1.5-1.27-2.08-.54-.6-1.17-1.07-1.9-1.38-.67-.34-1.4-.5-2.15-.5zm224.22 0v13.4H335c.82 0 1.57-.17 2.24-.52.68-.38 1.26-.87 1.74-1.48.48-.65.84-1.37 1.1-2.17.28-.8.4-1.65.4-2.55 0-.9-.16-1.76-.5-2.57-.3-.8-.7-1.5-1.25-2.1-.5-.6-1.12-1.1-1.83-1.43-.68-.38-1.42-.57-2.18-.57zm-74.6.7h9.7c1.16 0 2.07.42 2.83 1.3.75.84 1.14 1.92 1.14 3.3 0 .7-.12 1.3-.35 1.85-.2.56-.5 1.03-.92 1.43-.37.38-.82.68-1.35.92-.5.23-1.03.34-1.65.34h-9.4zm-148.83.1h8.1c.65 0 1.25.14 1.83.44h.02c.6.27 1.15.66 1.62 1.2.48.5.85 1.1 1.1 1.8.28.72.42 1.53.42 2.44 0 .88-.12 1.68-.36 2.4s-.57 1.34-.98 1.88c-.4.52-.9.92-1.5 1.22-.53.28-1.15.43-1.85.43h-8.4zm224.2 0h8.65c.63 0 1.23.16 1.8.48h.02c.62.3 1.14.7 1.6 1.23.47.55.84 1.17 1.1 1.9.3.7.46 1.46.46 2.27 0 .82-.12 1.58-.36 2.3-.24.73-.57 1.37-1 1.93-.4.53-.9.95-1.48 1.27-.54.3-1.15.43-1.85.43h-8.92zm-76.16 13.33v11.1h11.2c.75 0 1.45-.12 2.1-.4h.02c.64-.3 1.2-.7 1.68-1.18v-.02c.5-.5.86-1.1 1.13-1.73.28-.7.4-1.4.4-2.15 0-.74-.12-1.46-.4-2.14-.23-.67-.57-1.26-1-1.78-.43-.5-.95-.93-1.56-1.24-.63-.3-1.3-.47-2.03-.47zm.8.8h10.74c.6 0 1.16.12 1.67.38.53.26.96.6 1.3 1.04h.02c.37.43.67.94.87 1.53v.02c.23.6.35 1.2.35 1.85 0 .65-.12 1.26-.35 1.84-.23.56-.56 1.06-.97 1.5-.4.4-.88.74-1.44 1-.56.23-1.15.35-1.8.35h-10.4z"/><path d="M246.65 45.37c-.43 0-.83.05-1.2.16-.36.1-.68.26-.95.48-.27.22-.5.5-.64.8-.15.3-.22.67-.22 1.07 0 .33.05.62.17.87.12.25.3.46.5.63.23.17.5.3.82.42.32.1.68.2 1.1.3.36.1.68.2.96.28.3.08.53.18.7.28.2.1.32.23.4.36.1.13.14.3.14.5 0 .37-.13.62-.4.8-.3.2-.72.3-1.27.3-.3 0-.6-.04-.87-.1-.27-.07-.52-.15-.76-.24-.24-.1-.45-.22-.63-.34h-.02c-.18-.13-.32-.25-.44-.37l-.12-.13-.63 1.12.08.07c.46.37.98.66 1.54.86.57.2 1.18.3 1.8.3.43 0 .82-.06 1.2-.14.36-.1.68-.24.95-.43.28-.2.5-.45.66-.75.16-.3.24-.66.24-1.06 0-.38-.07-.7-.2-.97-.14-.27-.33-.5-.6-.7-.23-.17-.53-.32-.88-.43-.35-.13-.72-.23-1.14-.32-.36-.1-.67-.16-.93-.24-.26-.07-.47-.15-.64-.25-.17-.08-.27-.2-.34-.3-.07-.13-.1-.28-.1-.48 0-.38.1-.65.37-.86.26-.2.7-.32 1.3-.32.23 0 .44.02.65.07.22.06.42.12.6.2.2.07.35.15.5.25.13.1.24.18.32.28l.12.14.1-.16.53-.9-.1-.1c-.34-.27-.74-.5-1.2-.67-.44-.17-.95-.26-1.5-.26zm28.22 0c-.62 0-1.18.13-1.67.37-.5.25-.9.56-1.25.96-.34.4-.6.84-.77 1.33-.17.5-.26.98-.26 1.48 0 .54.1 1.06.28 1.57.2.5.46.96.8 1.36.35.4.77.72 1.24.97.48.25 1 .37 1.57.37.33 0 .66-.04 1-.12.33-.1.64-.2.94-.38.3-.16.57-.36.8-.6.25-.24.44-.52.58-.84l.04-.1-1.07-.6-.07.13c-.1.24-.25.44-.4.6-.18.17-.36.3-.55.43-.2.1-.4.17-.6.22-.22.05-.42.07-.62.07-.38 0-.73-.1-1.05-.25-.3-.17-.6-.4-.83-.67-.24-.28-.42-.6-.56-.96-.12-.37-.2-.76-.2-1.16 0-.37.07-.73.18-1.08.1-.37.28-.7.5-.97.23-.27.5-.5.82-.67.33-.18.7-.27 1.12-.27.2 0 .4.02.6.07.2.04.4.1.57.2.18.1.36.24.5.4.17.16.3.36.43.6l.06.15 1.02-.67-.05-.1c-.26-.54-.66-.98-1.2-1.3-.53-.35-1.17-.52-1.9-.52zm-43.6.06v8.28H234.18c.6 0 1.15-.1 1.64-.3.5-.2.93-.47 1.28-.83.35-.37.62-.8.8-1.3.2-.52.3-1.1.3-1.7 0-.58-.1-1.1-.27-1.6-.16-.5-.4-.95-.75-1.33-.34-.37-.76-.67-1.26-.9-.5-.2-1.08-.3-1.74-.3zm8.93 0v8.28H241.48v-8.27zm10.7 0v1.16h2.77v7.1h1.28v-7.1h2.77v-1.17zm8.53 0v8.28H260.7v-2.87h1.93l1.83 2.88h1.46l-2-3.14c.22-.07.42-.15.6-.28.2-.16.4-.35.55-.57.16-.2.28-.46.36-.73.08-.27.13-.56.13-.85 0-.33-.07-.66-.2-.97-.12-.32-.3-.6-.52-.86-.23-.28-.5-.48-.8-.63-.33-.16-.67-.24-1.04-.24zm8.24 0v8.28h1.29v-8.27zm11.53 0v1.16h2.77v7.1h1.28v-7.1H286v-1.17zm-32.55.2c.52 0 1 .08 1.42.24.38.15.72.36 1.03.6l-.33.57c-.08-.07-.15-.15-.26-.22-.14-.1-.32-.2-.5-.26-.2-.1-.42-.16-.66-.2-.23-.06-.46-.1-.72-.1-.64 0-1.13.13-1.46.4-.3.25-.47.62-.47 1.06 0 .23.03.43.13.6.1.17.24.3.43.42.2.1.42.2.7.28.26.07.58.15.94.23.4.1.78.2 1.1.32.33.1.6.24.83.4.22.17.4.36.5.6.1.22.18.5.18.85 0 .36-.07.68-.2.94-.14.26-.34.48-.6.65-.22.18-.5.3-.85.4-.34.08-.72.12-1.12.12-.6 0-1.18-.1-1.72-.28-.5-.17-.94-.44-1.36-.76l.35-.6c.1.1.2.18.34.28.2.13.43.25.67.36h.02c.25.1.52.2.8.26.3.06.6.1.93.1.6 0 1.06-.1 1.4-.33.35-.23.54-.6.54-1.03 0-.25-.07-.46-.2-.64-.1-.18-.27-.33-.48-.45-.2-.12-.46-.22-.76-.3-.3-.1-.62-.18-1-.27-.4-.1-.74-.2-1.05-.32-.28-.1-.53-.24-.73-.38-.2-.15-.33-.32-.42-.53-.1-.2-.15-.45-.15-.76 0-.36.07-.68.2-.96.14-.26.32-.5.56-.68.25-.2.53-.34.87-.43.34-.1.7-.16 1.12-.16zm28.22.02c.7 0 1.28.15 1.77.46.46.3.78.7 1 1.13l-.56.37c-.1-.2-.23-.4-.38-.55-.17-.2-.37-.33-.58-.45-.2-.1-.43-.2-.65-.23-.22-.05-.43-.07-.65-.07-.46 0-.88.1-1.25.3-.35.18-.65.44-.9.75-.24.3-.42.66-.55 1.05-.1.38-.17.77-.17 1.16 0 .43.07.85.2 1.25.16.4.36.75.62 1.05.26.3.57.55.92.73.35.2.74.28 1.16.28.22 0 .44-.03.67-.08.24-.06.47-.14.68-.26.22-.13.42-.3.6-.47.16-.16.28-.35.4-.56l.6.33c-.1.24-.25.46-.44.66-.22.2-.47.4-.75.54-.26.15-.56.27-.87.35-.32.07-.62.1-.92.1-.52 0-1-.1-1.44-.34-.44-.23-.83-.53-1.16-.9-.32-.38-.57-.8-.75-1.28-.18-.5-.26-.97-.26-1.47 0-.46.07-.92.23-1.38.16-.47.4-.88.72-1.24.32-.37.7-.67 1.16-.9.47-.22.98-.33 1.57-.33zm-43.33.04h2.64c.63 0 1.17.1 1.63.3.48.2.87.47 1.18.82.32.35.55.76.7 1.23.16.47.24.97.24 1.5 0 .6-.1 1.14-.26 1.62-.18.47-.43.88-.75 1.22-.32.32-.7.58-1.18.77-.45.18-.97.27-1.54.27h-2.64zm8.92 0h.75v7.74h-.74zm10.7 0h6.3v.63h-2.77v7.1h-.76v-7.1h-2.77zm8.54 0h3.3c.33 0 .63.06.9.2.3.14.54.32.73.56.2.23.37.5.5.78.1.3.16.58.16.88 0 .27-.05.52-.13.78-.07.24-.17.46-.32.66-.13.2-.3.37-.5.5-.2.15-.4.25-.64.32l-.17.04 1.9 3.02h-.82l-1.82-2.88h-2.33v2.88h-.75zm8.24 0h.75v7.74h-.76zm11.52 0h6.3v.63h-2.78v7.1h-.75v-7.1h-2.77zm-47.17.63v6.47h1.88c.48 0 .9-.08 1.27-.24.38-.17.7-.4.94-.7.24-.3.43-.63.56-1.02.13-.4.2-.83.2-1.28 0-.47-.07-.9-.2-1.3s-.32-.73-.58-1.02c-.25-.28-.57-.5-.94-.66-.37-.17-.8-.25-1.26-.25zm28.15 0v3.6H263c.24 0 .45-.06.63-.16.2-.1.35-.23.5-.4.12-.16.22-.36.3-.57.06-.22.1-.45.1-.68 0-.24-.05-.47-.13-.68-.1-.2-.2-.4-.34-.56-.14-.18-.3-.3-.5-.4-.2-.1-.4-.15-.62-.15zm-27.9.26h1.63c.44 0 .82.07 1.16.22.34.14.6.34.84.6.24.26.4.56.53.93s.2.77.2 1.2c0 .44-.07.84-.2 1.2-.1.37-.28.68-.5.94-.23.26-.5.46-.85.6-.34.16-.72.24-1.17.24h-1.63zm28.16 0h2.24c.17 0 .34.03.5.12.16.07.3.18.4.32h.02c.12.15.22.3.3.5.07.18.1.37.1.58 0 .2-.03.4-.1.6-.05.18-.14.35-.25.5-.1.13-.23.24-.4.32-.13.08-.3.12-.5.12h-2.3z"/><path d="M225.8 48.95c1.9 0 3.6.14 3.6.3v.65c0 .16-1.7.3-3.6.3H99.78c-1.9 0-3.63-.14-3.63-.3v-.65c0-.16 1.72-.3 3.63-.3H225.8"/><path d="M417.53 48.95c1.9 0 3.6.14 3.6.3v.65c0 .16-1.7.3-3.6.3H291.5c-1.9 0-3.63-.14-3.63-.3v-.65c0-.16 1.72-.3 3.62-.3h126.03"/></g><path d="M253.25 73.28c.25 0 .47.14.47.3v.65c0 .16-.22.3-.47.3h-16.48c-.25 0-.48-.14-.48-.3v-.64c0-.18.22-.32.47-.32h16.48m-3.6 5.66c0-.1.07-.16.16-.16h3.24c.1 0 .15.07.15.16v.45c0 .07-.07.14-.16.14h-2.55v1.65h2.14c.08 0 .16.06.16.15v.45c0 .1-.08.15-.16.15h-2.15v1.74h2.54c.1 0 .15.06.15.14v.45c0 .07-.07.14-.16.14h-3.23c-.08 0-.15-.07-.15-.15v-5.36m-7.42 0c0-.1.08-.16.16-.16h.52c.1 0 .15.07.15.16v2.25h2.96v-2.26c0-.1.07-.16.16-.16h.52c.08 0 .15.07.15.16v5.35c0 .07-.07.14-.15.14h-.53c-.1 0-.17-.07-.17-.15v-2.35h-2.96v2.34c0 .07-.06.14-.15.14h-.53c-.1 0-.17-.07-.17-.15v-5.36m-4.4.6h-1.3c-.1 0-.16-.07-.16-.15v-.46c0-.1.06-.16.15-.16H240c.08 0 .15.07.15.16v.45c0 .07-.07.14-.15.14h-1.32v4.75c0 .07-.07.14-.15.14H238c-.1 0-.16-.07-.16-.15v-4.76m9.24-14.36c0-.08.07-.15.16-.15h3.23c.1 0 .15.07.15.15v.45c0 .1-.06.16-.15.16h-2.56v1.86h2.17c.08 0 .16.07.16.15v.46c0 .08-.08.15-.16.15h-2.16v2.14c0 .08-.06.15-.14.15h-.53c-.08 0-.15-.08-.15-.16v-5.36m-5.27 4.78c1.16 0 2.1-.94 2.1-2.1 0-1.14-.94-2.1-2.1-2.1-1.14 0-2.1.96-2.1 2.1 0 1.16.96 2.1 2.1 2.1zm0-5c1.62 0 2.92 1.3 2.92 2.9 0 1.62-1.3 2.9-2.9 2.9-1.63 0-2.92-1.28-2.92-2.9 0-1.6 1.3-2.9 2.9-2.9m167.6.94c0-.27.22-.52.52-.52h10.7c.3 0 .52.25.52.52v.78c0 .28-.22.52-.52.52h-9.12v6.63h7.8c.27 0 .5.24.5.5v.8c0 .3-.23.52-.5.52h-7.8v6.92h9.12c.3 0 .52.25.52.52v.78c0 .27-.22.5-.52.5h-10.7c-.3 0-.5-.23-.5-.5V65.9m-24.02-.3c0-.27.24-.5.5-.5h.7l12.24 15.27c.03 0 .03 0 .05 0V65.9c0-.27.2-.52.5-.52h.96c.27 0 .5.25.5.52v18.28c0 .27-.23.5-.5.5h-.5L387.42 69.1h-.02v14.78c0 .27-.22.5-.52.5h-.95c-.26 0-.5-.23-.5-.5V65.6m-19.07.3c0-.27.2-.52.5-.52h10.7c.3 0 .53.25.53.52v.78c0 .28-.22.52-.52.52h-9.12v6.63h7.8c.26 0 .5.24.5.5v.8c0 .3-.24.52-.5.52h-7.8v6.92h9.12c.3 0 .52.25.52.52v.78c0 .27-.22.5-.52.5h-10.7c-.3 0-.5-.23-.5-.5V65.9m-13.54 9.26c2.1 0 3.9-1.74 3.9-3.97 0-2.07-1.8-3.84-3.9-3.84h-5.27v7.8zm-7.42-9.26c0-.27.22-.52.52-.52h7.03c3.26 0 5.92 2.56 5.92 5.8 0 2.5-1.65 4.58-4.02 5.53l3.72 6.9c.2.36 0 .8-.46.8h-1.4c-.24 0-.37-.14-.43-.25l-3.6-7.2h-5.2v6.93c0 .27-.24.5-.5.5h-1.07c-.3 0-.52-.23-.52-.5V65.9m-10.7 12.03c-1.33-2.96-2.64-5.95-3.97-8.9h-.2l-3.97 8.9zm-12.9 5.76l8.25-18.3c.08-.15.22-.3.46-.3h.27c.24 0 .38.14.46.3l8.2 18.3c.16.34-.05.7-.46.7h-1.1c-.23 0-.4-.17-.45-.3l-2-4.5h-9.65l-1.98 4.5c-.07.13-.23.3-.48.3h-1.08c-.4 0-.63-.36-.46-.7m-16.85-.3l9.86-16.04v-.08h-8.56c-.27 0-.52-.24-.52-.5v-.88c0-.27.25-.52.52-.52h11c.27 0 .52.25.52.52v.35l-10.03 16.2v.04h8.97c.3 0 .5.24.5.5v.88c0 .27-.2.5-.5.5h-11.25c-.27 0-.52-.23-.52-.5v-.5m-8.74-5.45c-1.34-2.96-2.65-5.95-3.98-8.9H292l-3.96 8.9zm-12.9 5.76l8.24-18.3c.1-.15.22-.3.46-.3h.28c.24 0 .38.15.46.3l8.2 18.3c.16.34-.05.7-.46.7h-1.1c-.23 0-.4-.17-.45-.3l-2-4.5h-9.65l-1.98 4.5c-.06.13-.22.3-.47.3h-1.08c-.4 0-.63-.36-.46-.7m-21.42-18.1c0-.27.24-.5.52-.5h.68l12.24 15.27c.03 0 .03 0 .06 0V65.9c0-.27.2-.52.5-.52h.97c.27 0 .5.25.5.52v18.28c0 .27-.23.5-.5.5h-.5L263.9 69.1h-.04v14.78c0 .27-.2.5-.5.5h-.96c-.28 0-.52-.23-.52-.5V65.6m-50.8 0c0-.26.24-.5.5-.5h1.07c.3 0 .52.24.52.5v7.94h11.02V65.6c0-.26.2-.5.5-.5h1.07c.27 0 .5.24.5.5v18c0 .26-.23.5-.5.5h-1.06c-.3 0-.5-.24-.5-.5v-8.24h-11.03v8.23c0 .26-.22.5-.52.5h-1.06c-.28 0-.53-.24-.53-.5v-18m-14.18-.78c2.74 0 4.72.95 6.57 2.53.2.22.24.54.02.76l-.74.74c-.22.27-.43.25-.7-.03-1.42-1.2-3.35-2.02-5.2-2.02-4.28 0-7.57 3.6-7.57 7.82 0 4.18 3.28 7.8 7.57 7.8 2.36 0 3.74-.96 5.18-2.04.28-.22.5-.2.66-.08l.82.73c.22.17.16.55-.03.74-1.85 1.8-4.2 2.64-6.6 2.64-5.44 0-9.8-4.32-9.8-9.75s4.36-9.8 9.8-9.8m-22.36 10.04c2.1 0 3.9-1.74 3.9-3.96 0-2.06-1.8-3.82-3.9-3.82h-5.27v7.8zm-7.42-9.26c0-.26.22-.5.52-.5h7.03c3.26 0 5.93 2.55 5.93 5.78 0 2.5-1.66 4.6-4.02 5.54l3.72 6.9c.2.35 0 .8-.47.8h-1.38c-.24 0-.38-.15-.43-.26l-3.62-7.2h-5.18v6.93c0 .26-.25.5-.52.5h-1.06c-.3 0-.52-.24-.52-.5v-18m-23.1 0c0-.26.26-.5.53-.5h1.03c.3 0 .52.24.52.5v11.34c0 3.1 1.93 5.5 5.1 5.5 3.2 0 5.16-2.35 5.16-5.45V65.6c0-.26.22-.5.52-.5h1.03c.28 0 .53.24.53.5v11.5c0 4.13-2.94 7.28-7.23 7.28-4.26 0-7.17-3.15-7.17-7.28V65.6m-23.9 0c0-.26.24-.5.52-.5h1.05c.3 0 .52.24.52.5v7.94h11.03V65.6c0-.26.22-.5.5-.5h1.07c.28 0 .52.24.52.5v18c0 .26-.24.5-.52.5h-1.06c-.3 0-.5-.24-.5-.5v-8.24H122.2v8.23c0 .26-.22.5-.52.5h-1.05c-.28 0-.52-.24-.52-.5v-18m-14.18-.78c2.74 0 4.72.95 6.57 2.53.22.22.25.54.03.76l-.73.74c-.22.27-.44.25-.7-.02-1.42-1.23-3.35-2.04-5.2-2.04-4.3 0-7.58 3.6-7.58 7.82 0 4.18 3.3 7.8 7.58 7.8 2.36 0 3.75-.96 5.2-2.04.26-.22.48-.2.64-.08l.82.73c.2.17.16.55-.03.74-1.85 1.8-4.18 2.64-6.6 2.64-5.43 0-9.8-4.32-9.8-9.75s4.37-9.8 9.8-9.8"/></g></g></svg>