<svg xmlns="http://www.w3.org/2000/svg" width="1591.711" height="320" viewBox="0 0 421.14025 84.666667"><g><g><g transform="translate(-15.869 -186.23)"><circle cx="58.203" cy="228.563" r="41.687" fill="#fff" stroke="#101820" stroke-width="1.293"/><circle cx="58.203" cy="228.563" r="38.524" fill="none" stroke="#aca5af" stroke-width="6.467"/></g><g><g stroke="#101820" stroke-width=".641"><path fill="#ffb612" d="M42.35 8.65A29.3 29.3 0 0 0 27.7 33.98 29.3 29.3 0 0 0 42.32 59.3 29.3 29.3 0 0 0 56.98 34 29.3 29.3 0 0 0 42.35 8.65z"/><path fill="#c60c30" d="M42.34 33.98a29.3 29.3 0 0 0-14.36 3.8 29.3 29.3 0 0 0 29 25.5 29.3 29.3 0 0 0 14.36-3.8 29.3 29.3 0 0 0-29-25.5z"/><path fill="#003087" fill-opacity=".941" d="M42.34 33.98a29.3 29.3 0 0 0-29.02 25.5 29.3 29.3 0 0 0 14.37 3.8 29.3 29.3 0 0 0 29-25.52 29.3 29.3 0 0 0-14.36-3.78z"/><path fill="#101820" d="M42.33 33.98a29.3 29.3 0 0 0-14.36 3.8 29.3 29.3 0 0 0 .52 2.83 29.3 29.3 0 0 0 .03.2 29.3 29.3 0 0 0 .74 2.57 29.3 29.3 0 0 0 .14.36 29.3 29.3 0 0 0 .93 2.3 29.3 29.3 0 0 0 .26.54 29.3 29.3 0 0 0 1.04 2 29.3 29.3 0 0 0 .42.7A29.3 29.3 0 0 0 33.2 51a29.3 29.3 0 0 0 .6.8 29.3 29.3 0 0 0 1.16 1.43 29.3 29.3 0 0 0 .86.92 29.3 29.3 0 0 0 1.13 1.14 29.3 29.3 0 0 0 1.1.97 29.3 29.3 0 0 0 1.07.87 29.3 29.3 0 0 0 1.4 1 29.3 29.3 0 0 0 1.12.75 29.3 29.3 0 0 0 .55.32 29.3 29.3 0 0 0 .13.08 29.3 29.3 0 0 0 .2-.12 29.3 29.3 0 0 0 2.14-1.4 29.3 29.3 0 0 0 .48-.35 29.3 29.3 0 0 0 1.77-1.4 29.3 29.3 0 0 0 .65-.62 29.3 29.3 0 0 0 1.4-1.37 29.3 29.3 0 0 0 .8-.9 29.3 29.3 0 0 0 1.06-1.27 29.3 29.3 0 0 0 .88-1.22 29.3 29.3 0 0 0 .77-1.12 29.3 29.3 0 0 0 .9-1.57 29.3 29.3 0 0 0 .5-.93 29.3 29.3 0 0 0 .85-1.9 29.3 29.3 0 0 0 .3-.72 29.3 29.3 0 0 0 .75-2.27 29.3 29.3 0 0 0 .14-.45 29.3 29.3 0 0 0 .6-2.62 29.3 29.3 0 0 0 .03-.2 29.3 29.3 0 0 0 .17-1.07 29.3 29.3 0 0 0-1-.53 29.3 29.3 0 0 0-1.26-.64 29.3 29.3 0 0 0-1.4-.57 29.3 29.3 0 0 0-1.32-.5 29.3 29.3 0 0 0-1.43-.43 29.3 29.3 0 0 0-1.4-.38 29.3 29.3 0 0 0-1.45-.28 29.3 29.3 0 0 0-1.43-.24 29.3 29.3 0 0 0-1.46-.13 29.3 29.3 0 0 0-1.74-.1 29.3 29.3 0 0 0-.5-.02z"/></g><path fill="#fff" d="M32.8 49.02c0 .13.1.24.24.24.13 0 .24-.1.24-.24 0-.14-.1-.24-.24-.24-.14 0-.24.1-.24.24m.04 0c0-.1.1-.2.2-.2s.2.1.2.2-.1.2-.2.2-.2-.1-.2-.2m.1.1s.02.02.03.02c.02 0 .03 0 .03 0v-.1h.05l.03.1s0 0 .02 0h.02s.02 0 0-.02c0-.02-.02-.05-.03-.08 0 0 .05-.02.05-.07s-.05-.08-.1-.08h-.08s-.02 0-.02 0zm.06-.1v-.1h.06c.03 0 .04.03.04.05 0 .02 0 .04-.04.04H33m2.96.35l-.03.08c0 .03-.02.04-.03.04h-.25l-.17.54c0 .03-.03.04-.05.04h-.1c-.02 0-.03 0-.03-.03l.17-.53h-.25s-.02-.02 0-.04l.02-.1s.02-.03.03-.03h.25l.08-.25s.03-.03.05-.03h.1s.03.02.03.03l-.08.25h.25s0 .03 0 .05zm-.92-.56c-.05.6-.28.95-.56 1.23-.1.1-.3.23-.3.23.07.07.88.04.96.04.03.13 0 .33-.15.78.5-.04 1.08-.52 1.2-1.1.05-.16.12-.36.14-.55.05-.32.12-.63.12-.64-.48 0-.95 0-1.42 0m16.82-.6c0-.03-.07-.1-.14-.1-.23-.05-.92-.15-1.47-.27-1.47-.35-3.33-1-4.17-.74-.73.22-1.26.97-1.42 1.2-.05.07.03.08.03.08h7.08s.04 0 .05 0c0-.02.04-.03.04-.06 0-.02 0-.1 0-.12M33.78 48c.3-.06 1.3-.16 2.06-.32 2.1-.44 4.85-1.22 6.06-.93 1.17.28 1.72 1.25 1.86 1.54.04.07-.05.07-.05.07H33.7s-.12 0-.13-.08c0-.06-.05-.24.22-.3M42 39.6c.78.3 1.2-.78.7-1.4-.1-.1.07-.06.14-.03.26.12.75.4 1.04 1.08.2.45-.07 1.14-.47 1.28-.37-.18-1.17-.54-1.4-.94m2.25 6.22c.13.2 0 .47-.3.13-.1-.12-.18-.27-.1-.3.08-.03.3.04.4.17m-1.94-6.06c-1.2-.76-1.6-.74-1.43-2.3.15-.9.54-1.45.7-1.65.1-.1.1 0 .1 0-1.36 3 .68 4.02.64 3.96m-6.52-2.56c-.02-.65.6-1.8.6-1.42 0 .4-.8 2.95 3.65 5.85.05.03.07.1.03.1-1.8 0-2.75-.7-3.4-1.2-.7-.58-.95-1.2-1.03-1.45-.05-.13.03-.1.04-.07.36.52 1.33 1.6 2.1 1.8 0 0-2.02-1.55-1.98-3.6m5.67-2.25c-1.37 2.02-.57 3.48-.45 3.67.54.88 1.85 1.35 3.6 2.72.2.13 1.7 1.6 1.65 3.15 0 .14-.02.24 0 .23.4-.1 1.6-2 .57-3.7-.67-1.12-3.04-2.7-3.05-2.7-.2-.12.64.06 1.3.38 1.2.58 5.58 3.24 1.12 7.22-.72.64-1.88 2-2.1 2.2-.03.05-.04.02-.05 0-.24-.38-.12-2-2.77-2-1.36 0-3.3.07-5-.6-3.06-1.2-2.9-3.64-2.66-4.64.25-1.36 1.42-1.8 1.4-1.7-.1.55-.7 2.38.04 3.74 1.52 3.1 5.3 1.94 7.5 2.7 1.6.54 1.5 1.42 1.66 1.7.06.1.56-.63.88-1.25.4-.8.35-2.1-.2-3.1-.24-.45-1-1.24-3.02-2.46-4.16-2.5-.7-5.72-.43-5.55m2.97 13.84c1.87 0 6.35 0 6.77 0 .1 0 .46-.02.54 0 .07 0 .06.4-.02.44-.08 0-5.47 0-7.3 0-.03 0-.05-.03-.06-.04-.02-.03-.02-.35 0-.38.02-.03.04-.03.07-.03m-10.92 0c.27 0 .94 0 1 0 0 0 .14 0 .17 0 .17 0 .04.38.02.4-.03.05-.18.04-.2.04-.06 0-.72 0-1 0-.03 0-.06-.03-.07-.04 0-.03 0-.34 0-.37 0-.03.04-.04.08-.04m3.2 0c.83 0 2.36 0 3.77-.02 1.7 0 3.17 0 3.27 0 0 0 .04.03.05.06.02.08.02.27 0 .36-.02.02-.04.04-.06.05-.1 0-7.12 0-7.2 0-.02 0 .07-.4.08-.43.02-.02.04-.03.07-.03"/></g></g><g fill="#101820"><g><path fill="#ffb612" stroke="#101820" stroke-width=".794" d="M421.14.24V34h-5.37V19.12h-17.03V34h-5.32V.24h5.32v14.12h17.03V.24zm-42 29.57q-4.3 4.44-9.85 4.44-3.4 0-6.3-1.38-2.9-1.43-5.03-3.8-2.14-2.38-3.38-5.52-1.2-3.14-1.2-6.56 0-3.43 1.2-6.52 1.23-3.1 3.37-5.42 2.14-2.33 5.1-3.66Q366 0 369.46 0q4.86 0 8.14 2.04 3.3 2 4.95 5.33l-4.1 2.95q-1.37-2.76-3.8-4.14-2.42-1.38-5.32-1.38-2.37 0-4.32 1.05-1.94 1-3.32 2.7-1.38 1.67-2.14 3.9-.7 2.24-.7 4.67 0 2.57.8 4.8.85 2.24 2.28 3.9 1.47 1.66 3.47 2.66 1.98.95 4.3.95 2.58 0 4.9-1.18 2.4-1.2 4.53-3.76v-3.63h-7.1v-3.94h11.57V34h-4.47zM320.35 34V.24h14.7q2.28 0 4.18.95 1.95.94 3.33 2.5 1.38 1.53 2.14 3.53.82 1.95.82 4 0 1.7-.48 3.27t-1.33 2.9q-.85 1.34-2.08 2.33-1.24.95-2.7 1.43L346.84 34h-6.04l-7.3-11.75h-7.8V34zm5.33-16.45h9.3q1.15 0 2.05-.48.95-.52 1.62-1.38.66-.9 1.04-2.05.4-1.14.4-2.43 0-1.28-.48-2.42-.43-1.14-1.2-2-.7-.86-1.7-1.33-.95-.52-2-.52h-9.03zm-30.76 11.88q2.66 0 4.42-1.04 1.76-1.06 2.8-2.72 1.1-1.7 1.53-3.85.46-2.2.46-4.47V.24h5.37v17.12q0 3.47-.8 6.56-.8 3.04-2.57 5.37-1.76 2.27-4.57 3.6-2.77 1.34-6.66 1.34-4.05 0-6.85-1.38-2.77-1.43-4.48-3.76-1.7-2.38-2.47-5.42-.76-3.04-.76-6.32V.24h5.3v17.12q0 2.33.44 4.5.47 2.15 1.52 3.87 1.1 1.66 2.85 2.7 1.82 1 4.44 1zm-23.42-4.13q0 2.04-.86 3.66-.8 1.62-2.24 2.76-1.37 1.1-3.28 1.7-1.9.58-4.04.58h-16.12V.24h17.4q1.77 0 3.2.76 1.42.76 2.42 2 1 1.18 1.52 2.75.57 1.53.57 3.1 0 2.47-1.3 4.65-1.23 2.14-3.56 3.2 2.9.85 4.56 3.13 1.72 2.23 1.72 5.47zm-5.47-1q0-1.05-.38-2-.34-.95-.95-1.66-.57-.72-1.43-1.14-.87-.43-1.87-.43H250.3V29.4h10.8q1.05 0 1.95-.4.9-.42 1.57-1.1.67-.7 1.05-1.6.38-.96.38-2zM250.3 4.85v9.94h9.8q1 0 1.8-.4.87-.37 1.48-1 .67-.66 1-1.56.38-.9.38-2 0-2.18-1.23-3.56-1.24-1.43-3.14-1.43zm-18.16 3.33q-.48-.52-1.38-1.1-.9-.6-2.14-1.14-1.2-.52-2.66-.85-1.43-.34-2.95-.34-3.37 0-4.98 1.23-1.57 1.23-1.57 3.42 0 1.23.47 2.04.53.76 1.57 1.38 1.04.57 2.6 1.04 1.58.43 3.67.96 2.57.6 4.6 1.37 2.1.78 3.53 1.87 1.43 1.1 2.2 2.7.8 1.58.8 3.86 0 2.57-1 4.42-.95 1.86-2.67 3.05-1.66 1.14-3.9 1.7-2.23.53-4.8.53-3.85 0-7.46-1.14-3.57-1.2-6.47-3.43l2.43-4.57q.6.62 1.76 1.38 1.17.76 2.7 1.43 1.56.63 3.37 1.1 1.8.43 3.76.43 3.14 0 4.85-1.1 1.7-1.1 1.7-3.23 0-1.28-.66-2.14-.6-.85-1.8-1.47-1.2-.68-2.9-1.2-1.7-.52-3.9-1.1-2.52-.66-4.42-1.37-1.86-.76-3.1-1.8-1.23-1.06-1.9-2.44-.62-1.43-.62-3.43 0-2.47.96-4.37.95-1.95 2.56-3.24 1.67-1.33 3.9-2 2.24-.66 4.85-.66 3.43 0 6.33 1.1t5.08 2.7zm-28.2-3.23h-11.22V34h-5.37V4.95h-11.27V.25h27.86zm-33 0h-11.22V34h-5.37V4.95h-11.27V.25h27.86zM129.52 34V.24h5.32V34zm-33.38 0V.24h14.17q2.3 0 4.2.95 1.95.94 3.33 2.5 1.38 1.53 2.14 3.53.8 1.95.8 4 0 2.13-.75 4.13-.72 1.95-2.05 3.52-1.33 1.52-3.23 2.47-1.86.9-4.14.9h-9.13V34zm5.33-16.45h8.8q1.14 0 2.04-.48.96-.47 1.63-1.33.66-.86 1.04-2 .4-1.14.4-2.52 0-1.42-.44-2.57-.43-1.14-1.2-1.95-.75-.85-1.75-1.28-.95-.47-2-.47h-8.5z"/><path fill="#ffb612" stroke="#101820" stroke-width=".265" d="M285.88 46.46h-2.76v7.1h-1.02v-7.1h-2.77v-.9h6.55zm-14.83 3.05q0-.7.25-1.42.26-.73.75-1.3.5-.57 1.2-.92.72-.35 1.62-.35 1.07 0 1.84.5.78.48 1.15 1.26l-.8.52q-.18-.38-.44-.64-.24-.26-.55-.42-.3-.16-.6-.22-.32-.07-.63-.07-.66 0-1.18.28-.5.28-.86.73-.35.44-.53 1-.17.56-.17 1.12 0 .64.2 1.2.22.58.6 1.02.36.44.87.7.5.26 1.1.26.32 0 .65-.08.34-.08.64-.25.3-.18.57-.44.28-.27.45-.64l.85.46q-.2.45-.55.8-.33.34-.77.58-.43.23-.92.36-.48.12-.95.12-.8 0-1.5-.36t-1.2-.94q-.5-.58-.78-1.32-.27-.74-.27-1.5zm-3.24 4.07v-8h1.02v8zm-8.24 0v-8H263q.53 0 .97.2.45.23.77.6.32.36.5.83.18.45.18.92 0 .42-.12.8-.1.4-.34.7-.2.33-.53.56-.3.22-.7.32l1.95 3.07h-1.15l-1.83-2.88h-2.12v2.87zm1.02-3.78H263q.32 0 .57-.14.26-.14.44-.36.2-.24.3-.55.1-.3.1-.63 0-.34-.13-.63-.1-.32-.3-.54-.2-.24-.48-.36-.27-.14-.56-.14h-2.36zm-3-3.34h-2.76v7.1h-1v-7.1h-2.78v-.9h6.55zm-8.78.78q-.13-.16-.36-.3-.22-.15-.5-.26-.3-.13-.63-.2-.3-.07-.68-.07-.93 0-1.37.36-.43.35-.43.95 0 .34.12.56.13.2.4.37.26.15.65.26.4.1.93.23.62.13 1.12.3.5.18.85.44.37.26.55.63.2.38.2.92 0 .57-.24 1-.2.42-.6.7-.4.27-.92.4-.53.13-1.15.13-.93 0-1.77-.28-.82-.3-1.5-.85l.5-.85q.17.2.45.38.3.2.67.35.37.15.8.25.42.1.88.1.86 0 1.33-.32.47-.3.47-.9 0-.35-.15-.58-.15-.23-.44-.4-.3-.17-.74-.3-.43-.13-.98-.27-.6-.14-1.07-.3-.46-.18-.78-.42t-.47-.57q-.16-.35-.16-.83 0-.57.2-1 .23-.45.6-.76.4-.3.93-.44.53-.16 1.15-.16.8 0 1.46.25.67.25 1.18.67zm-8.47 6.33v-8h1.02v8zm-8.93 0v-8h2.78q.96 0 1.68.3.74.32 1.22.86.5.54.73 1.28.25.73.25 1.55 0 .92-.27 1.66-.27.75-.78 1.28-.5.52-1.23.8-.7.3-1.6.3zm5.63-4.02q0-.67-.2-1.24-.18-.56-.55-.97-.36-.4-.9-.63-.52-.24-1.2-.24h-1.76v6.2h1.76q.7 0 1.22-.23.54-.23.9-.65.35-.42.53-.98.2-.58.2-1.25z"/><path d="M225.8 48.95c1.9 0 3.62.14 3.62.3v.65c0 .16-1.72.3-3.6.3H99.76c-1.9 0-3.63-.14-3.63-.3v-.65c0-.16 1.72-.3 3.63-.3H225.8"/><path d="M417.53 48.95c1.9 0 3.6.14 3.6.3v.65c0 .16-1.7.3-3.6.3H291.5c-1.9 0-3.63-.14-3.63-.3v-.65c0-.16 1.72-.3 3.62-.3h126.03"/></g><path d="M253.25 73.28c.25 0 .48.14.48.3v.65c0 .16-.23.3-.48.3h-16.48c-.25 0-.48-.14-.48-.3v-.64c0-.18.22-.32.47-.32h16.48m-3.6 5.66c0-.1.07-.16.16-.16h3.24c.1 0 .15.07.15.16v.45c0 .07-.07.14-.16.14h-2.55v1.65h2.14c.08 0 .16.06.16.15v.45c0 .1-.08.15-.16.15h-2.15v1.74h2.54c.1 0 .15.06.15.14v.45c0 .07-.07.14-.16.14h-3.23c-.08 0-.15-.07-.15-.15v-5.36m-7.42 0c0-.1.08-.16.16-.16h.52c.1 0 .15.07.15.16v2.25h2.96v-2.26c0-.1.07-.16.16-.16h.52c.08 0 .15.07.15.16v5.35c0 .07-.07.14-.15.14h-.53c-.1 0-.17-.07-.17-.15v-2.35h-2.96v2.34c0 .07-.06.14-.15.14h-.53c-.1 0-.17-.07-.17-.15v-5.36m-4.4.6h-1.3c-.1 0-.16-.07-.16-.15v-.46c0-.1.06-.16.15-.16H240c.08 0 .15.07.15.16v.45c0 .07-.07.14-.15.14h-1.32v4.75c0 .07-.07.14-.15.14H238c-.1 0-.16-.07-.16-.15v-4.76m9.24-14.36c0-.08.07-.15.16-.15h3.23c.1 0 .15.07.15.15v.45c0 .1-.06.16-.15.16h-2.56v1.86h2.17c.08 0 .16.07.16.15v.46c0 .08-.08.15-.16.15h-2.16v2.14c0 .08-.06.15-.14.15h-.52c-.1 0-.16-.08-.16-.16v-5.36m-5.27 4.78c1.16 0 2.1-.94 2.1-2.1 0-1.14-.94-2.1-2.1-2.1-1.14 0-2.1.96-2.1 2.1 0 1.16.96 2.1 2.1 2.1zm0-5c1.62 0 2.92 1.3 2.92 2.9 0 1.62-1.3 2.9-2.9 2.9-1.63 0-2.92-1.28-2.92-2.9 0-1.6 1.3-2.9 2.9-2.9m167.6.94c0-.27.23-.52.52-.52h10.7c.3 0 .52.25.52.52v.78c0 .28-.22.52-.5.52h-9.14v6.63h7.8c.27 0 .5.24.5.5v.8c0 .3-.23.52-.5.52h-7.8v6.92h9.13c.3 0 .5.25.5.52v.78c0 .27-.2.5-.5.5h-10.7c-.3 0-.52-.23-.52-.5V65.9m-24-.3c0-.27.24-.5.5-.5h.7l12.24 15.27c.03 0 .03 0 .05 0V65.9c0-.27.2-.52.5-.52h.96c.27 0 .5.25.5.52v18.28c0 .27-.23.5-.5.5h-.5L387.42 69.1h-.02v14.78c0 .27-.22.5-.52.5h-.95c-.26 0-.5-.23-.5-.5V65.6m-19.07.3c0-.27.2-.52.5-.52h10.7c.3 0 .53.25.53.52v.78c0 .28-.22.52-.52.52h-9.12v6.63h7.8c.26 0 .5.24.5.5v.8c0 .3-.24.52-.5.52h-7.8v6.92h9.12c.3 0 .52.25.52.52v.78c0 .27-.22.5-.52.5h-10.7c-.3 0-.5-.23-.5-.5V65.9m-13.54 9.26c2.1 0 3.9-1.74 3.9-3.97 0-2.07-1.8-3.84-3.9-3.84h-5.27v7.8zm-7.42-9.26c0-.27.22-.52.52-.52h7.03c3.26 0 5.92 2.56 5.92 5.8 0 2.5-1.65 4.58-4.02 5.53l3.72 6.9c.2.36 0 .8-.46.8h-1.4c-.24 0-.37-.14-.43-.25l-3.6-7.2h-5.2v6.93c0 .27-.24.5-.5.5h-1.07c-.3 0-.52-.23-.52-.5V65.9m-10.7 12.03c-1.33-2.96-2.64-5.95-3.97-8.9h-.2l-3.97 8.9zm-12.9 5.76l8.25-18.3c.1-.15.22-.3.46-.3h.27c.24 0 .38.14.46.3l8.2 18.3c.16.34-.05.7-.46.7h-1.1c-.23 0-.4-.17-.45-.3l-2-4.5h-9.65l-1.98 4.5c-.07.13-.23.3-.48.3h-1.08c-.4 0-.63-.36-.46-.7m-16.85-.3l9.86-16.04v-.08h-8.56c-.27 0-.52-.24-.52-.5v-.88c0-.27.25-.52.52-.52h11c.27 0 .52.25.52.52v.35l-10.03 16.2v.04h8.97c.3 0 .5.24.5.5v.88c0 .27-.2.5-.5.5h-11.25c-.27 0-.52-.23-.52-.5v-.5m-8.74-5.45c-1.34-2.96-2.65-5.95-3.98-8.9H292l-3.96 8.9zm-12.9 5.76l8.24-18.3c.1-.15.22-.3.46-.3h.28c.24 0 .38.15.46.3l8.2 18.3c.16.34-.05.7-.46.7h-1.1c-.23 0-.4-.17-.45-.3l-2-4.5h-9.65l-1.98 4.5c-.06.13-.22.3-.47.3h-1.08c-.4 0-.63-.36-.46-.7m-21.42-18.1c0-.27.25-.5.52-.5h.68l12.24 15.27c.03 0 .03 0 .06 0V65.9c0-.27.2-.52.5-.52h.97c.27 0 .5.25.5.52v18.28c0 .27-.23.5-.5.5h-.5L263.9 69.1h-.04v14.78c0 .27-.2.5-.5.5h-.96c-.27 0-.52-.23-.52-.5V65.6m-50.8 0c0-.26.24-.5.5-.5h1.07c.3 0 .52.24.52.5v7.94h11.02V65.6c0-.26.2-.5.5-.5h1.07c.27 0 .5.24.5.5v18c0 .26-.23.5-.5.5h-1.06c-.3 0-.5-.24-.5-.5v-8.24h-11.03v8.23c0 .26-.22.5-.52.5h-1.06c-.28 0-.53-.24-.53-.5v-18m-14.18-.78c2.74 0 4.72.95 6.57 2.53.2.22.24.54.02.76l-.74.74c-.22.27-.43.25-.7-.02-1.42-1.23-3.35-2.04-5.2-2.04-4.28 0-7.57 3.6-7.57 7.82 0 4.18 3.28 7.8 7.57 7.8 2.36 0 3.75-.96 5.18-2.04.28-.22.5-.2.66-.08l.82.73c.22.17.16.55-.03.74-1.85 1.8-4.2 2.64-6.6 2.64-5.44 0-9.8-4.32-9.8-9.75s4.36-9.8 9.8-9.8m-22.36 10.04c2.1 0 3.9-1.74 3.9-3.96 0-2.06-1.8-3.82-3.9-3.82h-5.27v7.8zm-7.42-9.26c0-.26.22-.5.52-.5h7.03c3.26 0 5.93 2.55 5.93 5.78 0 2.5-1.66 4.6-4.02 5.54l3.72 6.9c.2.35 0 .8-.47.8h-1.38c-.24 0-.38-.15-.43-.26l-3.62-7.2h-5.18v6.93c0 .26-.25.5-.52.5h-1.06c-.3 0-.52-.24-.52-.5v-18m-23.1 0c0-.26.26-.5.53-.5h1.03c.3 0 .52.24.52.5v11.34c0 3.1 1.93 5.5 5.1 5.5 3.2 0 5.17-2.35 5.17-5.45V65.6c0-.26.2-.5.5-.5h1.04c.28 0 .53.24.53.5v11.5c0 4.13-2.94 7.28-7.23 7.28-4.26 0-7.17-3.15-7.17-7.28V65.6m-23.9 0c0-.26.24-.5.52-.5h1.05c.3 0 .52.24.52.5v7.94h11.03V65.6c0-.26.22-.5.5-.5h1.07c.28 0 .52.24.52.5v18c0 .26-.24.5-.52.5h-1.06c-.3 0-.5-.24-.5-.5v-8.24H122.2v8.23c0 .26-.22.5-.52.5h-1.05c-.28 0-.52-.24-.52-.5v-18m-14.18-.78c2.74 0 4.72.95 6.57 2.53.22.22.25.54.03.76l-.73.74c-.22.27-.44.25-.7-.02-1.42-1.23-3.35-2.04-5.2-2.04-4.3 0-7.58 3.6-7.58 7.82 0 4.18 3.3 7.8 7.58 7.8 2.37 0 3.75-.96 5.2-2.04.26-.22.48-.2.64-.08l.82.73c.2.17.16.55-.03.74-1.85 1.8-4.18 2.64-6.6 2.64-5.43 0-9.8-4.32-9.8-9.75s4.37-9.8 9.8-9.8"/></g></g></svg>