<svg xmlns="http://www.w3.org/2000/svg" width="480" height="599.346" viewBox="0 0 127 158.57697"><g fill="#101820"><g><g><path d="M63.5 0C40.25 0 21.4 18.84 21.4 42.08s18.86 42.1 42.1 42.1c23.23 0 42.1-18.86 42.1-42.1C105.57 18.84 86.7 0 63.47 0zm0 .8c22.8 0 41.3 18.47 41.3 41.28 0 22.8-18.5 41.3-41.3 41.3-22.8 0-41.3-18.5-41.3-41.3 0-22.8 18.5-41.3 41.3-41.3z"/><path d="M63.5 6.22c-19.8 0-35.87 16.06-35.87 35.86S43.7 77.95 63.5 77.95 99.35 61.9 99.35 42.08c0-19.8-16.06-35.86-35.87-35.86zm0 .8c19.37 0 35.07 15.7 35.07 35.06 0 19.38-15.7 35.08-35.08 35.08-19.4 0-35.1-15.7-35.1-35.08S44.1 7 63.5 7z"/></g><g><g><path d="M66.27 29.8c-6.06-.57-12.3.72-17.54 3.85l-.18.12v.2C48 53.05 68.8 68.22 86.76 61.88c2.1-.6 4.16-1.6 6.02-2.63l.2-.1v-.24c.08-12.54-8.75-24.4-20.77-27.93-1.94-.6-3.94-1-5.96-1.18zm-.07.78c1.96.18 3.9.56 5.8 1.14 11.58 3.4 20.14 14.86 20.18 26.93-1.77.98-3.7 1.9-5.65 2.48h-.02c-17.33 6.1-37.47-8.54-37.14-26.9 5.04-2.95 11.02-4.18 16.84-3.65z"/><path d="M65.44 29.7C52.1 29 38.3 37.73 35.06 51.3c-.7 2.47-1.04 5.07-1.07 7.58v.23l.18.1c11.03 6.72 26.2 4.7 35.33-4.34 5.58-5.44 8.93-13.1 8.93-20.9v-.22l-.2-.12c-3.93-2.48-8.34-3.75-12.8-3.97zm-.04.8c4.25.2 8.44 1.42 12.2 3.74-.06 7.5-3.28 14.86-8.65 20.08-8.8 8.7-23.46 10.7-34.13 4.36.04-2.38.36-4.83 1-7.15 3.15-13.18 16.6-21.67 29.58-21.04z"/><path d="M63.47 8.17l-.2.1c-16.66 8.83-19.8 34-5.76 46.63 1.74 1.67 3.68 3.14 5.76 4.34l.2.1.2-.1C75.13 52.94 81 38.42 77.3 25.88c-2.04-7.34-7-13.86-13.66-17.6zm0 .94c6.36 3.66 11.12 9.94 13.1 17 3.55 12.08-2.1 26.14-13.1 32.3-1.96-1.14-3.8-2.5-5.42-4.08-13.56-12.2-10.56-36.56 5.42-45.2z"/></g><path d="M53.94 47.73c0 .13.1.24.24.24.13 0 .24-.1.24-.24 0-.14-.1-.24-.24-.24-.14 0-.24.1-.24.23m.04 0c0-.1.1-.2.2-.2s.2.1.2.2-.1.2-.2.2-.2-.1-.2-.2m.1.1s.02.02.03.02c.03 0 .04 0 .04 0v-.1h.05l.02.1s0 0 .02 0h.02s.02 0 0-.02c0-.02-.02-.05-.03-.08 0 0 .04-.02.04-.07s-.05-.08-.1-.08h-.08s-.03 0-.03 0zm.06-.1v-.1h.06c.03 0 .04.03.04.05 0 .02 0 .04-.04.04h-.06m2.96.36l-.03.08c0 .03-.02.04-.03.04h-.25l-.18.54c0 .03-.03.04-.05.04h-.1c-.02 0-.03 0-.03-.03l.17-.53h-.24s-.02-.02 0-.04l.02-.1s.02-.03.03-.03h.26l.08-.25s.03-.03.05-.03h.1s.02.02.02.03l-.08.25h.25s0 .03 0 .05zm-.92-.56c-.05.6-.28.95-.56 1.23-.1.1-.3.23-.3.23.07.07.88.04.96.04.03.13 0 .33-.15.78.5-.04 1.07-.52 1.2-1.1.04-.16.1-.36.13-.55.05-.32.12-.63.12-.64-.48 0-.95 0-1.42 0m16.82-.6c0-.03-.07-.1-.14-.1-.22-.05-.9-.15-1.46-.27-1.47-.35-3.33-1-4.17-.74-.72.2-1.25.96-1.4 1.2-.06.06.02.07.02.07h7.08s.04 0 .05 0c0-.02.05-.03.05-.06 0 0 0-.1 0-.1m-18.08-.2c.3-.05 1.3-.15 2.06-.3 2.1-.45 4.85-1.23 6.06-.94 1.17.28 1.72 1.25 1.86 1.54.04.06-.05.06-.05.06h-10s-.12 0-.13-.08c0-.06-.05-.24.22-.3m8.2-8.37c.78.3 1.2-.77.7-1.4-.1-.1.07-.05.14-.02.26.12.75.4 1.04 1.08.2.45-.07 1.14-.47 1.28-.36-.18-1.16-.54-1.4-.94m2.26 6.2c.14.2 0 .48-.3.14-.1-.12-.17-.27-.1-.3.1-.03.3.04.4.17m-1.93-6.04c-1.2-.76-1.6-.74-1.43-2.3.14-.9.53-1.45.7-1.65.1-.1.1 0 .1 0-1.37 3 .67 4.03.63 3.97m-6.53-2.56c0-.64.6-1.8.6-1.4 0 .4-.8 2.94 3.66 5.84.05.03.07.1.03.1-1.8 0-2.76-.7-3.4-1.2-.7-.58-.96-1.2-1.04-1.45-.06-.14.02-.1.03-.08.36.53 1.33 1.6 2.1 1.8 0 0-2.02-1.54-1.98-3.6m5.67-2.24c-1.38 2.02-.58 3.48-.46 3.67.54.88 1.85 1.35 3.6 2.72.2.13 1.7 1.6 1.65 3.15 0 .14-.02.24 0 .23.4-.1 1.6-2 .57-3.7-.67-1.12-3.04-2.7-3.05-2.7-.2-.12.65.06 1.3.38 1.2.6 5.6 3.25 1.13 7.23-.72.64-1.88 2-2.1 2.2-.03.05-.04.02-.05 0-.24-.38-.12-2-2.77-2-1.35 0-3.3.07-5-.6-3.05-1.2-2.9-3.64-2.65-4.64.25-1.37 1.42-1.8 1.4-1.7-.1.54-.7 2.37.04 3.73 1.5 3.1 5.3 1.94 7.5 2.7 1.6.54 1.5 1.42 1.65 1.7.06.1.56-.63.88-1.25.4-.8.35-2.1-.2-3.1-.24-.45-1-1.24-3.02-2.46-4.15-2.5-.7-5.72-.42-5.55m2.98 13.83c1.87 0 6.35 0 6.77 0 .1 0 .46 0 .54 0 .06 0 .05.4-.03.45-.08 0-5.47 0-7.3 0-.03 0-.05-.03-.06-.04 0-.02 0-.34 0-.37.03-.03.05-.03.08-.03m-10.92 0c.27 0 .94 0 1 0 0 0 .14 0 .17 0 .17 0 .04.38.02.4-.03.05-.18.04-.2.04-.06 0-.72 0-1 0-.03 0-.06-.03-.07-.04 0-.03 0-.34 0-.37 0-.03.04-.04.08-.04m3.2 0c.83 0 2.36 0 3.77-.03 1.7 0 3.17 0 3.27 0 0 0 .04.03.05.06.02.08.02.27 0 .36-.02 0-.04.03-.06.04-.1 0-7.13 0-7.2 0-.03 0 .06-.4.07-.43.02 0 .04-.02.07-.02"/></g></g><g><g><path d="M49.72 95.62c-.7 0-1.34.1-1.93.26-.63.18-1.16.45-1.6.8-.47.36-.83.8-1.1 1.33-.26.54-.4 1.14-.4 1.8 0 .53.1 1 .27 1.4v.03H45c.18.38.45.7.8 1 .34.3.77.53 1.27.73.5.2 1.08.37 1.74.54.6.13 1.1.27 1.5.4.45.13.8.28 1.1.43.28.15.48.3.6.5.15.17.2.37.2.65 0 .47-.14.77-.52 1-.38.25-.96.38-1.74.38-.48 0-.95-.05-1.4-.15-.45-.1-.87-.23-1.26-.4-.38-.15-.72-.32-1-.5 0 0 0 0-.02 0-.28-.2-.5-.36-.63-.5l-.25-.25-1.22 2.25.18.13c.78.58 1.64 1.03 2.6 1.34h.03c.95.3 1.92.45 2.93.45.66 0 1.3-.07 1.9-.2h.02c.6-.15 1.1-.38 1.55-.67l.04-.02s0 0 .03 0l.05-.04v-.05c.44-.32.8-.7 1.06-1.2.28-.5.42-1.1.42-1.8 0-.6-.1-1.14-.34-1.58-.2-.45-.52-.83-.92-1.13-.4-.3-.87-.54-1.43-.74-.53-.2-1.13-.36-1.8-.52-.55-.14-1.02-.26-1.42-.37-.4-.1-.72-.22-.96-.35-.25-.14-.4-.3-.5-.44-.1-.14-.17-.35-.17-.62 0-.5.17-.83.52-1.1.35-.26.93-.42 1.77-.42.35 0 .7.04 1.04.12h.04c.36.1.68.2.96.3l.02.03h.02c.3.13.56.26.76.4.02 0 .02 0 .02 0 .22.15.38.28.47.38l.25.27.18-.32 1.06-1.87-.2-.13c-.58-.43-1.26-.8-2.03-1.07-.8-.3-1.63-.43-2.54-.43zm56.67 0h-.03c-.9.02-1.75.2-2.52.54-.8.36-1.48.84-2.06 1.46-.58.6-1.04 1.33-1.37 2.15-.32.82-.48 1.68-.48 2.58 0 .88.16 1.73.47 2.54v.04l.03.03c.33.8.77 1.53 1.34 2.14.56.64 1.24 1.15 2.02 1.5h-.03l.03.04h.05c.76.35 1.6.54 2.48.54 1.33 0 2.5-.53 3.55-1.43v1.32h2.28v-7.04h-5.02v2.04h2.75v1c-.5.6-1.04 1.03-1.6 1.3-.56.3-1.15.43-1.77.43-.57 0-1.08-.1-1.56-.34h-.02c-.48-.25-.9-.56-1.25-.96-.35-.4-.63-.86-.84-1.4-.02 0-.02-.02-.03-.03 0 .02 0 .03 0 .03s.02 0 .02 0c-.2-.53-.3-1.1-.3-1.73 0-.6.08-1.15.25-1.7.2-.53.45-1 .78-1.4.34-.4.73-.7 1.2-.95h.02v-.02c.47-.23.98-.36 1.55-.36.7 0 1.35.16 1.93.5.58.32 1.03.8 1.37 1.46l.14.27 2-1.43-.1-.2c-.44-.9-1.12-1.6-2-2.14-.9-.55-2-.82-3.3-.82zm3.34.8l.02.03zm-109.5-.7v13.37h2.6v-4.5H6.1c.64 0 1.2-.1 1.73-.36.52-.26.97-.6 1.33-1 .38-.43.66-.9.85-1.43.2-.52.3-1.1.3-1.66 0-.55-.1-1.1-.3-1.6-.2-.55-.5-1.03-.9-1.43-.37-.42-.83-.76-1.36-1-.53-.27-1.1-.4-1.74-.4zm7.5.38l.04.02-.03-.02zm5.44-.4v13.4h2.6V95.7zm5.25 0v2.35h4.36v11.05h2.62V98.02h4.35V95.7zm12.8 0v2.35h4.35v11.05h2.62V98.02h4.35V95.7zm26.7 0v13.4h6.5c.58 0 1.13-.1 1.65-.24.52-.17.97-.4 1.36-.7l.05-.04v-.02c.36-.3.67-.65.9-1.07.23-.45.34-.96.34-1.5 0-.88-.23-1.64-.7-2.26-.4-.5-.93-.82-1.52-1.07.45-.27.87-.6 1.14-1.04.35-.6.53-1.24.53-1.9 0-.44-.1-.87-.25-1.28-.14-.42-.35-.8-.63-1.13-.28-.34-.62-.6-1.02-.82-.4-.22-.86-.33-1.35-.33zm9.72 5.46l-.02.02zm4-5.45v6.8c0 .84.1 1.67.3 2.46.2.8.53 1.53 1 2.16.46.62 1.07 1.13 1.82 1.5.77.4 1.7.56 2.77.56 1.03 0 1.93-.17 2.7-.53.75-.35 1.37-.84 1.86-1.45l.02-.03v-.03c.46-.6.8-1.3 1.02-2.08v-.04c.2-.8.32-1.64.32-2.53v-6.8h-2.63v6.8c0 .54-.05 1.1-.17 1.63-.1.52-.3.97-.55 1.38-.25.4-.57.7-1 .96-.4.23-.92.36-1.57.36-.64 0-1.16-.12-1.58-.35h-.02c-.42-.25-.75-.56-1-.94-.26-.4-.44-.86-.56-1.37-.1-.55-.16-1.1-.16-1.68v-6.8zm1.3 11.43v.02zm14.18-11.4v13.37h2.6v-4.48h2.6l2.85 4.47h2.96l-3.18-5.07c.3-.12.58-.24.84-.43l-.02.02h.02v-.02c.35-.27.63-.6.87-.95.23-.36.4-.75.54-1.17.14-.42.2-.87.2-1.33 0-.55-.1-1.1-.33-1.6v-.02c-.2-.53-.5-1-.88-1.42-.4-.4-.85-.74-1.38-1-.53-.25-1.1-.4-1.73-.4zm7.7.38l.04.03-.03-.02zm20.62-.4v13.4h2.6v-5.68h6.06v5.67h2.6V95.7h-2.6v5.4h-6.06v-5.4zM.52 96v12.85zm15 0v12.86zm3.2 0v1.8zm10.8 0v1.8zm1.98 0v1.8zm10.8 0v1.8zm15.9 0v12.85zm13.73 0v6.53c0 .84.1 1.64.3 2.4.2.78.5 1.47.95 2.07l-.02-.02c-.43-.6-.74-1.28-.94-2.04-.2-.76-.3-1.57-.3-2.4zm2.06 0v6.52c0 .58.04 1.16.15 1.7-.1-.56-.17-1.12-.17-1.7zm7.13 0v6.52c0 .57-.06 1.14-.18 1.7-.1.54-.3 1.03-.6 1.46.3-.43.48-.92.6-1.46 0-.02 0-.02 0-.03.12-.55.18-1.1.18-1.68zm-.18 8.22v-.02zm2.26-8.23v6.52c0 .86-.1 1.7-.3 2.5-.16.6-.46 1.07-.76 1.55.3-.48.6-.98.76-1.57.22-.8.32-1.63.32-2.5zm4.2 0v12.86zm28.3 0v12.86zm2.1 0v5.38zm6.6 0v5.38zm2.07 0v12.86zm-20.02.17c1.2 0 2.2.25 3 .74l.02.02c.74.44 1.26 1.03 1.66 1.73l-1.16.83c-.36-.6-.8-1.13-1.4-1.46-.65-.37-1.4-.55-2.18-.55-.66 0-1.27.14-1.8.43-.54.26-1 .63-1.38 1.1-.37.43-.65.94-.85 1.52l-.04.03v.06-.07c-.18.6-.28 1.22-.28 1.86 0 .65.1 1.3.32 1.87v.05l.03.03c.24.58.54 1.1.92 1.53.4.44.9.8 1.43 1.06.56.27 1.16.4 1.8.4.7 0 1.38-.17 2.02-.48.65-.33 1.26-.83 1.83-1.5l.06-.08v-1.73h-2.74v-.98h3.94v5.97h-1.2v-1.98l-.45.45c-1.05 1.1-2.24 1.6-3.6 1.6-.84 0-1.6-.15-2.3-.5h-.03c-.72-.33-1.34-.8-1.87-1.37-.54-.58-.95-1.24-1.26-2v-.02c-.3-.76-.45-1.56-.45-2.4 0-.83.13-1.62.42-2.37.3-.77.73-1.42 1.26-2 .52-.55 1.14-1 1.86-1.3h.02v-.03c.74-.33 1.52-.5 2.38-.5zm2.1 10.73h.02l.02-.02zm-58.8-10.73c.85 0 1.63.14 2.34.4.64.24 1.2.55 1.7.9l-.66 1.16c-.1-.08-.17-.16-.3-.24-.26-.17-.55-.32-.88-.46-.32-.14-.68-.25-1.08-.34h-.04c-.38-.1-.77-.13-1.17-.13-.9 0-1.62.15-2.1.52-.47.36-.72.9-.72 1.5 0 .36.07.67.22.93.17.24.4.42.67.6l.02.02h.03c.3.16.63.3 1.04.42.4.1.9.23 1.43.37h.02c.64.14 1.23.3 1.74.5.52.2.95.4 1.3.66.33.26.58.56.76.94v.02c.2.35.3.8.3 1.34 0 .62-.13 1.14-.37 1.56-.23.44-.54.8-.94 1.07-.4.25-.9.45-1.44.6-.56.12-1.16.2-1.8.2-.97 0-1.9-.15-2.8-.43-.02 0-.02 0-.02 0-.82-.27-1.55-.67-2.23-1.16l.68-1.23c.13.1.25.22.44.34H46c.32.2.68.4 1.08.58.42.15.86.3 1.32.42h.07c.48.12.98.17 1.5.17.83 0 1.5-.15 2-.46.52-.3.8-.83.8-1.45 0-.37-.1-.7-.3-.97-.2-.24-.46-.45-.8-.62 0 0-.06.1-.06.1s-.02-.12-.02-.12.02 0 .02 0 .04 0 .04 0c-.3-.17-.7-.33-1.13-.46-.44-.13-.94-.27-1.5-.42-.65-.16-1.2-.33-1.68-.5-.47-.2-.85-.4-1.14-.66-.3-.24-.5-.52-.67-.83-.13-.33-.2-.73-.2-1.2 0-.6.1-1.1.34-1.54v-.02c.24-.46.54-.83.92-1.13.4-.3.87-.55 1.42-.7.55-.17 1.15-.25 1.8-.25zm-48.97.1H6c.57 0 1.06.1 1.52.33.47.23.87.52 1.2.9.34.36.6.77.78 1.24 0 0 0 0 0 .03.2.48.3.95.3 1.43 0 .5-.1 1-.27 1.47v.04c-.2.45-.43.86-.75 1.23-.32.36-.7.65-1.17.88-.42.2-.9.3-1.47.3h-3.8v4.5H.8zm12.92 0h1.53v12.33H13.7zm5.26 0h10.27v1.26H24.9v11.07h-1.55V97.5h-4.37zm12.8 0h10.26v1.26H37.7v11.07h-1.57V97.5h-4.36zm26.7 0h6.47c.42 0 .78.08 1.1.25.35.16.63.4.86.67.25.3.43.6.55.97.14.37.2.73.2 1.1 0 .58-.14 1.12-.45 1.64-.3.5-.7.85-1.25 1.1l-.66.3.67.2c.7.2 1.23.55 1.62 1.08v.02c.4.52.6 1.14.6 1.92 0 .48-.1.9-.3 1.27-.2.37-.45.7-.8.96-.3.25-.7.46-1.17.6-.47.14-.96.2-1.5.2h-5.97zm13.7 0h1.54v6.25c0 .6.06 1.2.18 1.75v-.02.05-.03c.12.56.33 1.07.6 1.53h.02v.02c.3.45.7.8 1.16 1.08l.03.04h.04-.03c.53.28 1.15.42 1.86.42.72 0 1.34-.14 1.84-.44.5-.28.9-.66 1.2-1.12.3-.46.5-.98.62-1.55v-.03c.12-.56.2-1.14.2-1.73V96.2h1.54v6.26c0 .85-.1 1.66-.3 2.42-.2.75-.52 1.4-.96 1.96-.42.54-.97.97-1.66 1.3-.68.32-1.5.48-2.47.48-1.02 0-1.86-.17-2.54-.5-.68-.34-1.22-.8-1.64-1.35-.44-.56-.74-1.22-.93-1.96-.2-.75-.3-1.53-.3-2.34zm15.5 0h5.44c.55 0 1.04.1 1.5.33h-.02.04c.46.24.86.53 1.2.9.33.37.58.78.77 1.26.2.47.3.94.3 1.42 0 .4-.06.8-.18 1.18-.12.37-.28.72-.48 1.04-.2.3-.46.58-.76.82-.3.2-.62.37-.97.5l-.32.1 3 4.76h-1.7l-2.85-4.48H89.2v4.47h-1.5zm28.32 0h1.53v5.37h7.14v-5.36h1.55v12.34h-1.55v-5.67h-7.13v5.68H116zm-12.03.15h.02-.05zm5.6.23h.02l.02.02c.05.04.07.12.13.16-.06-.03-.08-.1-.15-.15l-.02-.02h.02zm-63.2.25c-.43.32-.76.73-1 1.22-.25.5-.38 1.04-.38 1.67 0 .5.07.93.23 1.3-.16-.37-.24-.8-.24-1.3 0-.63.1-1.18.36-1.66v-.02c.25-.48.58-.88 1-1.2zM67.1 97c.27.3.46.66.6 1.05.14.4.2.78.2 1.18 0 .6-.15 1.18-.46 1.72.3-.55.48-1.12.48-1.72 0-.4-.08-.8-.23-1.18-.13-.4-.33-.75-.6-1.05zm-13.04.26c.02.02.06.03.1.05h-.02l-.9 1.7.92-1.66zm41.95 0v.02c.37.38.64.83.83 1.33-.2-.5-.47-.94-.82-1.33zm-36 .2v4.33h4.07c.3 0 .56-.07.8-.18.25-.1.47-.25.66-.43.2-.2.34-.43.44-.7.1-.27.17-.55.17-.86 0-.6-.18-1.13-.55-1.53-.38-.4-.87-.63-1.43-.63zm-57.68.05v5.34H6c.33 0 .63-.07.9-.2.3-.15.53-.35.72-.6.2-.24.34-.52.45-.83.1-.3.16-.66.16-1.04s-.06-.74-.18-1.07c-.12-.33-.3-.6-.5-.84-.23-.24-.5-.42-.78-.54-.28-.13-.58-.2-.9-.2zm86.9 0v5.34h3.88c.33 0 .63-.07.9-.2l.02-.02c.27-.14.5-.33.7-.58.2-.26.35-.55.45-.86.1-.32.16-.66.16-1 0-.36-.06-.7-.2-1.03-.12-.3-.3-.6-.5-.84-.22-.24-.47-.43-.75-.56-.28-.15-.58-.23-.9-.23zm4.8 5.1h.03zm-33.75-4.86v3.78zm-57.7.03h.02v4.8h-.03zm20.5 0v11.07zm2.1 0v11.07zm10.7 0v11.07zm2.08 0v11.07zm51.53 0v4.8zm12.52.04c-.55.6-1 1.28-1.3 2.06.3-.78.75-1.46 1.3-2.05zm-51.18 0h.04v.03h-.03zm42.94.17c.14.07.23.18.34.26-.1-.08-.2-.2-.34-.26zM60.54 98h3.64c.42 0 .74.13 1 .44h.02c.27.3.4.68.4 1.2 0 .24-.04.45-.12.65-.08.2-.2.35-.33.5-.13.12-.3.23-.5.32-.17.08-.36.12-.58.12h-3.53zm-57.7.03H5.9c.24 0 .45.05.66.15h.02c.22.1.4.24.58.43v.03c.18.18.3.4.4.65.1.26.16.55.16.88 0 .33-.04.62-.13.88-.1.26-.2.5-.37.68-.14.2-.32.34-.53.45-.2.1-.42.15-.67.15H2.85zm86.9 0H93c.23 0 .44.05.65.16h.02c.22.1.4.24.57.43.18.2.3.42.4.68h.02c.1.28.16.55.16.84 0 .3-.04.58-.13.84-.1.26-.2.5-.38.7-.14.18-.32.33-.52.44-.2.1-.43.16-.68.16h-3.35zm-37.9.1h.03l.02.02h-.05zm-4.1.03s.02 0 .02 0c-.4.3-.6.75-.6 1.3 0 .32.05.58.17.78-.12-.2-.18-.46-.18-.78 0-.55.2-.98.6-1.3zm17.65.1c.3.36.46.8.46 1.37 0 .27-.05.52-.14.75-.1.24-.22.44-.4.6.18-.16.3-.36.4-.6.1-.22.14-.47.14-.75 0-.56-.16-1-.48-1.36zm0 .02l.02.02zm43.13.04c.54.32.98.77 1.32 1.37l.04.06c-.35-.64-.8-1.1-1.37-1.45zm-14.1.15c.18.22.33.47.44.76.13.3.2.6.2.92 0 .33-.06.64-.16.93-.1.28-.22.53-.4.76v-.02c.18-.22.3-.47.4-.74.1-.3.16-.6.16-.93 0-.32-.06-.63-.2-.9v-.02c-.1-.3-.25-.54-.44-.76zm-84.7.16l.02.05c.2.47.3.97.3 1.47 0 .53-.1 1.04-.28 1.53v.05s0-.03 0-.05c.2-.5.3-1 .3-1.53 0-.52-.12-1.02-.33-1.52zm87.1 0h.02c.2.5.3 1 .3 1.52 0 .44-.05.85-.17 1.25 0 0-.02 0-.02 0-.12.4-.3.77-.5 1.1-.23.34-.5.63-.8.9.3-.26.57-.56.8-.9.2-.33.38-.7.5-1.1.13-.4.2-.8.2-1.25 0-.52-.12-1.02-.33-1.52zm-87.1 0s.02 0 .02 0zm101.74 0c0 .03.03.04.04.06zM7.8 99.18c.1.3.17.62.17.98 0 .35-.05.67-.15.96 0 0 0 0 0 .02-.1.28-.23.54-.4.75.16-.2.3-.48.4-.76.1-.3.14-.62.14-.97 0-.36-.05-.7-.16-.98zm92.88.7c-.3.8-.45 1.6-.45 2.48 0 .85.15 1.67.45 2.46 0 0 0 0 0 .03h.02v.03-.02l-.02-.02c-.3-.8-.46-1.62-.46-2.47 0-.87.16-1.7.46-2.46zm-53.34.38c.13.2.33.36.6.52h.02-.02c-.27-.16-.47-.33-.6-.52zm55.27.36v.04s0 0 0-.02zm0 .02v.02s0 0 0-.02zm0 .03c-.17.56-.26 1.14-.26 1.75 0 .64.1 1.23.3 1.78-.2-.54-.3-1.14-.3-1.78 0-.6.1-1.2.27-1.75zm-35.2.42c-.3.43-.65.77-1.12 1.02l-.15.08c.54-.26.97-.62 1.27-1.1zm26.9.62s.1.08.1.08-.1 0-.1 0 0-.04 0-.04zm-84.54.07c-.18.47-.43.9-.77 1.3.32-.4.57-.83.76-1.3zm84.08.35s0 .14 0 .14.05.1.06.1h-.02c-.02 0-.04 0-.07.02 0 0 .04-.13.04-.13s0-.15 0-.15zm-27.7.16l.15.05c.63.23 1.15.58 1.53 1.1.45.56.67 1.26.67 2.08 0 .5-.12.97-.34 1.38.22-.4.33-.86.33-1.37 0-.82-.24-1.52-.68-2.08-.42-.56-1-.93-1.7-1.15zm41.32.04v1.5zm4.48 0v6.5zm-18.05.05h-.03s-.04 0-.04 0c.02 0 .04 0 .06 0zm-40.37.37c.37.28.65.62.84 1.03-.2-.42-.47-.76-.84-1.04zm11.06.12H60v4.46h4.45c.3 0 .6-.06.85-.17h.02c.26-.13.5-.3.68-.48.2-.2.36-.44.47-.7.1-.28.16-.57.16-.87 0-.3-.05-.58-.16-.85-.1-.26-.23-.5-.4-.7 0 0 0 0-.02 0-.17-.22-.38-.4-.63-.5-.26-.14-.54-.2-.84-.2zm-55.6.06s0 .02 0 .02-.12 0-.12 0l.1.1-.1.04s0-.13 0-.13v-.03s.13-.02.13-.02zm-.13.03c-.03 0-.12 0-.12 0s.1 0 .12 0zm51.4.13v3.94zm57.53.02v5.67zm6.6 0v5.67zm-63.86.25h4.04c.22 0 .42.05.6.14.2.1.34.2.47.37.14.18.25.36.32.57v.02c.1.2.13.4.13.65 0 .23-.04.45-.12.66-.1.2-.2.38-.35.54-.15.14-.33.26-.53.36-.2.07-.4.1-.65.1h-3.9zm5.3.34s0 0 .02 0c.16.2.28.4.36.63.1.25.15.5.15.77 0 .25-.05.5-.14.73.1-.23.14-.47.14-.73 0-.27-.05-.52-.15-.76-.1-.25-.2-.46-.36-.64zm-11.47.05c.2.4.32.9.32 1.45 0 .63-.16 1.17-.4 1.63v-.02c.24-.46.37-1 .37-1.62 0-.58-.1-1.07-.3-1.47zm55.83.02v1.38c0 .02-.02.02-.02.03l.02-.03zm-15.6.1l3.1 4.9h-.02zm8.23.14zm-28.68.13zm28.48 0zm0 0h.02v.03s0-.02 0-.02zm0 .03c.02 0 .02 0 .02 0zm-28.47-.03v.02zm28.5.05s0 0 0 .02c.22.53.5 1 .83 1.4-.36-.4-.64-.88-.86-1.42zm-100.08.1v4.48zm86.9 0v4.48zm-15.22.1c.12.45.26.87.5 1.23 0 0-.02 0-.02 0-.22-.36-.36-.78-.48-1.22zm-22.05.22h.03c.17.22.25.5.25.8 0 .55-.22.96-.66 1.24.45-.26.67-.67.67-1.2 0-.34-.1-.6-.27-.8zm-6.76.8l-.93 1.74.04.05s-.03 0-.04-.02zm1.72 1.07zm28.7.17s0 0 .02 0v.03c-.02 0-.02 0-.02 0zm-27.4.27h.02zm.03 0zm33.42.08v.03-.02zm28.3.2v1.6zm-.1.06l-.13.14c-.2.18-.44.27-.65.42.26-.18.53-.3.78-.55zm-44.17 1.08s0 0-.02 0c.02 0 .02 0 .02 0zm38 0s0 .02 0 .02zm0 0h.02v.03s0 0-.02 0zm4.4.15c-.5.2-1.02.28-1.55.32.53-.04 1.05-.12 1.54-.32z"/><path d="M58.85 113.13c-.17 0-.32.02-.47.06-.15.02-.28.1-.38.17-.1.08-.2.2-.26.3-.06.13-.1.28-.1.44 0 .14.03.25.08.35.04.1.1.2.2.25v.02h.02c.1.07.2.12.3.16.13.05.27.1.43.13l.06.03c.1.03.22.06.3.1 0 0 .02 0 .02 0 .1.02.2.05.26.1.1.03.13.07.16.12.04.04.05.1.05.17 0 .14-.03.22-.13.28-.1.06-.26.1-.47.1-.12 0-.23 0-.34-.03-.1-.02-.2-.05-.28-.1-.1-.03-.17-.07-.24-.1-.07-.06-.13-.1-.17-.15l-.08-.1-.3.5.05.06c.18.14.4.26.6.33h.02c.22.08.46.1.7.1.16 0 .32 0 .46-.03.16-.04.28-.1.4-.17.1-.1.2-.2.26-.3v-.02c.06-.13.1-.26.1-.4 0-.16-.04-.3-.1-.4-.05-.1-.13-.2-.23-.27-.1-.05-.22-.1-.35-.16-.14-.05-.3-.1-.45-.12-.14-.02-.26-.05-.36-.08-.1-.03-.16-.06-.23-.1-.05-.03-.1-.06-.1-.1-.04-.04-.05-.1-.05-.16 0-.14.04-.23.13-.3.1-.07.25-.12.48-.12.1 0 .17.02.25.03.08 0 .15.03.2.06h.02c.07.03.13.06.18.1.05.03.1.06.12.1l.08.1.06-.12.22-.38-.05-.05c-.13-.1-.3-.2-.47-.26-.17-.07-.36-.1-.56-.1zm10.94 0c-.27 0-.5.05-.7.14-.2.1-.35.22-.5.37-.12.16-.22.33-.3.52-.06.2-.1.38-.1.58 0 .2.05.4.1.6.1.2.2.36.33.52v.03h.03c.13.13.3.25.47.34.2.1.4.15.63.15.13 0 .25-.03.4-.06.12-.03.24-.08.36-.14.12-.06.23-.14.32-.23.1-.1.18-.2.23-.33l.03-.08-.47-.25-.04.1c-.06.1-.1.16-.17.2-.06.08-.13.13-.2.17-.07.04-.15.07-.23.1-.06 0-.14.02-.2.02-.16 0-.3-.04-.4-.1-.13-.06-.23-.14-.32-.25-.1-.1-.16-.22-.2-.35-.06-.15-.08-.3-.08-.44s.02-.27.06-.4c.04-.14.1-.25.2-.36.07-.1.17-.2.3-.25.1-.06.25-.1.4-.1.08 0 .16 0 .23.03.06 0 .13.04.2.07.07.05.13.1.2.15.05.06.1.13.14.22l.05.1.45-.3-.04-.07c-.1-.22-.25-.4-.46-.52-.22-.13-.47-.2-.76-.2zm-16.95.02v3.22h1.17c.24 0 .45-.04.65-.12.2-.1.37-.2.5-.33h.02v-.02c.1-.13.22-.3.3-.48.06-.2.1-.42.1-.66 0-.22-.04-.42-.1-.6v-.02c-.07-.2-.17-.37-.3-.52-.14-.15-.3-.26-.5-.35-.2-.08-.44-.12-.7-.12zm3.45 0v3.22h.58v-3.23zm4.16 0v.5h1.08v2.7h.57v-2.7h1.1v-.5zm3.3 0v3.22h.58v-1.1h.7l.7 1.1h.65l-.8-1.23c.06-.02.13-.04.2-.1.07-.05.15-.12.2-.2.08-.1.1-.2.15-.3.04-.1.06-.22.06-.34 0-.12-.02-.25-.07-.38-.05-.12-.12-.23-.2-.33-.1-.13-.2-.2-.34-.27-.13-.06-.27-.1-.4-.1zm3.2 0v3.22h.57v-3.23zm4.47 0v.5h1.07v2.7h.57v-2.7h1.07v-.5zm-14.64.08v3.06zm3.74 0v.35zm2.54 0v.35zm3.95 0v3.05zm-8.2.07c.2 0 .38.03.54.1.12.04.24.1.35.2l-.1.14c0-.02-.03-.04-.06-.05-.07-.06-.14-.1-.22-.13-.07-.04-.16-.06-.25-.08-.1-.03-.2-.04-.3-.04-.24 0-.43.05-.56.15h-.04v.04c-.1.1-.2.24-.2.4 0 .1.03.2.07.26.05.08.12.13.2.18.1.05.17.08.27.1.1.03.2.06.34.1h.04c.15.03.28.07.4.1 0 0 .02 0 .02.02.13.04.23.1.3.15.1.05.15.12.2.2.04.1.06.2.06.32 0 .13-.03.25-.08.34-.05.1-.12.2-.2.25-.1.07-.2.1-.33.15-.13 0-.27.03-.43.03-.23 0-.44-.03-.65-.1-.18-.06-.34-.16-.5-.27l.1-.17c.03 0 .06.04.1.07h.02c.08.05.15.1.24.14.1.05.2.1.32.1.12.04.25.05.37.05.22 0 .4-.04.56-.13.14-.1.22-.24.22-.42 0-.1-.03-.18-.08-.26-.04-.07-.1-.13-.2-.18-.08-.05-.18-.1-.3-.12-.1-.03-.24-.07-.38-.1-.17-.04-.3-.08-.4-.12-.13-.04-.23-.1-.3-.14-.07-.06-.1-.12-.15-.2-.04-.06-.06-.15-.06-.26 0-.14.02-.25.07-.35.05-.1.12-.18.2-.25.1-.07.2-.12.32-.16.13-.04.27-.06.42-.06zm10.94 0c.25 0 .47.06.66.18.16.1.26.23.35.38l-.14.1c-.04-.07-.08-.13-.13-.18-.06-.08-.14-.14-.23-.18h-.02c-.1-.04-.17-.08-.25-.1-.1 0-.17-.02-.26-.02-.16 0-.3.04-.44.1v-.02l-.06.04c-.14.07-.26.17-.36.3-.1.1-.16.25-.2.4-.06.15-.08.3-.08.46 0 .16.03.32.08.47 0 0 0 0 0 .02.06.15.14.3.25.4.1.13.22.22.37.3.14.07.3.1.47.1.07 0 .16 0 .25-.03.1-.02.18-.05.27-.1.1-.06.16-.12.23-.2.06-.04.1-.1.14-.18l.17.1c-.04.07-.08.15-.14.2-.08.08-.17.15-.27.2-.12.07-.23.1-.35.14-.1.03-.22.05-.33.05-.2 0-.38-.05-.55-.13-.17-.1-.3-.2-.44-.34-.12-.14-.2-.3-.28-.47-.07-.2-.1-.4-.1-.57 0-.17.03-.35.1-.52.05-.16.14-.3.26-.45.12-.14.27-.25.44-.33.17-.08.37-.13.6-.13zm-16.77.02h1c.23 0 .43.04.6.12.2.07.33.17.45.3.1.13.2.28.26.45.07.18.1.36.1.55 0 .22-.03.42-.1.6-.06.17-.16.32-.3.45-.1.13-.25.23-.42.3-.17.07-.36.1-.58.1h-1zm3.46 0h.2v2.88h-.2zm4.14 0H63v.17h-1.07v2.7h-.22v-2.7h-1.05zm3.3 0h1.25c.1 0 .22.03.32.08s.2.1.26.2v.02h.02c.08.08.13.16.17.26.05.12.07.22.07.33 0 .1 0 .2-.05.3-.03.1-.07.17-.12.24-.05.08-.12.14-.2.2-.06.04-.14.08-.23.1l-.1.03.72 1.14h-.24l-.7-1.1h-.97v1.1h-.2zm3.2 0h.22v2.88h-.22zm4.47 0h2.37v.17H72.9v2.7h-.22v-2.7H71.6zm-1.1.08c.2.13.35.3.45.48l-.03-.03c-.1-.18-.24-.33-.43-.45zm-17.25.1v2.53H54c.2 0 .35-.03.5-.1.15-.06.27-.15.37-.27.1-.1.18-.25.23-.4v-.02c.05-.15.08-.3.08-.48s-.02-.34-.07-.5c-.04-.16-.12-.3-.22-.4-.1-.12-.23-.2-.38-.27-.15-.1-.32-.1-.5-.1zm10.9 0v1.43h1.04c.1 0 .18-.02.25-.06.1-.04.15-.1.2-.15v-.02c.07-.07.1-.14.14-.22.02-.1.04-.18.04-.27 0-.1-.02-.17-.06-.25v-.02c-.04-.08-.08-.15-.13-.2-.07-.08-.14-.13-.2-.17-.1-.04-.2-.06-.27-.06zm-4.3.05s0 0 .02 0zm-6.5.03v2.36zm19.24 0v2.7zm.38 0v2.7zm-19.55.1h.6c.14 0 .3 0 .4.07.14.05.25.13.33.22.1.1.15.2.2.34v.03c.04.13.06.28.06.44 0 .16-.03.3-.08.44-.04.15-.1.26-.2.36-.07.1-.17.17-.3.22-.13.06-.27.1-.44.1h-.6zm10.9 0h.83c.06 0 .1 0 .16.03.06.05.1.08.15.13.04.06.07.1.1.18.03.08.04.15.04.2 0 .1 0 .17-.04.23-.02.07-.05.13-.1.18-.03.06-.07.1-.12.1 0 0 0 .03 0 .03-.06.03-.12.04-.2.04h-.84zm-6.04.02c-.1.1-.16.2-.16.35 0-.15.06-.26.16-.35zm10.4 0c-.08.1-.13.2-.2.3.07-.1.1-.2.2-.3zm1.6.02c.06.03.1.07.16.1v.02c-.05-.05-.1-.1-.16-.12zm-15.7.02c.08.05.17.1.23.17-.07-.05-.16-.1-.25-.15zm10.96.03zm-7.76.04c-.03.1-.06.2-.06.33 0 .12.02.22.06.3.04.1.1.16.18.22-.08-.06-.14-.13-.18-.2-.04-.1-.07-.2-.07-.32s.03-.2.06-.3zm8.26.08c.04.1.07.22.07.34 0 .1-.03.2-.06.3.03-.1.05-.2.05-.3 0-.1-.04-.22-.08-.33zm-6.37 0zm-4.8.18c.06.07.1.13.14.22-.04-.1-.1-.15-.14-.22zm3.25.05c0 .07.02.13.04.17-.04-.04-.04-.1-.05-.16zm-2.73.08c.07.2.1.38.1.6 0 .2-.04.4-.1.56.06-.17.1-.36.1-.57 0-.2-.03-.4-.1-.58zm13 .02c-.08.17-.1.36-.1.54 0 .2.03.38.1.56v.02-.02c-.07-.18-.1-.37-.1-.56 0-.18.02-.37.1-.55zm-2.7 0c0 .1 0 .17-.03.25.02-.07.03-.16.03-.24zm3.05.13c-.04.14-.06.28-.06.43 0 .16.03.3.1.46-.07-.15-.1-.3-.1-.46 0-.15.03-.3.07-.43zm-2.7.2c-.02.08-.06.17-.1.24.04-.08.08-.16.1-.25zm-10.95.23c0 .16-.02.32-.07.46.05-.15.07-.3.07-.46zm4.6.12zm.22.25c.03.07.04.17.04.26 0-.1-.03-.2-.06-.27zm8.84.1c.04.13.12.26.22.37-.1-.1-.18-.24-.23-.38zm-13.75 0c-.06.14-.13.26-.2.36.07-.13.14-.24.2-.38zm4.5.1c0 .06.03.1.03.18 0 .1-.08.18-.13.24.05-.06.12-.12.12-.22 0-.06-.03-.1-.06-.16zm.45.14c0 .14-.02.27-.08.38-.05.1-.14.2-.24.27.1-.08.18-.16.24-.27.06-.1.1-.24.1-.38zm-2.2.1l-.1.2zm13.2.03c0 .02-.02.03-.02.04zm-5.65.02l.43.67zm-7.12.22h.02zm-.6.04v.02z"/><path d="M51.65 114.92H0v-.3h51.65v.3"/><path d="M127 114.92H75.35v-.3H127v.3"/></g><path d="M113.6 135.05H95.75v-.8h17.85v.8m-2.42-5.95c0-.05.04-.1.1-.1h2.08c.05 0 .1.05.1.1v.42c0 .05-.05.1-.1.1h-1.5v.83h1.25c.07 0 .1.05.1.1v.42c0 .06-.03.1-.1.1h-1.24v.9h1.5c.06 0 .1.04.1.1v.4c0 .06-.04.1-.1.1h-2.07c-.07 0-.1-.04-.1-.1v-3.37m-4.06 0c0-.05.05-.1.1-.1h.47c.07 0 .1.05.1.1v1.35h1.67v-1.35c0-.05.05-.1.1-.1h.47c.05 0 .1.05.1.1v3.38c0 .05-.05.1-.1.1h-.47c-.05 0-.1-.05-.1-.1v-1.4h-1.66v1.4c0 .05-.03.1-.1.1h-.46c-.05 0-.1-.05-.1-.1v-3.38m-2.2.52h-.78c-.06 0-.1-.05-.1-.1v-.42c0-.05.04-.1.1-.1h2.23c.05 0 .1.05.1.1v.42c0 .05-.05.1-.1.1h-.8v2.86c0 .05-.04.1-.1.1h-.46c-.05 0-.1-.05-.1-.1v-2.86m-4.74-.52c0-.05.03-.1.1-.1h2.06c.06 0 .1.05.1.1v.42c0 .05-.04.1-.1.1h-1.5v.96h1.25c.08 0 .1.04.1.1v.4c0 .06-.02.1-.1.1h-1.24v1.3c0 .05-.04.1-.1.1h-.46c-.07 0-.1-.05-.1-.1v-3.38m-2.64 2.86c.64 0 1.17-.52 1.17-1.16 0-.65-.53-1.18-1.17-1.18-.64 0-1.17.53-1.17 1.18 0 .64.5 1.16 1.15 1.16zm0-3c1.02 0 1.84.8 1.84 1.84 0 1.02-.82 1.83-1.84 1.83s-1.83-.8-1.83-1.83.8-1.85 1.83-1.85m20.08 14.65c0-.22.18-.4.4-.4h8.55c.22 0 .4.18.4.4v.63c0 .2-.18.4-.4.4h-7.3v5.3h6.22c.2 0 .4.2.4.4v.64c0 .24-.2.4-.4.4h-6.22v5.54h7.3c.23 0 .4.2.4.43v.63c0 .2-.17.4-.4.4h-8.55c-.23 0-.4-.2-.4-.4V143.6m-19.16-.24c0-.22.2-.4.4-.4h.54l9.77 12.2c.03 0 .03 0 .05 0V143.6c0-.22.17-.4.4-.4h.77c.22 0 .4.18.4.4v14.6c0 .2-.18.38-.4.38h-.4l-9.93-12.43h-.04v11.8c0 .2-.17.4-.4.4h-.77c-.2 0-.4-.2-.4-.4v-14.6m-15.2.25c0-.22.15-.4.4-.4h8.52c.24 0 .42.18.42.4v.63c0 .2-.18.4-.42.4h-7.27v5.3h6.2c.23 0 .42.2.42.4v.64c0 .24-.2.4-.4.4h-6.22v5.54h7.27c.24 0 .42.2.42.43v.63c0 .2-.18.4-.42.4H83.7c-.24 0-.4-.2-.4-.4V143.6M72.5 151c1.67 0 3.12-1.4 3.12-3.18 0-1.64-1.45-3.05-3.12-3.05h-4.2V151zm-5.9-7.4c0-.22.16-.4.4-.4h5.6c2.6 0 4.73 2.02 4.73 4.6 0 2-1.32 3.67-3.2 4.43l2.96 5.5c.13.28 0 .63-.38.63h-1.1c-.2 0-.3-.1-.36-.2l-2.88-5.74h-4.15v5.53c0 .2-.2.4-.4.4H67c-.24 0-.4-.2-.4-.4V143.6m-8.55 9.6c-1.06-2.36-2.1-4.75-3.16-7.1h-.2l-3.16 7.1zm-10.3 4.6l6.6-14.6c.06-.12.17-.23.37-.23h.2c.2 0 .32.1.38.24l6.54 14.6c.13.3-.04.57-.36.57h-.87c-.2 0-.3-.13-.35-.24l-1.6-3.57h-7.7l-1.57 3.57c-.05.1-.18.24-.37.24h-.86c-.32 0-.5-.28-.37-.56m-13.43-.23l7.87-12.8v-.06H35.4c-.2 0-.4-.2-.4-.4v-.7c0-.2.2-.4.4-.4h8.78c.2 0 .4.2.4.4v.3l-8 12.93v.02h7.16c.25 0 .42.2.42.4v.7c0 .22-.17.42-.4.42h-8.98c-.2 0-.4-.2-.4-.4v-.4m-6.98-4.36c-1.06-2.35-2.1-4.74-3.16-7.1h-.18l-3.16 7.1zm-10.3 4.6l6.6-14.6c.06-.1.17-.22.36-.22h.22c.2 0 .3.1.37.24l6.55 14.6c.13.28-.04.56-.37.56h-.85c-.2 0-.33-.13-.37-.24l-1.6-3.57h-7.7l-1.58 3.57c-.04.1-.17.24-.37.24h-.86c-.33 0-.5-.28-.37-.56M0 143.36c0-.22.2-.4.4-.4h.55l9.77 12.2c.02 0 .02 0 .05 0V143.6c0-.22.17-.4.4-.4h.77c.2 0 .4.18.4.4v14.6c0 .2-.2.38-.4.38h-.4L1.6 146.15h-.02v11.8c0 .2-.17.4-.4.4H.4c-.2 0-.4-.2-.4-.4v-14.6m80.6-18.78c0-.17.15-.32.3-.32h.66c.18 0 .3.15.3.32v4.82h6.72v-4.84c0-.17.13-.32.3-.32h.66c.16 0 .3.15.3.32v10.94c0 .17-.14.32-.3.32h-.65c-.2 0-.33-.15-.33-.3v-5.02h-6.7v5c0 .17-.14.32-.32.32h-.65c-.15 0-.3-.15-.3-.3v-10.95m-8.62-.48c1.66 0 2.87.56 4 1.5.13.15.14.34 0 .48l-.44.43c-.13.18-.26.16-.43 0-.83-.75-2-1.24-3.13-1.24-2.6 0-4.6 2.2-4.6 4.76 0 2.54 2 4.74 4.6 4.74 1.44 0 2.28-.58 3.15-1.24.18-.13.3-.1.4-.05l.5.44c.14.1.1.34 0 .45-1.13 1.1-2.55 1.6-4.02 1.6-3.3 0-5.97-2.62-5.97-5.93 0-3.3 2.67-5.96 5.98-5.96m-13.6 6.1c1.28 0 2.4-1.06 2.4-2.4 0-1.27-1.1-2.34-2.4-2.34h-3.2v4.74zm-4.5-5.63c0-.17.13-.32.3-.32h4.3c1.97 0 3.6 1.57 3.6 3.53 0 1.52-1 2.8-2.45 3.38l2.26 4.2c.13.2 0 .48-.27.48h-.84c-.16 0-.24-.08-.28-.15l-2.2-4.38h-3.16v4.2c0 .17-.15.32-.3.32h-.66c-.18 0-.3-.15-.3-.3v-10.95m-14.05 0c0-.17.15-.32.3-.32h.64c.17 0 .3.15.3.32v6.9c0 1.87 1.17 3.34 3.1 3.34 1.95 0 3.14-1.42 3.14-3.3v-6.93c0-.17.13-.32.3-.32h.64c.16 0 .3.16.3.33v7c0 2.5-1.77 4.42-4.38 4.42-2.6 0-4.37-1.93-4.37-4.44v-7m-14.54 0c0-.15.13-.3.3-.3h.64c.18 0 .3.15.3.3v4.84h6.72v-4.83c0-.16.13-.3.3-.3h.66c.16 0 .3.14.3.3v10.95c0 .17-.14.32-.3.32h-.65c-.18 0-.3-.15-.3-.3v-5.02h-6.72v5c0 .17-.13.32-.3.32h-.65c-.16 0-.3-.15-.3-.3v-10.95m-8.63-.48c1.67 0 2.87.57 4 1.52.13.14.14.33 0 .47l-.43.43c-.14.17-.27.15-.43 0-.84-.76-2-1.25-3.14-1.25-2.6 0-4.6 2.2-4.6 4.77 0 2.54 2 4.74 4.6 4.74 1.44 0 2.28-.57 3.16-1.23.17-.13.3-.1.4-.05l.5.44c.13.1.1.33-.02.44-1.12 1.1-2.54 1.6-4 1.6-3.3 0-5.97-2.62-5.97-5.93 0-3.3 2.67-5.96 5.97-5.96"/></g></g></svg>