<svg xmlns="http://www.w3.org/2000/svg" width="318.115" height="318.108" viewBox="0 0 84.167973 84.166011"><g fill="#fff"><g><path d="M42.08 0C18.85 0 0 18.84 0 42.08s18.85 42.1 42.08 42.1c23.24 0 42.1-18.86 42.1-42.1C84.18 18.84 65.3 0 42.08 0zm0 .8c22.8 0 41.3 18.47 41.3 41.28 0 22.8-18.5 41.3-41.3 41.3-22.8 0-41.3-18.5-41.3-41.3C.8 19.28 19.3.78 42.1.78z"/><path d="M42.08 6.22c-19.8 0-35.86 16.06-35.86 35.86s16.06 35.87 35.86 35.87S77.95 61.9 77.95 42.08c0-19.8-16.06-35.86-35.87-35.86zm0 .8c19.38 0 35.08 15.7 35.08 35.06 0 19.38-15.7 35.08-35.08 35.08S7 61.46 7 42.08 22.7 7 42.1 7z"/></g><g><g><path d="M44.86 29.8c-6.06-.57-12.3.72-17.54 3.85l-.18.12v.2c-.54 19.07 20.25 34.24 38.22 27.9 2.1-.6 4.16-1.6 6.02-2.63l.2-.1v-.24c.1-12.54-8.74-24.4-20.76-27.93-1.94-.6-3.94-1-5.96-1.18zm-.07.78c1.95.18 3.9.56 5.78 1.14 11.6 3.4 20.15 14.86 20.2 26.93-1.78.98-3.72 1.9-5.66 2.48h-.02c-17.34 6.1-37.48-8.54-37.15-26.9C33 31.3 38.97 30.06 44.8 30.6z"/><path d="M44.03 29.7C30.7 29 16.9 37.73 13.65 51.3c-.7 2.47-1.04 5.07-1.07 7.58v.23l.2.1c11.02 6.72 26.2 4.7 35.32-4.34 5.57-5.44 8.92-13.1 8.92-20.9v-.22l-.2-.12c-3.93-2.48-8.34-3.75-12.8-3.97zm-.04.8c4.24.2 8.43 1.42 12.2 3.74-.07 7.5-3.3 14.86-8.66 20.08-8.8 8.7-23.46 10.7-34.13 4.36.05-2.38.37-4.83 1.02-7.15C17.56 38.34 31.02 29.85 44 30.48z"/><path d="M42.06 8.17l-.2.1c-16.66 8.83-19.8 34-5.76 46.63 1.73 1.67 3.67 3.14 5.75 4.34l.2.1.2-.1c11.48-6.3 17.36-20.82 13.66-33.36-2.03-7.34-6.98-13.86-13.65-17.6zm0 .94c6.36 3.66 11.12 9.94 13.1 17 3.55 12.08-2.1 26.14-13.1 32.3-1.96-1.14-3.8-2.5-5.42-4.08-13.56-12.2-10.56-36.56 5.42-45.2z"/></g><path d="M32.53 47.73c0 .13.1.24.24.24.13 0 .24-.1.24-.24 0-.14-.1-.24-.23-.24-.14 0-.24.1-.24.23m.04 0c0-.1.1-.2.2-.2s.2.1.2.2-.1.2-.2.2-.2-.1-.2-.2m.1.1s.02.02.03.02c.02 0 .03 0 .03 0v-.1h.05l.03.1s0 0 .03 0h.02s.02 0 0-.02c0-.02-.02-.05-.03-.08 0 0 .04-.02.04-.07s-.05-.08-.1-.08h-.08s-.02 0-.02 0zm.06-.1v-.1h.06c.02 0 .03.03.03.05 0 .02 0 .04-.04.04h-.07m2.96.36l-.04.08c0 .03-.02.04-.03.04h-.25l-.17.54c0 .03-.02.04-.04.04h-.1c-.02 0-.03 0-.03-.03l.17-.53h-.25s-.02-.02 0-.04l.02-.1s.02-.03.03-.03h.25l.08-.25s.03-.03.05-.03h.1s.03.02.03.03l-.07.25h.25s0 .03 0 .05zm-.93-.56c-.05.6-.28.95-.56 1.23-.1.1-.3.23-.3.23.08.07.9.04.97.04.03.13 0 .33-.15.78.5-.04 1.07-.52 1.2-1.1.04-.16.1-.36.13-.55.05-.32.12-.63.12-.64-.48 0-.95 0-1.42 0m16.82-.6c0-.03-.07-.1-.14-.1-.22-.05-.9-.15-1.46-.27-1.47-.35-3.33-1-4.17-.74-.73.2-1.26.96-1.42 1.2-.05.06.03.07.03.07h7.1s.03 0 .04 0c0-.02.05-.03.05-.06 0 0 0-.1 0-.1m-18.1-.2c.3-.05 1.3-.15 2.07-.3 2.1-.45 4.85-1.23 6.06-.94 1.17.28 1.72 1.25 1.86 1.54.03.06-.06.06-.06.06h-10s-.12 0-.13-.08c0-.06-.04-.24.23-.3m8.2-8.37c.78.3 1.2-.77.7-1.4-.1-.1.07-.05.14-.02.26.12.75.4 1.04 1.08.2.45-.06 1.14-.46 1.28-.36-.18-1.16-.54-1.4-.94M44 44.5c.13.2 0 .48-.3.14-.1-.12-.18-.27-.1-.3.08-.03.3.04.4.17m-1.94-6.04c-1.2-.76-1.6-.74-1.43-2.3.14-.9.53-1.45.7-1.65.1-.1.1 0 .1 0-1.37 3 .67 4.03.63 3.97m-6.53-2.56c0-.64.6-1.8.6-1.4 0 .4-.8 2.94 3.66 5.84.04.03.06.1.02.1-1.8 0-2.76-.7-3.4-1.2-.7-.58-.96-1.2-1.04-1.45-.05-.14.03-.1.04-.08.36.53 1.33 1.6 2.1 1.8 0 0-2.02-1.54-1.98-3.6m5.67-2.24c-1.37 2.02-.57 3.48-.45 3.67.54.88 1.85 1.35 3.6 2.72.2.13 1.7 1.6 1.65 3.15 0 .14-.03.24 0 .23.4-.1 1.6-2 .56-3.7-.67-1.12-3.04-2.7-3.05-2.7-.2-.12.66.06 1.3.38 1.2.6 5.6 3.25 1.14 7.23-.72.64-1.88 2-2.1 2.2-.03.05-.04.02-.05 0-.25-.38-.13-2-2.78-2-1.35 0-3.3.07-5-.6-3.05-1.2-2.9-3.64-2.65-4.64.25-1.37 1.42-1.8 1.4-1.7-.1.54-.7 2.37.04 3.73 1.5 3.1 5.3 1.94 7.5 2.7 1.6.54 1.5 1.42 1.66 1.7.06.1.56-.63.88-1.25.4-.8.35-2.1-.2-3.1-.24-.45-1-1.24-3.02-2.46-4.15-2.5-.7-5.72-.42-5.55m2.97 13.83c1.87 0 6.35 0 6.77 0 .1 0 .46 0 .54 0 .07 0 .06.4-.02.45-.08 0-5.47 0-7.3 0-.03 0-.05-.03-.06-.04-.02-.02-.02-.34 0-.37.02-.03.04-.03.07-.03m-10.92 0c.27 0 .94 0 1 0 0 0 .14 0 .17 0 .17 0 .04.38.02.4-.03.05-.18.04-.2.04-.06 0-.72 0-1 0-.03 0-.06-.03-.07-.04 0-.03 0-.34 0-.37 0-.03.04-.04.08-.04m3.2 0c.83 0 2.36 0 3.77-.03 1.7 0 3.17 0 3.27 0 0 0 .03.03.04.06.02.08.02.27 0 .36-.02 0-.04.03-.06.04-.1 0-7.12 0-7.2 0-.02 0 .07-.4.08-.43.02 0 .04-.02.07-.02"/></g></g></svg>