<svg width="300" height="300" version="1.1" viewBox="0 0 79.377 79.377" xmlns="http://www.w3.org/2000/svg"><g transform="matrix(.93749 0 0 .93749 .0084374 .07951)"><path d="m42.326 6.3817c19.847 0 35.867 16.02 35.867 35.867s-16.02 35.869-35.867 35.869-35.869-16.022-35.869-35.869 16.022-35.867 35.869-35.867z" color="#000000" color-rendering="auto" dominant-baseline="auto" fill="#fff" image-rendering="auto" shape-rendering="auto" solid-color="#000000" stroke-width="1.1376" style="font-feature-settings:normal;font-variant-alternates:normal;font-variant-caps:normal;font-variant-ligatures:normal;font-variant-numeric:normal;font-variant-position:normal;isolation:auto;mix-blend-mode:normal;shape-padding:0;text-decoration-color:#000000;text-decoration-line:none;text-decoration-style:solid;text-indent:0;text-orientation:mixed;text-transform:none;white-space:normal"/><path d="m42.326-0.084811c-23.342 0-42.335 18.991-42.335 42.334s18.993 42.335 42.335 42.335 42.334-18.993 42.334-42.335-18.991-42.334-42.334-42.334zm0 6.4665c19.847 0 35.867 16.02 35.867 35.867s-16.02 35.869-35.867 35.869-35.869-16.022-35.869-35.869 16.022-35.867 35.869-35.867z" color="#000000" color-rendering="auto" dominant-baseline="auto" fill="#aca5af" image-rendering="auto" shape-rendering="auto" solid-color="#000000" stroke-width="1.1376" style="font-feature-settings:normal;font-variant-alternates:normal;font-variant-caps:normal;font-variant-ligatures:normal;font-variant-numeric:normal;font-variant-position:normal;isolation:auto;mix-blend-mode:normal;shape-padding:0;text-decoration-color:#000000;text-decoration-line:none;text-decoration-style:solid;text-indent:0;text-orientation:mixed;text-transform:none;white-space:normal"/><g transform="matrix(1.015 0 0 1.015 -.051086 -.62005)" stroke-width="1.0666"><path d="m29.302 43.641-0.61072-1.8907-0.47801-1.9291-0.34324-1.9579-0.20658-1.9772-0.06889-1.9869 0.06889-1.9869 0.20658-1.9771 0.34324-1.9579 0.47801-1.9291 0.61072-1.8908 0.74026-1.8433 0.86637-1.7869 0.9881-1.7218 1.105-1.6481 1.2167-1.5667 1.3223-1.4774 1.4215-1.381 1.5139-1.2779 1.5987-1.1685 1.6759-1.0536 1.6759 1.0536 1.5987 1.1685 1.5139 1.2779 1.4215 1.381 1.3223 1.4774 1.2167 1.5667 1.105 1.6481 0.9881 1.7218 0.86637 1.7869 0.74026 1.8433 0.61072 1.8908 0.47809 1.9291 0.34315 1.9579 0.20658 1.9771 0.06889 1.9869-0.06889 1.9869-0.20658 1.9772-0.34315 1.9579-0.47809 1.9291-0.61072 1.8907-0.74026 1.8434-0.86637 1.7868-0.9881 1.7218-1.105 1.6482-1.2167 1.5666-1.3223 1.4774-1.4215 1.3811-1.5139 1.2779-1.5987 1.1685-1.6759 1.0535-1.6759-1.0535-1.5987-1.1685-1.5139-1.2779-1.4215-1.381-1.3223-1.4775-1.2167-1.5666-1.105-1.6482-0.9881-1.7218-0.86637-1.7868z" fill="#ffb612"/><path d="m27.606 34.072 1.7503-0.92467 1.8113-0.80029 1.8636-0.67214 1.9067-0.54056 1.9407-0.40643 1.965-0.27045 1.9799-0.1329 1.9851 0.0051 1.9806 0.14309 1.9665 0.28056 1.9427 0.41644 1.9096 0.55053 1.8671 0.68166 1.8155 0.80968 1.7551 0.93375 1.6862 1.0531 1.6089 1.1674 1.5239 1.2762 1.4316 1.3785 1.3321 1.4743 1.2261 1.5627 1.1143 1.6437 0.99698 1.7166 0.87477 1.781 0.74837 1.837 0.61828 1.8839 0.48522 1.9215 0.34971 1.95 0.21259 1.9688 0.07444 1.9782-1.7504 0.92463-1.8113 0.80029-1.8636 0.67214-1.9067 0.54056-1.9406 0.40648-1.9651 0.2704-1.9798 0.13294-1.9851-0.0051-1.9806-0.14313-1.9664-0.28052-1.9428-0.41648-1.9096-0.55046-1.8671-0.68173-1.8155-0.80963-1.7551-0.93375-1.6862-1.0531-1.609-1.1675-1.5239-1.2761-1.4315-1.3785-1.332-1.4742-1.2262-1.5627-1.1142-1.6437-0.99698-1.7166-0.87484-1.7811-0.74829-1.837-0.61829-1.8839-0.48529-1.9216-0.34971-1.95-0.21259-1.9688z" fill="#c60c30"/><path d="m55.895 34.072-0.07436 1.9781-0.21259 1.9688-0.34971 1.95-0.48522 1.9215-0.61836 1.8839-0.74829 1.837-0.87484 1.7811-0.99698 1.7166-1.1142 1.6437-1.2262 1.5627-1.332 1.4742-1.4316 1.3785-1.5239 1.2762-1.609 1.1675-1.6862 1.0531-1.7551 0.93375-1.8155 0.80963-1.8671 0.68166-1.9096 0.55053-1.9428 0.41648-1.9664 0.28052-1.9806 0.14313-1.9851 0.0051-1.9798-0.13294-1.9651-0.2704-1.9406-0.40648-1.9067-0.54056-1.8636-0.67214-1.8113-0.80029-1.7504-0.92463 0.07444-1.9782 0.21259-1.9688 0.34971-1.95 0.48522-1.9215 0.61828-1.8839 0.74837-1.837 0.87477-1.781 0.99698-1.7166 1.1143-1.6437 1.2261-1.5627 1.3321-1.4743 1.4315-1.3785 1.5239-1.2761 1.6089-1.1674 1.6862-1.0531 1.7551-0.93375 1.8155-0.80968 1.8671-0.68173 1.9096-0.55046 1.9427-0.41644 1.9665-0.28056 1.9806-0.14309 1.9851-0.0051 1.9799 0.1329 1.965 0.27045 1.9406 0.40648 1.9068 0.54052 1.8636 0.67214 1.8113 0.80029z" fill="#003087"/><path d="m41.75 30.329-1.003 0.0026-0.72706 0.04858-1.2717 0.09198-0.48937 0.06718-1.4883 0.21239-0.37102 0.07803-1.5653 0.33538-0.4873 0.13849-1.4025 0.40359-0.84385 0.30437-0.99165 0.36173-1.6293 0.72037-0.13126 0.05839-1.7441 0.92137 0.0739 1.959 0.04186 0.4005 0.16175 1.5012 0.26148 1.4929 0.07493 0.41806 0.47233 1.9053 0.61081 1.8903 0.74 1.8433 0.86661 1.7869 0.98805 1.7218 0.9772 1.4578 0.13901 0.20515 1.064 1.3694 0.15296 0.19482 1.2102 1.3529 0.10852 0.11989 1.4133 1.3735 1.5141 1.2774 1.5989 1.1689 1.6758 1.0532 1.6758-1.0532 1.5989-1.1689 1.5136-1.2774 1.4133-1.3735 0.1173-0.12919 1.1979-1.3389 0.19792-0.25166 1.0227-1.3172 0.14831-0.21807 0.9622-1.4361 0.06976-0.11989 0.92447-1.6107 0.8666-1.7869 0.74-1.8433 0.61081-1.8903 0.4718-1.9048 0.08165-0.45526 0.25424-1.449 0.16588-1.5363 0.03876-0.37258 0.0739-1.959-1.7441-0.92137-0.12764-0.05685-1.6361-0.72294-0.96842-0.35345-0.86401-0.3116-1.4025-0.40359-0.4873-0.13849-1.5653-0.33538-0.37105-0.07803-1.4883-0.21239-0.48937-0.06718-1.2717-0.09198-0.72707-0.04858z" fill="#101820"/><path d="m32.49 48.069c0 0.12963 0.10534 0.23492 0.23475 0.23492 0.12958 0 0.23556-0.10529 0.23556-0.23492 0-0.12928-0.10598-0.23534-0.23556-0.23534-0.12941 0-0.23475 0.10606-0.23475 0.23534m0.03916 0c0-0.1084 0.08789-0.19546 0.1956-0.19546 0.10858 0 0.19582 0.08707 0.19582 0.19546 0 0.10785-0.08724 0.19568-0.19582 0.19568-0.10772 0-0.1956-0.08784-0.1956-0.19568m0.11382 0.10666c0 0.0066 0.0051 0.01262 0.01253 0.01262h0.01692c0.0072 0 0.01257-6e-3 0.01257-0.01262v-0.07817h0.04818l0.03677 0.08146c0.0017 4e-3 0.0064 0.0093 0.01166 0.0093h0.0222c0.0093 0 0.01574-0.0098 0.01112-0.01801-0.01284-0.02542-0.02596-0.0517-0.03916-0.07698 0.01836-0.0045 0.05288-0.02222 0.05288-0.07106 0-0.04899-0.0397-0.07329-0.08037-0.07329h-0.09282c-0.0073 0-0.01253 0.0056-0.01253 0.01225zm0.04125-0.11624v-0.07467h0.0641c0.02407 0 0.03949 0.01495 0.03949 0.03746 0 0.01996-0.01542 0.03718-0.03949 0.03718h-0.0641m2.8737 0.32884-0.02601 0.0845c-0.0066 0.02134-0.02131 0.04017-0.03127 0.04017l-0.24373-2e-3 -0.16154 0.52465c-0.0043 0.01399-0.02826 0.02659-0.0504 0.02635l-0.08879-6.78e-4c-0.02234-1.41e-4 -0.03839-0.01295-0.03415-0.02686l0.16154-0.52488-0.24337-0.0018c-0.01003 0-0.01326-0.01886-0.0066-0.04011l0.02588-0.0845c0.0066-0.02126 0.02139-0.04003 0.03139-0.0399l0.2434 0.0017 0.07482-0.24305c0.0043-0.01402 0.02826-0.02646 0.05045-0.02624l0.08897 6.88e-4c0.02215 1.28e-4 0.03828 0.01294 0.03392 0.02708l-0.07476 0.24295 0.24364 0.0018c0.01003 9.3e-5 0.01316 0.01915 0.0066 0.04013zm-0.88913-0.53909c-0.05097 0.58427-0.27601 0.93426-0.54782 1.2044-0.08282 0.0825-0.28339 0.22184-0.29068 0.22184 0.07043 0.06441 0.8622 0.04117 0.93704 0.04117 0.02817 0.12193-0.01458 0.3209-0.14586 0.7585 0.48933-0.04572 1.0574-0.50501 1.1878-1.0692 0.03646-0.15602 0.09846-0.35404 0.12499-0.53527 0.04596-0.31119 0.10985-0.61107 0.10985-0.62138h-1.3753m16.332-0.56955c-0.01399-0.03185-0.06956-0.10269-0.13291-0.11436-0.2265-0.04038-0.89304-0.1286-1.4261-0.25322-1.4328-0.33502-3.236-0.97206-4.0563-0.71216-0.71076 0.22533-1.2247 0.95313-1.3795 1.183-0.04038 0.05998 0.03138 0.06499 0.03138 0.06499h6.8869s0.03887-0.0018 0.04761-0.0075c0.0099-0.0065 0.03722-0.01936 0.03722-0.04738 6.99e-4 -0.02078 0.0064-0.08706-0.0082-0.11331m-17.55-0.19353c0.31781-0.06149 1.2631-0.16243 2.0166-0.3202 2.0259-0.42347 4.7059-1.1794 5.8798-0.89817 1.1359 0.27165 1.6702 1.2092 1.8073 1.4938 0.04049 0.08332-0.04387 0.08227-0.04387 0.08227h-9.7294s-0.13492-4.68e-4 -0.1419-0.07667c-0.0045-0.05029-0.04944-0.22988 0.2114-0.28099m7.9998-8.1748c0.75161 0.31787 1.1511-0.74087 0.6747-1.3361-0.08332-0.1175 0.07072-0.07025 0.13431-0.03968 0.24984 0.12043 0.72559 0.395 1.0072 1.0449 0.19126 0.44202-0.06453 1.1131-0.45358 1.25-0.36244-0.17702-1.1316-0.52254-1.3627-0.91917m2.1874 6.0559c0.12626 0.18368-0.0073 0.44985-0.28869 0.12101-0.09802-0.11552-0.17865-0.25777-0.09965-0.28694 0.07957-0.02964 0.29954 0.03583 0.38834 0.16593m-1.8862-5.8908c-1.1515-0.73026-1.5479-0.711-1.3825-2.2325 0.13046-0.88451 0.51554-1.4034 0.68066-1.5958 0.08517-0.10678 0.09672-0.02744 0.07841-9.35e-4 -1.3111 2.8868 0.66432 3.8933 0.62348 3.8293m-6.3226-2.4806c-0.01831-0.63643 0.58998-1.741 0.58998-1.3756 0 0.38088-0.7951 2.8599 3.5343 5.6714 0.04761 0.02848 0.06582 0.08706 0.02696 0.08706-1.7487 0.0069-2.6659-0.66782-3.2947-1.1423-0.68669-0.5726-0.92897-1.1715-1.0071-1.4128-0.04627-0.12848 0.02597-0.08775 0.04035-0.06709 0.33503 0.48613 1.2829 1.5449 2.0201 1.7223 0.02225 5e-3 -1.9531-1.492-1.9099-3.4831m5.505-2.1907c-1.3221 1.9663-0.54658 3.3803-0.43246 3.5653 0.52768 0.85348 1.8025 1.3163 3.5103 2.6415 0.16885 0.13104 1.6511 1.5572 1.5863 3.06-0.0033 0.14318-0.01785 0.24529 0.0064 0.23793 0.37353-0.11225 1.5551-1.939 0.55336-3.6064-0.6495-1.0812-2.9554-2.6005-2.9667-2.6075-0.20421-0.11856 0.62196 0.04958 1.2766 0.36594 1.1421 0.55194 5.4062 3.137 1.0766 6.999-0.69875 0.6229-1.8248 1.9465-2.0365 2.1453-0.03291 0.03524-0.04599 0.0076-0.05194-0.0021-0.22802-0.38065-0.10478-1.9471-2.6763-1.9505-1.32-0.0021-3.2037 0.07315-4.8447-0.56724-2.9876-1.1662-2.8263-3.5518-2.6011-4.5196 0.24614-1.3217 1.3825-1.7453 1.3652-1.661-0.11213 0.54016-0.68921 2.3212 0.03701 3.6464 1.4681 3.0053 5.1441 1.8757 7.2765 2.6068 1.55 0.53142 1.4624 1.3921 1.6041 1.6587 0.05859 0.11027 0.5516-0.60808 0.85932-1.2085 0.39745-0.77425 0.33969-2.0562-0.18519-3.0057-0.24413-0.44214-0.97844-1.2141-2.943-2.3976-4.0429-2.436-0.6782-5.5574-0.41379-5.401m2.888 13.44h6.578c0.09942 0 0.44914-0.0076 0.51846 0.0075 0.07574 0.01727 0.0616 0.40792-0.01936 0.43349-0.07679 0.0098-5.3079 0.0022-7.0824 0.0022-0.03244-0.0034-0.05321-0.0299-0.0616-0.04284-0.01657-0.02626-0.01399-0.33685 0-0.3642 0.01634-0.03076 0.04015-0.03172 0.06698-0.03627m-10.605 0h0.97236c0.01435 0 0.13644 0.0021 0.16469 0.0021 0.16601 0 0.03851 0.37998 0.02653 0.40528-0.03031 0.04052-0.17536 0.02977-0.19032 0.02977h-0.97322c-0.0303-0.0041-0.06792-0.02371-0.06906-0.03665-0.0025-0.02625-0.0025-0.32778-0.0025-0.35368 0-0.03198 0.04126-0.04225 0.07157-0.0468m3.1119 0c0.80202 0 2.2866 0.0021 3.6569-0.0074 1.6468-0.0119 3.085 0.01203 3.1772 0.01203 0.01039 0 0.04935 0.02266 0.05553 0.04473 0.02311 0.08274 0.01901 0.26279-0.0098 0.34957-0.0077 0.02557-0.02195 0.03972-0.04575 0.04727-0.07748 0.0011-6.9008 0-6.9664 0-0.02963 0 0.05083-0.38403 0.06735-0.40983 0.01164-0.01819 0.03353-0.02918 0.06497-0.03627" fill="#fff"/></g></g></svg>
