<svg width="480.3" height="598.98" version="1.1" viewBox="0 0 127.08 158.48" xmlns="http://www.w3.org/2000/svg"><g transform="translate(-.26458 -.26458)"><g transform="translate(21.401 .26508)" aria-label="PGHNaz triquetra-steelmark"><circle cx="42.334" cy="42.333" r="41.687" fill="#fff" stroke="#101820" stroke-width="1.293"/><circle cx="42.334" cy="42.333" r="38.524" fill="none" stroke="#aca5af" stroke-width="6.467"/><g transform="translate(.3423)"><g transform="matrix(.26458 0 0 .26458 -60.795 -105.1)" stroke="#101820"><g stroke-width="9.2248"><path transform="matrix(.32424 0 0 .32619 226.37 417.06)" d="m354.89 446.01-7.119-21.908-5.572-22.352-4.001-22.686-2.408-22.91-0.803-23.022 0.803-23.022 2.408-22.909 4.001-22.686 5.572-22.352 7.119-21.909 8.629-21.358 10.099-20.705 11.518-19.95 12.881-19.097 14.183-18.153 15.414-17.119 16.57-16.002 17.647-14.807 18.636-13.54 19.536-12.208 19.536 12.208 18.636 13.54 17.647 14.807 16.57 16.002 15.414 17.119 14.183 18.153 12.881 19.097 11.518 19.95 10.099 20.705 8.629 21.358 7.119 21.909 5.573 22.352 4 22.686 2.408 22.909 0.803 23.022-0.803 23.022-2.408 22.91-4 22.686-5.573 22.352-7.119 21.908-8.629 21.359-10.099 20.704-11.518 19.95-12.881 19.098-14.183 18.152-15.414 17.119-16.57 16.003-17.647 14.807-18.636 13.54-19.536 12.207-19.536-12.207-18.636-13.54-17.647-14.807-16.57-16.002-15.414-17.12-14.183-18.152-12.881-19.098-11.518-19.95-10.099-20.704z" fill="#ffb612"/><path transform="matrix(-.16212 .2808 -.28248 -.16309 590.93 486.92)" d="m500 618.95-19.536-12.207-18.636-13.54-17.647-14.807-16.57-16.002-15.414-17.12-14.183-18.152-12.881-19.098-11.518-19.95-10.099-20.704-8.629-21.359-7.119-21.908-5.572-22.352-4.001-22.686-2.408-22.91-0.803-23.022 0.803-23.022 2.408-22.909 4.001-22.686 5.572-22.352 7.119-21.909 8.629-21.358 10.099-20.705 11.518-19.95 12.881-19.097 14.183-18.153 15.414-17.119 16.57-16.002 17.647-14.807 18.636-13.54 19.536-12.208 19.536 12.208 18.636 13.54 17.647 14.807 16.57 16.002 15.414 17.119 14.183 18.153 12.881 19.097 11.518 19.95 10.099 20.705 8.629 21.358 7.119 21.909 5.573 22.352 4 22.686 2.408 22.909 0.803 23.022-0.803 23.022-2.408 22.91-4 22.686-5.573 22.352-7.119 21.908-8.629 21.359-10.099 20.704-11.518 19.95-12.881 19.098-14.183 18.152-15.414 17.119-16.57 16.003-17.647 14.807-18.636 13.54z" fill="#c60c30"/><path transform="matrix(-.16212 -.2808 .28248 -.16309 348.17 767.72)" d="m500 618.95-19.536-12.207-18.636-13.54-17.647-14.807-16.57-16.002-15.414-17.12-14.183-18.152-12.881-19.098-11.518-19.95-10.099-20.704-8.629-21.359-7.119-21.908-5.572-22.352-4.001-22.686-2.408-22.91-0.803-23.022 0.803-23.022 2.408-22.909 4.001-22.686 5.572-22.352 7.119-21.909 8.629-21.358 10.099-20.705 11.518-19.95 12.881-19.097 14.183-18.153 15.414-17.119 16.57-16.002 17.647-14.807 18.636-13.54 19.536-12.208 19.536 12.208 18.636 13.54 17.647 14.807 16.57 16.002 15.414 17.119 14.183 18.153 12.881 19.097 11.518 19.95 10.099 20.705 8.629 21.358 7.119 21.909 5.573 22.352 4 22.686 2.408 22.909 0.803 23.022-0.803 23.022-2.408 22.91-4 22.686-5.573 22.352-7.119 21.908-8.629 21.359-10.099 20.704-11.518 19.95-12.881 19.098-14.183 18.152-15.414 17.119-16.57 16.003-17.647 14.807-18.636 13.54z" fill="#003087"/></g><path d="m388.49 512.23-3.791 0.01-2.748 0.1836-4.8066 0.34765-1.8496 0.25391-5.625 0.80273-1.4023 0.29492-5.916 1.2676-1.8418 0.52344-5.3008 1.5254-3.1894 1.1504-3.748 1.3672-6.1582 2.7227-0.4961 0.2207-6.5918 3.4824 0.27929 7.4043 0.15821 1.5137 0.61133 5.6738 0.98828 5.6426 0.2832 1.5801 1.7852 7.2012 2.3086 7.1445 2.7969 6.9668 3.2754 6.7539 3.7344 6.5078 3.6934 5.5098 0.52539 0.77539 4.0215 5.1758 0.57812 0.73633 4.5742 5.1133 0.41016 0.45312 5.3418 5.1914 5.7227 4.8281 6.043 4.418 6.334 3.9805 6.334-3.9805 6.043-4.418 5.7207-4.8281 5.3418-5.1914 0.44336-0.48828 4.5274-5.0605 0.74805-0.95118 3.8652-4.9785 0.56055-0.82422 3.6367-5.4277 0.26367-0.45313 3.4941-6.0879 3.2754-6.7539 2.7969-6.9668 2.3086-7.1445 1.7832-7.1992 0.30859-1.7207 0.96094-5.4766 0.62695-5.8066 0.14649-1.4082 0.2793-7.4043-6.5918-3.4824-0.48242-0.21485-6.1836-2.7324-3.6602-1.3359-3.2656-1.1777-5.3008-1.5254-1.8418-0.52344-5.916-1.2676-1.4024-0.29492-5.625-0.80273-1.8496-0.25391-4.8066-0.34765-2.748-0.1836z" fill="#101820" stroke-width="3"/></g><path d="m32.731 48.165c0 0.12963 0.10534 0.23492 0.23475 0.23492 0.12958 0 0.23556-0.10529 0.23556-0.23492 0-0.12928-0.10598-0.23534-0.23556-0.23534-0.12941 0-0.23475 0.10606-0.23475 0.23534m0.03916 0c0-0.1084 0.08789-0.19546 0.1956-0.19546 0.10858 0 0.19582 0.08707 0.19582 0.19546 0 0.10785-0.08724 0.19568-0.19582 0.19568-0.10772 0-0.1956-0.08784-0.1956-0.19568m0.11382 0.10666c0 0.0066 0.0051 0.01262 0.01253 0.01262h0.01692c0.0072 0 0.01257-6e-3 0.01257-0.01262v-0.07817h0.04818l0.03677 0.08146c0.0017 4e-3 0.0064 0.0093 0.01166 0.0093h0.0222c0.0093 0 0.01574-0.0098 0.01112-0.01801-0.01284-0.02542-0.02596-0.0517-0.03916-0.07698 0.01836-0.0045 0.05288-0.02222 0.05288-0.07106 0-0.04899-0.0397-0.07329-0.08037-0.07329h-0.09282c-0.0073 0-0.01253 0.0056-0.01253 0.01225zm0.04125-0.11624v-0.07467h0.0641c0.02407 0 0.03949 0.01495 0.03949 0.03746 0 0.01996-0.01542 0.03718-0.03949 0.03718h-0.0641m2.8737 0.32884-0.02601 0.0845c-0.0066 0.02134-0.02131 0.04017-0.03127 0.04017l-0.24373-2e-3 -0.16154 0.52465c-0.0043 0.01399-0.02826 0.02659-0.0504 0.02635l-0.08879-6.78e-4c-0.02234-1.41e-4 -0.03839-0.01295-0.03415-0.02686l0.16154-0.52488-0.24337-0.0018c-0.01003 0-0.01326-0.01886-0.0066-0.04011l0.02588-0.0845c0.0066-0.02126 0.02139-0.04003 0.03139-0.0399l0.2434 0.0017 0.07482-0.24305c0.0043-0.01402 0.02826-0.02646 0.05045-0.02624l0.08897 6.88e-4c0.02215 1.28e-4 0.03828 0.01294 0.03392 0.02708l-0.07476 0.24295 0.24364 0.0018c0.01003 9.3e-5 0.01316 0.01915 0.0066 0.04013zm-0.88913-0.53909c-0.05097 0.58427-0.27601 0.93426-0.54782 1.2044-0.08282 0.0825-0.28339 0.22184-0.29068 0.22184 0.07043 0.06441 0.8622 0.04117 0.93704 0.04117 0.02817 0.12193-0.01458 0.3209-0.14586 0.7585 0.48933-0.04572 1.0574-0.50501 1.1878-1.0692 0.03646-0.15602 0.09846-0.35404 0.12499-0.53527 0.04596-0.31119 0.10985-0.61107 0.10985-0.62138h-1.3753m16.332-0.56955c-0.01399-0.03185-0.06956-0.10269-0.13291-0.11436-0.2265-0.04038-0.89304-0.1286-1.4261-0.25322-1.4328-0.33502-3.236-0.97206-4.0563-0.71216-0.71076 0.22533-1.2247 0.95313-1.3795 1.183-0.04038 0.05998 0.03138 0.06499 0.03138 0.06499h6.8869s0.03887-0.0018 0.04761-0.0075c0.0099-0.0065 0.03722-0.01936 0.03722-0.04738 6.99e-4 -0.02078 0.0064-0.08706-0.0082-0.11331m-17.55-0.19353c0.31781-0.06149 1.2631-0.16243 2.0166-0.3202 2.0259-0.42347 4.7059-1.1794 5.8798-0.89817 1.1359 0.27165 1.6702 1.2092 1.8073 1.4938 0.04049 0.08332-0.04387 0.08227-0.04387 0.08227h-9.7294s-0.13492-4.68e-4 -0.1419-0.07667c-0.0045-0.05029-0.04944-0.22988 0.2114-0.28099m7.9998-8.1748c0.75161 0.31787 1.1511-0.74087 0.6747-1.3361-0.08332-0.1175 0.07072-0.07025 0.13431-0.03968 0.24984 0.12043 0.72559 0.395 1.0072 1.0449 0.19126 0.44202-0.06453 1.1131-0.45358 1.25-0.36244-0.17702-1.1316-0.52254-1.3627-0.91917m2.1874 6.0559c0.12626 0.18368-0.0073 0.44985-0.28869 0.12101-0.09802-0.11552-0.17865-0.25777-0.09965-0.28694 0.07957-0.02964 0.29954 0.03583 0.38834 0.16593m-1.8862-5.8908c-1.1515-0.73026-1.5479-0.711-1.3825-2.2325 0.13046-0.88451 0.51554-1.4034 0.68066-1.5958 0.08517-0.10678 0.09672-0.02744 0.07841-9.35e-4 -1.3111 2.8868 0.66432 3.8933 0.62348 3.8293m-6.3226-2.4806c-0.01831-0.63643 0.58998-1.741 0.58998-1.3756 0 0.38088-0.7951 2.8599 3.5343 5.6714 0.04761 0.02848 0.06582 0.08706 0.02696 0.08706-1.7487 0.0069-2.6659-0.66782-3.2947-1.1423-0.68669-0.5726-0.92897-1.1715-1.0071-1.4128-0.04627-0.12848 0.02597-0.08775 0.04035-0.06709 0.33503 0.48613 1.2829 1.5449 2.0201 1.7223 0.02225 5e-3 -1.9531-1.492-1.9099-3.4831m5.505-2.1907c-1.3221 1.9663-0.54658 3.3803-0.43246 3.5653 0.52768 0.85348 1.8025 1.3163 3.5103 2.6415 0.16885 0.13104 1.6511 1.5572 1.5863 3.06-0.0033 0.14318-0.01785 0.24529 0.0064 0.23793 0.37353-0.11225 1.5551-1.939 0.55336-3.6064-0.6495-1.0812-2.9554-2.6005-2.9667-2.6075-0.20421-0.11856 0.62196 0.04958 1.2766 0.36594 1.1421 0.55194 5.4062 3.137 1.0766 6.999-0.69875 0.6229-1.8248 1.9465-2.0365 2.1453-0.03291 0.03524-0.04599 0.0076-0.05194-0.0021-0.22802-0.38065-0.10478-1.9471-2.6763-1.9505-1.32-0.0021-3.2037 0.07315-4.8447-0.56724-2.9876-1.1662-2.8263-3.5518-2.6011-4.5196 0.24614-1.3217 1.3825-1.7453 1.3652-1.661-0.11213 0.54016-0.68921 2.3212 0.03701 3.6464 1.4681 3.0053 5.1441 1.8757 7.2765 2.6068 1.55 0.53142 1.4624 1.3921 1.6041 1.6587 0.05859 0.11027 0.5516-0.60808 0.85932-1.2085 0.39745-0.77425 0.33969-2.0562-0.18519-3.0057-0.24413-0.44214-0.97844-1.2141-2.943-2.3976-4.0429-2.436-0.6782-5.5574-0.41379-5.401m2.888 13.44h6.578c0.09942 0 0.44914-0.0076 0.51846 0.0075 0.07574 0.01727 0.0616 0.40792-0.01936 0.43349-0.07679 0.0098-5.3079 0.0022-7.0824 0.0022-0.03244-0.0034-0.05321-0.0299-0.0616-0.04284-0.01657-0.02626-0.01399-0.33685 0-0.3642 0.01634-0.03076 0.04015-0.03172 0.06698-0.03627m-10.605 0h0.97236c0.01435 0 0.13644 0.0021 0.16469 0.0021 0.16601 0 0.03851 0.37998 0.02653 0.40528-0.03031 0.04052-0.17536 0.02977-0.19032 0.02977h-0.97322c-0.0303-0.0041-0.06792-0.02371-0.06906-0.03665-0.0025-0.02625-0.0025-0.32778-0.0025-0.35368 0-0.03198 0.04126-0.04225 0.07157-0.0468m3.1119 0c0.80202 0 2.2866 0.0021 3.6569-0.0074 1.6468-0.0119 3.085 0.01203 3.1772 0.01203 0.01039 0 0.04935 0.02266 0.05553 0.04473 0.02311 0.08274 0.01901 0.26279-0.0098 0.34957-0.0077 0.02557-0.02195 0.03972-0.04575 0.04727-0.07748 0.0011-6.9008 0-6.9664 0-0.02963 0 0.05083-0.38403 0.06735-0.40983 0.01164-0.01819 0.03353-0.02918 0.06497-0.03627" fill="#fff" stroke-width=".12015"/></g></g><g aria-label="PITTSBURGH DISTRICT CHURCH OF THE NAZARENE"><g transform="matrix(1.0046 0 0 1.0047 -.37133 -.54706)"><path d="m126.93 96.202v12.863h-2.0797v-5.6693h-6.6115v5.6693h-2.0564v-12.863h2.0564v5.3797h6.6115v-5.3873zm-16.296 11.266q-1.6606 1.6878-3.8179 1.6878-1.3114 0-2.4366-0.52578-1.1252-0.55245-1.9555-1.4592-0.83031-0.90297-1.3114-2.0955-0.4656-1.2002-0.4656-2.5032t0.4656-2.4765q0.48112-1.1811 1.3114-2.0688 0.83032-0.88773 1.9788-1.3945 1.1368-0.51816 2.4832-0.51816 1.8857 0 3.1583 0.77724 1.2726 0.762 1.9167 2.0307l-1.5908 1.1277q-0.53155-1.0515-1.4744-1.5773-0.93896-0.52197-2.0642-0.52197-0.91956 0-1.6762 0.40005-0.75659 0.381-1.292 1.0287-0.53544 0.63626-0.83032 1.4859-0.2716 0.85344-0.2716 1.7793 0 0.97917 0.3104 1.8288 0.33756 0.85343 0.8924 1.4859 0.57036 0.63246 1.3464 1.0135 0.776 0.36576 1.6762 0.36576 0.99327 0 1.9012-0.4572 0.91956-0.4572 1.746-1.4288v-1.3792h-2.7548v-1.5011h4.493v6.4998h-1.7382zm-22.803 1.6002v-12.866h5.7036q0.88464 0 1.6218 0.36195 0.76436 0.36195 1.2998 0.96012 0.53544 0.57912 0.83032 1.3411 0.3104 0.74295 0.3104 1.524 0 0.6477-0.18624 1.2459-0.18236 0.59817-0.51216 1.1049-0.33368 0.51054-0.8148 0.88773-0.47724 0.36195-1.0476 0.54483l3.0807 4.8844h-2.3435l-2.844-4.4767h-3.0264v4.4767zm2.068-6.2712h3.6161q0.44232 0 0.79152-0.18288 0.3686-0.19811 0.62856-0.52577 0.25608-0.3429 0.40352-0.77724t0.14744-0.92583q0-0.48767-0.18236-0.92201-0.1746-0.43434-0.4656-0.762-0.2716-0.32766-0.6596-0.50673-0.37636-0.19812-0.776-0.19812h-3.5114zm-11.935 4.5263q1.036 0 1.7188-0.39624 0.68288-0.40005 1.0864-1.0287 0.4268-0.65532 0.58976-1.4706 0.18624-0.8382 0.18624-1.7031v-6.5303h2.0836v6.5227q0 1.3183-0.3104 2.4956-0.3104 1.1582-0.99716 2.046-0.68288 0.86867-1.7732 1.3792-1.0709 0.50673-2.5841 0.50673-1.5675 0-2.6539-0.52578-1.0709-0.54864-1.7344-1.4364-0.67124-0.90678-0.97-2.065-0.29488-1.1544-0.29488-2.4003v-6.5265h2.068v6.5227q0 0.88392 0.16684 1.7145 0.18624 0.81533 0.59364 1.4668 0.4268 0.63627 1.1058 1.0363 0.6984 0.381 1.715 0.381zm-9.0869-1.5735q0 0.77724-0.3298 1.3945-0.3104 0.6096-0.86912 1.0439-0.5432 0.4191-1.2804 0.6477-0.7372 0.22098-1.5675 0.22098h-6.2545v-12.863h6.7512q0.68288 0 1.2416 0.28956 0.55096 0.28956 0.93896 0.762 0.388 0.44958 0.58976 1.0477 0.21728 0.58293 0.21728 1.1811 0 0.94106-0.5044 1.7716-0.47336 0.81534-1.3774 1.2192 1.1252 0.32384 1.7693 1.1925 0.6596 0.84963 0.6596 2.0841zm-2.1185-0.381q0-0.40004-0.14744-0.76199-0.13192-0.36195-0.37248-0.63246-0.22116-0.27432-0.55096-0.43434-0.33368-0.16383-0.72168-0.16383h-4.3145v3.9319h4.1904q0.40352 0 0.75272-0.14478 0.3492-0.16383 0.60916-0.4191 0.2522-0.2667 0.39964-0.6096 0.14744-0.36957 0.14744-0.762zm-6.1071-7.4104v3.7871h3.8024q0.388 0 0.6984-0.14478 0.33368-0.14478 0.57036-0.381 0.25996-0.25527 0.388-0.59817 0.14744-0.3429 0.14744-0.76199 0-0.83058-0.47724-1.3564-0.48112-0.5334-1.2183-0.5334zm-7.0538 1.2649q-0.18236-0.1905-0.53156-0.41148-0.3492-0.23622-0.83032-0.43815-0.4656-0.19812-1.0398-0.32385-0.55484-0.12573-1.1446-0.12573-1.3114 0-1.94 0.4572-0.60528 0.47625-0.60528 1.3106 0 0.46862 0.18624 0.77723 0.20176 0.28575 0.60528 0.52197 0.4074 0.21717 1.0166 0.39624 0.60916 0.16383 1.4201 0.36576 0.99716 0.2286 1.7848 0.52197 0.8148 0.29337 1.3696 0.70865 0.55484 0.4191 0.8536 1.0287 0.3104 0.59817 0.3104 1.4668 0 0.97917-0.388 1.684-0.3686 0.70865-1.036 1.162-0.64408 0.43434-1.5132 0.6477-0.86524 0.20193-1.8624 0.20193-1.4938 0-2.8945-0.43434-1.3852-0.4572-2.5104-1.2954l0.93896-1.745q0.2328 0.23622 0.679 0.52578 0.4656 0.29337 1.0476 0.54864 0.61304 0.23622 1.3192 0.4191 0.6984 0.16002 1.455 0.16002 1.2183 0 1.8818-0.4191 0.6596-0.4191 0.6596-1.2306 0-0.48767-0.25608-0.81533-0.24056-0.33147-0.6984-0.5715-0.4656-0.25146-1.1252-0.4572-0.67124-0.1905-1.5132-0.40767-0.98164-0.25527-1.7227-0.52578-0.7178-0.28956-1.2028-0.68579-0.47336-0.40386-0.7372-0.92964-0.2328-0.5334-0.2328-1.2954 0-0.94487 0.36472-1.6688 0.37248-0.74295 0.99716-1.2344 0.64796-0.51054 1.5132-0.762 0.86912-0.25527 1.8818-0.25527 1.3308 0 2.456 0.4191t1.9788 1.0287zm-10.942-1.2268h-4.3456v11.068h-2.0874v-11.068h-4.3727v-1.7907h10.81zm-12.804 0h-4.3456v11.068h-2.0874v-11.068h-4.3727v-1.7907h10.81zm-16.071 11.068v-12.863h2.068v12.863zm-12.948 0v-12.863h5.5096q0.8924 0 1.6296 0.36195 0.74884 0.36195 1.2804 0.96012 0.5432 0.57912 0.8342 1.3411 0.3104 0.74295 0.3104 1.524 0 0.81153-0.29488 1.5735-0.2716 0.73532-0.7954 1.3335-0.51604 0.57912-1.2532 0.94107-0.7178 0.3429-1.6024 0.3429h-3.5463v4.4767zm2.0758-6.2674h3.4144q0.44232 0 0.79152-0.18288 0.36472-0.17906 0.6208-0.50672 0.25996-0.32766 0.4074-0.762t0.14744-0.96012q0-0.54101-0.16296-0.97916-0.16296-0.43434-0.4656-0.74295-0.28712-0.32385-0.67512-0.48768-0.3686-0.17907-0.776-0.17907h-3.298z" fill="#ffb612" stroke="#101820" stroke-width=".39503"/><g stroke-width=".99536"><path d="m0.63303 114.59v0.8001l50.13-8e-5v-0.80002z" color="#000000" color-rendering="auto" dominant-baseline="auto" image-rendering="auto" shape-rendering="auto" solid-color="#000000" style="font-feature-settings:normal;font-variant-alternates:normal;font-variant-caps:normal;font-variant-ligatures:normal;font-variant-numeric:normal;font-variant-position:normal;isolation:auto;mix-blend-mode:normal;shape-padding:0;text-decoration-color:#000000;text-decoration-line:none;text-decoration-style:solid;text-indent:0;text-orientation:mixed;text-transform:none;white-space:normal"/><path d="m76.996 114.59v0.8001l50.13-8e-5v-0.80002z" color="#000000" color-rendering="auto" dominant-baseline="auto" image-rendering="auto" shape-rendering="auto" solid-color="#000000" style="font-feature-settings:normal;font-variant-alternates:normal;font-variant-caps:normal;font-variant-ligatures:normal;font-variant-numeric:normal;font-variant-position:normal;isolation:auto;mix-blend-mode:normal;shape-padding:0;text-decoration-color:#000000;text-decoration-line:none;text-decoration-style:solid;text-indent:0;text-orientation:mixed;text-transform:none;white-space:normal"/><path d="m76.357 113.77h-1.1139v2.884h-0.53337v-2.884h-1.1187v-0.46728h2.766zm-6.5016 1.1848q0-0.30209 0.10856-0.59946 0.10856-0.30208 0.31624-0.53809 0.2124-0.24072 0.51449-0.38704t0.68441-0.14632q0.45785 0 0.78353 0.20296t0.49089 0.52865l-0.41537 0.27848q-0.0708-0.15104-0.16992-0.25488t-0.21712-0.1652q-0.118-0.0614-0.24544-0.085-0.12744-0.0283-0.24544-0.0283-0.26432 0-0.46257 0.10856-0.19824 0.10384-0.33513 0.27848-0.13216 0.17465-0.20296 0.39177-0.06608 0.21712-0.06608 0.43425 0 0.24544 0.08024 0.46729 0.08024 0.22184 0.22184 0.39176 0.14632 0.16992 0.34457 0.27377 0.19824 0.0991 0.43425 0.0991 0.12272 0 0.25016-0.0283 0.13216-0.033 0.25016-0.0991 0.12272-0.0708 0.22184-0.17465 0.10384-0.10384 0.16992-0.25016l0.43897 0.25016q-0.08024 0.18881-0.22656 0.33513-0.14632 0.1416-0.3304 0.24072-0.18408 0.0991-0.39177 0.15105-0.20296 0.0519-0.40121 0.0519-0.35401 0-0.64665-0.15105-0.29264-0.15104-0.50505-0.39176-0.2124-0.24545-0.33041-0.55225-0.118-0.31153-0.118-0.63249zm-1.7093 1.6992v-3.3512h0.52865v3.3512zm-3.7563 0v-3.3512h1.4585q0.22656 0 0.41537 0.0944 0.19352 0.0944 0.3304 0.25016 0.13688 0.15104 0.2124 0.34929 0.08024 0.19352 0.08024 0.39648 0 0.16993-0.0472 0.32569t-0.13216 0.28792q-0.08496 0.13217-0.20768 0.23129-0.12272 0.0944-0.26904 0.1416l0.78825 1.2744h-0.59945l-0.72689-1.1659h-0.77409v1.1659zm0.52865-1.6331h0.92514q0.11328 0 0.20296-0.0472 0.0944-0.0519 0.16048-0.13689 0.06608-0.0897 0.10384-0.20296 0.03776-0.11328 0.03776-0.24072 0-0.12745-0.0472-0.24073-0.04248-0.11328-0.118-0.19824-0.0708-0.085-0.16992-0.13216-0.0944-0.0519-0.19824-0.0519h-0.89682zm-1.6137-1.2508h-1.1139v2.884h-0.53337v-2.884h-1.1187v-0.46728h2.766zm-3.9749 0.32097q-0.0472-0.0519-0.13688-0.10856-0.0897-0.0614-0.2124-0.11328-0.11801-0.0519-0.26433-0.085-0.1416-0.033-0.29264-0.033-0.33513 0-0.49561 0.12272-0.15576 0.12272-0.15576 0.33984 0 0.12273 0.0472 0.20297 0.0519 0.0755 0.15576 0.13688 0.10384 0.0566 0.2596 0.10384 0.15577 0.0425 0.36345 0.0944 0.25488 0.0614 0.45785 0.13688 0.20768 0.0755 0.34928 0.18409 0.14161 0.10856 0.21713 0.26904 0.0802 0.15576 0.0802 0.38233 0 0.25488-0.0991 0.43897-0.0944 0.18408-0.26433 0.30208-0.1652 0.11328-0.38704 0.16992-0.22185 0.0519-0.47673 0.0519-0.38233 0-0.74105-0.11328-0.35401-0.118-0.64194-0.33984l0.24073-0.45313q0.0614 0.0614 0.17464 0.13688 0.118 0.0755 0.26905 0.1416 0.15576 0.0614 0.33512 0.10857 0.17936 0.0425 0.37289 0.0425 0.31152 0 0.48145-0.10857 0.16992-0.10856 0.16992-0.32096 0-0.12744-0.0661-0.21241-0.0614-0.085-0.17936-0.14632-0.11801-0.0661-0.28793-0.118t-0.38705-0.10856q-0.25016-0.0661-0.43896-0.13688-0.18409-0.0755-0.30681-0.17937-0.12272-0.10384-0.1888-0.24072-0.0614-0.1416-0.0614-0.33985 0-0.24544 0.0944-0.43424 0.0944-0.19353 0.25488-0.32097 0.16521-0.13216 0.38705-0.19824 0.22184-0.0661 0.48145-0.0661 0.33984 0 0.62777 0.10856 0.28792 0.10856 0.50505 0.26904zm-3.9042 2.563v-3.3512h0.52865v3.3512zm-4.0236 0v-3.3512h1.1895q0.40592 0 0.70801 0.13216 0.30681 0.13216 0.50977 0.35872 0.20768 0.22657 0.31152 0.53337 0.10385 0.30209 0.10385 0.64665 0 0.38233-0.11801 0.69386-0.11328 0.3068-0.32568 0.52865-0.21241 0.21712-0.51449 0.33984-0.30209 0.118-0.67497 0.118zm2.2845-1.6804q0-0.26432-0.0755-0.48616-0.0708-0.22185-0.21241-0.37761-0.1416-0.16048-0.34456-0.25016-0.20297-0.0897-0.46257-0.0897h-0.66081v2.4167h0.66081q0.26432 0 0.46729-0.0897 0.20768-0.0944 0.34456-0.25489 0.1416-0.1652 0.21241-0.38704 0.0708-0.22185 0.0708-0.48145z"/></g></g><path d="m113.93 135.23h-17.88v-0.8h17.86v0.8m-2.43-5.94c0-0.05 0.04-0.1 0.1-0.1h2.07c0.06 0 0.1 0.05 0.1 0.1v0.42c0 0.05-0.04 0.1-0.1 0.1h-1.5v0.83h1.25c0.04 0 0.1 0.05 0.1 0.1v0.42c0 0.06-0.06 0.1-0.1 0.1h-1.27v0.9h1.5c0.07 0 0.1 0.04 0.1 0.1v0.4c0 0.06-0.03 0.1-0.1 0.1h-2.07c-0.05 0-0.1-0.04-0.1-0.1v-3.37m-4.05 0c0-0.05 0.06-0.1 0.1-0.1h0.48c0.06 0 0.1 0.05 0.1 0.1v1.35h1.67v-1.35c0-0.05 0.04-0.1 0.1-0.1h0.46c0.05 0 0.1 0.05 0.1 0.1v3.38c0 0.07-0.05 0.1-0.1 0.1h-0.47c-0.05 0-0.1-0.03-0.1-0.1v-1.41h-1.66v1.4c0 0.06-0.04 0.1-0.1 0.1h-0.47c-0.04 0-0.1-0.04-0.1-0.1v-3.37m-2.2 0.5h-0.77c-0.06 0-0.1-0.03-0.1-0.08v-0.42c0-0.05 0.04-0.1 0.1-0.1h2.23c0.06 0 0.1 0.05 0.1 0.1v0.42c0 0.05-0.04 0.1-0.1 0.1h-0.78v2.86c0 0.07-0.05 0.1-0.1 0.1h-0.47c-0.03 0-0.1-0.03-0.1-0.1v-2.85m-4.72-0.5c0-0.06 0.04-0.1 0.1-0.1h2.07c0.06 0 0.1 0.04 0.1 0.1v0.4c0 0.06-0.04 0.1-0.1 0.1h-1.5v0.96h1.25c0.04 0 0.1 0.06 0.1 0.1v0.43c0 0.05-0.06 0.1-0.1 0.1h-1.27v1.3c0 0.04-0.04 0.08-0.1 0.08h-0.46c-0.06 0-0.1-0.03-0.1-0.1v-3.36m-2.63 2.86c0.64 0 1.17-0.53 1.17-1.18 0-0.64-0.5-1.18-1.15-1.18s-1.17 0.54-1.17 1.18c0 0.65 0.52 1.17 1.17 1.17zm0-3.02c1.02 0 1.83 0.82 1.83 1.84s-0.8 1.83-1.83 1.83c-1.02 0-1.84-0.8-1.84-1.83 0-1.02 0.82-1.84 1.84-1.84m20.1 14.64c0-0.22 0.16-0.4 0.4-0.4h8.54c0.23 0 0.4 0.18 0.4 0.4v0.63c0 0.2-0.17 0.4-0.4 0.4h-7.3v5.3h6.23c0.24 0 0.44 0.2 0.44 0.4v0.64c0 0.22-0.2 0.4-0.42 0.4h-6.2v5.52h7.28c0.23 0 0.4 0.2 0.4 0.4v0.64c0 0.2-0.17 0.4-0.4 0.4h-8.54c-0.24 0-0.4-0.2-0.4-0.4v-14.38m-19.17-0.23c0-0.22 0.2-0.4 0.4-0.4h0.54l9.78 12.2h0.04v-11.57c0-0.22 0.17-0.4 0.4-0.4h0.77c0.23 0 0.42 0.18 0.42 0.4v14.58c0 0.22-0.2 0.4-0.4 0.4h-0.4l-9.95-12.42h-0.02v11.8c0 0.2-0.17 0.4-0.4 0.4h-0.78c-0.2 0-0.4-0.2-0.4-0.4v-14.6m-15.2 0.24c0-0.22 0.16-0.4 0.4-0.4h8.54c0.25 0 0.42 0.18 0.42 0.4v0.63c0 0.2-0.17 0.4-0.4 0.4h-7.36v5.3h6.23c0.2 0 0.4 0.2 0.4 0.4v0.64c0 0.23-0.2 0.4-0.4 0.4h-6.23v5.53h7.3c0.24 0 0.4 0.2 0.4 0.4v0.64c0 0.2-0.16 0.4-0.4 0.4h-8.54c-0.24 0-0.4-0.2-0.4-0.4v-14.34m-10.8 7.4c1.67 0 3.12-1.4 3.12-3.18 0-1.65-1.46-3.06-3.13-3.06h-4.2v6.2zm-5.92-7.4c0-0.23 0.18-0.4 0.4-0.4h5.63c2.6 0 4.72 2.02 4.72 4.6 0 2-1.33 3.66-3.2 4.42l2.95 5.5c0.15 0.28 0 0.63-0.36 0.63h-1.1c-0.2 0-0.3-0.1-0.37-0.2l-2.88-5.74h-4.13v5.54c0 0.2-0.2 0.4-0.4 0.4h-0.85c-0.23 0-0.4-0.2-0.4-0.4v-14.35m-8.54 9.6c-1.06-2.37-2.1-4.76-3.16-7.1h-0.17l-3.17 7.1zm-10.3 4.6 6.6-14.6c0.06-0.13 0.17-0.24 0.37-0.24h0.22c0.2 0 0.3 0.1 0.36 0.23l6.55 14.57c0.15 0.3-0.03 0.58-0.35 0.58h-0.87c-0.2 0-0.32-0.13-0.37-0.24l-1.6-3.57h-7.72l-1.57 3.57c-0.05 0.1-0.18 0.25-0.37 0.25h-0.87c-0.34 0-0.5-0.28-0.4-0.57m-13.42-0.22 7.85-12.8v-0.06h-6.82c-0.2 0-0.4-0.2-0.4-0.4v-0.7c0-0.22 0.2-0.4 0.4-0.4h8.78c0.22 0 0.42 0.18 0.42 0.4v0.28l-8 12.94v0.02h7.15c0.24 0 0.4 0.2 0.4 0.4v0.7c0 0.22-0.16 0.42-0.4 0.42h-8.95c-0.22 0-0.4-0.2-0.4-0.4v-0.4m-7-4.36c-1.05-2.36-2.1-4.75-3.15-7.1h-0.18l-3.16 7.1zm-10.28 4.6 6.6-14.6c0.05-0.12 0.16-0.23 0.35-0.23h0.22c0.2 0 0.3 0.1 0.35 0.23l6.54 14.58c0.12 0.3-0.05 0.58-0.38 0.58h-0.86c-0.2 0-0.33-0.13-0.37-0.24l-1.6-3.58h-7.7l-1.6 3.58c-0.03 0.1-0.16 0.24-0.36 0.24h-0.86c-0.34 0-0.5-0.28-0.38-0.57m-17.03-14.39c0-0.22 0.2-0.4 0.4-0.4h0.56l9.77 12.2h0.04v-11.6c0-0.22 0.2-0.4 0.43-0.4h0.76c0.2 0 0.4 0.18 0.4 0.4v14.58c0 0.22-0.2 0.4-0.4 0.4h-0.4l-9.94-12.42h-0.03v11.8c0 0.2-0.17 0.4-0.4 0.4h-0.8c-0.2 0-0.4-0.2-0.4-0.4v-14.6m80.63-18.8c0-0.15 0.15-0.3 0.3-0.3h0.66c0.18 0 0.3 0.15 0.3 0.3v4.84h6.72v-4.83c0-0.17 0.13-0.32 0.32-0.32h0.64c0.17 0 0.32 0.15 0.32 0.3v10.95c0 0.17-0.15 0.32-0.3 0.32h-0.65c-0.2 0-0.32-0.15-0.32-0.32v-5h-6.7v5c0 0.17-0.14 0.32-0.32 0.32h-0.65c-0.16 0-0.3-0.15-0.3-0.32v-10.9m-8.64-0.48c1.67 0 2.88 0.57 4 1.53 0.13 0.13 0.15 0.33 0.02 0.46l-0.45 0.47c-0.1 0.17-0.24 0.15-0.4-0.02-0.87-0.74-2.04-1.24-3.16-1.24-2.6 0-4.6 2.2-4.6 4.77 0 2.55 2 4.75 4.6 4.75 1.43 0 2.28-0.57 3.15-1.23 0.16-0.15 0.3-0.13 0.4-0.06l0.5 0.44c0.12 0.1 0.1 0.33-0.03 0.45-1.12 1.1-2.55 1.6-4.02 1.6-3.3 0-5.96-2.62-5.96-5.92s2.65-5.95 5.95-5.95m-13.6 6.1c1.28 0 2.38-1.05 2.38-2.4 0-1.26-1.1-2.33-2.38-2.33h-3.2v4.73zm-4.5-5.63c0-0.17 0.12-0.32 0.3-0.32h4.3c1.97 0 3.6 1.55 3.6 3.52 0 1.52-1.02 2.8-2.46 3.37l2.26 4.2c0.1 0.2 0 0.47-0.28 0.47h-0.85c-0.15 0-0.23-0.1-0.26-0.15l-2.2-4.38h-3.15v4.2c0 0.18-0.14 0.33-0.3 0.33h-0.65c-0.2 0-0.32-0.15-0.32-0.32v-10.96m-14.04 0c0-0.17 0.12-0.32 0.3-0.32h0.62c0.18 0 0.3 0.15 0.3 0.3v6.9c0 1.9 1.2 3.36 3.12 3.36 1.95 0 3.14-1.44 3.14-3.32v-6.93c0-0.18 0.12-0.33 0.3-0.33h0.63c0.17 0 0.3 0.15 0.3 0.3v7c0 2.52-1.76 4.43-4.37 4.43-2.6 0-4.36-1.9-4.36-4.42v-7m-14.56 0c0-0.15 0.16-0.3 0.33-0.3h0.64c0.18 0 0.32 0.15 0.32 0.3v4.84h6.7v-4.83c0-0.18 0.13-0.33 0.3-0.33h0.65c0.17 0 0.32 0.15 0.32 0.3v10.95c0 0.17-0.15 0.32-0.32 0.32h-0.64c-0.17 0-0.3-0.15-0.3-0.32v-5h-6.7v5c0 0.17-0.15 0.32-0.33 0.32h-0.64c-0.17 0-0.32-0.15-0.32-0.32v-10.9m-8.6-0.48c1.66 0 2.86 0.57 4 1.53 0.12 0.13 0.13 0.33 0 0.46l-0.44 0.47c-0.15 0.17-0.28 0.15-0.44-0.02-0.86-0.74-2.04-1.24-3.16-1.24-2.6 0-4.6 2.2-4.6 4.77 0 2.55 2 4.75 4.6 4.75 1.44 0 2.28-0.57 3.16-1.23 0.16-0.15 0.3-0.13 0.4-0.06l0.5 0.44c0.12 0.1 0.1 0.33-0.03 0.45-1.13 1.1-2.55 1.6-4 1.6-3.33 0-6-2.62-6-5.92s2.67-5.95 5.98-5.95" fill="#101820"/></g></g></svg>
