<svg xmlns="http://www.w3.org/2000/svg" width="1591.711" height="320" viewBox="0 0 421.14025 84.666667"><g><g fill="#101820"><g><path fill="#ffb612" stroke="#101820" stroke-width=".794" d="M421.14.24V34h-5.37V19.12h-17.03V34h-5.32V.24h5.32v14.12h17.03V.24zm-42 29.57q-4.3 4.45-9.85 4.45-3.4 0-6.3-1.38-2.9-1.43-5.04-3.8-2.14-2.38-3.38-5.52-1.2-3.14-1.2-6.56 0-3.44 1.2-6.53 1.23-3.1 3.37-5.42 2.14-2.33 5.1-3.66Q366 0 369.45 0q4.87 0 8.15 2.04 3.3 2 4.95 5.33l-4.1 2.95q-1.37-2.76-3.8-4.14-2.42-1.38-5.32-1.38-2.37 0-4.32 1.05-1.93 1-3.3 2.7-1.4 1.67-2.15 3.9-.7 2.24-.7 4.67 0 2.57.8 4.8.85 2.24 2.28 3.9 1.47 1.66 3.47 2.66 1.98.95 4.3.95 2.58 0 4.9-1.18 2.4-1.2 4.53-3.76v-3.64h-7.1v-3.94h11.57V34h-4.47zm-58.8 4.2V.24h14.7q2.3 0 4.2.95 1.94.93 3.32 2.5 1.38 1.52 2.14 3.52.82 1.95.82 4 0 1.7-.48 3.27-.48 1.56-1.33 2.9-.84 1.33-2.07 2.32-1.24.95-2.7 1.43l7.9 12.85h-6.03l-7.3-11.75h-7.8V34zm5.34-16.45h9.3q1.15 0 2.05-.48.95-.52 1.62-1.38.66-.9 1.04-2.06.4-1.14.4-2.43 0-1.27-.5-2.4-.42-1.15-1.2-2-.7-.87-1.7-1.34-.94-.52-2-.52h-9.02zm-30.76 11.88q2.66 0 4.42-1.04 1.76-1.07 2.8-2.73 1.1-1.7 1.53-3.85.46-2.2.46-4.47V.25h5.37v17.1q0 3.48-.8 6.57-.8 3.04-2.57 5.37-1.76 2.26-4.57 3.6-2.77 1.33-6.66 1.33-4.05 0-6.85-1.38-2.77-1.43-4.48-3.76-1.7-2.4-2.47-5.43-.76-3.04-.76-6.32V.25h5.3v17.1q0 2.34.44 4.5.47 2.16 1.52 3.88 1.1 1.66 2.85 2.7 1.82 1 4.44 1zM271.5 25.3q0 2.04-.86 3.66-.8 1.62-2.24 2.76-1.37 1.1-3.28 1.7-1.9.58-4.04.58h-16.12V.24h17.4q1.77 0 3.2.76 1.42.76 2.42 2 1 1.18 1.52 2.75.57 1.53.57 3.1 0 2.47-1.3 4.65-1.23 2.14-3.56 3.2 2.9.85 4.57 3.13 1.72 2.23 1.72 5.47zm-5.47-1q0-1.05-.38-2-.34-.95-.95-1.66-.57-.72-1.43-1.14-.87-.43-1.87-.43h-11.1V29.4h10.8q1.05 0 1.95-.4.9-.42 1.57-1.1.67-.7 1.05-1.6.38-.96.38-2zM250.3 4.85v9.94h9.8q1 0 1.8-.4.87-.38 1.48-1 .67-.67 1-1.57.38-.9.38-2 0-2.18-1.23-3.56-1.24-1.43-3.14-1.43zm-18.16 3.33q-.48-.52-1.38-1.1-.9-.6-2.14-1.14-1.2-.52-2.66-.85-1.43-.35-2.95-.35-3.36 0-4.97 1.23-1.57 1.23-1.57 3.42 0 1.23.47 2.04.53.76 1.57 1.38 1.04.57 2.6 1.04 1.58.43 3.67.96 2.57.6 4.6 1.37 2.1.77 3.53 1.86 1.43 1.1 2.2 2.7.8 1.58.8 3.86 0 2.57-1 4.42-.95 1.86-2.67 3.05-1.66 1.13-3.9 1.7-2.23.52-4.8.52-3.85 0-7.46-1.14-3.57-1.2-6.47-3.43l2.43-4.57q.6.62 1.76 1.38 1.16.76 2.7 1.43 1.55.62 3.36 1.1 1.8.42 3.76.42 3.14 0 4.85-1.1 1.7-1.1 1.7-3.23 0-1.3-.66-2.15-.6-.85-1.8-1.47-1.2-.68-2.9-1.2-1.7-.52-3.9-1.1-2.5-.66-4.4-1.37-1.87-.75-3.1-1.8-1.24-1.05-1.9-2.43-.63-1.43-.63-3.43 0-2.47.96-4.37.95-1.95 2.56-3.24 1.66-1.33 3.9-2 2.23-.66 4.84-.66 3.43 0 6.33 1.1t5.08 2.7zm-28.2-3.23h-11.22V34h-5.37V4.95h-11.27V.25h27.86zm-33 0h-11.22V34h-5.37V4.95h-11.27V.25h27.86zM129.52 34V.24h5.32V34zm-33.38 0V.24h14.17q2.3 0 4.2.95 1.96.93 3.34 2.5 1.38 1.52 2.14 3.52.8 1.95.8 4 0 2.13-.75 4.13-.72 1.95-2.05 3.52-1.33 1.52-3.23 2.47-1.86.9-4.14.9h-9.12V34zm5.33-16.45h8.8q1.14 0 2.04-.48.97-.47 1.64-1.33.66-.86 1.04-2 .4-1.14.4-2.52 0-1.42-.44-2.57-.43-1.14-1.2-1.95-.75-.85-1.75-1.28-.96-.47-2-.47h-8.5z"/><path fill="#ffb612" stroke="#101820" stroke-width=".265" d="M285.88 46.46h-2.76v7.1h-1.02v-7.1h-2.77v-.9h6.55zm-14.83 3.05q0-.7.25-1.4.26-.74.75-1.3.5-.58 1.2-.93.72-.35 1.62-.35 1.07 0 1.84.5.8.48 1.16 1.26l-.8.52q-.18-.38-.44-.64-.24-.26-.55-.42-.3-.16-.6-.22-.32-.07-.63-.07-.66 0-1.18.28-.5.28-.86.73-.35.44-.53 1-.17.56-.17 1.12 0 .64.2 1.2.22.58.6 1.02.36.44.87.7.5.26 1.1.26.32 0 .65-.08.34-.08.64-.25.3-.18.57-.44.28-.28.45-.65l.85.46q-.2.46-.55.8-.33.35-.77.6-.42.22-.9.35-.5.12-.96.12-.8 0-1.5-.36-.7-.35-1.2-.93-.5-.58-.78-1.32-.27-.74-.27-1.5zm-3.24 4.08v-8h1.03v8zm-8.23 0v-8H263q.53 0 .97.2.45.23.77.6.32.36.5.83.18.46.18.93 0 .42-.12.8-.1.4-.34.7-.2.33-.53.56-.3.2-.7.3l1.95 3.08h-1.15l-1.83-2.88h-2.12v2.87zm1.02-3.78h2.4q.32 0 .57-.14.26-.14.44-.36.2-.24.3-.55.1-.3.1-.63 0-.34-.12-.63-.1-.33-.3-.55-.2-.24-.48-.36-.27-.15-.56-.15h-2.36zm-3-3.34h-2.77v7.1h-1v-7.1h-2.78v-.9h6.55zm-8.8.78q-.12-.16-.35-.3-.22-.15-.5-.26-.3-.13-.63-.2-.3-.07-.68-.07-.93 0-1.37.37-.43.35-.43.95 0 .34.12.56.13.2.4.37.26.15.65.26.4.1.94.24.62.13 1.12.3.5.18.85.44.38.26.56.63.2.4.2.93 0 .57-.24 1-.2.42-.6.7-.4.27-.92.4-.53.13-1.15.13-.93 0-1.77-.28-.82-.3-1.5-.85l.5-.85q.17.2.45.38.3.2.67.35.37.16.8.26.42.1.88.1.86 0 1.33-.32.48-.3.48-.9 0-.35-.15-.58-.15-.23-.44-.4-.3-.17-.75-.3-.43-.13-.98-.27-.6-.15-1.07-.3-.46-.2-.78-.43-.32-.24-.47-.57-.16-.35-.16-.83 0-.57.2-1 .22-.45.6-.76.4-.3.92-.43.53-.16 1.15-.16.8 0 1.46.26.67.25 1.18.67zm-8.46 6.33v-8h1.02v8zm-8.93 0v-8h2.8q.95 0 1.67.3.74.32 1.22.86.5.54.72 1.28.25.74.25 1.56 0 .92-.27 1.66-.27.75-.78 1.28-.5.52-1.23.8-.7.3-1.6.3zm5.64-4.02q0-.67-.2-1.24-.18-.55-.55-.96-.37-.4-.9-.63-.53-.23-1.2-.23h-1.77v6.2h1.76q.7 0 1.2-.23.55-.23.9-.65.36-.43.54-1 .2-.57.2-1.24z"/><path d="M225.8 48.95c1.9 0 3.62.14 3.62.3v.65c0 .16-1.72.3-3.6.3H99.76c-1.9 0-3.63-.14-3.63-.3v-.65c0-.16 1.72-.3 3.63-.3H225.8"/><path d="M417.53 48.95c1.9 0 3.6.14 3.6.3v.65c0 .16-1.7.3-3.6.3H291.5c-1.9 0-3.63-.14-3.63-.3v-.65c0-.16 1.72-.3 3.62-.3H417.5"/></g><path d="M253.25 73.28c.25 0 .48.14.48.3v.65c0 .16-.23.3-.48.3h-16.48c-.25 0-.48-.14-.48-.3v-.64c0-.2.2-.33.46-.33h16.48m-3.6 5.66c0-.1.07-.16.16-.16h3.24c.1 0 .15.07.15.16v.45c0 .07-.08.14-.17.14h-2.55v1.65h2.14c.08 0 .16.06.16.15v.45c0 .1-.08.15-.16.15h-2.15v1.74H253c.1 0 .16.06.16.14v.45c0 .07-.07.14-.16.14h-3.23c-.08 0-.15-.08-.15-.16v-5.36m-7.42 0c0-.1.08-.16.16-.16h.52c.1 0 .15.07.15.16v2.25H246v-2.26c0-.1.06-.16.15-.16h.52c.08 0 .15.08.15.17v5.35c0 .07-.07.14-.15.14h-.53c-.1 0-.17-.07-.17-.15v-2.34H243v2.34c0 .07-.05.14-.14.14h-.53c-.1 0-.17-.07-.17-.15v-5.37m-4.4.6h-1.3c-.1 0-.16-.07-.16-.15v-.46c0-.1.06-.16.15-.16H240c.08 0 .15.07.15.16v.45c0 .07-.07.14-.15.14h-1.32v4.76c0 .07-.07.14-.15.14H238c-.1 0-.16-.07-.16-.15V79.4m9.24-14.37c0-.08.07-.15.16-.15h3.23c.1 0 .15.07.15.15v.45c0 .1-.06.16-.15.16h-2.56v1.86h2.18c.08 0 .16.07.16.15v.46c0 .1-.08.16-.16.16h-2.16v2.14c0 .08-.06.15-.14.15h-.52c-.1 0-.16-.08-.16-.16v-5.37m-5.27 4.78c1.16 0 2.1-.93 2.1-2.1 0-1.13-.94-2.1-2.1-2.1-1.14 0-2.1.97-2.1 2.1 0 1.17.96 2.1 2.1 2.1zm0-5c1.62 0 2.92 1.3 2.92 2.9 0 1.63-1.3 2.9-2.9 2.9-1.63 0-2.92-1.27-2.92-2.9 0-1.6 1.3-2.9 2.9-2.9m167.6.95c0-.27.23-.52.52-.52h10.7c.3 0 .52.25.52.52v.78c0 .28-.22.52-.5.52h-9.14v6.63h7.8c.27 0 .5.24.5.5v.8c0 .3-.23.52-.5.52h-7.8v6.92h9.13c.3 0 .5.25.5.52v.78c0 .27-.2.5-.5.5h-10.7c-.3 0-.52-.23-.52-.5V65.9m-24-.3c0-.27.24-.5.5-.5h.7l12.24 15.27c.03 0 .03 0 .05 0V65.9c0-.27.2-.52.5-.52h.96c.26 0 .5.25.5.52v18.28c0 .27-.24.5-.5.5h-.5L387.4 69.1h-.02v14.78c0 .27-.22.5-.52.5h-.95c-.26 0-.5-.23-.5-.5V65.6m-19.07.3c0-.27.2-.52.5-.52h10.7c.3 0 .53.25.53.52v.78c0 .28-.23.52-.53.52h-9.12v6.63h7.8c.26 0 .5.24.5.5v.8c0 .3-.24.52-.5.52h-7.8v6.92h9.12c.3 0 .52.25.52.52v.77c0 .27-.23.5-.53.5h-10.7c-.3 0-.5-.23-.5-.5V65.9m-13.54 9.26c2.1 0 3.9-1.74 3.9-3.97 0-2.08-1.8-3.85-3.9-3.85h-5.27v7.8zm-7.42-9.26c0-.27.23-.52.53-.52h7.03c3.26 0 5.92 2.56 5.92 5.8 0 2.5-1.65 4.58-4.02 5.53l3.72 6.9c.2.37 0 .8-.46.8h-1.4c-.24 0-.37-.13-.43-.24l-3.6-7.2h-5.2v6.93c0 .26-.25.5-.5.5h-1.08c-.3 0-.52-.24-.52-.5v-18m-10.7 12.03c-1.33-2.96-2.64-5.95-3.97-8.9h-.2l-3.97 8.9zm-12.9 5.76l8.25-18.3c.1-.16.22-.3.46-.3h.28c.24 0 .38.13.46.3l8.2 18.3c.16.33-.05.7-.46.7h-1.1c-.23 0-.4-.18-.45-.3l-2-4.5h-9.65l-1.98 4.5c-.07.12-.23.3-.48.3h-1.08c-.4 0-.63-.37-.46-.7m-16.85-.3l9.86-16.05v-.08h-8.57c-.27 0-.52-.24-.52-.5v-.88c0-.28.26-.53.53-.53h11c.27 0 .52.25.52.52v.34l-10.03 16.2v.04h8.97c.3 0 .5.24.5.5v.88c0 .27-.2.5-.5.5h-11.26c-.27 0-.52-.23-.52-.5v-.5m-8.74-5.45c-1.34-2.95-2.65-5.94-3.98-8.9h-.2l-3.96 8.9zm-12.9 5.77l8.24-18.3c.1-.15.22-.3.46-.3h.28c.24 0 .38.15.46.3l8.2 18.3c.16.34-.05.7-.46.7h-1.1c-.23 0-.4-.17-.45-.3l-2-4.5h-9.64l-1.98 4.5c-.06.13-.22.3-.47.3h-1.07c-.4 0-.63-.36-.46-.7m-21.42-18.1c0-.27.25-.5.52-.5h.68l12.24 15.27c.02 0 .02 0 .05 0V65.9c0-.27.2-.52.5-.52h.97c.27 0 .5.25.5.52v18.28c0 .27-.23.5-.5.5h-.5L263.9 69.1h-.04v14.78c0 .27-.2.5-.5.5h-.96c-.27 0-.52-.23-.52-.5V65.6m-50.8 0c0-.26.24-.5.5-.5h1.07c.3 0 .52.24.52.5v7.94h11.02V65.6c0-.26.2-.5.5-.5h1.06c.27 0 .5.24.5.5v18c0 .26-.23.5-.5.5h-1.06c-.3 0-.5-.24-.5-.5v-8.24h-11.03v8.23c0 .25-.22.5-.52.5h-1.06c-.3 0-.54-.25-.54-.5v-18m-14.18-.8c2.74 0 4.72.96 6.57 2.54.2.22.24.54.02.76l-.74.74c-.22.27-.43.25-.7-.02-1.42-1.23-3.35-2.04-5.2-2.04-4.28 0-7.57 3.6-7.57 7.82 0 4.18 3.28 7.8 7.57 7.8 2.36 0 3.75-.96 5.18-2.04.3-.22.5-.2.67-.08l.82.73c.2.18.15.56-.04.75-1.85 1.8-4.2 2.64-6.6 2.64-5.44 0-9.8-4.33-9.8-9.76s4.36-9.8 9.8-9.8M174.5 74.88c2.1 0 3.9-1.74 3.9-3.96 0-2.06-1.8-3.82-3.9-3.82h-5.27v7.8zm-7.42-9.26c0-.26.22-.5.52-.5h7.03c3.26 0 5.93 2.55 5.93 5.78 0 2.5-1.66 4.6-4.02 5.54l3.72 6.9c.2.35 0 .8-.47.8h-1.4c-.23 0-.37-.15-.42-.26l-3.62-7.2h-5.18v6.93c0 .27-.25.5-.52.5h-1.06c-.3 0-.52-.23-.52-.5v-18m-23.1 0c0-.25.26-.5.53-.5h1.04c.3 0 .52.25.52.5v11.35c0 3.1 1.93 5.5 5.1 5.5 3.2 0 5.17-2.35 5.17-5.45V65.6c0-.26.2-.5.5-.5h1.04c.28 0 .53.24.53.5v11.5c0 4.13-2.94 7.28-7.23 7.28-4.26 0-7.17-3.15-7.17-7.28V65.6m-23.9 0c0-.26.24-.5.52-.5h1.05c.3 0 .52.24.52.5v7.94h11.02V65.6c0-.26.22-.5.5-.5h1.07c.27 0 .5.24.5.5v18c0 .26-.23.5-.5.5h-1.07c-.3 0-.5-.24-.5-.5v-8.24H122.2v8.23c0 .25-.22.5-.52.5h-1.05c-.28 0-.52-.25-.52-.5v-18m-14.17-.8c2.74 0 4.72.96 6.57 2.54.22.22.25.54.03.76l-.73.74c-.22.27-.44.25-.7-.02-1.42-1.23-3.35-2.04-5.2-2.04-4.3 0-7.58 3.6-7.58 7.82 0 4.18 3.3 7.8 7.58 7.8 2.37 0 3.75-.96 5.2-2.04.26-.22.48-.2.64-.08l.82.73c.2.18.16.56-.03.75-1.85 1.8-4.18 2.64-6.6 2.64-5.43 0-9.8-4.33-9.8-9.76s4.37-9.8 9.8-9.8"/></g><g><g transform="translate(-15.869 -186.23)"><circle cx="58.203" cy="228.563" r="41.687" fill="#fff" stroke="#101820" stroke-width="1.293"/><circle cx="58.203" cy="228.563" r="38.524" fill="none" stroke="#aca5af" stroke-width="6.467"/></g><g><g stroke="#101820" stroke-width=".794"><path fill="#c60c30" d="M71.06 59.13c.08-12.35-8.64-24.07-20.5-27.55-7.63-2.36-16.28-1.47-23.16 2.65-.52 18.76 20 33.74 37.7 27.5 2.06-.6 4.1-1.57 5.96-2.6z"/><path fill="#003087" d="M12.85 59.14c10.86 6.6 25.85 4.6 34.84-4.3 5.5-5.35 8.8-12.92 8.8-20.6-15.54-9.77-38.34-.42-42.6 17.42-.67 2.42-1.03 5-1.05 7.48z"/><path fill="#ffb612" d="M41.92 59.13c11.3-6.2 17.12-20.56 13.48-32.9-2-7.24-6.9-13.68-13.47-17.37-16.42 8.7-19.52 33.55-5.7 45.98 1.7 1.65 3.63 3.1 5.7 4.3z"/><path fill="#101820" d="M27.4 34.24c-.02 10.08 5.76 19.9 14.5 24.9 8.87-4.9 14.57-14.87 14.56-24.96-8.77-5.2-20.32-5.17-29.06.06z"/></g><path fill="#fff" d="M32.4 47.96c0 .13.1.24.24.24.13 0 .24-.1.24-.24 0-.14-.1-.24-.24-.24-.14 0-.24.1-.24.24m.04 0c0-.1.1-.2.2-.2s.2.1.2.2-.1.2-.2.2-.2-.1-.2-.2m.1.1s.02.02.03.02c.02 0 .03 0 .03 0v-.1h.05l.03.1s0 0 .02 0h.02s.02 0 0-.02c0-.02-.02-.05-.03-.08 0 0 .03-.02.03-.07 0-.04-.05-.07-.1-.07h-.08s-.02 0-.02 0zm.06-.1v-.1h.06c.03 0 .04.03.04.05 0 .03 0 .05-.04.05h-.06m2.96.36l-.03.1c0 .02-.02.03-.03.03h-.25l-.17.54c0 .03-.03.04-.05.04h-.1c-.02 0-.03 0-.03-.02l.17-.53h-.25s-.02-.02 0-.04l.02-.1s.02-.02.03-.02h.25l.08-.25s.03-.03.05-.03h.1s.03.02.03.03l-.08.25h.25s0 .03 0 .05zm-.92-.55c-.05.6-.28.95-.56 1.23-.1.1-.3.23-.3.23.07.08.88.05.96.05.03.13 0 .33-.15.78.5-.04 1.06-.52 1.2-1.1.03-.16.1-.36.12-.55.05-.32.12-.63.12-.64-.48 0-.95 0-1.42 0m16.82-.6c0-.04-.07-.1-.14-.1-.22-.06-.9-.16-1.46-.28-1.47-.35-3.33-1-4.17-.74-.73.22-1.26.97-1.42 1.2-.05.07.03.08.03.08h7.08s.04 0 .05 0c0-.02.06-.03.06-.06 0-.02 0-.1 0-.12m-18.08-.18c.3-.06 1.3-.16 2.06-.32 2.1-.44 4.85-1.22 6.06-.93 1.17.27 1.72 1.24 1.86 1.53.04.06-.05.06-.05.06h-10s-.1 0-.12-.1c0-.05-.05-.23.22-.3m8.2-8.36c.78.3 1.2-.78.7-1.4-.1-.1.07-.06.14-.03.26.13.75.4 1.04 1.1.2.44-.07 1.13-.47 1.27-.35-.18-1.15-.54-1.4-.94m2.27 6.2c.13.2 0 .48-.3.14-.1-.12-.18-.27-.1-.3.08-.03.3.04.4.17m-1.94-6.05c-1.2-.77-1.6-.75-1.43-2.3.14-.9.53-1.46.7-1.66.1-.1.1 0 .1 0-1.37 3 .67 4.02.63 3.96m-6.53-2.56c0-.65.6-1.8.6-1.42 0 .4-.8 2.95 3.66 5.85.05.03.07.1.03.1-1.8 0-2.77-.7-3.4-1.2-.7-.58-.97-1.2-1.05-1.45-.05-.13.03-.1.04-.07.35.53 1.32 1.6 2.1 1.8 0 0-2.03-1.54-2-3.6m5.68-2.24c-1.38 2.03-.58 3.5-.46 3.68.54.88 1.85 1.35 3.6 2.72.2.13 1.7 1.6 1.65 3.15 0 .14-.03.24 0 .23.4-.1 1.6-2 .56-3.7-.67-1.12-3.04-2.7-3.05-2.7-.2-.12.65.06 1.3.38 1.2.6 5.6 3.25 1.13 7.23-.7.63-1.87 2-2.1 2.2-.02.04-.03 0-.04 0-.24-.4-.12-2-2.77-2-1.36 0-3.3.06-5-.6-3.06-1.2-2.9-3.65-2.66-4.65.25-1.37 1.42-1.8 1.4-1.7-.1.54-.7 2.37.04 3.73 1.5 3.1 5.3 1.94 7.5 2.7 1.6.54 1.5 1.42 1.65 1.7.06.1.56-.63.88-1.25.4-.8.36-2.1-.2-3.1-.23-.45-1-1.24-3-2.46-4.16-2.5-.7-5.72-.43-5.55m2.97 13.84c1.87 0 6.35 0 6.77 0 .1 0 .47 0 .55 0 .07 0 .06.4-.02.45-.08 0-5.47 0-7.3 0-.03 0-.05-.02-.06-.03-.02-.02-.02-.34 0-.37.02-.03.04-.03.07-.03m-10.92 0c.27 0 .94 0 1 0 0 0 .14 0 .17 0 .16 0 .03.38 0 .4-.02.05-.17.04-.2.04-.05 0-.7 0-1 0-.02 0-.05-.02-.06-.03 0-.03 0-.34 0-.37 0-.03.04-.04.08-.04m3.2 0c.83 0 2.36 0 3.77-.03 1.7 0 3.16 0 3.26 0 0 0 .04.03.05.06.03.07.03.26 0 .35 0 0-.03.03-.05.04-.1 0-7.12 0-7.2 0-.02 0 .07-.4.08-.44.02 0 .04-.02.07-.02"/></g></g></g></svg>